<?xml version="1.0" encoding="utf-8"?>
<!-- Generator: Adobe Illustrator 25.4.1, SVG Export Plug-In . SVG Version: 6.00 Build 0)  -->
<svg version="1.1" id="Layer_1" xmlns="http://www.w3.org/2000/svg" xmlns:xlink="http://www.w3.org/1999/xlink" x="0px" y="0px"
	 viewBox="0 0 811.1 287.5" style="enable-background:new 0 0 811.1 287.5;" xml:space="preserve">
<style type="text/css">
	.st0{opacity:8.000000e-02;}
	.st1{fill:url(#SVGID_1_);}
	.st2{fill:url(#SVGID_00000035503325521647115130000005410350168061491903_);}
	.st3{fill:url(#SVGID_00000103242204445135412910000006148909400795495050_);}
	.st4{fill:url(#SVGID_00000126281958690509114780000005564497510388448904_);}
	.st5{fill:url(#SVGID_00000070837790011201236540000013574501538516861878_);}
	.st6{fill:url(#SVGID_00000182526498802959672230000007653107222999065527_);}
	.st7{fill:url(#SVGID_00000021835610359647598640000004532847612148431806_);}
	.st8{fill:url(#SVGID_00000136369473332644549770000007557850331077099910_);}
	.st9{fill:#565656;}
</style>
<g class="st0">
	
		<linearGradient id="SVGID_1_" gradientUnits="userSpaceOnUse" x1="158.5841" y1="180.26" x2="285.3912" y2="180.26" gradientTransform="matrix(1 0 0 -1 0 290)">
		<stop  offset="0" style="stop-color:#FFFFFF"/>
		<stop  offset="1" style="stop-color:#000000"/>
	</linearGradient>
	<path class="st1" d="M212.2,188.2c0.1-0.8,0.1-1.6,0.1-2.4c-0.2-11.1,4.2-22.6,12.2-30.4c3.9-3.8,7.8-7.7,11.6-11.6
		c7.7-7.8,18.3-11.8,29.3-10.7c0.6,0.1,1.2,0.1,1.8,0.1c10.4,0.2,20.3-7.7,17.8-18.8c-2.5-10.9-5.7-23.5-24.5-23.2
		c-0.6,0-1.2-0.2-1.7-0.3c-11.5-1.5-22.2-7.4-30.2-15.6c-4.1-4.3-8.2-8.7-12.2-13.1c-7.5-8.5-13.4-19-15.3-30.2
		c-0.1-0.7-0.3-1.4-0.5-2.1c-1.6-5.8-5.2-11-9.5-15.3c-4-4-9-7.5-14.6-8.8c-11.1-2.5-18.3,7.6-17.9,17.6
		c0.4,12.8,11.6,23.5,24.2,25.1c0.1,0,0.3,0,0.4,0.1c10.7,1.2,20.2,7,27.5,14.8c5.7,6.2,11.2,12.5,17.1,18.6
		c7.2,7.6,13.4,17,14.6,27.6v0.1v0.1c1.2,9.8-2.1,19.2-8.9,26.5c-5.3,5.6-10.4,11.3-16,16.7c-7.8,7.6-18.5,11.7-29.3,12.1
		c-0.2,0-0.3,0-0.5,0c-13.8,0.7-26.3,11.5-26.5,25.8c-0.2,13.5,11.2,24.1,24.6,23.1C199,213.1,211,201.5,212.2,188.2L212.2,188.2z"
		/>
	
		<linearGradient id="SVGID_00000169543557738637464300000007993686023605578941_" gradientUnits="userSpaceOnUse" x1="76.5416" y1="65.7764" x2="285.2704" y2="65.7764" gradientTransform="matrix(1 0 0 -1 0 290)">
		<stop  offset="0" style="stop-color:#FFFFFF"/>
		<stop  offset="1" style="stop-color:#000000"/>
	</linearGradient>
	<path style="fill:url(#SVGID_00000169543557738637464300000007993686023605578941_);" d="M102.7,214c0.8,0.1,1.7,0.1,2.5,0.1
		c11.6-0.1,24.1,4,32.3,12.6c3.8,4,7.6,8,11.5,12c7.4,7.8,11.1,18.4,9.6,29.1c-0.1,0.6-0.1,1.2-0.2,1.8c-0.4,7.1,3.4,14.8,10.4,17.1
		c8,2.6,19.3-1.6,25.3-6.9c3.5-3.1,4.9-7.4,6.2-11.9c1.1-4.1,0.5-8,1.7-12.2c2.7-9,7.8-17.4,14.2-24.3c4-4.4,8.1-8.8,12.3-13
		c8-8.1,18.6-14,29.9-15.8c0.7-0.1,1.4-0.3,2.1-0.4c15.2-2,21.9-12.8,24.4-23.8c1-4.5,0-9.4-3.3-12.7c-3.7-3.8-9.2-5-14.3-4.7
		c-12.4,0.7-23.4,11.1-25.2,23.4c0,0.1,0,0.3-0.1,0.4c-1.3,10.5-7.4,19.8-14.6,27.2c-5.9,6-11.5,12.3-17.2,18.5
		c-7.2,7.6-16.6,13.5-27.2,14.7h-0.1h-0.1c-9.9,1.1-19.3-2.2-26.5-9.2c-5.4-5.5-10.7-11.2-16.2-16.6c-7.6-7.5-12.1-18-12.3-28.6
		c0-0.2,0-0.3,0-0.5c-0.6-14.3-13.3-25-27.2-25.3c-13-0.3-25,9.2-24,22.9C77.6,201.2,89.6,212.8,102.7,214z"/>
	
		<linearGradient id="SVGID_00000047771552570343557500000013068514300021900725_" gradientUnits="userSpaceOnUse" x1="26.7984" y1="241.7371" x2="65.7112" y2="241.7371" gradientTransform="matrix(1 0 0 -1 0 290)">
		<stop  offset="0" style="stop-color:#FFFFFF"/>
		<stop  offset="1" style="stop-color:#000000"/>
	</linearGradient>
	<path style="fill:url(#SVGID_00000047771552570343557500000013068514300021900725_);" d="M63.9,39.3c-4.5,11.6-15.1,22.2-26.6,26.6
		c-2.2,0.9-7.8,3.2-9.9,0.7c-1.9-2.3,1.7-6.4,2.9-8.1c3.7-4.9,8.2-9.3,12.6-13.7s8.8-8.9,13.7-12.6c1.7-1.3,5.8-4.8,8.1-2.8
		C67,31.5,64.8,37,63.9,39.3z"/>
	
		<linearGradient id="SVGID_00000031894836216614389220000003574768542147415937_" gradientUnits="userSpaceOnUse" x1="223.1721" y1="241.7916" x2="262.0838" y2="241.7916" gradientTransform="matrix(1 0 0 -1 0 290)">
		<stop  offset="0" style="stop-color:#FFFFFF"/>
		<stop  offset="1" style="stop-color:#000000"/>
	</linearGradient>
	<path style="fill:url(#SVGID_00000031894836216614389220000003574768542147415937_);" d="M258.6,58.5c1.2,1.6,4.9,5.8,2.9,8.1
		c-2.1,2.4-7.7,0.1-9.9-0.8C240,61.3,229.5,50.6,225,39c-0.9-2.2-3.1-7.6-0.7-9.7c2.3-1.9,6.5,1.7,8.1,2.9
		c4.9,3.7,9.3,8.2,13.7,12.6C250.4,49.2,254.9,53.6,258.6,58.5z"/>
	
		<linearGradient id="SVGID_00000039814978061593751120000011103038216915898773_" gradientUnits="userSpaceOnUse" x1="26.818" y1="45.4415" x2="65.7183" y2="45.4415" gradientTransform="matrix(1 0 0 -1 0 290)">
		<stop  offset="0" style="stop-color:#FFFFFF"/>
		<stop  offset="1" style="stop-color:#000000"/>
	</linearGradient>
	<path style="fill:url(#SVGID_00000039814978061593751120000011103038216915898773_);" d="M64,253.8c0.9,2.2,3.1,7.6,0.7,9.6
		c-2.3,1.9-6.4-1.6-8.1-2.9c-4.9-3.7-9.3-8.2-13.7-12.6s-8.9-8.8-12.6-13.7c-1.2-1.6-4.9-5.8-2.9-8c2.2-2.4,7.8,0,10,0.9
		C48.9,231.8,59.5,242.3,64,253.8L64,253.8z"/>
	
		<linearGradient id="SVGID_00000137113918637264297870000009841854169401095603_" gradientUnits="userSpaceOnUse" x1="223.1148" y1="45.218" x2="262.0124" y2="45.218" gradientTransform="matrix(1 0 0 -1 0 290)">
		<stop  offset="0" style="stop-color:#FFFFFF"/>
		<stop  offset="1" style="stop-color:#000000"/>
	</linearGradient>
	<path style="fill:url(#SVGID_00000137113918637264297870000009841854169401095603_);" d="M258.6,234.3c-3.7,4.9-8.2,9.3-12.6,13.7
		s-8.8,8.8-13.7,12.6c-1.6,1.2-5.8,4.9-8.1,3c-2.4-2-0.2-7.4,0.7-9.5c4.5-11.5,15.1-22.1,26.6-26.7c2.2-0.9,7.8-3.3,10-1
		C263.5,228.5,259.8,232.8,258.6,234.3z"/>
	
		<linearGradient id="SVGID_00000008115875830771480020000004322300151953104297_" gradientUnits="userSpaceOnUse" x1="3.6084" y1="106.039" x2="130.3512" y2="106.039" gradientTransform="matrix(1 0 0 -1 0 290)">
		<stop  offset="0" style="stop-color:#FFFFFF"/>
		<stop  offset="1" style="stop-color:#000000"/>
	</linearGradient>
	<path style="fill:url(#SVGID_00000008115875830771480020000004322300151953104297_);" d="M106.3,245.1c-0.2,0-0.3,0-0.5-0.1
		c-11.4-1.3-21.6-7.7-29.4-15.9c-4.6-5-9.1-10-13.8-14.8c-7.8-8-14.5-18-15.9-29.3v-0.1c0-0.2,0-0.3-0.1-0.5
		c-1.5-10.5,2-20.6,9.7-28.1c3.8-3.6,7.8-7.2,11.4-11c8.4-8.8,20.3-13.2,32.2-13.1h0.6c14.5-0.1,26.9-11.9,27.1-26.4
		c0.3-13.8-10.6-26.2-24.9-25.2c-13.8,0.9-25.6,13.6-26.6,27.2v0.6c-0.5,11.6-5,23.6-13.2,31.9c-3.8,3.8-7.7,7.6-11.7,11.3
		c-8,7.2-18.5,10.5-29.2,9.5c-0.1,0-0.3,0-0.4,0c-5.1-0.3-10.6,0.9-14.4,4.6c-3.4,3.4-4.3,8.1-3.4,12.7
		c3.1,15.7,10.5,21.7,24.7,23.8c0.3,0,0.6,0.1,0.8,0.2c11.7,2.4,22.6,8.6,31,17.1c3.8,4,7.7,8,11.4,12c7.8,8.5,14,19,16.4,30.4
		l0.3,1.2c2.8,10.6,13.1,21.5,23.9,23.9c10.9,2.4,18.3-7,17.9-17.2C130,257.2,118.6,246.8,106.3,245.1L106.3,245.1z"/>
	
		<linearGradient id="SVGID_00000030448082648678858720000015887485007394363024_" gradientUnits="userSpaceOnUse" x1="3.4278" y1="220.6926" x2="212.6495" y2="220.6926" gradientTransform="matrix(1 0 0 -1 0 290)">
		<stop  offset="0" style="stop-color:#FFFFFF"/>
		<stop  offset="1" style="stop-color:#000000"/>
	</linearGradient>
	<path style="fill:url(#SVGID_00000030448082648678858720000015887485007394363024_);" d="M186.4,81.2c-0.8-0.1-1.7-0.1-2.6-0.1
		c-12,0.3-24.3-4.4-32.5-13.3c-3.8-4.1-7.6-8.3-11.4-12.4c-7.4-8.2-11.1-18.8-9.7-29.9c0.1-0.6,0.1-1.2,0.2-1.8
		c0.4-10.2-6.8-20.3-18-17.8c-5.6,1.3-13,3.4-17,7.5c-4.2,4.3-5.6,11.2-7.1,17c-0.1,0.6-0.3,1.2-0.4,1.7c-2,11.3-8,22-15.5,30.4
		c-4,4.4-8,8.7-12.2,12.9c-8,8.1-18.6,13.9-30,15.4c-0.7,0.1-1.4,0.4-2.1,0.4c-14.5,0.1-21.9,12.2-24.3,23.2
		c-2.4,11.2,7.2,18.7,17.5,18.7c12.6,0,23.4-10.5,25.1-22.9c0-0.1,0-0.3,0.1-0.4C47.9,99.2,54,89.7,61.3,82
		c5.8-6,11.4-12.3,17.1-18.6c7.2-7.7,16.7-13.8,27.3-14.9h0.1h0.1c10-1.2,19.5,2.3,26.7,9.6c5.5,5.7,10.8,11.7,16.1,17.6
		c7.6,8.4,12.1,19.3,12.4,30.5v0.5c0.6,14.5,12.9,26,27.3,26c13.6,0,25.1-10.7,24.2-24.5C211.7,94.6,200,82.3,186.4,81.2L186.4,81.2
		z"/>
</g>
<path class="st9" d="M208.7,182.6c0.1-0.8,0.1-1.6,0.1-2.4c-0.2-11.1,4.2-22.6,12.2-30.4c3.9-3.8,7.8-7.7,11.6-11.6
	c7.7-7.8,18.3-11.8,29.3-10.7c0.6,0.1,1.2,0.1,1.8,0.1c10.4,0.2,20.3-7.7,17.8-18.8c-2.5-10.9-5.7-23.5-24.5-23.2
	c-0.6,0-1.2-0.2-1.7-0.3c-11.5-1.5-22.2-7.4-30.2-15.6c-4.1-4.3-8.2-8.7-12.2-13.1c-7.5-8.5-13.4-19-15.3-30.2
	c-0.1-0.7-0.3-1.4-0.5-2.1c-1.6-5.8-5.2-11-9.5-15.3c-4-4-9-7.5-14.6-8.8C161.8-2.1,154.6,8,155,18c0.4,12.8,11.6,23.5,24.2,25.1
	c0.1,0,0.3,0,0.4,0.1c10.7,1.2,20.2,7,27.5,14.8c5.7,6.2,11.2,12.5,17.1,18.6c7.2,7.6,13.4,17,14.6,27.6v0.1v0.1
	c1.2,9.8-2.1,19.2-8.9,26.5c-5.3,5.6-10.4,11.3-16,16.7c-7.8,7.6-18.5,11.7-29.3,12.1c-0.2,0-0.3,0-0.5,0
	c-13.8,0.7-26.3,11.5-26.5,25.8c-0.2,13.5,11.2,24.1,24.6,23.1C195.5,207.6,207.5,195.9,208.7,182.6L208.7,182.6z"/>
<path class="st9" d="M99.2,208.5c0.8,0.1,1.7,0.1,2.5,0.1c11.6-0.1,24.1,4,32.3,12.6c3.8,4,7.6,8,11.5,12
	c7.4,7.8,11.1,18.4,9.6,29.1c-0.1,0.6-0.1,1.2-0.2,1.8c-0.4,7.1,3.4,14.8,10.4,17.1c8,2.6,19.3-1.6,25.3-6.9
	c3.5-3.1,4.9-7.4,6.2-11.9c1.1-4.1,0.5-8,1.7-12.2c2.7-9,7.8-17.4,14.2-24.3c4-4.4,8.1-8.8,12.3-13c8-8.1,18.6-14,29.9-15.8
	c0.7-0.1,1.4-0.3,2.1-0.4c15.2-2,21.9-12.8,24.4-23.8c1-4.5,0-9.4-3.3-12.7c-3.7-3.8-9.2-5-14.3-4.7c-12.4,0.7-23.4,11.1-25.2,23.4
	c0,0.1,0,0.3-0.1,0.4c-1.3,10.5-7.4,19.8-14.6,27.2c-5.9,6-11.5,12.3-17.2,18.5c-7.2,7.6-16.6,13.5-27.2,14.7h-0.1h-0.1
	c-9.9,1.1-19.3-2.2-26.5-9.2c-5.4-5.5-10.7-11.2-16.2-16.6c-7.6-7.5-12.1-18-12.3-28.6c0-0.2,0-0.3,0-0.5
	c-0.6-14.3-13.3-25-27.2-25.3c-13-0.3-25,9.2-24,22.9C74.1,195.7,86,207.3,99.2,208.5z"/>
<path class="st9" d="M60.4,33.7c-4.5,11.6-15.1,22.2-26.6,26.6c-2.2,0.9-7.8,3.2-9.9,0.7c-1.9-2.3,1.7-6.4,2.9-8.1
	c3.7-4.9,8.2-9.3,12.6-13.7s8.8-8.9,13.7-12.6c1.7-1.3,5.8-4.8,8.1-2.8C63.5,26,61.2,31.5,60.4,33.7z"/>
<path class="st9" d="M255.1,53c1.2,1.6,4.9,5.8,2.9,8.1c-2.1,2.4-7.7,0.1-9.9-0.8c-11.6-4.5-22.1-15.2-26.6-26.7
	c-0.9-2.2-3.1-7.6-0.7-9.7c2.3-1.9,6.5,1.7,8.1,2.9c4.9,3.7,9.3,8.2,13.7,12.6C246.9,43.7,251.3,48.1,255.1,53z"/>
<path class="st9" d="M60.4,248.3c0.9,2.2,3.1,7.6,0.7,9.6c-2.3,1.9-6.4-1.6-8.1-2.9c-4.9-3.7-9.3-8.2-13.7-12.6s-8.9-8.8-12.6-13.7
	c-1.2-1.6-4.9-5.8-2.9-8c2.2-2.4,7.8,0,10,0.9C45.3,226.3,55.9,236.8,60.4,248.3L60.4,248.3z"/>
<path class="st9" d="M255.1,228.8c-3.7,4.9-8.2,9.3-12.6,13.7s-8.8,8.8-13.7,12.6c-1.6,1.2-5.8,4.9-8.1,3c-2.4-2-0.2-7.4,0.7-9.5
	c4.5-11.5,15.1-22.1,26.6-26.7c2.2-0.9,7.8-3.3,10-1C259.9,223,256.2,227.2,255.1,228.8z"/>
<path class="st9" d="M102.8,239.6c-0.2,0-0.3,0-0.5-0.1c-11.4-1.3-21.6-7.7-29.4-15.9c-4.6-5-9.1-10-13.8-14.8
	c-7.8-8-14.5-18-15.9-29.3v-0.1c0-0.2,0-0.3-0.1-0.5c-1.5-10.5,2-20.6,9.7-28.1c3.8-3.6,7.8-7.2,11.4-11
	c8.4-8.8,20.3-13.2,32.2-13.1H97c14.5-0.1,26.9-11.9,27.1-26.4c0.3-13.8-10.6-26.2-24.9-25.2C85.4,76,73.6,88.7,72.6,102.3v0.6
	c-0.5,11.6-5,23.6-13.2,31.9c-3.8,3.8-7.7,7.6-11.7,11.3c-8,7.2-18.5,10.5-29.2,9.5c-0.1,0-0.3,0-0.4,0c-5.1-0.3-10.6,0.9-14.4,4.6
	c-3.4,3.4-4.3,8.1-3.4,12.7c3.1,15.7,10.5,21.7,24.7,23.8c0.3,0,0.6,0.1,0.8,0.2c11.7,2.4,22.6,8.6,31,17.1c3.8,4,7.7,8,11.4,12
	c7.8,8.5,14,19,16.4,30.4l0.3,1.2c2.8,10.6,13.1,21.5,23.9,23.9c10.9,2.4,18.3-7,17.9-17.2C126.4,251.7,115,241.3,102.8,239.6
	L102.8,239.6z"/>
<path class="st9" d="M182.8,75.6c-0.8-0.1-1.7-0.1-2.6-0.1c-12,0.3-24.3-4.4-32.5-13.3c-3.8-4.1-7.6-8.3-11.4-12.4
	c-7.4-8.2-11.1-18.8-9.7-29.9c0.1-0.6,0.1-1.2,0.2-1.8c0.4-10.2-6.8-20.3-18-17.8c-5.6,1.3-13,3.4-17,7.5c-4.2,4.3-5.6,11.2-7.1,17
	c-0.1,0.6-0.3,1.2-0.4,1.7c-2,11.3-8,22-15.5,30.4c-4,4.4-8,8.7-12.2,12.9c-8,8.1-18.6,13.9-30,15.4c-0.7,0.1-1.4,0.4-2.1,0.4
	C10.2,85.8,2.7,98,0.4,108.9c-2.4,11.2,7.2,18.7,17.5,18.7c12.6,0,23.4-10.5,25.1-22.9c0-0.1,0-0.3,0.1-0.4
	c1.3-10.7,7.4-20.2,14.7-27.8c5.9-6,11.4-12.3,17.1-18.6C82,50.3,91.5,44.2,102.2,43h0.1h0.1c10-1.2,19.5,2.3,26.7,9.6
	c5.5,5.7,10.8,11.7,16.1,17.6c7.6,8.4,12.1,19.3,12.4,30.5v0.5c0.6,14.5,12.9,26,27.3,26c13.6,0,25.1-10.7,24.2-24.5
	C208.2,89.1,196.4,76.8,182.8,75.6L182.8,75.6z"/>
<g>
	<path class="st9" d="M344.3,56h23.1c18,0,29.7,9.1,29.7,29.1c0,19.5-12.3,28.8-30.5,28.8h-22.3L344.3,56z M358.3,103.5h8
		c11.1,0,16.2-5.6,16.2-18.2v-0.4c0-13.1-4.9-18.5-15.9-18.5h-8.4L358.3,103.5L358.3,103.5z"/>
	<path class="st9" d="M418.3,67.4h-13.6V56.1h13.6V67.4z M418.2,113.9H405V72.7h13.2V113.9z"/>
	<path class="st9" d="M441,79.9c1.3-4.5,4.5-7.4,11.6-7.4h1v11.9h-4.9c-6.1,0-7.7,2.7-7.7,8.9v20.6h-13.3V72.7H441V79.9z"/>
	<path class="st9" d="M457.2,93.6c0-13,8.5-21.7,21.4-21.7c13.2,0,20.8,8.2,20.8,21.8v3.2h-29.5c0.6,5.6,4.2,8.5,9.5,8.5
		s7.9-2.6,9.2-6l10.7,3.2c-2.8,7.5-8.9,12.2-20.4,12.2C465.4,114.8,457.2,106.6,457.2,93.6z M469.9,89.2h16.6c-0.3-5.5-3-8.2-8-8.2
		C473.9,81,470.6,84,469.9,89.2z"/>
	<path class="st9" d="M505.2,93.2c0-12.7,8.6-21.4,21.8-21.4c11.1,0,17,5.2,19.7,13.6l-12.2,3.2c-1-3.9-2.8-7-7.4-7
		c-5.3,0-8.5,4.4-8.5,11.3v0.5c0,7.1,2.9,11.3,8.2,11.3c5,0,7.1-2.8,8-7.4l12.2,2.9c-2.5,8.8-8.6,14.4-20.2,14.4
		C513.3,114.8,505.2,106.4,505.2,93.2L505.2,93.2z"/>
	<path class="st9" d="M566.9,113.9c-8.5-0.6-10.2-4.5-10.4-11.9V82H551v-9.3h5.5v-8l13-6.4v14.4h7.4V82h-7.5v19.4
		c0,1.8,0.9,2.6,2.7,2.7h4.5v9.7h-9.7V113.9z"/>
	<path class="st9" d="M601.4,95.1h12.8c1.3,6.7,5,9.7,13,9.7c5.9,0,9.3-2.6,9.3-7.1c0-4.3-6-5.4-13.5-7c-9.4-2.1-20.2-5.4-20.2-17.1
		c0-11.1,9.6-18.8,22.9-18.8c14.6,0,23.1,7.4,24.3,19.8h-12.6c-1-6.5-4.4-9.5-11.8-9.5c-5.5,0-8.8,2.6-8.8,6.9
		c0,4.8,6.7,5.7,14.3,7.2c9.3,1.9,19.4,5,19.4,16.8c0,11.5-8.7,18.9-23,18.9C611.5,114.9,603,106.7,601.4,95.1L601.4,95.1z"/>
	<path class="st9" d="M671.5,113.9c-8.5-0.6-10.2-4.5-10.4-11.9V82h-5.5v-9.3h5.5v-8l13-6.4v14.4h7.4V82H674v19.4
		c0,1.8,0.9,2.6,2.7,2.7h4.5v9.7h-9.7V113.9z"/>
	<path class="st9" d="M686.2,93.4c0-12.9,8.7-21.5,22.2-21.5s22.1,8.6,22.1,21.5c0,12.7-8.8,21.4-22.4,21.4
		C694.6,114.8,686.2,106.2,686.2,93.4L686.2,93.4z M717,93.8v-0.6c0-7.6-3.1-11.7-8.7-11.7c-5.5,0-8.6,4.1-8.6,11.7v0.6
		c0,7.5,3.1,11.4,8.5,11.4C713.8,105.2,717,101.2,717,93.8z"/>
	<path class="st9" d="M751.6,79.9c1.3-4.5,4.5-7.4,11.6-7.4h1v11.9h-4.9c-6.1,0-7.7,2.7-7.7,8.9v20.6h-13.3V72.7h13.3L751.6,79.9z"
		/>
	<path class="st9" d="M767.8,93.6c0-13,8.5-21.7,21.4-21.7c13.2,0,20.8,8.2,20.8,21.8v3.2h-29.5c0.6,5.6,4.2,8.5,9.5,8.5
		s7.9-2.6,9.2-6l10.7,3.2c-2.8,7.5-8.9,12.2-20.4,12.2C776,114.8,767.8,106.6,767.8,93.6z M780.5,89.2h16.6c-0.3-5.5-3-8.2-8-8.2
		C784.4,81,781.1,84,780.5,89.2z"/>
	<path class="st9" d="M344.3,144.9h34c26.4,0,43.7,13.3,43.7,42.8c0,28.7-18.1,42.3-44.9,42.3h-32.8L344.3,144.9z M364.9,214.7h11.8
		c16.3,0,23.8-8.2,23.8-26.8v-0.6c0-19.2-7.2-27.2-23.3-27.2h-12.3V214.7z"/>
	<path class="st9" d="M430.8,200.1c0-19.1,12.6-31.9,31.5-31.9c19.4,0,30.6,12,30.6,32v4.7h-43.4c0.9,8.2,6.2,12.4,14,12.4
		s11.7-3.8,13.5-8.8l15.8,4.7c-4.1,11-13.1,17.9-30,17.9C442.8,231.3,430.8,219.2,430.8,200.1L430.8,200.1z M449.5,193.7h24.3
		c-0.5-8.1-4.4-12-11.8-12C455.2,181.7,450.4,186,449.5,193.7z"/>
	<path class="st9" d="M523.5,230H504v-86h19.5V230z"/>
	<path class="st9" d="M557.5,161.7h-20V145h20V161.7z M557.3,230h-19.5v-60.5h19.5V230z"/>
	<path class="st9" d="M599.2,208.8l12-39.3h17.7l-22.3,60.7h-17.7l-23.1-60.7H586L599.2,208.8z"/>
	<path class="st9" d="M630.6,200.1c0-19.1,12.6-31.9,31.5-31.9c19.4,0,30.6,12,30.6,32v4.7h-43.4c0.9,8.2,6.2,12.4,14,12.4
		s11.7-3.8,13.5-8.8l15.8,4.7c-4.1,11-13.1,17.9-30,17.9C642.6,231.3,630.6,219.2,630.6,200.1L630.6,200.1z M649.3,193.7h24.3
		c-0.5-8.1-4.4-12-11.8-12C655,181.7,650.2,186,649.3,193.7z"/>
	<path class="st9" d="M723.2,180c1.9-6.7,6.7-10.9,17-10.9h1.4v17.6h-7.2c-9,0-11.3,4-11.3,13.1V230h-19.6v-60.5h19.6L723.2,180
		L723.2,180z"/>
	<path class="st9" d="M760.2,239c6.2,0,8.2-0.9,11-9.2l-23.1-60.2h20.4l13.1,39.6l12.2-39.6h17.3l-22.9,66.3
		c-4.7,12.6-11.1,18.2-25.9,18.2h-9.9v-15h7.8L760.2,239z"/>
</g>
</svg>
