<svg height="122.869" viewBox="0 0 122.869 122.869" width="122.869" xmlns="http://www.w3.org/2000/svg"><path d="m114.092 2.25h-105.343a8.814 8.814 0 0 0 -8.749 8.859v105.151a8.814 8.814 0 0 0 8.749 8.859h105.343a8.838 8.838 0 0 0 8.776-8.859v-105.151a8.838 8.838 0 0 0 -8.776-8.859zm-76.957 105.316h-18.211v-58.637h18.238v58.637zm-9.106-66.645a10.559 10.559 0 1 1 10.559-10.559 10.564 10.564 0 0 1 -10.559 10.559zm77.371 66.645h-18.213v-28.523c0-6.8-.137-15.551-9.462-15.551-9.489 0-10.943 7.405-10.943 15.057v29.017h-18.21v-58.637h17.47v8.008h.247c2.441-4.608 8.392-9.462 17.251-9.462 18.43 0 21.859 12.15 21.859 27.947z" fill="#007fff" transform="translate(0 -2.25)"/></svg>