<svg enable-background="new 0 0 49.6 57" viewBox="0 0 49.6 57" xmlns="http://www.w3.org/2000/svg"><g fill="#007fff"><path d="m12.7 53.4h-2.4c-2.7 0-4.9-2.2-4.9-4.9v-10c0-2.5-.7-4.9-2.2-6.9l-1.9-2.7c-.2-.2-.2-.5 0-.8l2-3c1.3-2 2-4.3 2-6.7v-10c0-2.7 2.2-4.9 4.9-4.9h2.4c.4 0 .7.3.7.7s-.3.7-.7.7h-2.4c-1.9 0-3.5 1.6-3.5 3.5v10c0 2.7-.8 5.2-2.3 7.5l-1.8 2.6 1.6 2.3c1.8 2.2 2.6 4.9 2.6 7.7v10.1c0 1.9 1.6 3.5 3.5 3.5h2.4c.4 0 .7.3.7.7s-.3.6-.7.6z"/><path d="m40 53.4h-2.4c-.4 0-.7-.3-.7-.7s.3-.7.7-.7h2.4c1.9 0 3.5-1.6 3.5-3.5v-10c0-2.8.8-5.4 2.4-7.7l1.6-2.3-1.8-2.6c-1.5-2.2-2.3-4.8-2.3-7.5v-10c0-1.9-1.6-3.5-3.5-3.5h-2.4c-.4 0-.7-.3-.7-.7s.3-.7.7-.7h2.5c2.7 0 4.9 2.2 4.9 4.9v10c0 2.4.7 4.7 2 6.7l2 3c.2.2.2.5 0 .8l-1.9 2.7c-1.4 2-2.2 4.4-2.2 6.9v10.1c0 2.6-2.1 4.8-4.8 4.8z"/></g></svg>