<svg viewBox="0 0 360.2 97.4" xmlns="http://www.w3.org/2000/svg"><g fill="#fff"><path d="m69.4 41.7h-30.3c-.8 0-1.4.6-1.4 1.4v14.8c0 .8.6 1.4 1.4 1.4h11.8v18.4s-2.7.9-10 .9-20.7-3.2-20.7-29.7 12.6-30.1 24.4-30.1 14.6 1.8 17.4 2.7c.9.3 1.7-.6 1.7-1.4l3.4-14.3c0-.4-.1-.8-.5-1.1-1.1-.8-8.1-4.7-25.6-4.7s-41 8.6-41 49.9 23.7 47.5 43.7 47.5 26.6-7.1 26.6-7.1c.4-.2.5-.8.5-1.1v-46.2c0-.8-.6-1.4-1.4-1.4z"/><path d="m225.4 5c0-.8-.6-1.4-1.4-1.4h-17c-.8 0-1.4.6-1.4 1.4s0 32.9 0 32.9h-26.6v-32.9c0-.8-.6-1.4-1.4-1.4h-17c-.8 0-1.4.6-1.4 1.4v89.2c0 .8.6 1.4 1.4 1.4h17c.8 0 1.4-.6 1.4-1.4v-38.1h26.6s0 38.1 0 38.1c0 .8.6 1.4 1.4 1.4h17.1c.8 0 1.4-.6 1.4-1.4v-89.2z"/><path d="m101.5 16.7c0-6.1-4.9-11.1-11-11.1s-11 5-11 11.1 4.9 11.1 11 11.1 11-5 11-11.1z"/><path d="m100.3 75.3v-41.2c0-.8-.6-1.4-1.4-1.4h-17c-.8 0-1.5.8-1.5 1.6v59c0 1.7 1.1 2.2 2.5 2.2h15.3c1.7 0 2.1-.8 2.1-2.3z"/><path d="m290.1 32.9h-16.9c-.8 0-1.4.6-1.4 1.4v43.7s-4.3 3.1-10.4 3.1-7.7-2.8-7.7-8.7v-38.1c0-.8-.6-1.4-1.4-1.4h-17.2c-.8 0-1.4.6-1.4 1.4v41c0 17.7 9.9 22.1 23.5 22.1s20.1-6.2 20.1-6.2.4 3.2.6 3.6.7.8 1.2.8h10.9c.8 0 1.4-.7 1.4-1.5v-59.9c0-.8-.6-1.4-1.4-1.4z"/><path d="m336.3 30.9c-9.6 0-16.1 4.3-16.1 4.3v-30.2c0-.8-.6-1.4-1.4-1.4h-17.1c-.8 0-1.4.6-1.4 1.4v89.2c0 .8.6 1.4 1.4 1.4h11.9c.5 0 .9-.3 1.2-.8s.7-4.1.7-4.1 7 6.6 20.2 6.6 24.4-7.9 24.4-35.4-14.2-31.1-23.8-31.1zm-6.6 50.2c-5.9-.2-9.8-2.8-9.8-2.8v-28.2s3.9-2.4 8.7-2.8c6.1-.5 12 1.3 12 15.8s-2.6 18.3-10.9 18.1z"/><path d="m149.3 32.7h-12.8s0-16.9 0-16.9c0-.6-.3-1-1.1-1h-17.4c-.7 0-1 .3-1 .9v17.5s-8.7 2.1-9.3 2.3-1 .7-1 1.4v11c0 .8.6 1.4 1.4 1.4h8.9v26.4c0 19.6 13.7 21.5 23 21.5s9.3-1.4 10.1-1.7c.5-.2.8-.7.8-1.3v-12.1c0-.8-.7-1.4-1.4-1.4s-2.7.3-4.6.3c-6.3 0-8.4-2.9-8.4-6.7s0-25.1 0-25.1h12.8c.8 0 1.4-.6 1.4-1.4v-13.7c0-.8-.6-1.4-1.4-1.4z"/></g></svg>