<svg height="57.396" viewBox="0 0 47.037 57.396" width="47.037" xmlns="http://www.w3.org/2000/svg"><g fill="#007fff"><path d="m671.387 1099.748a14.084 14.084 0 1 1 14.085-14.085 14.1 14.1 0 0 1 -14.085 14.085zm0-26.576a12.492 12.492 0 1 0 12.493 12.491 12.505 12.505 0 0 0 -12.493-12.49z" transform="translate(-653.647 -1071.581)"/><path d="m691.368 1111.868h-34.568a.792.792 0 0 1 -.794-.795v-11.943a18.082 18.082 0 1 1 36.163 0v11.943a.794.794 0 0 1 -.801.795zm-33.777-1.589h32.982v-11.149a16.491 16.491 0 1 0 -32.982 0z" transform="translate(-656.002 -1054.471)"/><path d="m672.78 1099.064a12.64 12.64 0 0 1 -9-3.729.8.8 0 0 1 1.126-1.126 11.132 11.132 0 1 0 7.872-19 11.215 11.215 0 0 0 -1.634.118.8.8 0 0 1 -.23-1.575 12.726 12.726 0 1 1 1.864 25.315z" transform="translate(-642.361 -1067.906)"/><path d="m684.449 1109.942h-10.876a.794.794 0 1 1 0-1.589h10.082v-9.927a14.6 14.6 0 0 0 -14.447-14.722 14.309 14.309 0 0 0 -2.428.2.795.795 0 1 1 -.272-1.566 16.035 16.035 0 0 1 18.737 16.084v10.722a.792.792 0 0 1 -.796.798z" transform="translate(-638.207 -1052.546)"/></g></svg>