<svg enable-background="new 0 0 49.6 57" viewBox="0 0 49.6 57" xmlns="http://www.w3.org/2000/svg"><g fill="#007fff" transform="translate(453)"><path d="m-425.9 55h-21.9v-10.4c0-8.5 6.9-15.4 15.4-15.4 5.8 0 11.1 3.3 13.7 8.5.2.4.6.5 1 .3s.5-.6.3-1c-2.1-4.3-6-7.5-10.7-8.7 6.8-2.6 10.1-10.2 7.5-17s-10.2-10.1-17-7.5-10.1 10.2-7.5 17c1.4 3.6 4.2 6.3 7.8 7.6-7.2 2.1-12.1 8.7-12.1 16.2v11.1c0 .4.3.7.7.7h22.7c.4 0 .7-.3.7-.7.2-.4-.2-.7-.6-.7zm-18.5-39c0-6.4 5.2-11.7 11.7-11.7 6.4 0 11.7 5.2 11.7 11.7 0 6.4-5.2 11.7-11.7 11.7-6.4 0-11.7-5.2-11.7-11.7z"/><path d="m-406.4 41c-.3-.3-.8-.2-1 .1l-11.6 13.3-3.1-5.6c-.2-.3-.7-.5-1-.2-.3.2-.4.6-.3 1l3.6 6.5c.1.2.3.4.6.4h.1c.2 0 .4-.1.6-.3l12.2-14.1c.2-.4.2-.9-.1-1.1z"/></g></svg>