<svg width="16" height="16" viewBox="0 0 16 16" fill="none" xmlns="http://www.w3.org/2000/svg">
<g clip-path="url(#clip0_735_10)">
<path d="M7 1.414V2H2C1.73478 2 1.48043 2.10536 1.29289 2.29289C1.10536 2.48043 1 2.73478 1 3V5C1 5.26522 1.10536 5.51957 1.29289 5.70711C1.48043 5.89464 1.73478 6 2 6H7V7H2.5C2.34475 7 2.19164 7.03615 2.05279 7.10557C1.91393 7.175 1.79315 7.27581 1.7 7.4L0.725 8.7C0.660089 8.78655 0.625 8.89182 0.625 9C0.625 9.10819 0.660089 9.21345 0.725 9.3L1.7 10.6C1.79315 10.7242 1.91393 10.825 2.05279 10.8944C2.19164 10.9639 2.34475 11 2.5 11H7V16H9V11H14C14.2652 11 14.5196 10.8946 14.7071 10.7071C14.8946 10.5196 15 10.2652 15 10V8C15 7.73478 14.8946 7.48043 14.7071 7.29289C14.5196 7.10536 14.2652 7 14 7H9V6H13.5C13.6552 6 13.8084 5.96386 13.9472 5.89443C14.0861 5.825 14.2069 5.7242 14.3 5.6L15.275 4.3C15.3399 4.21345 15.375 4.10819 15.375 4C15.375 3.89182 15.3399 3.78655 15.275 3.7L14.3 2.4C14.2069 2.27581 14.0861 2.175 13.9472 2.10557C13.8084 2.03615 13.6552 2 13.5 2H9V1.414C9 1.14878 8.89464 0.894431 8.70711 0.706895C8.51957 0.519358 8.26522 0.414001 8 0.414001C7.73478 0.414001 7.48043 0.519358 7.29289 0.706895C7.10536 0.894431 7 1.14878 7 1.414ZM13.5 3L14.25 4L13.5 5H2V3H13.5ZM14 8V10H2.5L1.75 9L2.5 8H14Z" fill="url(#paint0_linear_735_10)"/>
</g>
<defs>
<linearGradient id="paint0_linear_735_10" x1="8" y1="0.414001" x2="8" y2="16" gradientUnits="userSpaceOnUse">
<stop stop-color="#008CFF"/>
<stop offset="1" stop-color="#1EFF00"/>
</linearGradient>
<clipPath id="clip0_735_10">
<rect width="16" height="16" fill="white"/>
</clipPath>
</defs>
</svg>
