<svg fill="none" height="36" viewBox="0 0 36 36" width="36" xmlns="http://www.w3.org/2000/svg"><path d="m30.375 9.5625c0 3.417-5.541 6.1875-12.375 6.1875s-12.375-2.7705-12.375-6.1875m24.75 0c0-3.417-5.541-6.1875-12.375-6.1875s-12.375 2.7705-12.375 6.1875m24.75 0v16.875c0 3.417-5.541 6.1875-12.375 6.1875s-12.375-2.7705-12.375-6.1875v-16.875m24.75 0v5.625m-24.75-5.625v5.625m24.75 0v5.625c0 3.417-5.541 6.1875-12.375 6.1875s-12.375-2.7705-12.375-6.1875v-5.625m24.75 0c0 3.417-5.541 6.1875-12.375 6.1875s-12.375-2.7705-12.375-6.1875" stroke="#fff" stroke-linecap="round" stroke-linejoin="round" stroke-width="1.5"/></svg>