<svg xmlns="http://www.w3.org/2000/svg" xmlns:xlink="http://www.w3.org/1999/xlink" width="500" height="159" viewBox="0 0 500 159">
  <defs>
    <clipPath id="clip-GE">
      <rect width="500" height="159"/>
    </clipPath>
  </defs>
  <g id="GE" clip-path="url(#clip-GE)">
    <rect width="500" height="159" fill="#fff"/>
    <g id="g10" transform="translate(179.414 8.913)">
      <g id="g12" transform="translate(5 5)">
        <path id="path14" d="M70.582,136.174A65.587,65.587,0,1,0,5,70.592a65.583,65.583,0,0,0,65.582,65.581" transform="translate(-5 -5)" fill="#fff"/>
        <path id="path16" d="M85.3,53.51c0-7.458,5.049-14.691,7.8-13.329,3.14,1.574-2.353,8.6-7.8,13.329M50.967,56.227c0-6,5.916-17.39,9.53-16.185,4.273,1.424-3.539,12.917-9.53,16.185m-6,42.886c-2.72.123-4.54-1.617-4.54-4.521,0-7.8,10.829-15.259,19.007-19.261-1.451,10.9-5.132,23.362-14.467,23.783M94.926,73.684c-6.176,0-10.9,4.543-10.9,9.991,0,4.543,2.731,8.176,6.353,8.176A2.332,2.332,0,0,0,92.935,89.5c0-2.375-3.132-2.945-2.9-6.476a4.432,4.432,0,0,1,4.532-3.887c4.355,0,6.393,4.222,6.393,8.577-.177,6.727-5.129,11.4-10.933,11.4-7.635,0-12.539-7.26-12.539-15.074,0-11.634,7.635-16.175,11.634-17.259.037,0,10.446,1.85,10.122-2.739-.15-2.018-3.151-2.795-5.319-2.878a14.891,14.891,0,0,0-4.848.774,5.954,5.954,0,0,1-2.685-3.344c7.45-5.638,12.718-11.083,12.718-17.261a5.96,5.96,0,0,0-6.363-6.176c-7.45,0-13.083,9.447-13.083,17.987a15.116,15.116,0,0,0,.375,4.176c-4.728,3.448-8.243,5.6-14.6,9.412a32.422,32.422,0,0,1,.7-5.5c2.176-2.364,5.167-5.905,5.167-8.633a2.147,2.147,0,0,0-2.187-2.364c-3.627,0-6.347,5.456-7.075,9.271-1.636,2.008-4.907,4.551-7.638,4.551a3.309,3.309,0,0,1-3.092-2.731c6.907-2.364,15.446-11.811,15.446-20.351,0-1.812-.728-5.814-6.176-5.814-8.176,0-15.072,12.178-15.072,21.614-2.915,0-4-3.084-4-5.448s.908-4.72.908-5.45a1.469,1.469,0,0,0-1.459-1.633c-2.72,0-4.356,3.633-4.356,7.812.187,5.814,4,9.458,9.083,9.814.728,3.456,3.812,6.727,7.624,6.727a11.131,11.131,0,0,0,7.271-2.54c-.177,1.269-.353,2.364-.541,3.448-8,4.187-13.813,7.091-19.082,11.814-4.168,3.82-6.532,8.9-6.532,12.9,0,5.458,3.448,10.542,10.531,10.542,8.352,0,14.718-6.719,17.81-15.99,1.448-4.355,2.029-10.7,2.4-16.523a169.146,169.146,0,0,0,16.672-10.55,7.307,7.307,0,0,0,1.812,2.176c-3.812,2-12.9,7.635-12.9,20.894,0,9.447,6.353,19.989,18.9,19.989,10.355,0,17.438-8.542,17.438-16.721,0-7.442-4.182-14.341-12.18-14.341m31.238,15.607c-.027.056-.128.131-.335.064-.161-.056-.2-.131-.2-.236a49.783,49.783,0,0,0,2.176-13.979c-.019-8.01-3.269-12.917-7.437-12.917a4.254,4.254,0,0,0-4.366,4.554c0,4.9,5.991,5.271,5.991,15.987a42.556,42.556,0,0,1-2.353,13.075c-6.73,22.706-28.168,33.249-49.051,33.249-9.635,0-16.477-1.981-18.512-2.894a.3.3,0,0,1-.094-.367c.046-.12.187-.214.27-.177a45.68,45.68,0,0,0,13.971,2.168c7.991,0,12.718-3.269,12.718-7.271a4.5,4.5,0,0,0-4.54-4.54c-4.907,0-5.279,6.176-15.813,6.176a43.285,43.285,0,0,1-13.259-2.366c-22.535-6.9-33.262-28.151-33.254-49.225A60.624,60.624,0,0,1,15.017,52.07a.288.288,0,0,1,.324-.054.242.242,0,0,1,.187.233A48.084,48.084,0,0,0,13.36,66.231c0,8,3.269,12.718,7.447,12.718a4.3,4.3,0,0,0,4.356-4.355c0-4.912-6-5.456-6-16a43.6,43.6,0,0,1,2.364-13.262C28.435,22.807,49.7,12.249,70.59,12.086a54.759,54.759,0,0,1,18.53,3.092.289.289,0,0,1,.056.319c-.078.177-.19.2-.244.185a40.549,40.549,0,0,0-13.99-2.318c-7.812-.008-12.718,3.263-12.718,7.447a4.352,4.352,0,0,0,4.54,4.356c4.907,0,5.271-5.991,15.813-5.991a43.269,43.269,0,0,1,13.251,2.356c22.717,6.9,33.053,28.342,33.249,49.059a56.889,56.889,0,0,1-2.913,18.7M70.592,8.092a62.494,62.494,0,1,0,62.49,62.5,62.488,62.488,0,0,0-62.49-62.5m0,128.082a65.587,65.587,0,1,1,65.581-65.581,65.559,65.559,0,0,1-65.581,65.581" transform="translate(-5 -5)" fill="#636363"/>
      </g>
    </g>
  </g>
</svg>
