<svg height="172.369" viewBox="0 0 172.369 172.369" width="172.369" xmlns="http://www.w3.org/2000/svg"><path d="m126.066 70.347 12.64-12.371a6.549 6.549 0 0 0 -2.931-11.088l-17.221-4.4 4.855-17.047a6.66 6.66 0 0 0 -8.153-8.156l-17.042 4.861-4.393-17.227a6.6 6.6 0 0 0 -11.085-2.932l-12.367 12.738-12.369-12.738a6.6 6.6 0 0 0 -11.082 2.933l-4.394 17.227-17.041-4.857a6.66 6.66 0 0 0 -8.153 8.156l4.855 17.047-17.221 4.4a6.548 6.548 0 0 0 -2.932 11.083l12.64 12.371-12.64 12.371a6.549 6.549 0 0 0 2.931 11.089l17.221 4.4-4.854 17.042a6.66 6.66 0 0 0 8.153 8.156l17.041-4.856 4.394 17.227a6.536 6.536 0 0 0 11.082 2.932l12.367-12.645 12.367 12.645a6.563 6.563 0 0 0 11.085-2.932l4.394-17.227 17.041 4.856a6.66 6.66 0 0 0 8.153-8.156l-4.853-17.049 17.221-4.4a6.549 6.549 0 0 0 2.931-11.088l-12.64-12.371z" fill="#08c700" transform="matrix(.966 .259 -.259 .966 36.426 0)"/><path d="m23.39 50.345-22.382-22.381a3.443 3.443 0 0 1 0-4.87l4.869-4.87a3.443 3.443 0 0 1 4.87 0l15.077 15.076 32.294-32.292a3.443 3.443 0 0 1 4.87 0l4.869 4.87a3.443 3.443 0 0 1 0 4.87l-39.6 39.6a3.443 3.443 0 0 1 -4.867-.003z" fill="#fff" transform="matrix(.9961947 -.08715574 .08715574 .9961947 49.646 63.606)"/></svg>