<svg height="51.455" viewBox="0 0 53.949 51.455" width="53.949" xmlns="http://www.w3.org/2000/svg"><g fill="#007fff"><path d="m1221.695 422.519.616 6.639a2.4 2.4 0 1 0 1.989 4.359l5.468 3.346a2.4 2.4 0 0 0 4.383.766l8.66-1.384a2.391 2.391 0 0 0 3.408.628l4.344 1.664 6.692 5.5a.833.833 0 0 0 1.312-.928l-2.573-7.1 1.109-2.055a2.4 2.4 0 0 0 2.3-4l.929-3.529a2.4 2.4 0 0 0 -.668-4.7c-.058 0-.116 0-.173.008l-1.594-3.106a2.4 2.4 0 0 0 -3.315-3.417l-10.419-6.462a2.4 2.4 0 0 0 -4.688-.587l-6.57 1.28a2.4 2.4 0 0 0 -4.119 2.409l-5.868 6.043a2.4 2.4 0 0 0 -1.22 4.627zm9.266-9.272c.034 0 .066 0 .1-.005l3.405 8.676a2.415 2.415 0 0 0 -1.034 1.06l-8.568-2.782a2.385 2.385 0 0 0 -.5-1.407l5.6-5.762a2.382 2.382 0 0 0 .996.219zm22.734 4.4-4.69 2.323a2.392 2.392 0 0 0 -1.715-.724c-.021 0-.041 0-.062 0l-3.639-8.831.038-.044 10.058 6.238a2.344 2.344 0 0 0 .01 1.035zm3.864 7.628a2.41 2.41 0 0 0 1.082 1.014l-.775 2.945c-.061 0-.122-.009-.184-.009a2.387 2.387 0 0 0 -.871.166l-5.486-5.557zm-2 5.224a2.374 2.374 0 0 0 -.277 1.031l-8.308 2.358a2.412 2.412 0 0 0 -.876-.988l1.886-8.958a2.388 2.388 0 0 0 .733-.373zm-13.124 4.112-7.97 1.275a2.4 2.4 0 0 0 -.909-1.44l2.165-8.016a2.388 2.388 0 0 0 .616-.118l6.969 6.746a2.4 2.4 0 0 0 -.868 1.557zm-12.36.483-4.639-2.838a2.39 2.39 0 0 0 -1.46-3.149l-.616-6.639a2.408 2.408 0 0 0 .956-.7l8.947 2.905a2.4 2.4 0 0 0 .863 1.274l-2.166 8.021a2.4 2.4 0 0 0 -1.881 1.132zm15.521-11.747a2.4 2.4 0 0 0 .708.486l-1.715 8.148-6.949-6.726a2.3 2.3 0 0 0 .108-.205zm1.457-2.327a.818.818 0 0 0 .177-.1c.019 0 .037-.006.056-.006a.742.742 0 1 1 -.455.162.816.816 0 0 0 .226-.051zm-11.478 3.751a.734.734 0 1 1 .734-.734.734.734 0 0 1 -.73.739zm10.1-4.9a2.393 2.393 0 0 0 -.792 1.776c0 .05 0 .1.007.149l-7.028 1.525a2.41 2.41 0 0 0 -1.114-1.372l5.139-10.691c.077 0 .154-.012.229-.023zm-5.393-9.118-4.632 9.635-3.05-7.788a2.39 2.39 0 0 0 .753-1.547l6.221-1.212a2.414 2.414 0 0 0 .714.915zm-17.813 20.626a.734.734 0 0 1 .733-.734.734.734 0 0 1 .733.734.727.727 0 0 1 -.183.479.829.829 0 0 0 -.116.108.727.727 0 0 1 -.435.146.735.735 0 0 1 -.726-.73zm9.641 5.715a.734.734 0 1 1 .734-.734.735.735 0 0 1 -.729.74zm11.966-2.169a.734.734 0 1 1 .734.734.734.734 0 0 1 -.728-.731zm7.434 2.234a.824.824 0 0 0 -.231-.135l-3.936-1.508 8.287-2.352-1.285 2.38a.832.832 0 0 0 -.05.68l1.664 4.591zm6.165-4.8a.734.734 0 1 1 .734-.734.734.734 0 0 1 -.728.738zm2.713-8.238a.734.734 0 1 1 -.734-.734.735.735 0 0 1 .74.737zm-3.054-.606-7.656-1.77c0-.033.005-.066.005-.1 0-.051 0-.1-.008-.152l4.939-2.447a2.359 2.359 0 0 0 1.834.423l1.513 2.949a2.4 2.4 0 0 0 -.62 1.101zm-1.309-7.138a.734.734 0 1 1 -.734.734.734.734 0 0 1 .74-.73zm-14.268-8.247a.732.732 0 0 1 .43 1.326.777.777 0 0 0 -.091.055.732.732 0 1 1 -.339-1.381zm-10.8 1.979a.734.734 0 1 1 -.734.734.735.735 0 0 1 .737-.73zm-8.494 9.4a.734.734 0 1 1 -.734.734.734.734 0 0 1 .737-.729z" transform="translate(-1214.417 -406.467)"/><path d="m1260.759 522.445a.834.834 0 0 0 -.577-.233h-13.045a.834.834 0 0 0 -.578.233l-5.344 5.141a.833.833 0 0 0 .577 1.433h23.734a.833.833 0 0 0 .577-1.433zm-16.9 4.908 3.612-3.475h12.373l3.613 3.475z" transform="translate(-1227.251 -477.564)"/><path d="m1237.482 525.673-.55-.786a.833.833 0 1 0 -1.365.955l.55.787a.833.833 0 1 0 1.365-.955z" transform="translate(-1223.846 -478.988)"/><path d="m1211.7 488.79a.833.833 0 1 0 -1.366.955l7.833 11.206a.833.833 0 0 0 1.366-.954z" transform="translate(-1208.348 -456.816)"/><path d="m1207.292 482.481-.353-.505a.833.833 0 1 0 -1.366.955l.353.505a.833.833 0 1 0 1.366-.955z" transform="translate(-1205.422 -452.63)"/><path d="m1341.716 484.537a.833.833 0 0 0 -1.166.171l-.36.485a.833.833 0 1 0 1.337.994l.36-.484a.833.833 0 0 0 -.171-1.166z" transform="translate(-1288.103 -454.321)"/><path d="m1318.429 493.561a.834.834 0 0 0 -1.166.171l-10.769 14.477a.833.833 0 1 0 1.337.994l10.769-14.477a.834.834 0 0 0 -.171-1.165z" transform="translate(-1267.406 -459.864)"/><path d="m1246.94 517.338a.833.833 0 0 0 1.467-.789l-.2-.375a.833.833 0 1 0 -1.468.789z" transform="translate(-1230.739 -473.586)"/><path d="m1239.015 499.079a.833.833 0 1 0 -1.469.787l2.137 3.99a.833.833 0 0 0 1.469-.787z" transform="translate(-1225.094 -463.085)"/><path d="m1297.766 503.459-2.838 5.346a.833.833 0 1 0 1.472.782l2.838-5.347a.833.833 0 0 0 -1.472-.781z" transform="translate(-1260.342 -465.773)"/></g></svg>