<svg xmlns="http://www.w3.org/2000/svg" xmlns:xlink="http://www.w3.org/1999/xlink" width="500" height="159" viewBox="0 0 500 159">
  <defs>
    <clipPath id="clip-Montefiore">
      <rect width="500" height="159"/>
    </clipPath>
  </defs>
  <g id="Montefiore" clip-path="url(#clip-Montefiore)">
    <rect width="500" height="159" fill="#fff"/>
    <g id="Group_2690" data-name="Group 2690" transform="translate(-17740.805 683.103)">
      <path id="Path_3126" data-name="Path 3126" d="M61.963,47.927c.712.274.657,1.807,0,2.08-3.12-.137-5.912-.219-8.814-.219-3.394,0-6.487,0-9.662.219-.575-.274-.849-1.67-.137-2.08l1.943-.383c2.737-.493,3.093-.985,3.093-5.912V12.153H48.25c-2.08,3.969-3.12,6.131-4.462,9.005l-6.213,12.7c-2.436,5.036-6.049,13.056-7.336,16.423a2.272,2.272,0,0,1-1.889,0c-1.232-3.914-4.325-10.949-5.967-14.589L15.952,22.006c-1.369-3.038-3.312-7.582-4.188-9.744h0c0,3.531-.3,9.142-.438,12.18,0,4.407-.274,10.812-.274,16.724,0,4.763,0,5.857,3.175,6.432l2.381.438c.493.411.493,1.807,0,2.08-2.737-.137-4.9-.219-7.582-.219s-4.9,0-7.719.219a1.615,1.615,0,0,1-.219-2.08l1.232-.164c3.476-.438,3.969-1.505,4.489-5.912s.712-9.224,1.067-16.724c.3-4.9.712-10.949.712-15.273,0-3.394-1.067-4.845-3.887-5.337L2.266,4.188c-.438-.52-.383-1.889.274-2.108C4.7,2.244,6.645,2.3,9.328,2.3s5.036,0,7.719-.219A32.3,32.3,0,0,0,20.8,13.959L28.707,30.6c.575,1.232,2.463,4.845,3.394,6.487,1.15-2.08,2.108-4.106,3.75-7.5l6.788-13.823A76.2,76.2,0,0,0,48.469,2.08c1.943.164,4.325.219,5.912.219,3.038,0,5.474,0,7.582-.219a1.286,1.286,0,0,1,.219,2.108L59.8,4.543c-3.175.493-3.887,1.67-3.887,5.474,0,10.675,0,21.35.63,32.025.219,4.817,1.013,5.255,3.339,5.611Z" transform="translate(17825.43 -633.22)" fill="#a0a0a0"/>
      <path id="Path_3127" data-name="Path 3127" d="M39.888,36.335c4.954,0,6.4-5.912,6.4-11.469,0-6.076-2.08-13.193-7.418-13.193-3.7,0-6.569,3.75-6.569,11.742,0,6.569,2.381,12.919,7.582,12.919m14.917-12.7c0,10.237-7.2,15.574-15.793,15.574s-15.219-5.146-15.219-14.7A15.355,15.355,0,0,1,39.586,8.772,14.48,14.48,0,0,1,54.805,23.635" transform="translate(17865.35 -621.628)" fill="#636363"/>
      <path id="Path_3128" data-name="Path 3128" d="M47.97,30.26c0,5.337.274,6.186,2.737,6.542l1.067.164a1.678,1.678,0,0,1,0,2.08c-2.518-.137-4.982-.219-7.637-.219s-4.763,0-7.8.219c-.575-.274-.63-1.588,0-2.08l1.588-.219c2.463-.356,2.737-1.15,2.737-6.487V19.64c0-3.23,0-4.106-1.807-5.173l-.849-.52a1.916,1.916,0,0,1,0-1.642A47.928,47.928,0,0,0,47.149,8.39a1.013,1.013,0,0,1,.931.575c-.137,1.369-.137,2.737-.137,3.339s.219.63.657.712C51.966,11.127,54.073,9.4,58.48,9.4c5.83,0,8.567,4.051,8.567,9.662V30.26c0,5.337.3,6.186,2.737,6.487l1.67.219c.493.493.438,1.807-.164,2.08-3.011-.137-5.474-.219-8.211-.219s-4.845,0-7.363.219c-.575-.274-.657-1.588-.137-2.08l1.067-.164c2.463-.356,2.737-1.2,2.737-6.542V20.3c0-3.668-1.423-6.569-5.748-6.569a5.83,5.83,0,0,0-4.763,2.244c-.958,1.286-1.013,1.943-1.013,4.626Z" transform="translate(17886.365 -622.259)" fill="#636363"/>
      <path id="Path_3129" data-name="Path 3129" d="M62.65,16.519c-1.314,0-1.4.137-1.4,2.463V30.068c0,4.544.657,8.595,5.283,8.595a5.474,5.474,0,0,0,3.449-1.314,1.122,1.122,0,0,1,.931,1.451,11.222,11.222,0,0,1-9.142,3.969c-6.843,0-8.211-3.969-8.211-9.005V19.12c0-2.518,0-2.737-1.314-2.737H49.73a1.2,1.2,0,0,1-.219-1.943A22.91,22.91,0,0,0,55.2,11.4a13.686,13.686,0,0,0,3.969-4.462A1.533,1.533,0,0,1,61.2,7.3v4.462c0,1.15,0,1.369,1.369,1.369h7.144c.438.219.575.794.575,1.505a2.3,2.3,0,0,1-.931,1.889Z" transform="translate(17909.348 -625.188)" fill="#636363"/>
      <path id="Path_3130" data-name="Path 3130" d="M72.85,18.225a7.938,7.938,0,0,0,3.531-.575,1.806,1.806,0,0,0,.712-1.505,4.462,4.462,0,0,0-4.763-4.708,7.418,7.418,0,0,0-7.062,6.213c0,.274,0,.493,1.013.493Zm-6.651,2.9c-1.369,0-1.505,0-1.505.931A10.949,10.949,0,0,0,75.642,33.744a7.472,7.472,0,0,0,6.925-3.613,1.4,1.4,0,0,1,1.588,1.15,13.029,13.029,0,0,1-12.317,7.938,13.686,13.686,0,0,1-13.9-14.425A15.246,15.246,0,0,1,73.206,8.781a10.127,10.127,0,0,1,10.949,9.744,3.065,3.065,0,0,1-.356,1.642c-.438.657-2.08.958-4.982.958Z" transform="translate(17924.631 -621.638)" fill="#636363"/>
      <path id="Path_3131" data-name="Path 3131" d="M120.411,18.223a7.773,7.773,0,0,0,3.531-.493,1.834,1.834,0,0,0,.739-1.505,4.462,4.462,0,0,0-4.763-4.708,7.418,7.418,0,0,0-7.089,6.131c0,.274.164.493,1.013.493Zm-6.624,2.9c-1.369,0-1.533,0-1.533.931A10.949,10.949,0,0,0,123.2,33.743a7.418,7.418,0,0,0,6.925-3.613,1.369,1.369,0,0,1,1.588,1.15,12.974,12.974,0,0,1-12.18,7.938A13.686,13.686,0,0,1,105.6,24.792,15.246,15.246,0,0,1,120.821,8.78a10.155,10.155,0,0,1,10.949,9.744,3.093,3.093,0,0,1-.383,1.642c-.438.657-2.08.958-4.954.958Z" transform="translate(18007.441 -621.636)" fill="#636363"/>
      <path id="Path_3132" data-name="Path 3132" d="M82.39,27.221c-1.505,0-1.505.137-1.505,2.244V43.671c0,5.337.274,6.1,2.737,6.4l2.737.3a1.505,1.505,0,0,1-.137,2.08c-3.23-.137-6.049-.219-9.443-.219-2.381,0-4.817,0-7.8.219a1.533,1.533,0,0,1,0-2.08l1.588-.219c2.463-.383,2.737-1.15,2.737-6.487V29.383c0-1.943,0-2.162-1.286-2.162H69.279a1.067,1.067,0,0,1-.219-1.67l3.093-1.588a1.67,1.67,0,0,0,1.013-1.588V21.09A32.216,32.216,0,0,1,74.7,10.771,14.014,14.014,0,0,1,88.3.67c4.982,0,8.211,2.244,8.211,5.283A3.586,3.586,0,0,1,93.01,9.4,2.409,2.409,0,0,1,90.9,8.389c-2.3-3.312-3.887-4.763-5.474-4.763-2.463,0-4.407,4.9-4.407,15.739v2.162c0,2.162,0,2.3,1.588,2.3h7.582a1.478,1.478,0,0,1,.411,1.15,2.327,2.327,0,0,1-1.013,2.244Z" transform="translate(17943.146 -635.67)" fill="#636363"/>
      <path id="Path_3133" data-name="Path 3133" d="M81.016,7.337a4.407,4.407,0,0,1,8.786,0,4.407,4.407,0,0,1-8.786,0M89.5,39.142c0,5.337.274,6.049,2.737,6.487l1.286.219a1.678,1.678,0,0,1,0,2.08c-2.737-.137-5.118-.219-7.8-.219s-4.817,0-7.555.219c-.575-.274-.657-1.588-.164-2.08l1.314-.219c2.436-.438,2.737-1.15,2.737-6.487V28.522c0-3.23,0-4.106-1.807-5.173l-.876-.52a2.026,2.026,0,0,1,0-1.642,43.246,43.246,0,0,0,9.388-3.914,1.314,1.314,0,0,1,.985.575c0,2.381-.192,5.858-.192,8.814Z" transform="translate(17958.973 -631.141)" fill="#636363"/>
      <path id="Path_3134" data-name="Path 3134" d="M100.373,36.335c4.982,0,6.432-5.912,6.432-11.469,0-6.076-2.108-13.193-7.445-13.193-3.668,0-6.542,3.75-6.542,11.742,0,6.569,2.381,12.919,7.555,12.919m14.945-12.7A14.808,14.808,0,0,1,99.662,39.209c-8.211,0-15.219-5.255-15.219-14.7A15.355,15.355,0,0,1,100.237,8.772a14.479,14.479,0,0,1,15.218,14.863" transform="translate(17970.709 -621.628)" fill="#636363"/>
      <path id="Path_3135" data-name="Path 3135" d="M100.963,19.641c0-3.23,0-4.106-1.807-5.173l-.876-.52a2.026,2.026,0,0,1,0-1.642,50.582,50.582,0,0,0,9.087-3.914,1.013,1.013,0,0,1,1.013.657c0,1.369-.137,2.6-.137,3.257s.274.849.712.849c2.244-1.588,4.626-3.75,7.062-3.75a3.64,3.64,0,0,1,3.969,3.531,3.969,3.969,0,0,1-4.024,4.188,3.613,3.613,0,0,1-1.943-.575,6.514,6.514,0,0,0-3.476-1.369c-1.67,0-2.08,1.67-2.08,5.2v9.881c0,5.337.274,6.131,2.737,6.4l2.737.3a1.505,1.505,0,0,1,0,2.08c-4.325-.137-6.788-.219-9.443-.219s-4.763,0-7.5.219a1.533,1.533,0,0,1-.164-2.08l1.314-.219c2.436-.438,2.737-1.15,2.737-6.487Z" transform="translate(17991.66 -622.26)" fill="#636363"/>
      <rect id="Rectangle_472" data-name="Rectangle 472" width="329.607" height="127.305" transform="translate(17826 -635)" fill="none"/>
    </g>
  </g>
</svg>
