<svg fill="none" height="81" viewBox="0 0 247 81" width="247" xmlns="http://www.w3.org/2000/svg"><g fill="#fff"><path d="m73.9923 17.8413h-8.5062v8.5063h8.5062z"/><path d="m73.7804 62.1587v-30.6347h-8.0522v30.6347zm53.5196.3028v-7.5074c-1.18 0-2.179-.0605-2.906-.1816-.847-.1211-1.483-.4238-1.907-.8476s-.696-1.0292-.847-1.8163c-.121-.7568-.182-1.7557-.182-2.9666v-10.7161h5.842v-6.9019h-5.842v-11.9573h-8.082v29.6358c0 2.5126.211 4.6316.635 6.3268.424 1.6649 1.151 3.0271 2.15 4.0564.998 1.0292 2.33 1.7557 3.935 2.2098 1.634.454 3.693.666 6.145.666zm46.255-.3028v-44.9531h-8.082v44.9531zm-67.959-27.6378c-2.24-2.4218-5.389-3.6326-9.3844-3.6326-1.9374 0-3.6931.3935-5.2975 1.1806-1.5741.787-2.9363 1.8768-3.9958 3.2693l-.4541.5751v-.5146-3.8747h-7.9614v30.6347h8.0219v-16.3163 1.12c0-.1816 0-.3632 0-.5448.0908-2.8758.7871-4.9948 2.119-6.3571 1.4228-1.453 3.1483-2.1795 5.1159-2.1795 2.3309 0 4.1169.7265 5.2975 2.119 1.1499 1.3925 1.7559 3.3601 1.7559 5.8727v.0605 16.1953h8.143v-17.3759c.03-4.3591-1.12-7.81-3.36-10.2317zm55.699 12.2599c0-2.2098-.393-4.2683-1.15-6.2056-.787-1.9071-1.877-3.6023-3.239-5.0554-1.393-1.453-3.057-2.5731-4.995-3.3904-1.937-.8173-4.086-1.2108-6.417-1.2108-2.21 0-4.299.4238-6.236 1.2411-1.938.8476-3.633 1.9676-5.056 3.3904-1.422 1.4228-2.573 3.118-3.39 5.0553-.848 1.9374-1.241 4.0261-1.241 6.236 0 2.2098.393 4.2985 1.18 6.2359s1.907 3.6326 3.3 5.0553c1.392 1.4228 3.118 2.5731 5.116 3.3904 1.998.8476 4.208 1.2714 6.569 1.2714 6.841 0 11.079-3.1179 13.622-6.024l-5.812-4.4196c-1.211 1.453-4.117 3.4207-7.75 3.4207-2.27 0-4.147-.5147-5.57-1.5742-1.422-1.0292-2.391-2.4822-2.906-4.2682l-.091-.2725h24.066zm-24.005-2.8152c0-2.2401 2.573-6.1451 8.113-6.1754 5.539 0 8.143 3.905 8.143 6.1451z"/><path d="m182.758 58.1629c-.152-.3633-.363-.666-.636-.9384-.272-.2725-.575-.4844-.938-.6357-.364-.1514-.757-.2422-1.151-.2422-.423 0-.787.0908-1.15.2422-.363.1513-.666.3632-.938.6357-.273.2724-.485.5751-.636.9384s-.242.7568-.242 1.1503c0 .4238.091.7871.242 1.1503.151.3633.363.666.636.9384.272.2725.575.4844.938.6357.363.1514.757.2422 1.15.2422.424 0 .787-.0908 1.151-.2422.363-.1513.666-.3632.938-.6357.273-.2724.484-.5751.636-.9384.151-.3632.242-.7568.242-1.1503s-.091-.787-.242-1.1503zm-.485 2.119c-.121.3027-.302.5752-.514.7871s-.484.3935-.787.5146-.606.1816-.969.1816c-.333 0-.666-.0605-.969-.1816-.302-.1211-.575-.3027-.787-.5146s-.393-.4844-.514-.7871-.182-.6054-.182-.9687c0-.333.061-.666.182-.9687s.302-.5751.514-.787.485-.3936.787-.5146c.303-.1211.606-.1817.969-.1817.333 0 .666.0606.969.1817.303.121.575.3027.787.5146s.393.4843.514.787c.122.3027.182.6055.182.9687.03.3633-.06.666-.182.9687zm-1.695-.7265c.242-.0303.424-.1211.575-.2725.152-.1513.243-.3632.243-.6659 0-.333-.091-.5752-.303-.7568-.182-.1816-.515-.2725-.908-.2725h-1.332v3.4207h.635v-1.3925h.455l.847 1.3925h.666zm-.333-.4844c-.091 0-.181 0-.302 0h-.455v-.9686h.455.302c.091 0 .182.0302.273.0605s.151.0908.181.1514c.031.0605.061.1513.061.2724s-.03.2119-.061.2724c-.06.0606-.121.1211-.181.1514-.091.0303-.182.0605-.273.0605z"/></g></svg>