<svg height="48.238" viewBox="0 0 47.916 48.238" width="47.916" xmlns="http://www.w3.org/2000/svg"><path d="m547.113 362.349h-10.684v-10.356a.647.647 0 0 0 -.646-.647h-11.655-.009v-.174l.009-.027v-11.129a.648.648 0 0 0 -.649-.649h-22.984a.648.648 0 0 0 -.649.649v22.984a.648.648 0 0 0 .649.649h11.005v11.977a.648.648 0 0 0 .649.649h10.684v10.684a.647.647 0 0 0 .647.647h23.633a.648.648 0 0 0 .649-.647v-23.959a.648.648 0 0 0 -.649-.651zm-11.979-9.708v9.708h-11.006v-9.708zm-33.992-11.979h21.691v10.008h-.016v2.5h.016v9.146l-21.691.041zm11.658 34.317v-11.33c0-.078-.018.066-.043 0l10.08-.046v11.376zm33.67 11.33h-22.342v-9.427h.009v-2.52h-.009v-10.717h22.338z" fill="#007fff" transform="translate(-499.846 -339.367)"/></svg>