<svg fill="none" height="88" viewBox="0 0 303 88" width="303" xmlns="http://www.w3.org/2000/svg" xmlns:xlink="http://www.w3.org/1999/xlink"><mask id="a" height="66" maskUnits="userSpaceOnUse" width="303" x="0" y="11"><path d="m0 11.0002v65.6021h302.67v-65.6021" fill="#fff"/></mask><mask id="b" height="66" maskUnits="userSpaceOnUse" width="303" x="0" y="11"><path d="m0 11.0002v65.6021h302.67v-65.6021" fill="#fff"/></mask><g fill="#fff"><path d="m117.725 13.3226v31.3933h-5.525v-24.6008h-.082l-9.867 24.6008h-3.6598l-10.1125-24.6008h-.0704v24.6008h-5.1031v-31.3933h7.9187l9.1391 23.2751h.129l9.643-23.2751z"/><path d="m128.26 44.7165h-5.362v-22.5009h5.362zm-5.925-29.0001c-.011-.8446.34-1.6424.962-2.2055.622-.5865 1.443-.9033 2.3-.8916.868-.0234 1.712.3051 2.346.9034.598.5631.938 1.3491.927 2.182.011.8212-.341 1.6189-.951 2.1703-.633.5866-1.466.8916-2.334.8799-.857.0234-1.689-.2933-2.323-.8916-.61-.5514-.95-1.3374-.938-2.1586"/><path d="m144.437 40.8685c.904-.0234 1.795-.2111 2.64-.5514.95-.3636 1.842-.8446 2.663-1.4429v4.9272c-.915.5044-1.901.8681-2.921 1.091-1.173.2581-2.382.3871-3.578.3754-3.039.1173-6.007-1.0089-8.177-3.144-2.112-2.1234-3.25-5.0328-3.144-8.0243-.118-3.2848 1.032-6.4875 3.214-8.9393 2.147-2.3463 5.185-3.5195 9.115-3.5195 1.033 0 2.053.1291 3.051.3872.856.1877 1.677.4927 2.452.8916v5.0797c-.786-.5749-1.631-1.0441-2.534-1.3843-.845-.3285-1.748-.4928-2.652-.4928-1.924-.0821-3.777.657-5.126 2.0413-1.349 1.5016-2.053 3.4725-1.948 5.4903-.117 1.9591.563 3.8714 1.877 5.3143 1.361 1.3139 3.203 2.0061 5.092 1.9005"/><path d="m165.014 21.8399c.387 0 .774.0234 1.149.0938.294.0469.587.1173.868.2229v5.3613c-.375-.2581-.797-.4458-1.231-.5749-.634-.1994-1.303-.2933-1.96-.2698-1.313 0-2.545.5983-3.331 1.6424-1.021 1.4782-1.502 3.2613-1.361 5.0562v11.356h-5.361v-22.5125h5.361v3.5428h.082c.434-1.1614 1.208-2.1585 2.217-2.8741 1.056-.7157 2.3-1.0793 3.567-1.0441z"/><path d="m172.932 33.6183c-.129 1.9357.446 3.8479 1.619 5.3847 1.185 1.2905 2.886 1.9709 4.634 1.8653 1.689.1056 3.344-.5748 4.458-1.8653 1.126-1.6072 1.666-3.5546 1.525-5.5137.141-1.9592-.422-3.9066-1.584-5.4786-1.126-1.267-2.756-1.9474-4.446-1.8536-1.748-.0938-3.425.6218-4.575 1.9357-1.185 1.5955-1.76 3.5546-1.631 5.5255zm-5.584.176c-.176-3.2613.974-6.4523 3.191-8.8455 2.37-2.2759 5.584-3.449 8.869-3.2613 3.097-.176 6.136.9619 8.353 3.144 2.088 2.3228 3.167 5.373 3.003 8.4818.164 3.2144-.985 6.3584-3.191 8.7164-2.323 2.2407-5.467 3.4139-8.693 3.2379-3.109.1642-6.147-.9502-8.411-3.0736-2.159-2.2525-3.285-5.2909-3.109-8.3997"/><path d="m198.742 28.1279c-.035.6687.235 1.3256.727 1.7831.997.6922 2.088 1.2436 3.238 1.6307 1.713.5631 3.261 1.5485 4.517 2.8625.88 1.091 1.337 2.4518 1.302 3.8361.059 2.0061-.868 3.9066-2.475 5.1032-1.948 1.3726-4.306 2.053-6.687 1.9239-1.056 0-2.1-.129-3.133-.3402-.997-.1877-1.982-.4692-2.909-.8681v-5.2087c.974.6687 2.03 1.2083 3.144 1.5954.985.3637 2.018.5631 3.062.5866.927.0587 1.842-.1173 2.686-.5044.587-.352.927-1.0089.869-1.6894 0-.7273-.329-1.4077-.904-1.8535-1.044-.7391-2.194-1.3257-3.402-1.7363-1.607-.5631-3.05-1.5133-4.211-2.7569-.857-1.1144-1.303-2.487-1.244-3.8948-.035-1.9591.88-3.8244 2.452-4.9976 1.83-1.3725 4.071-2.0647 6.347-1.9591.903 0 1.794.0938 2.686.2581.845.1408 1.678.3637 2.487.6804v5.0445c-.774-.5044-1.607-.9033-2.487-1.2083-.903-.3285-1.853-.4927-2.815-.5045-.833-.0469-1.666.1525-2.382.5866-.551.3519-.868.9737-.856 1.6189"/><g mask="url(#a)"><path d="m216.456 33.6184c-.129 1.9357.446 3.8479 1.619 5.3847 1.185 1.2905 2.886 1.9709 4.634 1.8653 1.701.1056 3.343-.5748 4.458-1.8653 1.126-1.6072 1.665-3.5546 1.525-5.5137.14-1.9592-.423-3.9066-1.584-5.4786-1.126-1.267-2.757-1.9474-4.446-1.8535-1.748-.0939-3.426.6217-4.576 1.9356-1.184 1.5955-1.759 3.5547-1.63 5.5255zm-5.584.176c-.176-3.2613.973-6.4523 3.191-8.8455 2.369-2.2759 5.584-3.449 8.868-3.2613 3.098-.176 6.136.962 8.353 3.144 2.088 2.3228 3.168 5.373 3.003 8.4818.165 3.2144-.985 6.3584-3.19 8.7165-2.323 2.2406-5.467 3.4138-8.693 3.2378-3.109.1643-6.148-.9502-8.412-3.0736-2.158-2.2524-3.285-5.2909-3.109-8.3997"/><path d="m246.876 11.0001c.575 0 1.15.0234 1.724.0938.446.0587.892.1525 1.326.2933v4.5753c-.293-.1525-.61-.2816-.927-.3754-.492-.1525-1.009-.2229-1.525-.2229-.974-.0587-1.924.3167-2.592 1.0441-.669.8798-.986 1.9708-.915 3.0736v2.7217h5.079v4.3289h-5.079v18.1719h-5.432v-18.1719h-3.813v-4.3289h3.813v-3.1323c-.071-2.182.774-4.2937 2.334-5.8188 1.619-1.5368 3.778-2.3463 5.995-2.2641"/></g><path d="m260.578 40.8685c.387-.0117.763-.0821 1.126-.2229.399-.129.786-.305 1.138-.5279v4.3758c-.539.2581-1.114.4341-1.701.5279-.774.1643-1.548.2347-2.334.2464-1.877.1408-3.719-.5045-5.092-1.7832-1.243-1.5016-1.853-3.4373-1.701-5.373v-11.5554h-3.742v-4.3406h3.742v-5.0563l5.385-1.6189v6.6752h5.432v4.3406h-5.432v10.5231c-.094 1.0323.176 2.0764.763 2.9328.645.6218 1.513.9268 2.404.8564"/><g mask="url(#b)"><path d="m82.4607 75.4644v-3.3669c.3285.2932.7039.5396 1.091.739.4341.2229.8799.4106 1.3491.5631.4693.1526.9385.2699 1.4195.352.4341.0821.8681.1173 1.3139.129 1.0793.0704 2.1586-.1642 3.1089-.6921.6687-.4341 1.0558-1.1966 1.0206-1.9944 0-.434-.1056-.8563-.3402-1.22-.2581-.3754-.5749-.6922-.9503-.9385-.4575-.3168-.9385-.5866-1.4429-.8212-.5514-.2581-1.1497-.5397-1.7715-.8212-.6804-.3637-1.3139-.7156-1.9004-1.0911-.5514-.3402-1.0676-.7508-1.5251-1.22-.4224-.4341-.7743-.9503-1.0207-1.5016-.2581-.6218-.3871-1.2905-.3754-1.9709-.0234-.8447.1995-1.6893.6335-2.4167.4224-.6804.9972-1.2552 1.6776-1.6893.7274-.4575 1.5251-.7977 2.358-.9854.8799-.2112 1.7832-.3285 2.6983-.3285 1.5602-.0939 3.1088.1525 4.5635.7039v3.2378c-1.2905-.8564-2.8273-1.2787-4.3758-1.2083-.4928 0-.9855.0469-1.4665.1408-.4575.0821-.9033.2346-1.3139.4575-.3637.1994-.6921.4693-.9385.8095-.2464.3519-.3754.7742-.3637 1.1966 0 .3988.0821.7977.2816 1.1379.2111.3402.481.6452.8095.8799.4105.2933.8446.5631 1.3139.7742.5161.2464 1.1144.528 1.7949.8212.6921.3637 1.3491.7391 1.9708 1.1263.5866.3754 1.138.8094 1.6307 1.3021.4575.4576.8329.9972 1.1145 1.5838.2815.6217.4223 1.3022.4106 1.9826.0821 1.7128-.786 3.3317-2.2642 4.2116-.739.4458-1.5485.7625-2.3932.9385-.9385.1994-1.9005.2933-2.8624.2933-.3285 0-.7391-.0235-1.2318-.0704-.4928-.047-.9855-.1291-1.5017-.2229-.4927-.0939-.9737-.2112-1.4429-.352-.3872-.1056-.7508-.2698-1.1028-.4692"/><path d="m104.469 64.3779c-1.15-.0469-2.253.4341-2.992 1.3022-.786 1.0324-1.173 2.3111-1.102 3.6016-.071 1.2552.328 2.4987 1.114 3.4842.751.8564 1.842 1.3139 2.98 1.267 1.114.0704 2.205-.3989 2.933-1.2553.739-1.0324 1.103-2.2876 1.02-3.5663.083-1.2788-.281-2.5457-1.02-3.5898-.728-.8564-1.807-1.3374-2.933-1.267m-.153 12.2241c-3.742.2581-6.9798-2.5575-7.2379-6.2998-.0234-.305-.0234-.61 0-.9033-.1173-2.053.6218-4.0591 2.053-5.549 1.5019-1.3843 3.4959-2.0999 5.5369-1.9943 1.936-.1173 3.825.5866 5.209 1.9357 1.314 1.4782 1.983 3.4138 1.865 5.3847.27 3.8362-2.616 7.1562-6.452 7.426-.328.0235-.645.0235-.974 0z"/><path d="m115.027 55.3917h3.249v20.8585h-3.249z"/><path d="m134.923 76.2501h-3.237v-2.229h-.059c-.833 1.6424-2.546 2.6396-4.376 2.5574-3.367 0-5.056-1.9943-5.056-5.9947v-8.4232h3.238v8.0947c0 2.534.985 3.801 2.968 3.801.903.0235 1.771-.3637 2.358-1.0441.645-.7625.973-1.7363.927-2.7334v-8.1064h3.237v14.0894"/><path d="m146.655 76.0979c-.786.3402-1.643.5044-2.499.4692-2.769 0-4.153-1.3139-4.153-3.93v-7.9656h-2.381v-2.4988h2.381v-3.2613l3.238-.9033v4.1646h3.414v2.4988h-3.414v7.0388c-.059.6335.106 1.267.457 1.7832.411.3989.962.5983 1.537.5397.516 0 1.021-.1526 1.42-.4693z"/><path d="m152.673 76.2501h-3.238v-14.0894h3.238zm-1.607-17.0457c-.505 0-.986-.176-1.361-.5045-.376-.3285-.575-.7977-.563-1.2904-.012-.4927.199-.9737.563-1.3022.363-.3402.856-.5279 1.361-.5279.516-.0118 1.008.1759 1.396.5279.375.3285.586.8095.574 1.3022 0 .4927-.211.9502-.574 1.267-.376.3519-.88.5396-1.396.5279z"/><path d="m163.373 64.3779c-1.15-.0469-2.253.4341-2.992 1.3022-.786 1.0324-1.173 2.3111-1.103 3.6016-.07 1.2552.329 2.4987 1.115 3.4842.751.8564 1.854 1.3139 2.98 1.267 1.114.0704 2.205-.3989 2.933-1.2553.739-1.0324 1.102-2.2876 1.02-3.5663.082-1.2788-.281-2.5457-1.02-3.5898-.728-.8564-1.807-1.3374-2.933-1.267m-.153 12.2241c-3.742.2581-6.98-2.5575-7.238-6.2998-.024-.305-.024-.61 0-.9033-.117-2.053.622-4.0591 2.053-5.549 1.502-1.3843 3.496-2.0999 5.537-1.9943 1.936-.1173 3.825.5866 5.209 1.9357 1.314 1.4782 1.983 3.4138 1.865 5.3847.27 3.8362-2.616 7.1562-6.452 7.426-.329.0235-.645.0235-.974 0z"/><path d="m186.636 76.2504h-3.238v-7.9422c0-2.6278-.939-3.9417-2.827-3.9417-.939-.0235-1.83.3754-2.44 1.091-.657.7625-.998 1.748-.962 2.7569v8.036h-3.25v-14.0894h3.238v2.3345h.058c.916-1.6893 2.71-2.7217 4.623-2.663 1.349-.0821 2.663.4692 3.554 1.4899.892 1.2552 1.326 2.7803 1.22 4.3171v8.6109"/><path d="m189.686 75.8044v-2.9563c1.138.8916 2.546 1.3608 4 1.3608 1.948 0 2.922-.5631 2.922-1.701 0-.2933-.083-.5866-.247-.8212-.187-.2464-.41-.4458-.68-.5983-.317-.1877-.657-.352-.997-.4693-.388-.1408-.822-.2933-1.291-.4693-.539-.2111-1.067-.4575-1.584-.7273-.434-.2229-.833-.5279-1.173-.8681-.305-.3168-.551-.6922-.704-1.1028-.164-.4575-.246-.9502-.234-1.4429-.012-.6335.152-1.2553.492-1.7949.329-.528.786-.9737 1.314-1.3022.575-.3637 1.209-.6335 1.866-.7978.704-.1759 1.431-.2698 2.158-.2698 1.209-.0234 2.405.176 3.543.5866v2.7921c-1.02-.6805-2.229-1.0441-3.461-1.0207-.375 0-.739.0352-1.102.1291-.294.0704-.587.1877-.845.3402-.223.129-.411.3167-.54.5279-.129.1994-.199.4341-.199.6804 0 .2698.059.5397.199.7743.141.2229.341.4223.575.5631.293.176.598.3285.915.4458.352.129.774.2815 1.232.4341.563.2229 1.115.4809 1.654.7508.458.2346.868.5279 1.244.8681.34.3167.61.7039.797 1.1262.2.481.294 1.0089.282 1.5251.012.6569-.164 1.3139-.504 1.877-.341.5397-.798.9855-1.338 1.3257-.598.3636-1.243.6217-1.924.7742-.751.176-1.525.2581-2.311.2581-1.396.0352-2.769-.2346-4.059-.7743"/><path d="m214.38 59.2163v7.2031h2.147c1.161.0821 2.323-.2699 3.249-.9738.763-.7038 1.174-1.7127 1.115-2.7568 0-2.3229-1.361-3.4843-4.094-3.4843h-2.405m-.012 9.8896v7.1562h-3.308v-19.7323h6.065c1.912-.1173 3.801.4458 5.338 1.5838 1.29 1.1145 1.994 2.7569 1.9 4.4579.059 1.7832-.668 3.496-1.982 4.7043-1.479 1.2787-3.403 1.9357-5.35 1.8301z"/><path d="m234.406 69.3286-2.991.4106c-.739.0586-1.455.2815-2.1.6687-.505.4106-.775 1.0558-.704 1.7127-.012.5632.223 1.1028.645 1.4665.493.3988 1.103.5983 1.736.5748.927.0235 1.819-.3519 2.44-1.0206.657-.7039.998-1.6307.962-2.5809v-1.2201m3.133 6.9098h-3.133v-2.2055h-.058c-.845 1.6072-2.523 2.5926-4.329 2.534-1.209.0704-2.382-.3402-3.297-1.1262-.809-.7743-1.243-1.8653-1.196-2.9798 0-2.663 1.548-4.2116 4.657-4.6456l4.235-.5866c0-2.0061-.962-3.015-2.898-3.015-1.689 0-3.331.61-4.598 1.7363v-2.8038c1.583-.9034 3.39-1.3609 5.208-1.3257 3.602 0 5.409 1.748 5.409 5.2557z"/><path d="m249.738 65.199c-.492-.3285-1.091-.4927-1.689-.4575-.962 0-1.853.4809-2.393 1.2787-.692 1.0206-1.032 2.2407-.962 3.4842v6.7456h-3.238v-14.0895h3.238v2.8977h.059c.258-.8916.762-1.7011 1.454-2.3228.61-.5397 1.385-.8329 2.194-.8329.458-.0235.915.0586 1.337.258v3.0267"/><path d="m260.367 76.0979c-.786.3402-1.642.5044-2.499.4692-2.768 0-4.153-1.3139-4.153-3.93v-7.9656h-2.381v-2.4988h2.381v-3.2613l3.238-.9033v4.1646h3.414v2.4988h-3.414v7.0388c-.058.6335.106 1.267.458 1.7832.41.3989.962.5983 1.537.5397.516 0 1.009-.1526 1.419-.4693z"/><path d="m275.865 76.2504h-3.238v-7.9422c0-2.6278-.938-3.9417-2.827-3.9417-.938-.0235-1.83.3754-2.44 1.091-.657.7625-.997 1.748-.962 2.7569v8.036h-3.25v-14.0894h3.238v2.3345h.059c.915-1.6893 2.698-2.7217 4.622-2.663 1.349-.0821 2.663.4692 3.555 1.4899.891 1.2552 1.325 2.7803 1.232 4.3171v8.6109"/><path d="m288.194 67.815c.047-.962-.246-1.9123-.821-2.6748-.551-.6452-1.384-.9972-2.229-.962-.892-.0117-1.748.352-2.358 1.0089-.669.7274-1.091 1.6424-1.197 2.6279zm3.121 2.2524h-9.726c-.035 1.1262.411 2.2289 1.22 3.015.892.7508 2.042 1.1262 3.203 1.0558 1.502 0 2.968-.4693 4.188-1.3491v2.5691c-1.572.8799-3.355 1.2905-5.15 1.2084-1.842.1056-3.648-.5983-4.939-1.9122-1.267-1.5017-1.912-3.4373-1.795-5.3965-.082-1.9826.634-3.9065 1.971-5.3612 1.255-1.3609 3.039-2.1117 4.892-2.0648 1.713-.0938 3.379.5866 4.529 1.8536 1.149 1.4664 1.712 3.3083 1.607 5.1618z"/></g><path d="m302.671 65.1992c-.493-.3285-1.091-.4927-1.69-.4575-.962 0-1.853.481-2.393 1.2787-.692 1.0207-1.032 2.2407-.962 3.4842v6.7456h-3.238v-14.0894h3.238v2.8976h.059c.258-.8915.762-1.701 1.454-2.3228.61-.5396 1.385-.8329 2.194-.8329.458-.0235.927.0587 1.338.2581v3.0267"/></g><path d="m0 13.1238h30.4665v30.091h-30.4665z" fill="#e64619"/><path d="m33.6343 13.1238h30.4664v30.091h-30.4664z" fill="#82b729"/><path d="m0 46.3352h30.4665v30.0911h-30.4665z" fill="#34a0da"/><path d="m33.6343 46.3352h30.4664v30.0911h-30.4664z" fill="#f9b801"/></svg>