<svg height="45.549" viewBox="0 0 45.938 45.549" width="45.938" xmlns="http://www.w3.org/2000/svg"><g fill="#007fff"><path d="m454.8 1000.4a6.1 6.1 0 1 1 6.106-6.1 6.111 6.111 0 0 1 -6.106 6.1zm0-10.945a4.841 4.841 0 1 0 4.839 4.842 4.847 4.847 0 0 0 -4.839-4.844z" transform="translate(-448.698 -971.305)"/><path d="m469.9 992.838a6.1 6.1 0 1 1 6.108-6.1 6.11 6.11 0 0 1 -6.108 6.1zm0-10.945a4.841 4.841 0 1 0 4.842 4.842 4.845 4.845 0 0 0 -4.842-4.842z" transform="translate(-430.073 -980.629)"/><path d="m469.9 1007.768a6.106 6.106 0 1 1 6.108-6.106 6.112 6.112 0 0 1 -6.108 6.106zm0-10.945a4.839 4.839 0 1 0 4.842 4.839 4.844 4.844 0 0 0 -4.842-4.839z" transform="translate(-430.073 -962.219)"/><path d="m453.972 997.429a.633.633 0 0 1 -.284-1.2l23.945-11.986a.632.632 0 1 1 .565 1.13l-23.943 11.988a.644.644 0 0 1 -.283.068z" transform="translate(-442.976 -976.255)"/><path d="m477.771 1004.586a.658.658 0 0 1 -.277-.062l-23.7-11.566a.633.633 0 0 1 .556-1.137l23.7 11.564a.633.633 0 0 1 -.279 1.2z" transform="translate(-442.852 -966.906)"/></g></svg>