<?xml version="1.0" encoding="utf-8"?>
<!-- Generator: Adobe Illustrator 25.0.1, SVG Export Plug-In . SVG Version: 6.00 Build 0)  -->
<svg version="1.1" id="Group_15" xmlns="http://www.w3.org/2000/svg" xmlns:xlink="http://www.w3.org/1999/xlink" x="0px" y="0px"
	 viewBox="0 0 49.6 57" style="enable-background:new 0 0 49.6 57;" xml:space="preserve">
<style type="text/css">
	.st0{fill:#007FFF;}
</style>
<g id="Group_289" transform="translate(-242.959 -309.706)">
	<path id="Path_680" class="st0" d="M262.3,360.4c0.3,0,0.6-0.3,0.6-0.6v-16.9h3.7v22.3c0,0.3,0.3,0.6,0.6,0.6c0,0,0,0,0,0h11.5
		c0.3,0,0.6-0.3,0.6-0.6v0v-22.6h10.9c0.4,0,0.6-0.3,0.6-0.7c0-0.3-0.3-0.6-0.6-0.6h-10.9v-21.6c0-0.3-0.3-0.6-0.6-0.6c0,0,0,0,0,0
		h-11.5c-0.3,0-0.6,0.3-0.6,0.6v0v22h-3.7v-12c0-0.3-0.3-0.6-0.6-0.6c-0.3,0-0.6,0.3-0.6,0.6c0,0,0,0,0,0v29.5h-10.3v-33.4h6.9
		c0.4,0,0.6-0.3,0.6-0.7c0-0.3-0.3-0.6-0.6-0.6h-7.5c-0.3,0-0.6,0.3-0.6,0.6v16.6h-5.3c-0.4,0-0.6,0.3-0.6,0.6
		c0,0.4,0.3,0.6,0.6,0.6h5.3v16.9c0,0.3,0.3,0.6,0.6,0.6L262.3,360.4z M267.9,342.3v-22h10.3v44.2h-10.3V342.3z"/>
</g>
</svg>
