<svg fill="none" height="81" viewBox="0 0 247 81" width="247" xmlns="http://www.w3.org/2000/svg"><g fill="#fff"><path d="m88.7379 54.9447v-11.7902h-10.6199v11.7902h-5.4073v-27.9575h5.4073v11.4998h10.6199v-11.4998h5.4068v27.9575z"/><path d="m112.778 54.5197h-4.152l-.376-1.3917c-1.794 1.185-3.888 1.816-6.028 1.8167-3.7025 0-5.2816-2.5763-5.2816-6.1248 0-4.1806 1.7883-5.7848 5.9036-5.7848h4.862v-2.1566c0-2.2789-.622-3.081-3.864-3.081-1.885.0132-3.765.2179-5.6099.6109l-.6222-3.9256c2.2616-.6361 4.5961-.963 6.9431-.9722 6.358 0 8.23 2.2789 8.23 7.4369zm-5.072-7.7715h-3.738c-1.663 0-2.118.4622-2.118 2.0292 0 1.4343.455 2.0717 2.039 2.0717 1.342-.0219 2.657-.3873 3.822-1.0624z"/><path d="m123.339 54.9447c-2.32-.0396-4.622-.4393-6.828-1.1858l.69-3.9294c1.917.5705 3.899.8692 5.892.888 2.194 0 2.52-.5318 2.52-2.0739 0-1.2654-.245-1.9035-3.454-2.7064-4.836-1.2284-5.404-2.4938-5.404-6.4659 0-4.1422 1.748-5.9607 7.396-5.9607 1.999.0019 3.989.2428 5.935.7178l-.511 4.0997c-1.797-.3449-3.617-.5422-5.444-.5902-2.151 0-2.52.5317-2.52 1.776 0 1.6483.123 1.7759 2.807 2.4938 5.54 1.5261 6.071 2.2864 6.071 6.4924 0 3.9933-1.18 6.4446-7.15 6.4446z"/><path d="m145.727 54.9447v-14.4065c0-1.1045-.472-1.654-1.684-1.654-1.293 0-3.586.763-5.488 1.7394v14.3211h-5.27v-29.101l5.27-.7203v10.7301c2.386-1.2027 5.009-1.8835 7.688-1.9956 3.499 0 4.749 2.4171 4.749 6.1094v14.9774z"/><path d="m154.719 31.1565v-6.0331h4.66v6.0331zm0 23.7882v-20.8388h4.66v20.8388z"/><path d="m163.106 34.1898c0-5.1437 3.005-8.1345 10.036-8.1345 2.584-.0005 5.158.3111 7.666.928l-.586 4.5922c-2.284-.4308-4.601-.6703-6.925-.7159-3.686 0-4.869 1.2674-4.869 4.2423v10.791c0 2.9907 1.188 4.2422 4.869 4.2422 2.324-.0455 4.641-.285 6.925-.7159l.591 4.5975c-2.508.6169-5.082.9286-7.665.928-7.032 0-10.036-2.9907-10.036-8.1344z"/><path d="m191.53 54.9447c-6.978 0-8.853-3.8879-8.853-8.1163v-5.2015c0-4.2284 1.88-8.1163 8.853-8.1163 6.972 0 8.853 3.8879 8.853 8.1163v5.2015c-.016 4.2284-1.891 8.1163-8.853 8.1163zm0-17.0196c-2.717 0-3.757 1.2286-3.757 3.5528v5.5208c0 2.3242 1.051 3.5528 3.757 3.5528 2.705 0 3.756-1.2286 3.756-3.5528v-5.5421c-.01-2.3242-1.056-3.5527-3.756-3.5527z"/><path d="m213.43 38.3394c-1.829.8742-3.591 1.8961-5.27 3.0565v13.5488h-4.981v-21.0005h4.206l.329 2.325c1.62-1.1579 3.378-2.0853 5.228-2.7586z"/><path d="m232.985 47.5588c0 4.5315-1.949 7.2113-6.532 7.2113-1.774-.0193-3.541-.2171-5.277-.5908v8.4404l-4.95.7122v-29.4045h3.934l.51 1.7198c1.804-1.3922 3.996-2.1419 6.247-2.1365 3.975 0 6.083 2.4319 6.083 7.09zm-11.804 2.3053c1.44.3277 2.909.5044 4.384.5275 1.786 0 2.475-.881 2.475-2.7273v-7.2008c0-1.6775-.608-2.6007-2.435-2.6007-1.638.061-3.204.7144-4.424 1.8464z"/><path d="m34.5021 14.8723-20.5021 11.5956v.0052 27.8397l7.703 4.3595v-27.845l12.7991-7.2465z"/><path d="m42.1083 14.8723v22.2691h-7.7572v-8.3119l-7.3043 4.3777v28.5322l7.3043 4.3883v-22.2057h7.7572v8.2538l7.3044-4.3725v-28.5532z"/><path d="m41.9574 66.1277 20.5021-11.5956v-.0105-27.8345l-7.703-4.3594v27.845l-12.7991 7.2465z"/></g></svg>