<svg fill="none" height="100" viewBox="0 0 250 100" width="250" xmlns="http://www.w3.org/2000/svg"><path d="m72.1429 26.762h-9.1429v9.1428h9.1429z" fill="#04c7fd"/><g fill="#fff"><path d="m71.4776 73.3307v-32.255h-8.4776v32.255zm56.3474.3187v-7.9044c-1.243 0-2.294-.0637-3.059-.1912-.893-.1275-1.562-.4462-2.008-.8924-.446-.4463-.733-1.0837-.893-1.9124-.127-.7968-.191-1.8486-.191-3.1235v-11.2829h6.151v-7.2669h-6.151v-12.5896h-8.509v31.2031c0 2.6455.223 4.8765.669 6.6614.446 1.753 1.211 3.1872 2.263 4.2709 1.051 1.0837 2.454 1.8486 4.143 2.3267 1.721.4781 3.888.7012 6.47.7012zm48.699-.3187v-47.3307h-8.51v47.3307zm-71.55-29.0996c-2.359-2.5498-5.6732-3.8247-9.8801-3.8247-2.0397 0-3.8882.4143-5.5774 1.243-1.6573.8287-3.0915 1.9761-4.2069 3.4422l-.4781.6056v-.5418-4.0797h-8.382v32.255h8.4457v-17.1793 1.1793c0-.1913 0-.3825 0-.5737.0957-3.0279.8287-5.259 2.231-6.6933 1.4979-1.5298 3.3146-2.2948 5.3862-2.2948 2.454 0 4.3344.765 5.5774 2.2311 1.211 1.4661 1.8485 3.5378 1.8485 6.1833v.0637 17.0518h8.5737v-18.2948c.031-4.5897-1.18-8.2231-3.538-10.7729zm58.642 12.9083c0-2.3267-.414-4.494-1.211-6.5338-.829-2.008-1.976-3.7929-3.41-5.3227-1.466-1.5299-3.219-2.7092-5.259-3.5698-2.04-.8605-4.302-1.2749-6.756-1.2749-2.327 0-4.526.4463-6.566 1.3068-2.04.8924-3.824 2.0717-5.322 3.5697s-2.709 3.2829-3.57 5.3227c-.892 2.0399-1.306 4.2391-1.306 6.5658s.414 4.5259 1.242 6.5657c.829 2.0399 2.008 3.8247 3.474 5.3227s3.283 2.7092 5.387 3.5697c2.103.8925 4.43 1.3387 6.916 1.3387 7.202 0 11.664-3.2829 14.341-6.3426l-6.119-4.6534c-1.275 1.5299-4.334 3.6016-8.159 3.6016-2.39 0-4.366-.5419-5.864-1.6574-1.498-1.0837-2.518-2.6135-3.06-4.494l-.095-.2869h25.337zm-25.273-2.9641c0-2.3586 2.709-6.4701 8.541-6.502 5.832 0 8.573 4.1116 8.573 6.4701z"/><path d="m186.18 69.009c-.156-.3732-.373-.6842-.653-.9641s-.591-.4976-.964-.653c-.374-.1555-.778-.2488-1.182-.2488-.436 0-.809.0933-1.182.2488-.373.1554-.684.3731-.964.653s-.497.5909-.653.9641c-.155.3731-.249.7774-.249 1.1817 0 .4354.094.8085.249 1.1817.156.3732.373.6842.653.9641.28.2798.591.4975.964.653s.778.2488 1.182.2488c.435 0 .808-.0933 1.182-.2488.373-.1555.684-.3732.964-.653.28-.2799.497-.5909.653-.9641.155-.3732.248-.7774.248-1.1817s-.093-.8086-.248-1.1817zm-.498 2.1768c-.124.311-.311.5909-.529.8086-.217.2177-.497.4043-.808.5287-.311.1243-.622.1865-.995.1865-.342 0-.684-.0622-.995-.1865-.311-.1244-.591-.311-.809-.5287s-.404-.4976-.529-.8086c-.124-.311-.186-.6219-.186-.9951 0-.3421.062-.6842.186-.9952.125-.3109.311-.5908.529-.8085s.498-.4043.809-.5287.622-.1866.995-.1866c.342 0 .684.0622.995.1866s.591.311.808.5287c.218.2177.405.4976.529.8085.125.311.187.622.187.9952.031.3732-.062.6841-.187.9951zm-1.741-.7463c.248-.0311.435-.1244.591-.2799.155-.1555.248-.3732.248-.6842 0-.3421-.093-.5908-.311-.7774-.186-.1866-.528-.2799-.933-.2799h-1.368v3.5141h.653v-1.4305h.467l.87 1.4305h.684zm-.342-.4976c-.094 0-.187 0-.311 0h-.467v-.9951h.467.311c.093 0 .186.0311.279.0622.094.0311.156.0933.187.1554.031.0622.062.1555.062.2799s-.031.2177-.062.2799c-.062.0622-.124.1244-.187.1555-.093.0311-.186.0622-.279.0622z"/></g></svg>