<svg fill="none" height="52" viewBox="0 0 52 52" width="52" xmlns="http://www.w3.org/2000/svg" xmlns:xlink="http://www.w3.org/1999/xlink"><linearGradient id="a" gradientUnits="userSpaceOnUse" x1="26" x2="26" y1="6.5" y2="47.125"><stop offset="0" stop-color="#008cff"/><stop offset="1" stop-color="#1eff00"/></linearGradient><path d="m0 13s0-6.5 6.5-6.5h39s6.5 0 6.5 6.5v19.5s0 6.5-6.5 6.5h-13c0 2.1667.2708 3.7917.8125 4.875h2.4375c.431 0 .8443.1712 1.149.476.3048.3047.476.718.476 1.149s-.1712.8443-.476 1.149c-.3047.3048-.718.476-1.149.476h-19.5c-.431 0-.8443-.1712-1.149-.476-.3048-.3047-.476-.718-.476-1.149s.1712-.8443.476-1.149c.3047-.3048.718-.476 1.149-.476h2.4375c.5417-1.0833.8125-2.7083.8125-4.875h-13s-6.5 0-6.5-6.5zm4.5435-2.7788c-.35679.2488-.64155.5874-.8255.9816-.27378.5735-.43277 1.1951-.468 1.8297v19.4675c0 1.0562.2535 1.6315.47125 1.9565.2275.338.55467.6132.9815.8255.54873.2627 1.14177.4203 1.7485.4647l.08125.0033h38.9675c1.0562 0 1.6315-.2535 1.9565-.4713.3568-.2487.6416-.5873.8255-.9814.2627-.5488.4203-1.1418.4647-1.7485l.0033-.0813v-19.4675c0-1.0562-.2535-1.6315-.4713-1.9565-.2487-.3568-.5873-.6416-.9814-.8255-.5736-.27378-1.1952-.43277-1.8298-.468h-38.9675c-1.05625 0-1.6315.2535-1.9565.4712z" fill="url(#a)"/></svg>