<svg height="239.483" viewBox="0 0 245.708 239.483" width="245.708" xmlns="http://www.w3.org/2000/svg"><path d="m141.235 226.09-12.174 12.174a13.107 13.107 0 0 1 -18.591 0l-106.607-106.552a13.107 13.107 0 0 1 0-18.591l106.607-106.608a13.107 13.107 0 0 1 18.591 0l12.174 12.174a13.176 13.176 0 0 1 -.219 18.81l-66.081 62.956h157.608a13.13 13.13 0 0 1 13.157 13.162v17.549a13.13 13.13 0 0 1 -13.161 13.161h-157.604l66.081 62.956a13.081 13.081 0 0 1 .219 18.809z" fill="#0089ff" transform="translate(.004 -2.647)"/></svg>