<svg fill="none" height="81" viewBox="0 0 247 81" width="247" xmlns="http://www.w3.org/2000/svg"><path d="m220.715 45.7301c0-3.1972-3.038-2.9559-3.038-2.9559h-2.822c-.187-.008-.304 0-.304 0h-122.0782c1.8358 2.1865 3.674 4.3658 5.5034 6.5187l.033.0392c.0596.0746.5846.7462.8849 1.3305.3221.6292.5572 1.1045.6554 1.5149 1.2515 3.5571.3808 7.9261-2.021 10.8212h117.0175s.055.0032.149 0h2.976s3.042.1555 3.044-2.9592c.001-3.2269 0-11.1113 0-14.3094z" fill="#fff"/><path d="m148.328 46.2734c.439 0 .845.0537 1.217.1603.371.1066.739.2477 1.101.4232.105.0481.204.093.297.1347.092.0433.173.0649.24.0649.157 0 .259-.093.307-.2773.009-.0385.041-.0666.096-.0858.054-.0192.11-.0264.165-.0216.054.0056.102.0168.139.036.038.0193.052.0497.043.0922-.038.1523-.065.311-.078.4769-.015.1667-.022.3374-.022.513 0 .2701.02.5426.057.8151.038.2733.077.5547.114.844 0 .0377-.02.0697-.064.0962-.042.0256-.096.0417-.16.0465-.065.004-.126-.0032-.186-.0217-.061-.0184-.095-.0545-.104-.1074-.243-.8728-.637-1.5156-1.183-1.9292-.548-.4128-1.235-.6196-2.064-.6196-.644 0-1.177.1371-1.599.4096-.422.2733-.757.6212-1.005 1.0436s-.42.8928-.518 1.413c-.098.5186-.147 1.0268-.147 1.5197 0 .5466.057 1.0908.176 1.6343.115.5434.307 1.0347.571 1.474.265.4392.61.7967 1.034 1.0716.424.2757.94.4127 1.545.4127.467 0 .886-.04 1.258-.121.373-.0809.685-.2324.937-.4552.316-.2854.566-.6244.752-1.0188.185-.3935.317-.8375.392-1.3313.011-.0713.041-.1162.094-.1354.053-.0185.108-.0209.168-.0072.06.0136.114.0416.165.0817.05.0409.068.0802.053.1178-.028.1948-.048.3872-.057.5771-.01.19-.014.3823-.014.5763 0 .3278.012.6637.036 1.0107.023.3471.047.7102.071 1.0893 0 .0577-.02.0994-.061.129-.04.0281-.088.0449-.139.0497-.053.004-.104-.0048-.155-.0288-.049-.0241-.079-.0594-.088-.1066-.02-.0898-.053-.1764-.1-.2565-.048-.0802-.112-.1483-.19-.2028-.079-.0545-.169-.0818-.272-.0818s-.219.0337-.347.0994c-.215.1194-.421.2196-.622.303-.2.0834-.403.1483-.608.1948-.205.0481-.42.0817-.643.1001-.225.0193-.468.0289-.73.0289-1.732 0-3.013-.4296-3.848-1.2888s-1.252-2.0904-1.252-3.695c0-.8552.132-1.6102.397-2.2675.264-.6588.628-1.207 1.091-1.6487.462-.4416 1.012-.7734 1.651-.9971.64-.2228 1.336-.3342 2.089-.3342z" fill="#313131"/><path d="m158.701 52.9946c0-.3703-.025-.7301-.075-1.0788-.05-.3494-.138-.6596-.265-.9329-.126-.2726-.301-.4922-.525-.6581-.225-.1659-.513-.2493-.866-.2493-.391 0-.708.0834-.951.2493s-.436.3871-.58.6653c-.143.2773-.24.5907-.293.9401-.053.3487-.079.7134-.079 1.0925 0 .3326.025.6733.072 1.0219.048.3487.141.6645.279.9474.138.2821.327.5162.565.7005.238.1852.543.2782.915.2782.382 0 .69-.0882.923-.2637.234-.1756.416-.404.547-.6869.131-.2822.22-.6004.265-.9538.046-.3535.068-.711.068-1.0717zm1.537-.1635c0 .5932-.083 1.1189-.249 1.5766-.168.4585-.404.8432-.712 1.1534-.308.311-.676.5458-1.106.7053-.429.1587-.908.2381-1.437.2381-.458 0-.882-.0746-1.273-.2245-.391-.149-.728-.3727-1.013-.6692-.283-.2966-.507-.6701-.672-1.1213-.164-.4505-.246-.9827-.246-1.595 0-.4986.082-.9538.246-1.3666.165-.4128.396-.7655.694-1.0572.298-.2918.659-.5202 1.081-.6837s.88-.2453 1.376-.2453c.477 0 .918.0722 1.323.2164.405.1451.755.3559 1.048.634.293.2774.523.6204.691 1.0292.166.408.249.8776.249 1.4098z" fill="#313131"/><path d="m163.938 54.5961c0 .2421.006.4473.018.6132.012.1667.047.3022.108.4088.059.1066.153.1907.281.2492.129.0594.311.1034.544.1315.052.0104.091.0385.114.0858.025.0472.037.0977.037.149 0 .0529-.012.0986-.037.1395-.023.0409-.062.0601-.114.0601-.1 0-.212-.0048-.336-.0144-.125-.0088-.255-.0209-.394-.0353-.137-.0144-.281-.0264-.429-.0345-.149-.0104-.295-.0152-.439-.0152-.317 0-.62.0161-.912.0497-.291.0329-.561.0497-.807.0497-.049 0-.085-.0208-.109-.0641-.024-.0425-.035-.089-.035-.1427 0-.0513.012-.1002.039-.1451.026-.0456.065-.0721.118-.0825.248-.0377.438-.0842.569-.1419s.226-.1354.286-.2356c.059-.0994.093-.2252.104-.3759.009-.1531.013-.3391.013-.5635v-2.1577c0-.4167-.005-.7622-.018-1.0323-.011-.2709-.049-.4857-.114-.6476-.063-.1611-.166-.2757-.303-.3447-.14-.0697-.337-.113-.595-.1314-.047 0-.084-.0265-.11-.0762-.027-.0497-.039-.1034-.039-.1595 0-.0529.011-.0986.035-.1394.025-.0401.062-.0593.114-.0593.248-.0153.488-.0369.719-.0682.232-.0304.442-.0641.632-.0994.189-.036.349-.0649.481-.0897.132-.0233.222-.0361.27-.0361.206 0 .309.1122.309.335 0 .0193-.007.065-.022.1387-.014.0737-.029.1571-.05.2501-.019.0913-.035.1843-.049.2765-.015.0938-.022.1675-.022.226l.022.0273.036-.0273c.038-.0769.117-.1883.239-.335.121-.1475.281-.2942.479-.4424.198-.1467.434-.275.708-.3848.274-.1082.58-.1635.919-.1635.582 0 1.043.1267 1.381.3775.338.2525.579.6052.722 1.0604.024.0537.05.0537.079 0 .094-.1707.224-.3414.386-.5145.162-.1748.351-.3279.568-.4633.218-.1355.458-.2461.719-.331.262-.0866.539-.1291.83-.1291.467 0 .848.0689 1.141.2068.294.1379.522.3294.687.5763.165.2477.276.5378.336.872.06.3351.089.6974.089 1.0861v2.3139c0 .2421.004.4473.014.6132.01.1667.04.3022.089.4088.051.1066.131.1907.241.2492.109.0594.264.1034.464.1315.052.0104.093.0369.118.0825.027.0449.04.0938.04.1451 0 .0537-.013.1002-.04.1427-.025.0433-.066.0641-.118.0641-.067 0-.148-.0032-.246-.0112-.098-.0056-.215-.0201-.355-.0385-.138-.0192-.277-.032-.419-.0385-.141-.008-.287-.0112-.435-.0112-.316 0-.617.0161-.901.0497-.284.0329-.54.0497-.77.0497-.052 0-.091-.0208-.117-.0641-.027-.0425-.039-.089-.039-.1427 0-.0513.014-.1002.043-.1451.028-.0456.071-.0721.128-.0825.228-.0281.406-.0713.534-.1283.125-.0561.217-.137.274-.242.057-.1042.09-.2324.101-.3831.009-.1531.013-.3391.013-.5635v-1.8787c0-.2613-.009-.533-.028-.816-.019-.2821-.07-.5402-.153-.7726-.083-.2325-.207-.4248-.374-.5763-.167-.1531-.401-.2284-.701-.2284-.275 0-.533.0585-.77.1739-.238.1178-.445.2757-.621.4777s-.316.4384-.418.7085c-.101.2709-.153.5579-.153.8608v1.9653c0 .2814.005.5058.014.6773.01.1707.041.3054.093.4024.053.0962.132.1683.241.2132.106.0449.26.0817.46.1098.053.0104.092.0369.118.0825.027.0449.04.0938.04.1451 0 .0537-.013.1002-.04.1427-.026.0433-.065.0641-.118.0641-.067 0-.149-.0032-.247-.0112-.097-.0056-.215-.0201-.354-.0385-.138-.0192-.278-.032-.419-.0385-.141-.008-.286-.0112-.435-.0112-.317 0-.616.0161-.901.0497-.284.0329-.526.0497-.726.0497-.043 0-.077-.0192-.1-.0601-.024-.0409-.036-.0866-.036-.1395 0-.0513.012-.1018.036-.149.023-.0473.061-.0754.114-.0858.214-.0281.381-.0641.501-.1066.118-.0425.206-.1106.262-.2028.054-.093.087-.218.099-.3767.012-.1603.017-.3687.017-.6308v-1.8787c0-.2613-.011-.533-.035-.816-.024-.2821-.08-.5402-.168-.7726-.088-.2325-.221-.4248-.4-.5763-.178-.1531-.421-.2284-.731-.2284-.328 0-.612.0545-.849.1611-.238.1058-.434.254-.589.444-.155.1908-.268.412-.339.6652-.072.2549-.107.5266-.107.816" fill="#313131"/><path d="m177.694 54.7746c0 .0761.034.1795.104.3093.069.1307.168.2573.299.3808.13.125.292.2316.482.3254.19.0913.406.1378.649.1378.305 0 .562-.0785.771-.2348.209-.1571.379-.3711.51-.6444s.226-.5883.285-.9474c.06-.3583.09-.7366.09-1.1358 0-.8255-.113-1.4451-.339-1.8579-.226-.4127-.601-.6195-1.124-.6195-.252 0-.484.0409-.696.121-.212.081-.393.1948-.542.3423-.15.1466-.269.3173-.357.5121s-.132.4032-.132.6268m-1.38.7542c0-.4745-.009-.8696-.025-1.1846-.017-.3158-.057-.5667-.119-.7518-.062-.1852-.164-.319-.307-.4024-.144-.0825-.341-.129-.594-.1387-.047 0-.083-.024-.108-.0713-.023-.0465-.035-.0962-.035-.1459s.01-.0985.028-.1458c.019-.0473.048-.0714.086-.0714.615-.0473 1.105-.1074 1.47-.1811.363-.0729.603-.1106.718-.1106.11 0 .175.028.194.0849.019.0577.029.1123.029.1644 0 .0761-.012.1923-.035.3486-.025.1571-.037.3022-.037.4344l.028.0361.044-.0216c.185-.3078.461-.5763.824-.8048.364-.2284.797-.3414 1.297-.3414.439 0 .823.089 1.154.2669.331.1771.607.42.828.7262.222.3061.388.658.5 1.0572.111.3983.168.8119.168 1.2391 0 .5266-.074 1.0131-.222 1.4595-.147.4457-.358.8352-.632 1.1678-.274.3327-.6.59-.978.7719-.379.1827-.809.2749-1.289.2749-.301 0-.567-.0216-.8-.0649-.233-.0425-.469-.1018-.707-.1771-.049-.0193-.076-.0193-.086 0-.01.0184-.014.0657-.014.1418v2.229c0 .2461.007.4513.021.6156.015.1635.062.299.14.4056.079.1082.201.1899.368.2492.167.0601.405.1034.715.1323.058.0088.099.036.126.0817.026.0457.039.093.039.1467 0 .0513-.016.101-.047.1451-.031.0449-.071.0673-.118.0673-.438 0-.797-.0176-1.077-.0537-.279-.0345-.56-.0529-.843-.0529-.297 0-.597.0184-.901.0529-.303.0361-.609.0537-.919.0537-.048 0-.087-.0224-.118-.0673-.031-.0441-.047-.0938-.047-.1451 0-.0537.016-.101.047-.1467s.074-.0729.132-.0817c.271-.0289.484-.0722.636-.1323.152-.0593.263-.1394.333-.2412.069-.1026.108-.2285.118-.3783.01-.1491.015-.3359.015-.5579" fill="#313131"/><path d="m187.702 53.3077c0-.1098-.006-.1763-.016-.1988-.008-.024-.033-.036-.07-.036-.802.0665-1.396.238-1.781.5153-.387.2758-.579.6284-.579 1.054 0 .1467.017.2838.053.412.035.1282.092.2381.168.3302.076.0922.175.1643.296.2156.123.0529.268.0786.44.0786.23 0 .465-.0441.709-.1307.243-.0881.464-.2148.665-.3807.076-.0753.115-.1531.115-.2348m1.381-.1435c0 .3406.036.5795.11.715.073.1346.192.2027.354.2027.11 0 .198-.0112.268-.036.07-.0225.165-.0754.289-.1555.049-.0433.113-.0153.194.0849.075.0994.085.1788.029.2349-.167.1996-.365.3615-.595.4849-.229.1226-.46.1843-.694.1843-.3 0-.55-.0577-.753-.1739s-.367-.3094-.491-.5803c-.018-.0433-.049-.0481-.092-.0144-.268.2188-.566.4031-.894.5554-.325.1419-.734.2132-1.231.2132-.563 0-.998-.1458-1.306-.4408-.307-.2949-.46-.7141-.46-1.2608 0-.7157.325-1.2648.976-1.6447.651-.3791 1.602-.569 2.858-.569l.032-.0137c.007-.0104.011-.04.013-.0889.003-.0513.005-.1275.008-.2293.003-.101.004-.2444.004-.4304 0-.2412-.02-.4705-.057-.6829-.039-.2148-.11-.4007-.215-.5626-.106-.1619-.248-.2894-.429-.3807-.183-.0922-.416-.1395-.701-.1395-.287 0-.536.0713-.752.214-.213.1427-.321.3246-.321.5474 0 .1002.033.2044.1.3142.072.1002.107.2044.107.3134 0 .1331-.069.2637-.207.3911-.138.1275-.303.1924-.494.1924-.267 0-.456-.0721-.568-.2132-.112-.1427-.169-.3158-.169-.521 0-.246.069-.4769.207-.6893.139-.2148.326-.3999.559-.5594.234-.1595.507-.283.819-.3735.312-.0906.639-.1355.984-.1355.782 0 1.396.1796 1.845.541.448.3567.673.9514.673 1.7874" fill="#313131"/><path d="m193.647 54.5985c0 .4881.079.8319.236 1.0315.156.1988.419.327.786.3839.062.0097.104.0361.129.0778.024.0433.037.0922.037.1459 0 .0545-.015.1034-.044.1466-.028.0417-.069.0642-.122.0642-.047 0-.132-.0049-.253-.0153-.122-.0096-.264-.0208-.426-.0352-.162-.0137-.33-.0289-.505-.0433-.175-.0136-.337-.0209-.486-.0209-.316 0-.615.0177-.896.0505-.283.0329-.553.0489-.81.0489-.047 0-.083-.0208-.108-.0641-.023-.0425-.035-.0882-.035-.1387 0-.0488.012-.0985.035-.1458.025-.0473.065-.0754.123-.0858.238-.0377.423-.0809.554-.1314.131-.0497.226-.1203.286-.214.06-.0922.094-.2156.104-.3703.009-.1539.014-.3543.014-.6012v-1.837c0-.4841-.002-.8841-.007-1.1999s-.04-.5659-.104-.751c-.065-.1852-.165-.3166-.3-.3944-.136-.0785-.339-.1234-.605-.1314-.056 0-.098-.0249-.121-.0721-.024-.0473-.035-.0954-.035-.1459 0-.0497.009-.0986.027-.1451.02-.0481.048-.0713.087-.0713.558-.0385 1.028-.0962 1.411-.1756.383-.0785.628-.1178.733-.1178.111 0 .187.0297.23.0858.043.0569.065.1306.065.2204 0 .0208-.007.0681-.022.1467-.014.0785-.03.1683-.05.2701-.019.1034-.035.1996-.05.2917-.014.093-.022.1635-.022.2116l.022.0273.036-.0273c.067-.1194.169-.254.307-.4031.137-.1499.303-.2926.496-.4304.194-.1379.417-.2541.672-.3495.254-.0954.527-.1427.817-.1427.696 0 1.238.202 1.628.6052.391.4039.586 1.0572.586 1.9589v2.4911c0 .2613.009.4753.028.6412.02.1659.06.2997.122.4015.062.1034.152.1812.272.2365.119.0537.28.0954.487.1234.047.0104.082.0361.107.0794.023.0416.035.0905.035.145 0 .0553-.012.1034-.035.1459-.025.0433-.06.0641-.107.0641-.129 0-.347-.016-.655-.0489-.308-.0328-.607-.0505-.899-.0505-.314 0-.602.0177-.86.0505-.26.0329-.482.0489-.662.0489-.053 0-.091-.0208-.115-.0641-.024-.0425-.039-.0882-.042-.1387-.005-.048.001-.0977.021-.145.017-.0481.057-.0754.114-.0858.196-.0377.347-.0858.455-.1459.107-.0593.187-.137.243-.2348.054-.097.086-.2204.097-.3695.009-.1491.013-.3366.013-.5659v-2.2105c0-.2429-.007-.4841-.021-.7262-.015-.2413-.063-.4593-.147-.654-.082-.194-.204-.3551-.363-.4842-.159-.1274-.386-.1915-.681-.1915-.586 0-1.037.1875-1.353.5618-.317.3744-.474.9122-.474 1.6143" fill="#313131"/><path d="m201.859 48.1386c-.243 0-.456-.0761-.637-.2276-.171-.1475-.257-.335-.257-.5619 0-.1146.021-.2204.065-.3174.042-.0978.104-.1811.182-.2533.079-.0713.17-.1258.275-.1675.105-.04.219-.0593.344-.0593.114 0 .22.0209.318.0641.097.0417.182.101.254.174.071.0729.128.1595.168.2557.04.0977.06.2043.06.3173 0 .1091-.018.21-.057.3022-.038.093-.092.1747-.161.2461-.068.0721-.15.1266-.243.1667-.093.0417-.197.0609-.311.0609z" fill="#313131"/><path d="m202.631 54.5969c0 .242.007.4464.019.6123.011.1659.046.3022.103.4088.058.1066.146.1908.269.2501.121.0585.294.1026.518.1314.053.0096.091.0345.118.0746.026.04.039.0857.039.1386s-.013.1026-.039.1491c-.027.0481-.065.0721-.118.0721-.086 0-.187-.0056-.307-.0152-.12-.0088-.247-.02-.384-.0353-.135-.0136-.277-.0264-.426-.0352-.148-.0097-.295-.0145-.438-.0145-.317 0-.624.0169-.919.0497-.296.0337-.583.0505-.859.0505-.048 0-.084-.0216-.107-.0641-.024-.0441-.036-.0906-.036-.1435 0-.0513.013-.1002.039-.145.027-.0449.065-.0722.118-.0818.258-.0288.457-.0721.598-.1282.14-.0569.243-.1371.307-.2429.065-.1042.101-.2316.111-.3839.009-.1523.014-.3391.014-.5635v-2.3412c0-.428-.01-.7646-.029-1.0115-.018-.2469-.063-.436-.135-.5691-.072-.1322-.176-.2244-.312-.2757-.136-.0481-.32-.0874-.554-.1162-.043 0-.075-.0233-.096-.0673-.022-.0449-.032-.0946-.032-.1459 0-.0521.01-.1034.032-.1499.021-.0473.053-.0713.096-.0713.215-.0153.439-.0361.673-.0674.233-.0312.452-.0641.656-.0993.204-.0361.378-.065.524-.0898.147-.0233.239-.0361.277-.0361.12 0 .196.0345.23.1034s.05.1323.05.1892" fill="#313131"/><path d="m209.271 52.1329c.071 0 .125-.0137.16-.0393.036-.0257.06-.0609.076-.1066.014-.0449.022-.097.025-.1563.002-.0593.004-.125.004-.1956 0-.2044-.033-.3999-.097-.5875-.064-.1875-.155-.3551-.272-.5025-.117-.1467-.259-.2653-.429-.3519-.169-.0882-.359-.1322-.569-.1322-.267 0-.494.0464-.683.1386-.189.093-.347.2156-.475.3703-.129.1539-.229.3326-.301.5346-.072.2012-.121.4128-.15.6372-.02.1138-.026.2076-.022.2806.005.0737.027.1106.064.1106m-.013.5129c-.049 0-.074.0169-.079.0497-.006.0337-.007.0738-.007.121 0 .5082.061.9362.182 1.2849.121.3494.288.6332.5.8512.213.2188.46.3759.744.4721.285.0977.59.1474.92.1474.328 0 .648-.0304.958-.0929.31-.0609.594-.1852.851-.3703.077-.0706.158-.0529.242.0569.092.105.104.1915.037.2637-.319.3991-.672.6789-1.058.84-.388.1563-.868.2356-1.445.2356-.588 0-1.097-.0882-1.53-.2637-.434-.1755-.796-.4192-1.084-.7302-.29-.3102-.503-.6781-.644-1.1029-.14-.4256-.211-.8872-.211-1.385 0-.4841.081-.9385.243-1.3601.162-.4224.388-.7903.676-1.1037s.635-.5611 1.04-.7446c.405-.182.852-.2733 1.339-.2733.41 0 .782.0697 1.115.21.334.1402.62.3342.858.5843.239.2484.424.5442.554.8856.132.3423.197.715.197 1.1181 0 .2044-.074.3062-.222.3062" fill="#313131"/><path d="m216.976 49.7549c-.034.109-.062.2413-.086.3952-.025.1539-.036.3198-.036.4945 0 .1852.004.3775.014.5771s.014.3535.014.4633c0 .028-.02.0521-.057.0705-.038.0192-.082.0313-.133.0361-.05.0048-.094 0-.132-.0152-.038-.0137-.062-.0345-.071-.0634-.11-.5177-.285-.9153-.529-1.1926-.243-.2789-.635-.4168-1.173-.4168-.358 0-.654.0906-.891.2701-.235.1811-.354.4232-.354.727 0 .2517.097.444.294.5803.194.1354.455.2613.778.3807.139.0481.302.1082.491.1811.188.0738.342.1339.462.182.252.1186.488.2412.707.3671.219.1258.411.2741.573.4448s.289.3631.382.5763c.094.214.139.4609.139.7406 0 .3703-.077.6789-.236.9257-.156.2469-.357.4465-.601.598-.243.1522-.52.2613-.832.3278-.313.0665-.621.0994-.926.0994-.254 0-.536-.0281-.848-.0858-.313-.0561-.586-.1395-.82-.2485-.056-.02-.117-.0088-.182.0321-.063.0401-.106.113-.124.2164 0 .0289-.024.0481-.068.0577-.046.008-.09.0144-.133.0144s-.083-.008-.122-.0216c-.038-.0152-.057-.0353-.057-.0641 0-.0762.01-.1828.029-.3214.018-.1363.028-.2621.028-.3767 0-.1187-.005-.2726-.014-.4625-.01-.19-.03-.3823-.061-.5771-.032-.194-.046-.315-.046-.3631 0-.0377.021-.0657.061-.0849.04-.0193.084-.0313.132-.0361.048-.004.094 0 .139.0144.046.0144.074.0409.082.0786.067.2845.154.5338.262.7478.107.2132.241.3919.404.537.161.1451.358.2541.587.3278.227.0737.504.1106.829.1106.349 0 .632-.0978.855-.2925.221-.1948.333-.4673.333-.8184 0-.3086-.112-.553-.333-.7334-.223-.1803-.478-.3398-.769-.4769-.138-.0569-.278-.1154-.419-.1747s-.285-.117-.433-.1747c-.213-.085-.426-.174-.635-.2669-.211-.0922-.397-.2076-.558-.3455-.163-.1378-.293-.3078-.391-.5121-.098-.2044-.146-.4561-.146-.7551 0-.351.076-.6476.229-.8896.152-.2421.347-.4393.586-.5916.238-.1514.504-.2612.798-.3278.294-.0665.582-.0994.869-.0994.243 0 .476.0305.701.093.223.0617.462.1755.716.3407.037.02.088.0176.153-.0065.064-.0232.115-.1042.153-.242.01-.0377.039-.0609.09-.0713.049-.0089.099-.0113.146-.0065.049.0048.093.0169.132.0353.041.0192.057.0425.048.0713z" fill="#313131"/><g fill="#fff"><path d="m98.124 52.5751-.008-.0224c.0241.0096-.1973-.5595-.5371-1.2223-.2423-.4737-.7295-1.0877-.7295-1.0877-9.0421-10.6416-18.304-21.8996-27.2415-32.8098l-8.6121 10.2096-.3334.4144c6.6468 7.8067 13.2033 15.5589 19.6447 23.4474l.2464.3423c.0966.153.2303.3671.3043.4945 1.6845 2.8999 1.3286 6.6205-.446 9.2767l-.9348 1.3762h15.9996l.0217-.0096c2.7352-2.3918 3.9398-6.8466 2.6257-10.4093z"/><path d="m54.9151 44.4528c.843 3.1772 3.5846 5.6827 4.9172 8.5104l.0129.0233.0145-.0241c1.3325-2.8277 4.0742-5.3324 4.9172-8.5096 1.653-4.8956-2.492-8.8134-4.9156-12.627l-.0145-.0249-.0161.0249c-2.4228 3.8136-6.5678 7.7314-4.9156 12.627z"/><path d="m59.8397 55.0876c-.3108-.7229-.9944-1.9933-.9944-1.9933s-2.5065-5.8839-10.3151-5.6747c-2.2843.0609-2.9614.1042-3.3672.113s-.7166.0192-1.1031.0064l-.0193.0521c-.0347.1042-.1192.4424-.2118 1.5245-.1522 1.7753.1047 4.0837 2.7263 6.7399 2.0959 2.1224 4.2457 2.253 7.4576 2.4422 3.211.1883 3.9622 1.0051 4.6096 1.7176.5604.6188 1.1506 2.2603 1.211 2.5031l.0064.0193.0073-.0193c.0603-.2428.6497-1.8843 1.2101-2.5031.6482-.7125 1.3986-1.5293 4.6105-1.7176 3.211-.1892 5.3608-.3198 7.4567-2.4422 2.6216-2.6562 2.8793-4.9646 2.7271-6.7399-.0934-1.0821-.1779-1.4203-.2117-1.5245l-.0194-.0521c-.3864.0128-.698.0024-1.1039-.0064-.4058-.0088-1.0829-.0521-3.3672-.113-7.8078-.2092-10.3143 5.6747-10.3143 5.6747s-.6836 1.2704-.9952 1.9933z"/><path d="m222.916 22.5963c.322-.0032.817.0457.814-.4144-.005-.3494-.314-.3887-.595-.3871l-.65.0064.008.7975m1.498 1.2504-.328.0008-.66-1.0372-.509.0032.008 1.0436-.276.0024-.018-2.2611.989-.0064c.19-.0016.385.0056.555.1058.17.093.257.2942.259.4849.002.4449-.31.6132-.715.626m1.458-.1026c-.009-.9778-.813-1.7665-1.795-1.7601-.993.008-1.783.8095-1.777 1.7906.009.9882.816 1.7753 1.803 1.7689.985-.0088 1.778-.8095 1.769-1.7994zm-3.819.0305c-.01-1.1117.892-2.0246 2.023-2.0359 1.12-.0064 2.034.8913 2.041 2.0054.008 1.1221-.888 2.0326-2.012 2.0423-1.128.0104-2.045-.8889-2.052-2.0118z"/><path d="m163.265 36.4208c.05-.4015-.329-.7133-.613-.9441-.323-.2629-.672-.5058-.95-.8184-.266-.2989-.324-.6564-.341-1.0435-.02-.4545-.041-.909-.056-1.3634-.032-.9586-.039-1.918-.018-2.8766.02-.9378.069-1.8972.129-2.8342.065-1.0019.891-.8416 1.584-.9161.371-.0393.805-.1307 1.016-.4705.176-.2877.184-.6532.206-.9802.024-.3623.068-.8328-.153-1.1478-.188-.2709-.554-.3318-.864-.3382-.623-.0129-1.392.1619-1.514-.6637-.112-.7566.256-1.5181.082-2.2715-.078-.3406-.321-.7005-.713-.6869-.38.0137-.712.3062-.995.5266-.737.5739-1.441 1.1823-2.155 1.7834-.696.5827-1.359 1.1534-2.277 1.3249-.892.1659-1.807.0601-2.703.1907-.82.1203-1.495.5018-2.026 1.135-.161.1923-.439.6139-.728.622-.209.0064-.209-.275-.211-.424-.006-.493.075-1.0508-.311-1.442-.266-.2709-.712-.2893-1.07-.3029-.449-.0161-.902.008-1.35.0352-.487.0297-.973.0786-1.458.1331-.404.0449-.821.101-1.183.2957-.322.1724-.606.4906-.518.8785.088.3911.484.63.738.9081.277.3006.345.6597.36 1.0556.014.4392.029.8785.048 1.3177.082 1.9637.081 3.9314-.043 5.8935-.03.4769-.068.953-.108 1.4291-.038.4601-.171.7686-.465 1.1213-.229.2757-.456.5611-.436.9394.02.3606.241.662.559.8247.354.182.768.2108 1.159.2228.426.0137.853.0281 1.279.0409.834.0265 1.67.0217 2.502-.0489.544-.0457 1.224-.1683 1.452-.739.252-.6292-.204-1.0868-.504-1.5918-.182-.3061-.231-.5987-.227-.9522.003-.468.01-.9353.01-1.4026.002-1.0003.002-2.0006.004-3.0009 0-.4873-.002-.9746.002-1.4611.002-.4032.038-.7943.242-1.151.659-1.1518 2.11-1.296 3.31-1.2736.297.0056.592.0217.887.0393.289.0168.595.0216.864.1346.339.1419.442.4256.438.7743-.003.4505-.02.9017-.032 1.3522-.026.997-.052 1.9941-.079 2.9912-.026.9337-.092 1.8723-.088 2.8069.004.7919.092 1.688.559 2.3596 0 0 .643 1.1446 2.946 1.159 2.302.0152 3.686-.1114 3.813-1.1502z"/><path d="m98.7176 21.9342c-.3985.008-.6908.2877-.9017.7494l-1.4679 4.3899s-.0934.3791.2255.448c.5974.1307 1.1006.1972 1.7118.2453 0 0 .0781.0176.6272.0168l.4428-.0128c.4469-.0257.9567-.0473 1.2307-.4048 0 0 .123-.1258.042-.4961-.057-.2581-.492-2.2539-.759-3.4481 0 0-.3317-1.5029-1.1514-1.4876zm-6.8826 15.8234c-2.3994-.0665-1.8744-2.0511-1.8744-2.0511l1.5773-4.0716c1.2142-2.9464 2.2303-5.9489 3.3753-8.9313l.6916-1.8851c.1619-.4585.3205-.9434.2923-1.3963 0 0-.1175-.6564-.3277-.8151-.2101-.1579-.715-1.595 2.1627-1.5028 0 0 3.2639.0192 4.3629.2773 0 0 1.025.1499 1.452 2.023l4.053 15.1734s.278 1.0404 1.025 1.0243c1.018-.0216.971-1.93.971-1.93s.062-.8191.071-1.0949c.088-2.9519.178-6.3792-.025-9.465l-.074-1.2015c-.08-1.3112-2.337-2.2811-.363-3.1571 1.292-.5731 2.569-1.1782 3.933-1.6095 0 0 1.855-.6828 1.783.9242-.223 4.8932-.401 9.99-.29 14.6853.004.1867.05 1.6679.05 1.6679.032.6693.729 1.1398.99 1.6928 0 0 .496.7887-1.064 1.3634-1.211.4456-7.954.2565-10.669.2404-2.492-.0152-2.29-1.4106-2.29-1.4106.135-.7543.219-.5972.583-1.244.349-.6211.013-1.3008-.013-1.3529l-.003-.008c-.194-.4962-.653-2.3645-.653-2.3645s-.14-.5041-.76-.5458c-1.0578-.0722-2.2365.1194-3.1826-.2132-.8454-.1651-1.3986-1.1478-1.3986-1.1478s-.1602-.2388-.3486-.2276-.2351.2396-.2351.2396c-.583 1.6816-1.0548 3.2734-1.5621 4.9117-.4517 1.4555.8696 1.5605.5805 2.665 0 0 .0234.8151-2.8205.7374z"/><path d="m175.011 36.3516c.707-.7358 1.058-1.789 1.178-2.863 0 0 .351-1.9228-.525-3.202-1.235-1.8002-4.005-1.8171-5.802-3.1051 0 0-.84-.4721-.885-1.3 0 0-.01-1.1654 1.323-1.3129 1.334-.1467 1.921.3142 1.921.3142.089.0625.169.1354.236.2212.553.7109-.265 1.3305-.425 2.0495-.058.258.059.3614.059.3614.173.2557.524.3615.849.4184.493.0978.844-.0256 1.183-.2605.395-.2733.833-.8696.833-.8696.122-.1747.279-.4264.419-.7366.302-.6644.574-1.4203.443-2.1056 0 0-.091-.5819-.744-.9353-2.593-1.4043-6.056-1.2319-8.786-.0233-1.091.4833-1.54 1.6519-1.641 2.7981 0 0-.13 1.264.003 2.2338.25 1.8339 1.831 2.8534 3.394 3.4 0 0 3.659 1.0901 3.843 2.229.185 1.139-.782 1.7634-1.919 1.6239 0 0-1.476-.0441-2.332-.6685-.723-.5282-1.325-1.4956-1.628-1.9116-.091-.1242-.213-.2188-.356-.2765-.266-.1066-.719-.21-1.059.129-.065.065-.108.1483-.124.2389-.114.6436-.544 3.5996.979 4.2833 1.398.6268 7.509 1.4098 9.563-.7302z"/><path d="m219.486 36.3516c.706-.7358 1.057-1.789 1.178-2.863 0 0 .35-1.9228-.526-3.202-1.235-1.8002-4.004-1.8171-5.801-3.1051 0 0-.841-.4721-.886-1.3 0 0-.009-1.1654 1.324-1.3129 1.333-.1467 1.922.3142 1.922.3142.087.0625.168.1354.235.2212.552.7109-.265 1.3305-.425 2.0495-.058.258.059.3614.059.3614.172.2557.524.3615.849.4184.493.0978.843-.0256 1.182-.2605.395-.2733.833-.8696.833-.8696.123-.1747.279-.4264.42-.7366.302-.6644.574-1.4203.442-2.1056 0 0-.09-.5819-.743-.9353-2.595-1.4043-6.057-1.2319-8.786-.0233-1.092.4833-1.54 1.6519-1.642 2.7981 0 0-.128 1.264.004 2.2338.249 1.8339 1.83 2.8534 3.393 3.4 0 0 3.659 1.0901 3.844 2.229.184 1.139-.784 1.7634-1.92 1.6239 0 0-1.476-.0441-2.331-.6685-.724-.5282-1.326-1.4956-1.629-1.9116-.089-.1242-.212-.2188-.355-.2765-.266-.1066-.72-.21-1.059.129-.065.065-.108.1483-.124.2389-.115.6436-.545 3.5996.979 4.2833 1.397.6268 7.509 1.4098 9.563-.7302z"/><path d="m203.445 22.6362c-.792-.848-1.956-.6107-3.183-.2236-1.108.3495-1.732.965-2.654 1.3177-.392.1499-.461-.105-.461-.105-.09-.2164.013-.5138-.171-.8656-.294-.5635-.918-.5803-1.487-.5403-.667.0465-2.797.4304-2.797.4304-.464.1123-.899.2918-1.253.6509-.566.9297.762 1.4884.803 2.3781.237 2.7034.372 5.976.145 8.8599-.176.678-.885 1.1461-.807 1.8571 0 0-.034 1.1758 2.549 1.2046 2.582.0297 3.82-.1266 4.065-1.0067 0 0 .113-.7229-.502-1.4098-.774-.8673-.56-7.3956-.56-7.3956s-.231-1.4707.95-1.5982c1.181-.1274 1.539 1.0316 1.539 1.0316.917 2.9119 1.512 6.0754 2.326 9.0594 0 0 .405 1.3001 2.166 1.3193 1.762.0201 3.375.0593 3.945-.5674 0 0 .791-1.24-.489-1.9854 0 0-.28-.2773-.439-.727-1.058-2.9952-1.637-6.2028-2.591-9.2718-.372-1.1983-.456-1.6752-1.094-2.4126z"/><path d="m184.081 24.6596s-2.239-.3374-2.361 2.0319c-.061 1.1878-.022 4.284.23 5.6666.255 1.3818.76 2.0719 1.183 2.3717.436.3078.974.3623 1.487.3262 0 0 1.153-.1851 1.445-.7654.433-.8624.46-1.5758.431-2.9584 0 0-.13-4.7521-1.042-5.8751-.558-.6893-1.373-.7975-1.373-.7975zm2.636 12.9412c-2.204.3375-4.984.2228-6.586-.2565-1.813-.5426-2.603-2.1809-2.894-3.8761-.702-4.0756.013-7.123.013-7.123.277-1.4219.723-2.9231 2.157-3.517 2.774-1.1494 5.495-.9266 7.263-.509.926.2188 1.425.6212 1.425.6212.657.4729 1.768 1.4387 2.145 2.7716.665 2.3484.856 4.6432.615 7.1559 0 0-.508 4.1759-4.138 4.7329z"/><path d="m124.973 34.7388s.307-.2701.481-.957c.345-1.349-.096-2.8213-.365-4.1951l-.197-.8817c-.27-.965-.467-2.0543-1.422-2.4999-.228-.0954-.424-.0601-.424-.0601-.307.0369-.552.0537-.883.4232 0 0-.223.1843-.278.8632 0 0-.107 4.9181-.048 5.8366.059.921.244 1.2969.244 1.2969.21.4809.607.6388.607.6388.246.1378.55.1595.865.1603.854.0016 1.42-.6252 1.42-.6252zm.669 2.8125c-2.507.4641-6.935.02-6.935.02-.882-.02-1.8-.1875-2.094-.6708-.329-.5435.35-1.5574.35-1.5574.138-.1226.179-.448.179-.448.3-3.8168.345-7.4637.167-11.2212l-.055-1.4747c-.05-.9258-1.772-1.3153-.64-2.2932 1.401-.9682 2.874-1.6968 4.406-2.3428.602-.2541.805.0088.805.0088.227.1708.218.626.218.626v5.1794s-.053.5218.28.3767c.78-.3407 1.646-.7815 2.476-1.1221 1.774-.7286 2.908.7774 2.908.7774 1.289 1.4011 2.11 5.1393 2.11 5.1393.562 2.6314.761 5.9304-1.315 8.0063-.708.7078-2.86.9963-2.86.9963z"/><path d="m136.61 29.8088c.967.0665 2.263-.0754 2.635-.9698.5-1.1967.238-2.621-.331-3.6934 0 0-.188-.3382-.492-.4793-.373-.1723-.77-.2333-1.232-.0754-.127.0289-.264.1074-.264.1074-.518.3182-.735.8504-.846 1.4388 0 0-.231 1.393-.143 2.9503 0 0-.042.6717.673.7214zm4.974 1.3473c.275-.0489.586.1235.586.1235.73.3422 1.399.751 1.398 1.5821-.002 1.6776-.869 3.3183-2.399 4.1126-1.937.8857-4.192.8496-6.291.4224-2.255-.4585-3.063-2.3957-3.063-2.3957-.831-2.9528-.81-6.6245.103-9.6358.296-.973.62-1.377.62-1.377.785-1.05 2.132-1.5012 3.426-1.6752 2.074-.2789 3.504-.0192 4.191.1668.897.2428 1.266.5233 1.266.5233.381.2533.702.5924 1.005.9819.188.2509.298.4577.298.4577.777 1.4707 1.244 3.1715.915 4.8443-.03.1571-.075.2885-.122.3959-.094.2116-.255.388-.454.5082-.379.23-1.243.6645-2.795 1.0043 0 0-2.336.5065-3.379.6757 0 0-.979.1266-.918.7045.187 1.7577.767 2.2266.767 2.2266s.317.4336.891.6011c0 0 1.444.3463 2.277-.4985 0 0 .614-.3302.923-2.0695 0 0 .273-.9234.489-1.47 0 0 .047-.1707.266-.2092z"/><path d="m67.9316 17.4088h-17.0963c-.0435 0-.0838.0185-.1119.0505-9.3844 10.6064-18.7622 22.0119-27.9146 32.7826 0 0-.401.4625-.7303 1.0893-.4083.7759-.5371 1.2215-.5371 1.2215l-.008.0224c-1.3141 3.5635-.1095 8.0175 2.6256 10.4101l.0226.008h15.9988l-.9348-1.3754c-1.7746-2.6562-2.1305-6.3768-.4461-9.2767.0717-.1234.1997-.3286.2955-.4809l.0193-.0281.2368-.3286c9.2281-11.3013 18.6897-22.3205 28.3204-33.6298l.3905-.4649h-.1288"/></g></svg>