<svg height="42.312" viewBox="0 0 43.046 42.312" width="43.046" xmlns="http://www.w3.org/2000/svg"><g fill="#007fff"><path d="m1223.844 118.82a.584.584 0 0 1 -.263-.062l-20.937-10.535a.586.586 0 0 1 .015-1.055l20.937-9.809a.581.581 0 0 1 .5 0l20.936 9.809a.586.586 0 0 1 .015 1.055l-20.936 10.535a.586.586 0 0 1 -.267.062zm-19.595-11.1 19.595 9.86 19.594-9.86-19.594-9.18z" transform="translate(-1202.32 -97.302)"/><path d="m1223.844 148.491a.579.579 0 0 1 -.263-.062l-20.937-10.535a.587.587 0 0 1 .015-1.055l4.488-2.1a.586.586 0 1 1 .5 1.062l-3.395 1.591 19.595 9.86 19.594-9.86-3.459-1.621a.586.586 0 0 1 .5-1.062l4.552 2.133a.586.586 0 0 1 .015 1.055l-20.936 10.535a.581.581 0 0 1 -.269.059z" transform="translate(-1202.32 -120.244)"/><path d="m1223.844 165.765a.579.579 0 0 1 -.263-.062l-20.937-10.536a.586.586 0 0 1 .015-1.055l4.488-2.1a.586.586 0 1 1 .5 1.062l-3.394 1.59 19.594 9.861 19.594-9.861-3.459-1.621a.586.586 0 0 1 .5-1.062l4.552 2.133a.586.586 0 0 1 .015 1.055l-20.942 10.531a.581.581 0 0 1 -.263.065z" transform="translate(-1202.32 -130.853)"/><path d="m1223.844 184.952a.584.584 0 0 1 -.263-.062l-20.937-10.535a.586.586 0 0 1 .015-1.055l4.488-2.1a.586.586 0 0 1 .5 1.062l-3.395 1.591 19.595 9.86 19.594-9.86-3.459-1.621a.586.586 0 0 1 .5-1.062l4.552 2.133a.586.586 0 0 1 .015 1.055l-20.936 10.535a.586.586 0 0 1 -.269.059z" transform="translate(-1202.32 -142.639)"/></g></svg>