<svg height="3.51in" viewBox="0 0 415 253" width="5.76in" xmlns="http://www.w3.org/2000/svg" xmlns:xlink="http://www.w3.org/1999/xlink"><clipPath id="a"><path d="m55 55.08v55.92h258v-55.92"/></clipPath><clipPath id="b"><path d="m55 55.08v55.92h258v-55.92"/></clipPath><path d="m399 237c2.81 0 5.57-.74 8-2.14s4.45-3.42 5.86-5.86c1.4-2.43 2.14-5.19 2.14-8v-205c0-2.81-.74-5.57-2.14-8s-3.42-4.45-5.86-5.86c-2.43-1.4-5.19-2.14-8-2.14h-383c-2.81 0-5.57.74-8 2.14s-4.45 3.42-5.86 5.86c-1.4 2.43-2.14 5.19-2.14 8v205c0 2.81.74 5.57 2.14 8s3.42 4.45 5.86 5.86c2.43 1.4 5.19 2.14 8 2.14"/><path d="m32 253h383v-64h-383"/><path d="m64 221c0-5.62-1.48-11.14-4.29-16s-6.85-8.9-11.71-11.71-10.38-4.29-16-4.29-11.14 1.48-16 4.29-8.9 6.85-11.71 11.71-4.29 10.38-4.29 16 1.48 11.14 4.29 16 6.85 8.9 11.71 11.71 10.38 4.29 16 4.29 11.14-1.48 16-4.29 8.9-6.85 11.71-11.71 4.29-10.38 4.29-16"/><path d="m398.5 237c2.81 0 5.57-.74 8-2.14s4.45-3.42 5.86-5.86c1.4-2.43 2.14-5.19 2.14-8v-204.5c0-2.81-.74-5.57-2.14-8s-3.42-4.45-5.86-5.86c-2.43-1.4-5.19-2.14-8-2.14h-382c-2.81 0-5.57.74-8 2.14s-4.45 3.42-5.86 5.86c-1.4 2.43-2.14 5.19-2.14 8v204.5c0 2.81.74 5.57 2.14 8s3.42 4.45 5.86 5.86c2.43 1.4 5.19 2.14 8 2.14" fill="#fff"/><path d="m32.5 252.5h382v-32h-382" fill="#fff"/><path d="m64.5 220.5c0-5.62-1.48-11.14-4.29-16s-6.85-8.9-11.71-11.71-10.38-4.29-16-4.29-11.14 1.48-16 4.29-8.9 6.85-11.71 11.71-4.29 10.38-4.29 16 1.48 11.14 4.29 16 6.85 8.9 11.71 11.71 10.38 4.29 16 4.29 11.14-1.48 16-4.29 8.9-6.85 11.71-11.71 4.29-10.38 4.29-16" fill="#fff"/><g fill="#111310"><path d="m155.35 57.07v26.76h-4.71v-20.98h-.07l-8.41 20.98h-3.12l-8.62-20.98h-.06v20.98h-4.35v-26.76h6.75l7.79 19.84h.11l8.22-19.84z"/><path d="m164.33 83.83h-4.57v-19.18h4.57zm-5.05-24.73c-.01-.72.29-1.4.82-1.88.53-.5 1.23-.77 1.96-.76.74-.02 1.46.26 2 .77.51.48.8 1.15.79 1.86.01.71-.29 1.38-.81 1.85-.54.5-1.25.76-1.99.75-.73.02-1.44-.25-1.98-.76-.52-.47-.81-1.14-.8-1.84"/><path d="m178.12 80.54c.77-.02 1.53-.18 2.25-.47.81-.31 1.57-.72 2.27-1.23v4.2c-.78.43-1.62.74-2.49.93-1 .22-2.03.33-3.05.32-2.59.1-5.12-.86-6.97-2.68-1.8-1.81-2.77-4.29-2.68-6.84-.1-2.8.88-5.53 2.74-7.62 1.83-2 4.42-3 7.77-3 .88 0 1.75.11 2.6.33.73.16 1.43.42 2.09.76v4.33c-.67-.49-1.39-.89-2.16-1.18-.72-.28-1.49-.42-2.26-.42-1.64-.07-3.22.56-4.37 1.74-1.15 1.28-1.75 2.96-1.66 4.68-.1 1.67.48 3.3 1.6 4.53 1.16 1.12 2.73 1.71 4.34 1.62"/><path d="m195.66 64.33c.33 0 .66.02.98.07.25.04.5.1.74.19v4.57c-.32-.22-.68-.38-1.05-.49-.54-.17-1.11-.25-1.67-.23-1.12 0-2.17.51-2.84 1.4-.87 1.26-1.28 2.78-1.16 4.31v9.68h-4.57v-19.18h4.57v3.02h.07c.37-.99 1.03-1.84 1.89-2.45.9-.61 1.96-.92 3.04-.89"/><path d="m202.41 74.37c-.11 1.65.38 3.28 1.38 4.59 1.01 1.1 2.46 1.68 3.95 1.59 1.45.09 2.85-.49 3.8-1.59.96-1.37 1.42-3.03 1.3-4.7.12-1.67-.36-3.33-1.35-4.68-.96-1.08-2.35-1.66-3.79-1.58-1.49-.08-2.92.53-3.9 1.65-1.01 1.36-1.5 3.03-1.39 4.71m-4.76.16c-.15-2.78.83-5.5 2.72-7.54 2.02-1.94 4.76-2.94 7.56-2.78 2.64-.15 5.23.82 7.12 2.68 1.78 1.98 2.7 4.58 2.56 7.23.14 2.74-.85 5.42-2.72 7.43-1.98 1.91-4.66 2.91-7.41 2.76-2.65.14-5.24-.81-7.17-2.62-1.84-1.92-2.8-4.51-2.65-7.16"/><path d="m224.41 69.68c-.03.57.2 1.13.62 1.52.85.59 1.78 1.06 2.76 1.39 1.46.48 2.78 1.32 3.85 2.43.75.93 1.14 2.09 1.11 3.27.05 1.71-.74 3.33-2.11 4.35-1.66 1.17-3.67 1.75-5.7 1.64-.9 0-1.79-.11-2.67-.29-.85-.16-1.69-.4-2.49-.74v-4.44c.83.57 1.73 1.03 2.68 1.36.83.31 1.72.48 2.61.5.79.05 1.57-.1 2.29-.43.5-.3.79-.86.74-1.44 0-.62-.28-1.2-.77-1.58-.89-.63-1.87-1.13-2.9-1.48-1.37-.48-2.6-1.29-3.59-2.35-.73-.95-1.11-2.12-1.06-3.32-.03-1.67.75-3.26 2.09-4.26 1.56-1.17 3.47-1.76 5.41-1.67.77 0 1.53.08 2.29.22.72.12 1.43.31 2.12.58v4.3c-.66-.43-1.37-.77-2.12-1.03-.77-.28-1.58-.42-2.4-.43-.71-.04-1.42.13-2.03.5-.47.3-.74.83-.73 1.38"/><g clip-path="url(#a)"><path d="m239.51 74.37c-.11 1.65.38 3.28 1.38 4.59 1.01 1.1 2.46 1.68 3.95 1.59 1.45.09 2.85-.49 3.8-1.59.96-1.37 1.42-3.03 1.3-4.7.12-1.67-.36-3.33-1.35-4.68-.96-1.08-2.35-1.66-3.79-1.58-1.49-.08-2.92.53-3.9 1.65-1.01 1.36-1.5 3.03-1.39 4.71m-4.76.16c-.15-2.78.83-5.5 2.72-7.54 2.02-1.94 4.76-2.94 7.56-2.78 2.64-.15 5.23.82 7.12 2.68 1.78 1.98 2.7 4.58 2.56 7.23.14 2.74-.84 5.42-2.72 7.43-1.98 1.91-4.66 2.91-7.41 2.76-2.65.14-5.24-.81-7.17-2.62-1.84-1.92-2.8-4.51-2.66-7.16"/><path d="m265.44 55.09c.49 0 .98.02 1.47.08.38.05.76.13 1.13.25v3.9c-.25-.13-.52-.24-.79-.32-.42-.13-.86-.19-1.3-.19-.83-.05-1.64.27-2.21.89-.57.75-.84 1.68-.78 2.62v2.32h4.33v3.69h-4.33v15.49h-4.64v-15.49h-3.25v-3.69h3.25v-2.67c-.06-1.86.66-3.66 1.99-4.96 1.37-1.31 3.22-2 5.11-1.93"/></g><path d="m277.12 80.54c.33-.01.65-.07.96-.19.34-.11.67-.26.97-.45v3.73c-.46.22-.95.37-1.45.45-.66.14-1.32.2-1.99.21-1.59.12-3.17-.43-4.34-1.52-1.06-1.28-1.58-2.93-1.45-4.58v-9.85h-3.19v-3.7h3.19v-4.31l4.59-1.38v5.69h4.63v3.7h-4.63v8.97c-.09.88.15 1.77.65 2.5.55.53 1.29.79 2.05.73"/><g clip-path="url(#b)"><path d="m125.29 110.04v-2.87c.28.25.6.46.93.63.37.19.75.35 1.15.47.4.13.8.23 1.21.3.37.07.74.1 1.12.1.92.06 1.84-.14 2.65-.59.57-.37.9-1.02.87-1.7 0-.37-.09-.73-.29-1.04-.22-.32-.49-.59-.81-.8-.39-.27-.8-.5-1.23-.7-.47-.22-.98-.46-1.51-.7-.58-.31-1.12-.61-1.62-.93-.47-.29-.91-.64-1.3-1.04-.36-.37-.66-.81-.87-1.28-.22-.53-.33-1.1-.31-1.68-.02-.72.17-1.44.54-2.06.36-.58.85-1.07 1.43-1.44.62-.39 1.3-.68 2.01-.84.75-.18 1.53-.28 2.3-.28 1.33-.08 2.65.13 3.89.6v2.76c-1.1-.73-2.41-1.09-3.73-1.03-.42 0-.84.04-1.25.12-.39.07-.77.2-1.12.39-.31.17-.59.4-.8.69-.21.3-.32.66-.31 1.02 0 .34.07.68.24.97.18.29.41.55.69.75.35.25.72.48 1.12.66.44.21.95.45 1.53.7.59.31 1.15.63 1.68.96.5.32.97.69 1.39 1.11.39.39.71.85.95 1.35.24.53.36 1.11.35 1.69.07 1.46-.67 2.84-1.93 3.59-.63.38-1.32.65-2.04.8-.8.17-1.62.25-2.44.25-.28 0-.63-.02-1.05-.06s-.84-.11-1.28-.19c-.42-.08-.83-.18-1.23-.3-.33-.09-.64-.23-.94-.4"/><path d="m144.05 100.59c-.98-.04-1.92.37-2.55 1.11-.67.88-1 1.97-.94 3.07-.06 1.07.28 2.13.95 2.97.64.73 1.57 1.12 2.54 1.08.95.06 1.88-.34 2.5-1.07.63-.88.94-1.95.87-3.04.07-1.09-.24-2.17-.87-3.06-.62-.74-1.54-1.14-2.5-1.08m-.13 10.42c-3.19.22-5.95-2.18-6.17-5.37-.02-.26-.02-.52 0-.77-.1-1.75.53-3.46 1.75-4.73 1.28-1.18 2.98-1.79 4.72-1.7 1.65-.1 3.26.5 4.44 1.65 1.12 1.26 1.69 2.91 1.59 4.59.23 3.27-2.23 6.1-5.5 6.33-.28.02-.55.02-.83 0"/><path d="m153.05 92.93h2.77v17.77h-2.77z"/><path d="m170.01 110.7h-2.76v-1.9h-.05c-.71 1.4-2.17 2.25-3.73 2.18-2.87 0-4.31-1.7-4.31-5.11v-7.18h2.76v6.9c0 2.16.84 3.24 2.53 3.24.77.02 1.51-.31 2.01-.89.55-.65.83-1.48.79-2.33v-6.91h2.76v12.01"/><path d="m180.01 110.57c-.67.29-1.4.43-2.13.4-2.36 0-3.54-1.12-3.54-3.35v-6.79h-2.03v-2.13h2.03v-2.78l2.75-.77v3.55h2.91v2.13h-2.91v6c-.05.54.09 1.08.39 1.52.35.34.82.5 1.31.46.44 0 .87-.13 1.21-.4v2.16"/><path d="m185.14 110.7h-2.76v-12.01h2.76zm-1.37-14.52c-.43 0-.84-.15-1.16-.43s-.49-.68-.48-1.1c-.01-.42.17-.83.48-1.11.31-.29.73-.45 1.16-.45.44-.01.86.15 1.19.45.32.28.5.69.49 1.11 0 .42-.17.81-.49 1.08-.32.3-.75.46-1.19.45"/><path d="m194.26 100.59c-.98-.04-1.92.37-2.55 1.11-.67.88-1 1.97-.94 3.07-.06 1.07.28 2.13.95 2.97.64.73 1.58 1.12 2.54 1.08.96.06 1.88-.34 2.5-1.07.63-.88.94-1.95.87-3.04.07-1.09-.24-2.17-.87-3.06-.62-.74-1.54-1.14-2.5-1.08m-.13 10.42c-3.19.22-5.95-2.18-6.17-5.37-.02-.26-.02-.52 0-.77-.1-1.75.53-3.46 1.75-4.73 1.28-1.18 2.98-1.79 4.72-1.7 1.65-.1 3.26.5 4.44 1.65 1.12 1.26 1.69 2.91 1.59 4.59.23 3.27-2.23 6.1-5.5 6.33-.28.02-.55.02-.83 0"/><path d="m214.09 110.7h-2.76v-6.77c0-2.24-.8-3.37-2.41-3.37-.8-.02-1.56.32-2.08.93-.56.65-.85 1.49-.82 2.35v6.85h-2.77v-12.01h2.76v1.99h.05c.78-1.44 2.31-2.32 3.94-2.28 1.15-.07 2.27.4 3.03 1.27.76 1.07 1.13 2.37 1.04 3.68v7.34"/><path d="m216.69 110.33v-2.52c.98.76 2.17 1.16 3.41 1.16 1.66 0 2.49-.48 2.49-1.45 0-.25-.07-.5-.21-.7-.16-.21-.35-.38-.58-.51-.27-.16-.56-.3-.85-.4-.33-.12-.7-.25-1.1-.4-.46-.18-.91-.39-1.35-.62-.37-.19-.71-.45-1-.74-.26-.27-.47-.59-.6-.94-.14-.39-.21-.81-.2-1.23-.01-.54.13-1.07.41-1.53.28-.45.67-.83 1.12-1.11.49-.31 1.03-.54 1.59-.68.6-.15 1.22-.23 1.84-.23 1.03-.02 2.05.15 3.02.5v2.38c-.87-.58-1.9-.89-2.95-.87-.32 0-.63.03-.94.11-.25.06-.5.16-.72.29-.19.11-.35.27-.46.45-.11.17-.17.37-.17.58 0 .23.05.46.17.66.12.19.29.36.49.48.25.15.51.28.78.38.31.11.65.24 1.05.37.48.19.95.41 1.41.65.39.2.74.45 1.06.74.29.27.52.6.68.96.17.41.25.85.24 1.3.01.56-.14 1.12-.43 1.6-.29.46-.68.84-1.14 1.13-.51.31-1.06.53-1.65.66-.64.15-1.3.22-1.96.22-1.19.03-2.36-.2-3.46-.66"/><path d="m237.74 96.19v6.14h1.83c.99.07 1.98-.23 2.77-.83.65-.6 1-1.46.95-2.35 0-1.98-1.16-2.97-3.49-2.97h-2.06m0 8.43v6.1h-2.82v-16.82h5.17c1.63-.1 3.24.38 4.55 1.35 1.1.95 1.69 2.35 1.62 3.8.05 1.52-.57 2.98-1.69 4.01-1.26 1.09-2.9 1.65-4.56 1.56z"/><path d="m254.81 104.8-2.55.35c-.63.05-1.24.24-1.79.57-.43.35-.66.9-.6 1.46-.01.48.19.94.55 1.25.42.34.94.51 1.48.49.79.02 1.55-.3 2.08-.87.55-.6.85-1.39.83-2.2v-1.04m2.66 5.89h-2.67v-1.88h-.05c-.72 1.37-2.15 2.21-3.69 2.16-1.03.06-2.03-.29-2.81-.96-.69-.66-1.06-1.59-1.02-2.54 0-2.27 1.32-3.59 3.97-3.96l3.61-.5c0-1.71-.82-2.57-2.47-2.57-1.44 0-2.84.52-3.92 1.48v-2.39c1.35-.77 2.89-1.16 4.44-1.13 3.07 0 4.61 1.49 4.61 4.48z"/><path d="m267.88 101.29c-.42-.28-.93-.42-1.44-.39-.82 0-1.59.41-2.04 1.09-.59.87-.88 1.91-.82 2.97v5.75h-2.76v-12.01h2.76v2.47h.05c.22-.76.65-1.45 1.24-1.98.52-.46 1.18-.71 1.87-.71.39-.02.78.05 1.14.22v2.58"/><path d="m276.94 110.57c-.67.29-1.4.43-2.13.4-2.36 0-3.54-1.12-3.54-3.35v-6.79h-2.03v-2.13h2.03v-2.78l2.75-.77v3.55h2.91v2.13h-2.91v6c-.05.54.09 1.08.39 1.52.35.34.82.5 1.31.46.44 0 .86-.13 1.21-.4v2.16"/><path d="m290.15 110.7h-2.76v-6.77c0-2.24-.8-3.37-2.41-3.37-.8-.02-1.56.32-2.08.93-.56.65-.85 1.49-.82 2.35v6.85h-2.77v-12.01h2.76v1.99h.05c.78-1.44 2.3-2.32 3.94-2.28 1.15-.07 2.27.4 3.03 1.27.76 1.07 1.13 2.37 1.05 3.68v7.34"/><path d="m300.66 103.52c.04-.82-.21-1.63-.7-2.28-.47-.55-1.17-.85-1.9-.82-.76-.01-1.49.3-2.01.86-.57.62-.93 1.4-1.02 2.24zm2.66 1.92h-8.29c-.03.96.35 1.9 1.04 2.57.76.64 1.74.96 2.73.9 1.28 0 2.54-.4 3.58-1.15v2.19c-1.34.75-2.86 1.1-4.39 1.03-1.57.09-3.11-.51-4.21-1.63-1.08-1.28-1.63-2.93-1.53-4.6-.07-1.69.54-3.33 1.68-4.57 1.07-1.16 2.59-1.8 4.17-1.77 1.46-.08 2.88.5 3.86 1.58.98 1.25 1.46 2.82 1.37 4.4v1.04"/></g><path d="m313 101.29c-.42-.28-.93-.42-1.44-.39-.82 0-1.58.41-2.04 1.09-.59.87-.88 1.91-.82 2.97v5.75h-2.76v-12.01h2.76v2.47h.05c.22-.76.65-1.45 1.24-1.98.52-.46 1.18-.71 1.87-.71.39-.02.79.05 1.14.22v2.58"/><path d="m55 56.9h25.97v25.64h-25.97z"/><path d="m83.67 56.9h25.97v25.64h-25.97z"/><path d="m55 85.21h25.97v25.64h-25.97z"/><path d="m83.67 85.21h25.97v25.64h-25.97z"/></g><path d="m57.2 155v-16.8h4.64c5.92 0 8.88 2.73 8.88 8.19 0 2.59-.82 4.68-2.47 6.25s-3.85 2.36-6.6 2.36zm1.97-15.02v13.24h2.51c2.2 0 3.92-.59 5.14-1.77s1.84-2.85 1.84-5.02c0-4.3-2.29-6.46-6.87-6.46h-2.62z"/><path d="m83.54 149.48h-8.47c.03 1.34.39 2.37 1.08 3.09s1.63 1.09 2.84 1.09c1.35 0 2.59-.45 3.73-1.34v1.8c-1.05.77-2.45 1.15-4.18 1.15s-3.03-.54-4-1.63-1.45-2.62-1.45-4.6c0-1.87.53-3.39 1.59-4.56s2.37-1.76 3.94-1.76 2.79.51 3.64 1.52 1.29 2.43 1.29 4.23v1.01zm-1.97-1.63c0-1.11-.28-1.97-.8-2.59s-1.26-.93-2.2-.93-1.68.32-2.31.97-1.02 1.5-1.17 2.54h6.48z"/><path d="m96 143-4.78 12h-1.89l-4.55-12h2.11l3.05 8.72c.23.64.37 1.2.42 1.68h.05c.08-.6.2-1.14.38-1.63l3.19-8.77h2.03z"/><path d="m105.21 155.28c-2.38 0-4.29-.79-5.72-2.36s-2.15-3.61-2.15-6.13c0-2.7.73-4.86 2.19-6.47s3.45-2.41 5.96-2.41c2.32 0 4.19.78 5.61 2.34s2.13 3.61 2.13 6.13c0 2.74-.73 4.91-2.18 6.5s-3.4 2.39-5.84 2.39zm.14-15.58c-1.77 0-3.2.64-4.3 1.91s-1.65 2.95-1.65 5.02.54 3.74 1.61 5 2.47 1.89 4.2 1.89c1.84 0 3.3-.6 4.36-1.8s1.59-2.89 1.59-5.05-.52-3.93-1.55-5.14-2.45-1.82-4.27-1.82z"/><path d="m118.36 153.27h-.05v7.25h-1.92v-17.52h1.92v2.11h.05c.95-1.59 2.33-2.39 4.15-2.39 1.55 0 2.75.54 3.62 1.61s1.3 2.51 1.3 4.32c0 2.01-.49 3.62-1.46 4.82s-2.31 1.81-4.01 1.81c-1.55 0-2.75-.67-3.6-2.02zm-.04-4.84v1.68c0 .99.32 1.83.97 2.53s1.46 1.04 2.46 1.04c1.16 0 2.08-.45 2.74-1.34s.99-2.13.99-3.71c0-1.34-.31-2.38-.93-3.14s-1.45-1.14-2.51-1.14c-1.12 0-2.02.39-2.7 1.17s-1.02 1.75-1.02 2.92z"/><path d="m129.9 154.57v-2.06c1.05.77 2.2 1.16 3.46 1.16 1.69 0 2.53-.56 2.53-1.69 0-.32-.07-.59-.22-.81s-.34-.42-.59-.59-.54-.33-.87-.46-.69-.28-1.07-.43c-.53-.21-1-.42-1.4-.64s-.74-.46-1.01-.73-.47-.58-.61-.92-.21-.75-.21-1.21c0-.56.13-1.06.39-1.49s.6-.8 1.03-1.09.92-.51 1.47-.66 1.12-.22 1.71-.22c1.04 0 1.97.18 2.79.54v1.95c-.88-.58-1.9-.87-3.05-.87-.36 0-.68.04-.97.12s-.54.2-.74.35-.37.33-.48.53-.17.44-.17.69c0 .31.06.57.17.79s.28.4.5.56.48.31.8.45.67.28 1.07.43c.53.2 1.01.41 1.43.63s.78.46 1.08.73.53.58.69.93.24.77.24 1.25c0 .59-.13 1.11-.39 1.55s-.61.8-1.05 1.09-.94.5-1.51.64-1.17.21-1.79.21c-1.23 0-2.3-.24-3.21-.71z"/><path d="m162.74 143-3.6 12h-1.99l-2.47-8.59c-.09-.33-.16-.7-.19-1.11h-.05c-.02.28-.11.64-.25 1.09l-2.68 8.61h-1.92l-3.63-12h2.02l2.48 9.02c.08.27.13.63.16 1.08h.09c.02-.34.09-.71.21-1.1l2.77-9h1.76l2.48 9.05c.08.29.14.65.18 1.08h.09c.02-.3.08-.66.2-1.08l2.44-9.05z"/><path d="m166.07 139.95c-.34 0-.64-.12-.88-.35s-.36-.53-.36-.89.12-.66.36-.9.54-.36.88-.36.65.12.9.36.37.54.37.9-.12.64-.37.88-.54.36-.9.36zm.94 15.05h-1.92v-12h1.92z"/><path d="m176.58 154.88c-.45.25-1.05.38-1.79.38-2.1 0-3.15-1.17-3.15-3.52v-7.1h-2.06v-1.64h2.06v-2.93l1.92-.62v3.55h3.02v1.64h-3.02v6.76c0 .8.14 1.38.41 1.72s.73.52 1.36.52c.48 0 .9-.13 1.25-.4z"/><path d="m189.23 155h-1.92v-6.91c0-2.5-.93-3.75-2.79-3.75-.94 0-1.73.36-2.37 1.08s-.96 1.65-.96 2.78v6.8h-1.92v-17.77h1.92v7.76h.05c.92-1.52 2.23-2.27 3.94-2.27 2.7 0 4.05 1.63 4.05 4.89z"/><path d="m212.49 153.85c-1.69.95-3.56 1.43-5.62 1.43-2.4 0-4.34-.77-5.82-2.32s-2.22-3.59-2.22-6.14.82-4.74 2.47-6.4 3.73-2.5 6.25-2.5c1.83 0 3.36.3 4.6.89v2.18c-1.36-.86-2.97-1.29-4.83-1.29s-3.43.65-4.63 1.95-1.8 2.98-1.8 5.04.56 3.79 1.68 5.01 2.63 1.82 4.55 1.82c1.31 0 2.45-.26 3.41-.79v-4.71h-3.68v-1.78h5.65v7.62z"/><path d="m217.24 139.95c-.34 0-.64-.12-.88-.35s-.36-.53-.36-.89.12-.66.36-.9.54-.36.88-.36.65.12.9.36.37.54.37.9-.12.64-.37.88-.54.36-.9.36zm.93 15.05h-1.92v-12h1.92z"/><path d="m227.75 154.88c-.45.25-1.05.38-1.79.38-2.1 0-3.15-1.17-3.15-3.52v-7.1h-2.06v-1.64h2.06v-2.93l1.92-.62v3.55h3.02v1.64h-3.02v6.76c0 .8.14 1.38.41 1.72s.73.52 1.36.52c.48 0 .9-.13 1.25-.4z"/><path d="m243.33 155h-1.97v-7.66h-8.7v7.66h-1.97v-16.8h1.97v7.37h8.7v-7.37h1.97z"/><path d="m257.3 155h-1.92v-1.9h-.05c-.8 1.45-2.03 2.18-3.7 2.18-2.86 0-4.29-1.7-4.29-5.11v-7.17h1.91v6.87c0 2.53.97 3.8 2.91 3.8.94 0 1.71-.35 2.31-1.04s.91-1.6.91-2.71v-6.91h1.92v12z"/><path d="m263.27 153.27h-.05v1.73h-1.92v-17.77h1.92v7.88h.05c.95-1.59 2.33-2.39 4.15-2.39 1.54 0 2.74.54 3.62 1.61s1.31 2.51 1.31 4.32c0 2.01-.49 3.62-1.46 4.82s-2.31 1.81-4.01 1.81c-1.59 0-2.79-.67-3.6-2.02zm-.05-4.84v1.68c0 .99.32 1.83.97 2.53s1.46 1.04 2.46 1.04c1.16 0 2.08-.45 2.74-1.34s.99-2.13.99-3.71c0-1.34-.31-2.38-.93-3.14s-1.45-1.14-2.51-1.14c-1.12 0-2.02.39-2.7 1.17s-1.02 1.75-1.02 2.92z"/><path d="m61.96 184.08c-1.77 0-3.19-.56-4.25-1.68s-1.59-2.61-1.59-4.46c0-2.02.55-3.59 1.65-4.72s2.59-1.7 4.46-1.7 3.19.55 4.19 1.65 1.51 2.63 1.51 4.58-.54 3.45-1.62 4.6-2.53 1.73-4.35 1.73zm.14-10.94c-1.23 0-2.21.42-2.93 1.26s-1.08 2-1.08 3.47.36 2.54 1.09 3.36 1.7 1.23 2.92 1.23 2.2-.4 2.87-1.21 1-1.95 1-3.43-.33-2.66-1-3.47-1.62-1.22-2.87-1.22z"/><path d="m81.09 183.8h-1.92v-6.84c0-2.55-.93-3.82-2.79-3.82-.96 0-1.76.36-2.38 1.08s-.94 1.63-.94 2.74v6.84h-1.92v-12h1.92v1.99h.05c.91-1.52 2.22-2.27 3.94-2.27 1.31 0 2.32.42 3.01 1.27s1.04 2.07 1.04 3.67v7.34z"/><path d="m104.79 183.8h-2.18l-1.78-4.71h-7.12l-1.68 4.71h-2.19l6.45-16.8h2.04l6.47 16.8zm-4.61-6.48-2.64-7.16c-.09-.23-.17-.61-.26-1.12h-.05c-.08.48-.17.85-.27 1.12l-2.61 7.16h5.82z"/><path d="m115.49 172.35-7.1 9.81h7.03v1.64h-9.86v-.6l7.1-9.76h-6.43v-1.64h9.26z"/><path d="m127.8 183.8h-1.92v-1.9h-.05c-.8 1.45-2.03 2.18-3.7 2.18-2.86 0-4.29-1.7-4.29-5.11v-7.17h1.91v6.87c0 2.53.97 3.8 2.91 3.8.94 0 1.71-.35 2.31-1.04s.91-1.6.91-2.71v-6.91h1.92v12z"/><path d="m138.06 173.75c-.34-.26-.82-.39-1.45-.39-.82 0-1.51.39-2.06 1.16s-.83 1.83-.83 3.16v6.12h-1.92v-12h1.92v2.47h.05c.27-.84.69-1.5 1.25-1.97s1.19-.71 1.89-.71c.5 0 .88.05 1.15.16v1.99z"/><path d="m149.59 178.28h-8.47c.03 1.34.39 2.37 1.08 3.09s1.63 1.09 2.84 1.09c1.35 0 2.59-.45 3.73-1.34v1.8c-1.05.77-2.45 1.15-4.18 1.15s-3.03-.54-4-1.63-1.45-2.62-1.45-4.6c0-1.87.53-3.39 1.59-4.56s2.37-1.76 3.94-1.76 2.79.51 3.64 1.52 1.29 2.43 1.29 4.23v1.01zm-1.97-1.63c0-1.11-.28-1.97-.8-2.59s-1.26-.93-2.2-.93-1.68.32-2.31.97-1.02 1.5-1.17 2.54h6.48z"/></svg>