<svg enable-background="new 0 0 167 75" viewBox="0 0 167 75" xmlns="http://www.w3.org/2000/svg"><path d="m85.2 16.5h1l2.8-2.8.1-1.2c-5.3-4.7-13.4-4.2-18.1 1.1-1.3 1.5-2.2 3.2-2.8 5.1.3-.1.7-.2 1-.1l5.7-.9s.3-.5.4-.4c2.7-2.9 7-3.2 9.9-.8z" fill="#808080"/><path d="m93.1 18.7c-.7-2.4-2-4.6-3.9-6.2l-4 4c1.7 1.4 2.7 3.5 2.6 5.6v.7c2 0 3.6 1.6 3.6 3.6s-1.6 3.6-3.6 3.6h-7.1l-.7.6v4.3l.7.7h7.1c5.1 0 9.3-4.1 9.3-9.2.1-3.1-1.4-6-4-7.7z" fill="#999"/><path d="m73.6 35.6h7.1v-5.7h-7.1c-.5 0-1-.1-1.5-.3l-1 .3-2.9 2.8-.2 1c1.6 1.2 3.6 1.9 5.6 1.9z" fill="#b3b3b3"/><path d="m73.6 17.1c-5.1 0-9.2 4.2-9.2 9.3 0 2.9 1.4 5.5 3.6 7.3l4.1-4.1c-1.8-.8-2.6-2.9-1.8-4.7s2.9-2.6 4.7-1.8c.8.4 1.4 1 1.8 1.8l4.1-4.1c-1.7-2.4-4.4-3.7-7.3-3.7z" fill="#c6c6c6"/><g fill="#666"><path d="m25.6 58.9c-2.5 0-4.9-.9-6.6-2.7-1.8-1.7-2.8-4.1-2.8-6.5 0-2.5 1-4.8 2.8-6.5 1.7-1.8 4.1-2.8 6.6-2.8 2.4 0 4.6.9 6.3 2.5l-1.8 1.8c-1.2-1.2-2.9-1.8-4.5-1.8-1.8 0-3.5.7-4.7 2-1.3 1.3-2 3-1.9 4.8 0 1.8.7 3.5 1.9 4.7 2.6 2.6 6.7 2.6 9.4.1.8-.9 1.3-2 1.4-3.1h-6v-2.6h8.5c.1.5.1 1 .1 1.6.1 2.2-.7 4.3-2.2 5.9-1.7 1.7-4.1 2.7-6.5 2.6zm19.7-1.7c-2.4 2.3-6.1 2.3-8.5 0-1.1-1.1-1.8-2.7-1.7-4.2 0-1.6.6-3.1 1.7-4.2 2.4-2.3 6.1-2.3 8.5 0 1.1 1.1 1.8 2.7 1.7 4.2.1 1.6-.5 3.1-1.7 4.2zm-6.6-1.7c1.2 1.3 3.3 1.4 4.6.2.1 0 .1-.1.2-.2.7-.7 1-1.6 1-2.6s-.3-1.9-1-2.6c-1.3-1.3-3.3-1.4-4.7-.1 0 0-.1.1-.1.1-.7.7-1 1.6-1 2.6s.4 2 1 2.6zm19.7 1.7c-2.4 2.3-6.1 2.3-8.5 0-1.1-1.1-1.8-2.7-1.7-4.2 0-1.6.6-3.1 1.7-4.2 2.4-2.3 6.1-2.3 8.5 0 1.1 1.1 1.8 2.7 1.7 4.2 0 1.6-.6 3.1-1.7 4.2zm-6.6-1.7c1.2 1.3 3.3 1.4 4.6.2.1 0 .1-.1.2-.2.7-.7 1-1.6 1-2.6s-.3-1.9-1-2.6c-1.3-1.3-3.3-1.4-4.7-.1 0 0-.1.1-.1.1-.7.7-1 1.6-1 2.6-.1 1 .3 2 1 2.6zm15.1 8.8c-1.2 0-2.4-.3-3.3-1.1-.8-.6-1.5-1.5-1.9-2.5l2.3-1c.2.6.6 1.1 1.1 1.5s1.2.6 1.9.6c.9.1 1.7-.3 2.3-.9.6-.7.9-1.7.8-2.6v-.9h-.1c-.8.9-1.9 1.4-3.1 1.3-1.5 0-3-.6-4-1.7-1.1-1.1-1.7-2.6-1.7-4.2s.6-3.1 1.7-4.2c1-1.1 2.5-1.8 4-1.8.6 0 1.3.1 1.8.4.5.2.9.5 1.3.9h.1v-.9h2.5v10.6c.1 1.7-.4 3.4-1.6 4.7-1.1 1.2-2.6 1.8-4.1 1.8zm.2-7.7c.9 0 1.7-.3 2.3-1s.9-1.6.9-2.6-.3-1.9-.9-2.6-1.4-1-2.3-1-1.7.3-2.3 1c-.7.7-1 1.6-1 2.6s.3 1.9 1 2.6c.6.6 1.4 1 2.3 1zm9.9-15.5v17.5h-2.6v-17.5zm7.2 17.8c-1.6 0-3.1-.6-4.2-1.7s-1.7-2.7-1.7-4.2c-.1-1.6.5-3.1 1.6-4.3 1-1.1 2.5-1.7 4-1.7.7 0 1.4.1 2 .4.6.2 1.1.6 1.5 1s.7.8 1 1.2c.2.4.4.8.6 1.2l.3.7-8 3.3c.5 1.1 1.6 1.9 2.9 1.8 1.2 0 2.3-.6 2.9-1.7l2 1.4c-.5.7-1.2 1.3-1.9 1.8-.9.5-2 .8-3 .8zm-3.4-6.1 5.3-2.2c-.2-.4-.5-.7-.8-.9-.4-.2-.9-.4-1.4-.4-.8 0-1.6.4-2.2 1s-1 1.5-.9 2.5z"/><path d="m102.9 58.9c-4.6.1-8.3-3.5-8.4-8.1 0-.1 0-.2 0-.3-.1-4.5 3.5-8.3 8-8.4h.3c2.3-.1 4.5.9 5.9 2.6l-1.4 1.4c-1.1-1.4-2.7-2.1-4.5-2-1.7 0-3.3.6-4.4 1.8-1.2 1.2-1.9 2.9-1.8 4.7-.1 1.7.6 3.4 1.8 4.7 1.2 1.2 2.8 1.8 4.4 1.8 1.9 0 3.8-.8 5-2.3l1.4 1.4c-.8.9-1.7 1.6-2.8 2.1-.9.4-2.2.6-3.5.6z"/><path d="m113.3 58.6h-2.1v-16.2h2.1z"/><path d="m116.6 48.8c2.3-2.2 5.9-2.2 8.2 0 1.1 1.1 1.6 2.6 1.6 4.2s-.5 3.1-1.6 4.2c-2.3 2.2-5.9 2.2-8.2 0-1.1-1.1-1.6-2.6-1.6-4.2 0-1.5.6-3 1.6-4.2zm1.6 7.1c1.3 1.4 3.5 1.5 4.9.1 0 0 .1-.1.1-.1.7-.8 1.1-1.8 1.1-2.9s-.3-2.1-1.1-2.9c-1.3-1.4-3.5-1.5-4.9-.1 0 0-.1.1-.1.1-.7.8-1.1 1.8-1.1 2.9s.4 2.1 1.1 2.9z"/><path d="m137.9 58.6h-2v-1.6h-.1c-.4.6-.9 1.1-1.5 1.4-.6.4-1.3.6-2.1.5-1.2.1-2.3-.4-3.1-1.3-.8-1-1.1-2.2-1.1-3.4v-6.8h2.1v6.4c0 2.1.9 3.1 2.7 3.1.8 0 1.6-.3 2.1-1s.8-1.5.8-2.4v-6.1h2.1v11.2z"/><path d="m144.9 58.9c-1.4 0-2.8-.6-3.7-1.7-1-1.1-1.6-2.6-1.6-4.2 0-1.5.5-3 1.6-4.2.9-1.1 2.3-1.7 3.7-1.7.8 0 1.6.2 2.3.5.6.3 1.1.8 1.5 1.3h.1l-.1-1.5v-5.1h2.1v16.1h-2v-1.4h-.1c-.4.6-.9 1-1.5 1.4-.8.3-1.5.5-2.3.5zm.3-1.9c.9 0 1.9-.4 2.5-1.1.7-.8 1.1-1.8 1-2.9.1-1.1-.3-2.1-1-2.9-1.3-1.4-3.4-1.5-4.8-.2-.1.1-.2.1-.2.2-.7.8-1.1 1.8-1 2.9-.1 1.1.3 2.1 1 2.9.7.7 1.6 1.1 2.5 1.1z"/></g></svg>