<svg height="36.5" viewBox="0 0 36.5 36.5" width="36.5" xmlns="http://www.w3.org/2000/svg"><path d="m2436.426 277.809a.493.493 0 0 0 -.493-.493h-35.513a.493.493 0 0 0 -.493.493v35.513a.493.493 0 0 0 .493.493h35.513a.493.493 0 0 0 .493-.493zm-35.513 35.02v-24.829h10.112v24.592a.48.48 0 0 0 .069.237zm34.527 0h-23.5a.48.48 0 0 0 .069-.237v-12.573h23.429zm0-13.8h-23.43v-11.029h23.363a.437.437 0 0 0 .066-.013zm0-12.005a.512.512 0 0 0 -.066-.013h-34.461v-8.711h34.527z" fill="#007fff" transform="translate(-2399.926 -277.316)"/></svg>