<svg height="159" viewBox="0 0 500 159" width="500" xmlns="http://www.w3.org/2000/svg" xmlns:xlink="http://www.w3.org/1999/xlink"><clipPath id="a"><path d="m0 0h500v159h-500z"/></clipPath><g clip-path="url(#a)"><path d="m0 0h500v159h-500z" fill="#fff"/><g transform="translate(130.206 32.016)"><path d="m-5-6h249.59v106.967h-249.59z" fill="none"/><g fill-rule="evenodd"><path d="m128.865 37.421-17.147-2.646 15.688-7.937a.517.517 0 0 0 -.31-.968l-17.421 2.713 12.512-12.383a.515.515 0 0 0 -.6-.824l-15.617 8.008 7.87-15.55a.517.517 0 0 0 -.825-.6l-12.358 12.5 2.906-17.391a.518.518 0 0 0 -.972-.323l-8.081 15.79-2.663-17.168a.515.515 0 0 0 -1.018 0l-2.695 17.158-8-15.849a.512.512 0 0 0 -.619-.259.517.517 0 0 0 -.349.572l2.888 17.619-12.52-12.802a.517.517 0 0 0 -.829.6l8.147 15.9-15.952-8.256a.513.513 0 0 0 -.656.155.522.522 0 0 0 .055.67l12.813 12.508-17.726-2.879a.515.515 0 0 0 -.314.968l15.928 7.994-17.569 2.68a.515.515 0 0 0 .077 1.023h75.276a.513.513 0 0 0 .078-1.022" fill="#636363" transform="translate(45.399 4.857)"/><path d="m98.393 28.956c.011-.2-.089-.33-.226-.351l-7.338-1.132 6.714-3.394a.27.27 0 0 0 -.162-.508l-7.457 1.164 5.357-5.306a.269.269 0 0 0 .027-.348.264.264 0 0 0 -.339-.081l-6.691 3.428 3.369-6.655a.269.269 0 0 0 -.431-.31l-5.288 5.348 1.246-7.445a.273.273 0 0 0 -.182-.3.266.266 0 0 0 -.324.132l-3.459 6.762-1.142-7.35a.267.267 0 0 0 -.531 0l-1.152 7.347-3.427-6.787a.271.271 0 0 0 -.51.164l1.237 7.541-5.354-5.486a.267.267 0 0 0 -.349-.027.262.262 0 0 0 -.084.337l3.487 6.81-6.828-3.533a.27.27 0 0 0 -.316.431l5.486 5.355-7.589-1.23a.267.267 0 0 0 -.3.18.275.275 0 0 0 .135.324l6.817 3.419-7.516 1.145a.3.3 0 0 0 -.228.351h33.348" fill="#a0a0a0" transform="translate(54.829 14.382)"/><path d="m17.642 48.892a6.27 6.27 0 0 1 -.168 1.435 4.523 4.523 0 0 1 -4.229 2.963c-1.861-.053-3.05-.888-3.09-2.961a3.279 3.279 0 0 1 2.161-3.145 13.689 13.689 0 0 1 5.325-.943v2.651zm9.841-7.324c0-3.644-.774-7.051-2.87-9.57s-5.491-4.074-10.472-4.065a23.835 23.835 0 0 0 -11.652 2.812.517.517 0 0 0 -.239.587l1.683 6.017a.517.517 0 0 0 .767.3 16.316 16.316 0 0 1 7.822-2.149c4.163.07 4.714 1.854 4.81 3.266-5.013.062-9.217.995-12.244 2.924a10.348 10.348 0 0 0 -4.958 9.2 9.708 9.708 0 0 0 10 9.839h.009a11.1 11.1 0 0 0 8.206-3.261l.376 2.148a.513.513 0 0 0 .51.426h8.224a.517.517 0 0 0 .4-.191.522.522 0 0 0 .1-.437 39.37 39.37 0 0 1 -.472-7.226zm131.163 7.324a6.27 6.27 0 0 1 -.168 1.435 4.525 4.525 0 0 1 -4.231 2.963c-1.861-.053-3.05-.888-3.09-2.961a3.282 3.282 0 0 1 2.161-3.145 13.712 13.712 0 0 1 5.327-.943v2.651zm9.841 3.3v-10.624c0-3.644-.775-7.051-2.874-9.57s-5.491-4.074-10.472-4.065a23.819 23.819 0 0 0 -11.649 2.811.517.517 0 0 0 -.241.587l1.683 6.017a.514.514 0 0 0 .767.3 16.319 16.319 0 0 1 7.826-2.154c4.161.07 4.712 1.854 4.808 3.266-5.013.062-9.219.995-12.248 2.924a10.357 10.357 0 0 0 -4.954 9.2 9.709 9.709 0 0 0 9.994 9.839h.009a11.1 11.1 0 0 0 8.208-3.261l.378 2.148a.509.509 0 0 0 .51.426h8.222a.512.512 0 0 0 .5-.628 39.236 39.236 0 0 1 -.471-7.226zm54.9-22.3a.524.524 0 0 0 -.367-.155h-6.01v-7.446a.519.519 0 0 0 -.652-.5l-8.928 2.455a.515.515 0 0 0 -.378.5v4.994h-3.931a.52.52 0 0 0 -.517.517v6.336a1.538 1.538 0 0 0 .15.736.53.53 0 0 0 .367.148h3.931v11.475c0 4.19.841 7.149 2.653 9.044a10.238 10.238 0 0 0 7.256 2.674 19.542 19.542 0 0 0 6.061-.809.522.522 0 0 0 .341-.488l-.068-6.894a.528.528 0 0 0 -.2-.4.508.508 0 0 0 -.43-.1 10.691 10.691 0 0 1 -2.58.232 2.557 2.557 0 0 1 -2.378-1.02 6.76 6.76 0 0 1 -.7-3.619v-10.1h6.008a.5.5 0 0 0 .513-.513v-6.703a.52.52 0 0 0 -.146-.362zm-110.475 16.596a8.559 8.559 0 0 1 -.271 2.307 4.462 4.462 0 0 1 -4.368 3.291c-3.394-.007-5.384-3.027-5.416-7.272.032-5.188 2.478-7.814 5.48-7.819a4.486 4.486 0 0 1 4.416 3.644 8.439 8.439 0 0 1 .159 1.533zm9.855-16.747h-7.9a.517.517 0 0 0 -.513.472l-.185 2.264a9.391 9.391 0 0 0 -7.741-3.405 13.007 13.007 0 0 0 -9.757 4.352 17.073 17.073 0 0 0 -4.071 11.624 15.952 15.952 0 0 0 3.614 10.62 12.108 12.108 0 0 0 9.319 4.161 10.189 10.189 0 0 0 7.506-3.018v.589c-.052 5.218-2.956 7.149-7.1 7.211a17.282 17.282 0 0 1 -8.254-2.146.518.518 0 0 0 -.759.316l-1.793 6.953a.508.508 0 0 0 .25.578c2.767 1.508 7.951 2.287 11.913 2.289 4.379 0 7.757-.847 11.089-3.724 3.512-3.088 4.671-7.883 4.671-13.578v-16.299c0-4.368.111-6.81.226-8.716a.513.513 0 0 0 -.139-.382.508.508 0 0 0 -.374-.162zm78.189 7.083a11.452 11.452 0 0 0 -2.419-4.491 10.255 10.255 0 0 0 -7.88-3.261 11.155 11.155 0 0 0 -8.827 4.075l-.3-2.947a.524.524 0 0 0 -.515-.464h-7.915a.518.518 0 0 0 -.517.544c.125 2.624.246 5.675.246 9.317v19.959a.527.527 0 0 0 .155.364.52.52 0 0 0 .364.152h9.1a.5.5 0 0 0 .364-.152.529.529 0 0 0 .155-.364v-16.9a6.227 6.227 0 0 1 .258-2.086 4.494 4.494 0 0 1 4.19-3.095c2.936.023 4.04 2.125 4.1 5.837v16.244a.517.517 0 0 0 .517.515h9.112a.517.517 0 0 0 .517-.515v-17.318a19.769 19.769 0 0 0 -.563-4.879l-.148-.535zm-63.939-8.2h-9.11a.517.517 0 0 0 -.517.515v30.389a.511.511 0 0 0 .517.515h9.11a.511.511 0 0 0 .513-.515v-30.388a.512.512 0 0 0 -.513-.517zm-95.428-12.195h-9.11a.529.529 0 0 0 -.365.152.524.524 0 0 0 -.152.367v42.608a.519.519 0 0 0 .515.515h9.112a.517.517 0 0 0 .517-.515v-42.608a.51.51 0 0 0 -.152-.367.526.526 0 0 0 -.365-.152zm28.27 24.634c.41-2.211 1.872-4.917 5.106-4.9 3.43 0 4.395 2.783 4.551 4.9zm5.577-11.991a14.384 14.384 0 0 0 -11.596 5.228 17.461 17.461 0 0 0 -3.719 10.93c0 4.689 1.462 8.575 4.248 11.273s6.837 4.168 11.909 4.163a28.355 28.355 0 0 0 10.807-1.888.521.521 0 0 0 .31-.574l-1.2-6.172a.512.512 0 0 0 -.246-.346.5.5 0 0 0 -.426-.043 23.849 23.849 0 0 1 -7.93 1.225c-3.922-.021-7.117-1.53-7.684-4.546h18.291a.517.517 0 0 0 .506-.417 21.211 21.211 0 0 0 .321-3.685 17.2 17.2 0 0 0 -3.092-10.35c-2.168-2.876-5.628-4.806-10.5-4.8zm-19.391-12.641h-9.108a.513.513 0 0 0 -.517.519v42.608a.517.517 0 0 0 .517.515h9.11a.522.522 0 0 0 .517-.515v-42.608a.521.521 0 0 0 -.517-.517zm172.832 7.949h.7c.8 0 1.467-.285 1.467-1.02 0-.522-.385-1.043-1.465-1.043a4.972 4.972 0 0 0 -.7.048v2.015zm0 3.295h-.963v-5.955a10.488 10.488 0 0 1 1.7-.146 3.178 3.178 0 0 1 1.875.458 1.392 1.392 0 0 1 .562 1.228 1.5 1.5 0 0 1 -1.175 1.453v.046c.528.093.888.565 1 1.442a4.694 4.694 0 0 0 .39 1.473h-1.018a4.6 4.6 0 0 1 -.408-1.515 1.106 1.106 0 0 0 -1.291-1.038h-.677v2.553zm1.02-7.621a4.526 4.526 0 0 0 .009 9.044 4.383 4.383 0 0 0 4.338-4.505 4.428 4.428 0 0 0 -4.338-4.539zm.009-.824a5.42 5.42 0 1 1 -.011 0z" fill="#636363" transform="translate(4.016 17.557)"/></g></g></g></svg>