<svg xmlns="http://www.w3.org/2000/svg" xmlns:xlink="http://www.w3.org/1999/xlink" width="500" height="159" viewBox="0 0 500 159">
  <defs>
    <linearGradient id="linear-gradient" x1="0.5" x2="0.5" y2="1" gradientUnits="objectBoundingBox">
      <stop offset="0" stop-color="#727272"/>
      <stop offset="1" stop-color="#909090"/>
    </linearGradient>
    <clipPath id="clip-ResMed">
      <rect width="500" height="159"/>
    </clipPath>
  </defs>
  <g id="ResMed" clip-path="url(#clip-ResMed)">
    <rect width="500" height="159" fill="#fff"/>
    <g id="Group_2689" data-name="Group 2689" transform="translate(-18066.996 765.676)">
      <path id="Path_3094" data-name="Path 3094" d="M83.64,25.662a6.108,6.108,0,1,0,0,.389v-.233Z" transform="translate(18325.348 -725.107)" fill="url(#linear-gradient)"/>
      <path id="Path_3095" data-name="Path 3095" d="M78.585,29.953a5.478,5.478,0,1,0-5.212,5.734,5.472,5.472,0,0,0,5.212-5.734" transform="translate(18319.961 -718.268)" fill="url(#linear-gradient)"/>
      <path id="Path_3096" data-name="Path 3096" d="M73.168,33.062a4.929,4.929,0,1,0-4.69,5.164,4.928,4.928,0,0,0,4.69-5.164" transform="translate(18313.898 -713.169)" fill="url(#linear-gradient)"/>
      <path id="Path_3097" data-name="Path 3097" d="M67.524,34.73A4.438,4.438,0,1,0,63.3,39.372a4.436,4.436,0,0,0,4.221-4.642" transform="translate(18307.352 -710.173)" fill="url(#linear-gradient)"/>
      <path id="Path_3098" data-name="Path 3098" d="M61.985,34.809a3.994,3.994,0,1,0-3.8,4.176,3.993,3.993,0,0,0,3.8-4.176" transform="translate(18300.818 -709.469)" fill="url(#linear-gradient)"/>
      <path id="Path_3099" data-name="Path 3099" d="M57.06,33.263a3.6,3.6,0,1,0-3.423,3.765,3.6,3.6,0,0,0,3.423-3.765" transform="translate(18295.023 -711.106)" fill="url(#linear-gradient)"/>
      <path id="Path_3100" data-name="Path 3100" d="M53.037,30.7a3.233,3.233,0,1,0-3.075,3.382A3.233,3.233,0,0,0,53.037,30.7" transform="translate(18290.391 -714.222)" fill="url(#linear-gradient)"/>
      <path id="Path_3101" data-name="Path 3101" d="M49.842,27.681a2.911,2.911,0,1,0-2.769,3.048,2.914,2.914,0,0,0,2.769-3.048" transform="translate(18286.813 -718.027)" fill="url(#linear-gradient)"/>
      <path id="Path_3102" data-name="Path 3102" d="M47.276,24.532a2.621,2.621,0,1,0-2.5,2.745,2.617,2.617,0,0,0,2.5-2.745" transform="translate(18284.02 -722.057)" fill="url(#linear-gradient)"/>
      <path id="Path_3103" data-name="Path 3103" d="M45.215,21.393a2.36,2.36,0,1,0-2.241,2.471,2.359,2.359,0,0,0,2.241-2.471" transform="translate(18281.861 -726.115)" fill="url(#linear-gradient)"/>
      <path id="Path_3104" data-name="Path 3104" d="M43.618,18.419a2.147,2.147,0,1,0-2.147,2.142,2.146,2.146,0,0,0,2.147-2.142" transform="translate(18280.211 -730.156)" fill="url(#linear-gradient)"/>
      <path id="Path_3105" data-name="Path 3105" d="M0,21.611a6.836,6.836,0,1,0,6.837-6.835A6.828,6.828,0,0,0,0,21.611" transform="translate(18225 -732.254)" fill="url(#linear-gradient)"/>
      <path id="Path_3106" data-name="Path 3106" d="M3.905,15.769A6.088,6.088,0,1,0,9.694,9.4a6.086,6.086,0,0,0-5.789,6.366" transform="translate(18230.473 -739.807)" fill="url(#linear-gradient)"/>
      <path id="Path_3107" data-name="Path 3107" d="M8.247,10.768a5.478,5.478,0,1,0,5.212-5.731,5.477,5.477,0,0,0-5.212,5.731" transform="translate(18236.57 -745.937)" fill="url(#linear-gradient)"/>
      <path id="Path_3108" data-name="Path 3108" d="M13.021,7.021a4.931,4.931,0,1,0,4.69-5.161,4.932,4.932,0,0,0-4.69,5.161" transform="translate(18243.273 -750.397)" fill="url(#linear-gradient)"/>
      <path id="Path_3109" data-name="Path 3109" d="M18.095,4.781A4.437,4.437,0,1,0,22.314.136a4.437,4.437,0,0,0-4.219,4.645" transform="translate(18250.398 -752.816)" fill="url(#linear-gradient)"/>
      <path id="Path_3110" data-name="Path 3110" d="M23.114,4.181A3.993,3.993,0,1,0,27.172,0h-.1l-.154,0a3.992,3.992,0,0,0-3.8,4.176" transform="translate(18257.445 -753)" fill="url(#linear-gradient)"/>
      <path id="Path_3111" data-name="Path 3111" d="M27.574,5.262A3.595,3.595,0,1,0,31,1.5a3.594,3.594,0,0,0-3.421,3.762" transform="translate(18263.709 -750.9)" fill="url(#linear-gradient)"/>
      <path id="Path_3112" data-name="Path 3112" d="M31.174,7.406a3.235,3.235,0,1,0,3.075-3.387,3.235,3.235,0,0,0-3.075,3.387" transform="translate(18268.766 -747.363)" fill="url(#linear-gradient)"/>
      <path id="Path_3113" data-name="Path 3113" d="M33.991,10.043A2.912,2.912,0,1,0,36.76,7a2.91,2.91,0,0,0-2.769,3.046" transform="translate(18272.721 -743.181)" fill="url(#linear-gradient)"/>
      <path id="Path_3114" data-name="Path 3114" d="M36.219,12.849a2.62,2.62,0,1,0,2.5-2.741,2.62,2.62,0,0,0-2.5,2.741" transform="translate(18275.85 -738.811)" fill="url(#linear-gradient)"/>
      <path id="Path_3115" data-name="Path 3115" d="M37.975,15.685a2.359,2.359,0,1,0,2.243-2.469,2.36,2.36,0,0,0-2.243,2.469" transform="translate(18278.313 -734.447)" fill="url(#linear-gradient)"/>
      <path id="Path_3116" data-name="Path 3116" d="M23.98,49.06c-.841-1.075-1.815-1.445-4.142-1.445H14.3L12.244,56.6h6.895a11.875,11.875,0,0,0,1.769-.19,4.369,4.369,0,0,0,3.072-2.325,5.5,5.5,0,0,0,.7-2.753,3.58,3.58,0,0,0-.7-2.277m7.45,7.59a9.18,9.18,0,0,1-2.188,2.608,16.413,16.413,0,0,1-4.75,2.185l5.356,13.039H20.908L16.578,62.7H10.847L8.152,74.483H0L7.448,41.61H21.934c.7,0,1.346,0,2.046.046a10.462,10.462,0,0,1,5.214,1.772c1.442,1.019,3.635,3.209,3.635,7.727a11.505,11.505,0,0,1-1.4,5.5" transform="translate(18225 -694.578)" fill="#636363"/>
      <path id="Path_3117" data-name="Path 3117" d="M43.178,53.463a8.709,8.709,0,0,0-1.344-1.678,6.913,6.913,0,0,0-4.522-1.539c-2,0-3.068.841-3.068,1.866,0,1.305,1.671,1.724,3.767,2.325,1.022.284,2,.56,2.983.935,2.418.882,4.794,2.046,5.635,4.517a6.527,6.527,0,0,1,.322,2.142,7.644,7.644,0,0,1-2.515,5.4c-1.536,1.442-4.515,3.118-9.4,3.118-1.726,0-6.657-.091-10.2-4.19a10.809,10.809,0,0,1-1.49-2.185l6-2.979a10.6,10.6,0,0,0,.885,1.394,6.76,6.76,0,0,0,5.313,2.192,8.211,8.211,0,0,0,2.325-.377,2.349,2.349,0,0,0,1.3-.885,1.607,1.607,0,0,0,.281-.885,1.449,1.449,0,0,0-.281-.839c-.56-.793-1.582-1.07-3.26-1.584-4.75-1.488-6.8-2.19-8.239-4.512a5.968,5.968,0,0,1,.137-6.613c1.305-2.051,4.193-4.145,9.594-4.145,5.541,0,8.289,2.048,9.876,3.863a12.5,12.5,0,0,1,1.346,2Z" transform="translate(18257.779 -689.901)" fill="#636363"/>
      <path id="Path_3118" data-name="Path 3118" d="M68.852,74.483H61.217L67.083,49.06,54.791,74.483H47.9l-.933-25.8-5.633,25.8H33.65L41.014,41.61H53.159l.558,21.555L63.922,41.61H76.257Z" transform="translate(18272.246 -694.578)" fill="#636363"/>
      <path id="Path_3119" data-name="Path 3119" d="M78.659,58.092A3.9,3.9,0,0,0,74.7,55.344a4.727,4.727,0,0,0-2.517.882C69.53,58,68.369,61.862,68.369,64.886A5.606,5.606,0,0,0,69.16,68.1a3.421,3.421,0,0,0,3.166,1.587,5.529,5.529,0,0,0,4.7-2.743,13.913,13.913,0,0,0,1.906-6.851,5.774,5.774,0,0,0-.279-2M82.993,74.48H75.817l.327-1.676c-.375.276-.743.512-1.118.791a9.548,9.548,0,0,1-5.313,1.536,7.65,7.65,0,0,1-5.164-1.815c-1.536-1.255-3.4-3.587-3.4-8.287a18.124,18.124,0,0,1,2.7-9.407,11.815,11.815,0,0,1,10.054-5.914,8.9,8.9,0,0,1,5.214,1.584,7.333,7.333,0,0,1,1.541,1.676l2.56-11.359h7.217Z" transform="translate(18310.857 -694.578)" fill="#636363"/>
      <path id="Path_3120" data-name="Path 3120" d="M23.44,51.336a5.2,5.2,0,0,1,3.544-1.349,4.463,4.463,0,0,1,4.327,2.745,6.7,6.7,0,0,1,.231,1.822H21.258a7.979,7.979,0,0,1,2.183-3.219m14.342,7.731c.094-1.022.19-2.094.19-3.166a13.506,13.506,0,0,0-.469-3.724,9.4,9.4,0,0,0-1.767-3.447c-2.89-3.587-7.311-3.77-8.8-3.77a13.845,13.845,0,0,0-7.174,1.911,14.645,14.645,0,0,0-6.1,8.8,12.947,12.947,0,0,0-.373,3.26c0,4.654,2.236,8.844,6.52,10.616a13.858,13.858,0,0,0,5.166.928c5.916,0,8.847-2.745,10.292-4.606.411-.551.8-1.125,1.176-1.724l-5.582-2.772a11.053,11.053,0,0,1-1.183,1.7,6.287,6.287,0,0,1-4.515,1.866,5.187,5.187,0,0,1-2.7-.651c-2.565-1.4-2.192-4.565-2.144-5.214Z" transform="translate(18243.664 -689.873)" fill="#636363"/>
      <path id="Path_3121" data-name="Path 3121" d="M22.927,52.945v-.007l0,0Z" transform="translate(18257.186 -678.674)" fill="#313133"/>
      <path id="Path_3122" data-name="Path 3122" d="M60.429,51.336a5.2,5.2,0,0,1,3.544-1.349A4.463,4.463,0,0,1,68.3,52.733a6.7,6.7,0,0,1,.231,1.822H58.247a7.979,7.979,0,0,1,2.183-3.219m14.342,7.731c.094-1.022.188-2.094.188-3.166a13.572,13.572,0,0,0-.466-3.724,9.361,9.361,0,0,0-1.767-3.447c-2.887-3.587-7.311-3.77-8.8-3.77a13.835,13.835,0,0,0-7.174,1.911,14.648,14.648,0,0,0-6.1,8.8,12.947,12.947,0,0,0-.373,3.26c0,4.654,2.238,8.844,6.52,10.616a13.855,13.855,0,0,0,5.164.928c5.919,0,8.852-2.745,10.294-4.606.411-.551.8-1.125,1.178-1.724l-5.587-2.772a11.028,11.028,0,0,1-1.178,1.7,6.291,6.291,0,0,1-4.515,1.866,5.183,5.183,0,0,1-2.7-.651c-2.567-1.4-2.195-4.565-2.147-5.214Z" transform="translate(18295.598 -689.873)" fill="#636363"/>
      <path id="Path_3123" data-name="Path 3123" d="M59.916,52.945v-.007l0,0Z" transform="translate(18309.121 -678.674)" fill="#313133"/>
      <rect id="Rectangle_471" data-name="Rectangle 471" width="183.992" height="133.647" transform="translate(18225 -753)" fill="none"/>
    </g>
  </g>
</svg>
