<svg height="159" viewBox="0 0 500 159" width="500" xmlns="http://www.w3.org/2000/svg" xmlns:xlink="http://www.w3.org/1999/xlink"><clipPath id="a"><path d="m0 0h500v159h-500z"/></clipPath><g clip-path="url(#a)"><path d="m0 0h500v159h-500z" fill="#fff"/><g fill="#636363"><path d="m25.306 159.346c.4 0 .619-.2.619-.486 0-.316-.223-.485-.619-.485h-.738v.971zm-1.324-1.474h1.374c.672 0 1.17.32 1.17.939a.9.9 0 0 1 -.7.907l.808 1.121h-.7l-.722-1.023h-.635v1.023h-.586zm3.813 1.543v-.015a2.646 2.646 0 0 0 -5.29.017v.016a2.646 2.646 0 0 0 5.29-.015m-5.634.016v-.016a2.99 2.99 0 0 1 5.98-.017v.016a2.99 2.99 0 0 1 -5.98.015" transform="translate(279.459 -36.235)"/><path d="m1.031 156.723h1.837l4.273 12.145 4.1-12.185h1.388l4.1 12.185 4.271-12.145h1.775l-5.341 14.69h-1.434l-4.1-11.835-4.12 11.835h-1.408z" transform="translate(188.009 -35.363)"/><path d="m13.913 162.384c-.17-1.956-1.324-3.665-3.524-3.665a3.759 3.759 0 0 0 -3.589 3.665zm-8.779.625v-.037a5.373 5.373 0 0 1 5.3-5.609c3.271 0 5.149 2.543 5.149 5.69a4.06 4.06 0 0 1 -.021.521h-8.762a3.818 3.818 0 0 0 3.888 3.647 4.633 4.633 0 0 0 3.483-1.52l1.026.9a5.77 5.77 0 0 1 -4.55 2.019 5.419 5.419 0 0 1 -5.513-5.606" transform="translate(205.765 -32.421)"/><path d="m7.607 156.573h1.643v15.211h-1.643z" transform="translate(216.468 -35.838)"/><path d="m8.6 156.573h1.643v15.211h-1.643z" transform="translate(220.772 -35.838)"/><path d="m18.53 164.339v-1.039a11.8 11.8 0 0 0 -3.246-.458c-2.073 0-3.225.873-3.225 2.226v.043c0 1.353 1.279 2.145 2.773 2.145 2.031 0 3.7-1.209 3.7-2.918m-8.138.833v-.043c0-2.271 1.922-3.48 4.722-3.48a12.023 12.023 0 0 1 3.394.458v-.373c0-1.938-1.215-2.94-3.288-2.94a7.821 7.821 0 0 0 -3.354.792l-.491-1.311a9.278 9.278 0 0 1 4.015-.9 4.915 4.915 0 0 1 3.569 1.189 4.2 4.2 0 0 1 1.13 3.144v6.593h-1.583v-1.626a4.878 4.878 0 0 1 -3.993 1.856c-2.051 0-4.123-1.146-4.123-3.356" transform="translate(228.521 -32.354)"/><path d="m12.771 156.573h1.645v6.313a4.2 4.2 0 0 1 3.781-2.107 3.981 3.981 0 0 1 4.227 4.315v6.689h-1.645v-6.293c0-2-1.109-3.247-3.053-3.247a3.206 3.206 0 0 0 -3.311 3.373v6.168h-1.644z" transform="translate(238.818 -35.837)"/><path d="m23.772 162.384c-.17-1.956-1.324-3.665-3.523-3.665a3.757 3.757 0 0 0 -3.587 3.665zm-8.777.625v-.037a5.373 5.373 0 0 1 5.3-5.609c3.269 0 5.149 2.543 5.149 5.69a3.808 3.808 0 0 1 -.023.521h-8.759a3.818 3.818 0 0 0 3.887 3.647 4.629 4.629 0 0 0 3.481-1.52l1.026.9a5.768 5.768 0 0 1 -4.551 2.019 5.419 5.419 0 0 1 -5.51-5.606" transform="translate(248.441 -32.421)"/><path d="m25.432 164.339v-1.039a11.8 11.8 0 0 0 -3.249-.458c-2.07 0-3.223.873-3.223 2.226v.043c0 1.353 1.282 2.145 2.776 2.145 2.031 0 3.7-1.209 3.7-2.918m-8.14.833v-.043c0-2.271 1.922-3.48 4.72-3.48a12.037 12.037 0 0 1 3.4.458v-.373c0-1.938-1.216-2.94-3.291-2.94a7.826 7.826 0 0 0 -3.354.792l-.49-1.311a9.283 9.283 0 0 1 4.015-.9 4.918 4.918 0 0 1 3.57 1.189 4.2 4.2 0 0 1 1.13 3.144v6.593h-1.587v-1.626a4.881 4.881 0 0 1 -3.993 1.856c-2.053 0-4.124-1.146-4.124-3.356" transform="translate(258.382 -32.354)"/><path d="m29.073 166.4v-.043a4.05 4.05 0 0 0 -4-4.146 3.841 3.841 0 0 0 -3.887 4.146v.043a3.932 3.932 0 0 0 3.887 4.167 4.071 4.071 0 0 0 4-4.167m-9.57.021v-.037a5.346 5.346 0 0 1 5.275-5.608 5.02 5.02 0 0 1 4.23 2.292v-6.5h1.645v15.211h-1.644v-2.167a4.992 4.992 0 0 1 -4.23 2.4 5.313 5.313 0 0 1 -5.275-5.587" transform="translate(267.956 -35.834)"/><path d="m22.081 159.017h1.967v2.188h-1.967z" transform="translate(279.111 -25.259)"/><path d="m-7.272 150.646h3.507l5.7 8.649 5.707-8.649h3.505v18.292h-3.289v-13.115l-5.919 8.625h-.1l-5.869-8.573v13.063h-3.242z" transform="translate(152.074 -61.491)"/><path d="m6.405 160.47v-.942a9.3 9.3 0 0 0 -3.218-.545c-2.087 0-3.324.859-3.324 2.294v.053c0 1.337 1.2 2.09 2.759 2.09 2.145 0 3.782-1.2 3.782-2.95m-9.7.991v-.053c0-2.978 2.382-4.446 5.842-4.446a12.067 12.067 0 0 1 3.8.581v-.338c0-1.956-1.229-3-3.508-3a10.091 10.091 0 0 0 -4.046.859l-.854-2.479a12.344 12.344 0 0 1 5.329-1.126 6.445 6.445 0 0 1 4.683 1.539 5.633 5.633 0 0 1 1.531 4.258v8.183h-3.163v-1.726a5.81 5.81 0 0 1 -4.606 2.012c-2.645 0-5.008-1.485-5.008-4.261" transform="translate(169.279 -57.988)"/><path d="m-.149 155.646h3.239v13.794h-3.239zm-.136-5.117h3.485v3h-3.485z" transform="translate(182.31 -61.994)"/><path d="m1.016 151.727h3.245v2.118a5.142 5.142 0 0 1 4.415-2.411c3.189 0 5.035 2.093 5.035 5.281v8.8h-3.235v-7.844c0-2.139-1.1-3.362-3.026-3.362a3.1 3.1 0 0 0 -3.189 3.419v7.786h-3.245z" transform="translate(187.943 -58.074)"/><path d="m4.93 150.646h3.292v15.363h9.171v2.929h-12.463z" transform="translate(204.883 -61.491)"/><path d="m7.859 155.646h3.241v13.794h-3.241zm-.132-5.117h3.481v3h-3.481z" transform="translate(216.988 -61.994)"/><path d="m9.018 151.727h3.239v2.118a5.158 5.158 0 0 1 4.428-2.411c3.183 0 5.028 2.093 5.028 5.281v8.8h-3.234v-7.844c0-2.139-1.1-3.362-3.031-3.362a3.1 3.1 0 0 0 -3.19 3.419v7.786h-3.24z" transform="translate(222.575 -58.074)"/><path d="m22.324 157.655c-.208-2.039-1.444-3.63-3.587-3.63-1.99 0-3.371 1.491-3.666 3.63zm-10.471 1.023v-.054a6.925 6.925 0 0 1 6.915-7.188c4.493 0 6.773 3.457 6.773 7.426 0 .287-.027.573-.056.882h-10.385a3.913 3.913 0 0 0 4.066 3.51 5.2 5.2 0 0 0 3.834-1.654l1.9 1.649a7.225 7.225 0 0 1 -5.78 2.581 6.967 6.967 0 0 1 -7.259-7.156" transform="translate(234.846 -58.074)"/><path d="m15.775 150.646h3.293v7.6h8.942v-7.6h3.3v18.292h-3.3v-7.705h-8.942v7.705h-3.293z" transform="translate(251.817 -61.491)"/><path d="m29.7 157.655c-.209-2.039-1.441-3.63-3.587-3.63-1.977 0-3.371 1.491-3.662 3.63zm-10.472 1.023v-.054a6.929 6.929 0 0 1 6.916-7.188c4.494 0 6.77 3.457 6.77 7.426 0 .287-.025.573-.053.882h-10.386a3.908 3.908 0 0 0 4.066 3.51 5.2 5.2 0 0 0 3.825-1.649l1.908 1.649a7.243 7.243 0 0 1 -5.783 2.581 6.97 6.97 0 0 1 -7.263-7.156" transform="translate(266.757 -58.074)"/><path d="m31.8 160.47v-.942a9.216 9.216 0 0 0 -3.206-.545c-2.093 0-3.326.859-3.326 2.294v.053c0 1.337 1.2 2.09 2.751 2.09 2.155 0 3.782-1.2 3.782-2.95m-9.683.991v-.053c0-2.978 2.378-4.446 5.831-4.446a12.08 12.08 0 0 1 3.8.581v-.338c0-1.956-1.236-3-3.508-3a10.074 10.074 0 0 0 -4.04.859l-.854-2.479a12.319 12.319 0 0 1 5.325-1.126 6.435 6.435 0 0 1 4.68 1.539 5.634 5.634 0 0 1 1.534 4.258v8.183h-3.166v-1.726a5.788 5.788 0 0 1 -4.6 2.012c-2.653 0-5-1.485-5-4.261" transform="translate(279.278 -57.988)"/><path d="m25.155 150.5h3.236v19.072h-3.236z" transform="translate(292.413 -62.125)"/><path d="m28.011 164.543v-7.259h-1.791v-2.719h1.791v-3.785h3.239v3.785h3.806v2.719h-3.806v6.768a1.53 1.53 0 0 0 1.743 1.723 4.385 4.385 0 0 0 2-.473v2.591a5.711 5.711 0 0 1 -2.92.7c-2.378 0-4.067-1.02-4.067-4.05" transform="translate(297.022 -60.912)"/><path d="m28.37 150.5h3.25v7.4a5.144 5.144 0 0 1 4.415-2.41c3.19 0 5.034 2.093 5.034 5.282v8.8h-3.246v-7.844c0-2.139-1.087-3.362-3.018-3.362a3.1 3.1 0 0 0 -3.185 3.42v7.786h-3.25z" transform="translate(306.327 -62.125)"/><path d="m34.625 153.793c.467 0 .732-.24.732-.581 0-.377-.265-.573-.732-.573h-.882v1.154zm-1.573-1.755h1.632c.8 0 1.39.38 1.39 1.117a1.07 1.07 0 0 1 -.837 1.079l.96 1.332h-.839l-.858-1.213h-.756v1.213h-.69zm4.533 1.835v-.021a3.083 3.083 0 0 0 -3.142-3.09 3.115 3.115 0 0 0 -3.146 3.109v.016a3.082 3.082 0 0 0 3.146 3.087 3.113 3.113 0 0 0 3.142-3.1m-6.7.016v-.016a3.557 3.557 0 0 1 7.113-.02v.021a3.557 3.557 0 0 1 -7.113.018" transform="translate(317.204 -62.635)"/><path d="m16.724 169.445c.009.278-.017-.8-.017-1.026 0-10.548 10.254-19.133 21.07-19.136v-6.348a27.627 27.627 0 0 0 -23.328 12.891c0 .005-.01.016-.014.021a51.177 51.177 0 0 1 2.265 12.882c.01.239.023.476.029.717" transform="translate(246.016 -94.86)"/><path d="m19.051 149.993a45.146 45.146 0 0 0 -3.226-6.121 36.655 36.655 0 0 0 -4.044 7.279c-.013.032-.027.067-.037.1a37.7 37.7 0 0 1 2.875 14.527v.081c-.006.124 0 .072 0-.081a29.884 29.884 0 0 1 4.481-15.658c-.016-.037-.03-.079-.047-.122 0 0 0 0 0-.005" transform="translate(234.371 -90.804)"/><path d="m42.7 146.909v-6.351a43.027 43.027 0 0 0 -29.32 12.665c-.029.027-.056.06-.084.09a51.891 51.891 0 0 1 3.163 5.51s0 0 0 0c.033.07.064.141.1.211a.311.311 0 0 0 .037-.043c6.492-6.858 15.967-11.892 26.108-12.086" transform="translate(241.088 -105.149)"/><path d="m16 158.191c.057.07.112.142.169.211.043-.037.084-.079.126-.119 8.779-7.841 20.514-13.419 33.129-13.739v-6.35a57.712 57.712 0 0 0 -37.483 15.42c-.067.06-.127.127-.195.188a53.129 53.129 0 0 1 4.254 4.389" transform="translate(234.37 -115.386)"/><path d="m14.379 152.036c.029-.043.054-.091.083-.135a47.65 47.65 0 0 1 4-5.39c-.039-.043-.073-.094-.112-.138a49.92 49.92 0 0 0 -4.309-4.381 50.618 50.618 0 0 0 -3.712 4.922c-.048.071-.089.148-.138.221a37.968 37.968 0 0 1 4.13 4.82c.02.027.039.059.057.085" transform="translate(227.652 -98.968)"/><path d="m11.856 144.029a51.133 51.133 0 0 0 -2.766 6.963v.011c-.011.043-.021.083-.033.123a.009.009 0 0 0 0 .005 23.76 23.76 0 0 1 3.512 12.569c0 .31-.024.771-.037 1.156-.006.17-.009.217-.009.217a40.474 40.474 0 0 1 3.507-15.616c-.01-.016-.017-.032-.026-.048a32.761 32.761 0 0 0 -4.149-5.381" transform="translate(222.723 -90.141)"/><path d="m25.755 168.73a51.134 51.134 0 0 1 2.259-12.883.193.193 0 0 0 -.016-.021 27.62 27.62 0 0 0 -23.327-12.891v6.348c10.816 0 21.069 8.587 21.069 19.135v.655c0 .021-.007.155-.007.175.016-.048.013-.3.023-.52" transform="translate(203.762 -94.861)"/><path d="m10.931 145.364a.011.011 0 0 1 0-.005 51.133 51.133 0 0 0 -2.258 12.883c-.011.238-.023.476-.03.717-.007.278-.017.556-.021.837h5.747c.044-.619.079-1.237.079-1.864a23.751 23.751 0 0 0 -3.514-12.567" transform="translate(220.847 -84.372)"/><path d="m30.917 158.822a51.75 51.75 0 0 1 3.163-5.51c-.029-.032-.056-.063-.084-.091a43.025 43.025 0 0 0 -29.325-12.663v6.351c10.14.193 19.618 5.226 26.107 12.086.014.011.024.032.039.043.033-.07.063-.141.1-.211" transform="translate(203.762 -105.148)"/><path d="m14.846 165.778a37.672 37.672 0 0 1 2.877-14.529c-.014-.032-.026-.064-.04-.1a36.659 36.659 0 0 0 -4.043-7.279 45.179 45.179 0 0 0 -3.228 6.122v.008c-.02.043-.033.081-.05.121a29.9 29.9 0 0 1 4.484 15.657c0 .154 0 .2 0 .081z" transform="translate(228.392 -90.805)"/><path d="m16.957 159.786a37.7 37.7 0 0 0 -2.877-14.529 37.7 37.7 0 0 0 -2.88 14.529v.081c0 .123.01.246.012.369h5.73c0-.123.006-.246.012-.369z" transform="translate(232.033 -84.812)"/><path d="m13.8 153.977a45.153 45.153 0 0 1 3.228-6.121c-.02-.027-.037-.058-.059-.085a37.963 37.963 0 0 0 -4.129-4.82 51.645 51.645 0 0 0 -3.165 5.51s0 0 0 0c-.036.07-.066.141-.1.211a32.674 32.674 0 0 1 4.147 5.381c.01.016.017.032.027.048.017-.037.03-.079.05-.121v-.005" transform="translate(225.001 -94.788)"/><path d="m11.855 146.368a0 0 0 0 0 0 0c-.037.043-.072.092-.109.137a47.883 47.883 0 0 1 4 5.391c.027.043.052.09.082.135.02-.027.037-.058.057-.085a38.331 38.331 0 0 1 4.13-4.82c-.048-.072-.089-.15-.138-.22a50.475 50.475 0 0 0 -3.71-4.923 50.134 50.134 0 0 0 -4.309 4.382" transform="translate(234.37 -98.969)"/><path d="m38.1 158.191a52.668 52.668 0 0 1 4.252-4.391c-.067-.06-.129-.127-.195-.188a57.71 57.71 0 0 0 -37.483-15.42v6.35c12.615.32 24.351 5.9 33.131 13.739.044.037.083.081.127.119.057-.069.112-.141.169-.211z" transform="translate(203.763 -115.386)"/><path d="m13.125 149.452a42.89 42.89 0 0 1 3.481 15.078c0 .088-.019-.207-.019-.836a23.741 23.741 0 0 1 3.513-12.566s0 0 0-.005c-.012-.037-.02-.081-.033-.121 0-.005 0-.011 0-.011a50.96 50.96 0 0 0 -2.768-6.963 32.718 32.718 0 0 0 -4.146 5.38c-.012.016-.019.032-.029.048" transform="translate(240.347 -90.135)"/><path d="m13.775 157.931c0 .628.035 1.245.079 1.863h5.746c0-.28-.012-.557-.02-.837-.006-.239-.019-.478-.03-.715a51.136 51.136 0 0 0 -2.259-12.883s0 0 0 .005a23.751 23.751 0 0 0 -3.514 12.567" transform="translate(243.16 -84.371)"/><path d="m19.86 148.462a51.263 51.263 0 0 0 -3.163-5.51 38.215 38.215 0 0 0 -4.132 4.818c-.019.027-.036.059-.056.085a45.168 45.168 0 0 1 3.226 6.122s0 0 0 .005c.017.043.031.081.047.121.01-.016.017-.032.029-.048a32.793 32.793 0 0 1 4.146-5.38c-.033-.07-.064-.141-.1-.211" transform="translate(237.686 -94.788)"/><path d="m15.223 150.107c.039.043.073.092.112.137.037-.043.072-.092.109-.137a0 0 0 0 1 0 0 50.343 50.343 0 0 1 4.309-4.382c-.057-.068-.112-.141-.169-.211a53.132 53.132 0 0 0 -4.252-4.391 52.656 52.656 0 0 0 -4.252 4.391c-.059.07-.112.143-.169.211a50.139 50.139 0 0 1 4.309 4.382" transform="translate(230.779 -102.708)"/></g></g></svg>