<svg xmlns="http://www.w3.org/2000/svg" width="85.653" height="50.48" viewBox="0 0 85.653 50.48">
  <path id="Path_67" data-name="Path 67" d="M1034.477,582.95a21.194,21.194,0,0,0-4.425.48,22.006,22.006,0,0,0-19.28-11.514,22.3,22.3,0,0,0-21.551,17.391,14.806,14.806,0,0,0-1.582-.089,17.031,17.031,0,0,0-16.806,17.214c0,4.434,1.662,12.318,4.783,15.594a1.2,1.2,0,0,0,.867.37h75.123a1.2,1.2,0,0,0,.989-.526c2.541-3.769,3.891-11.93,3.891-16.368C1056.487,593.067,1046.614,582.95,1034.477,582.95Zm16.465,37.061h-73.92c-2.2-2.743-3.8-9.251-3.8-13.579a14.645,14.645,0,0,1,14.42-14.828,14,14,0,0,1,2.327.21,1.189,1.189,0,0,0,1.367-.959,19.95,19.95,0,0,1,19.439-16.554,19.68,19.68,0,0,1,17.593,11.034,1.182,1.182,0,0,0,1.359.618,19.221,19.221,0,0,1,4.754-.618c10.824,0,19.624,9.044,19.624,20.167C1054.1,609.915,1052.823,616.713,1050.942,620.011Z" transform="translate(-970.834 -571.916)" fill="#007fff"/>
</svg>
