<svg xmlns="http://www.w3.org/2000/svg" width="82.742" height="82.742" viewBox="0 0 82.742 82.742">
  <g id="Icon_ionic-ios-close-circle-outline" data-name="Icon ionic-ios-close-circle-outline" transform="translate(-3.375 -3.375)">
    <path id="Path_14" data-name="Path 14" d="M43.293,38.807,32.811,28.325,43.293,17.843a3.179,3.179,0,0,0-4.5-4.5L28.315,23.83,17.833,13.348a3.041,3.041,0,0,0-4.5,0,3.071,3.071,0,0,0,0,4.5L23.82,28.325,13.338,38.807a3.073,3.073,0,0,0,0,4.5,3.157,3.157,0,0,0,4.5,0L28.315,32.82,38.8,43.3a3.193,3.193,0,0,0,4.5,0A3.157,3.157,0,0,0,43.293,38.807Z" transform="translate(16.431 16.421)" fill="#fff"/>
    <path id="Path_15" data-name="Path 15" d="M44.746,8.944a35.808,35.808,0,0,1,25.32,61.122,35.808,35.808,0,0,1-50.64-50.64A35.565,35.565,0,0,1,44.746,8.944m0-5.569A41.371,41.371,0,1,0,86.117,44.746,41.365,41.365,0,0,0,44.746,3.375Z" fill="#fff"/>
  </g>
</svg>
