<svg height="52.707" viewBox="0 0 51.781 52.707" width="51.781" xmlns="http://www.w3.org/2000/svg"><path d="m-542.653 279.841h8.738a.8.8 0 0 0 .8-.8v-12.989a.8.8 0 0 0 -.8-.8h-8.738a.8.8 0 0 0 -.8.8v5.694h-10.208v-5.694a.8.8 0 0 0 -.8-.8h-8.739a.8.8 0 0 0 -.8.8v5.694h-10.559v-5.694a.8.8 0 0 0 -.8-.8h-8.741a.8.8 0 0 0 -.8.8v12.989a.8.8 0 0 0 .8.8h8.738a.8.8 0 0 0 .8-.8v-5.694h4.513v12.816a6.57 6.57 0 0 0 6.049 6.537v5.716a.8.8 0 0 0 .8.8h8.738a.8.8 0 0 0 .8-.8v-12.985a.8.8 0 0 0 -.8-.8h-8.738a.8.8 0 0 0 -.8.8v5.669a4.969 4.969 0 0 1 -4.445-4.935v-12.818h4.445v5.694a.8.8 0 0 0 .8.8h8.738a.8.8 0 0 0 .8-.8v-5.694h4.445v31.553a6.571 6.571 0 0 0 5.762 6.512v5.745a.8.8 0 0 0 .8.8h8.738a.8.8 0 0 0 .8-.8v-12.987a.8.8 0 0 0 -.8-.8h-8.738a.8.8 0 0 0 -.8.8v5.623a4.965 4.965 0 0 1 -4.162-4.891v-14.451a6.556 6.556 0 0 0 4.162 2.224v5.744a.8.8 0 0 0 .8.8h8.738a.8.8 0 0 0 .8-.8v-12.988a.8.8 0 0 0 -.8-.8h-8.738a.8.8 0 0 0 -.8.8v5.624a4.965 4.965 0 0 1 -4.162-4.891v-12.817h4.162v5.694a.8.8 0 0 0 .802.8zm-33.505-1.6h-7.142v-11.388h7.137zm13.76 7.99h7.138v11.389h-7.14zm7.138-7.99h-7.14v-11.388h7.138zm13.408 26.73h7.138v11.388h-7.138zm0-18.739h7.138v11.388h-7.138zm0-19.379h7.138v11.388h-7.138z" fill="#007fff" transform="translate(584.896 -265.252)"/></svg>