<svg enable-background="new 0 0 157 75" viewBox="0 0 157 75" xmlns="http://www.w3.org/2000/svg"><path clip-rule="evenodd" d="m66.5 50.8s.1 0 0 0zm0 0c-.3 0-1 .2-1.8.2-2.5 0-3.3-1.1-3.3-2.6v-9.9h5c.3 0 .5-.3.5-.6v-5.4c0-.3-.3-.5-.5-.5h-5v-6.6c0-.3-.2-.4-.4-.4h-6.8c-.3 0-.4.2-.4.4v6.8s-3.4.9-3.7.9c-.3.1-.4.3-.4.5v4.3c0 .3.3.6.5.6h3.5v10.3c0 7.7 5.4 8.5 9 8.5 1.7 0 3.7-.5 4-.7.2-.1.3-.3.3-.5v-4.7c0-.3-.2-.5-.5-.6zm74.7-6.9c0-5.7-2.3-6.5-4.7-6.2-1.9.1-3.4 1.1-3.4 1.1v11.1s1.5 1.1 3.8 1.1c3.2.1 4.3-1.1 4.3-7.1zm7.6-.5c0 10.8-3.5 13.9-9.6 13.9-5.2 0-7.9-2.6-7.9-2.6s-.1 1.4-.3 1.6c-.1.2-.3.3-.4.3h-4.7c-.3 0-.6-.3-.6-.5l.1-35c0-.3.3-.5.5-.5h6.7c.3 0 .5.3.5.5v11.9s2.6-1.7 6.4-1.7v-.1c3.7 0 9.3 1.4 9.3 12.2zm-27.5-11.4h-6.6c-.3 0-.5.3-.5.6v17.1s-1.7 1.2-4.1 1.2-3.1-1.1-3.1-3.4v-15c0-.3-.3-.5-.5-.5h-6.7c-.3 0-.5.3-.5.5v16.1c0 6.9 3.9 8.7 9.2 8.7 4.4 0 7.9-2.4 7.9-2.4s.2 1.2.3 1.4.3.3.5.3h4.2c.3 0 .5-.3.5-.5l.1-23.5c-.1-.3-.3-.6-.7-.6zm-74.6 0h-6.7c-.3 0-.5.3-.5.6v23.1c0 .6.4.9.9.9h6c.6 0 .8-.3.8-.9v-23.2c.1-.3-.2-.5-.5-.5zm-3.3-10.7c-2.4 0-4.3 1.9-4.3 4.3s1.9 4.4 4.3 4.4 4.3-1.9 4.3-4.3-1.9-4.4-4.3-4.4zm51.9-.8h-6.6c-.3 0-.5.3-.5.5v13h-10.5v-12.9c0-.3-.3-.5-.5-.5h-6.7c-.3 0-.5.3-.5.5v35c0 .3.3.5.5.5h6.7c.3 0 .5-.3.5-.5v-15h10.4l-.1 15c0 .3.3.5.5.5h6.7c.3 0 .5-.3.5-.5v-35c.2-.3-.1-.6-.4-.6zm-59.4 15.5v18.1c0 .1 0 .3-.2.4 0 0-3.9 2.8-10.4 2.8-7.8 0-17.1-2.5-17.1-18.6 0-16.2 8.1-19.5 16.1-19.5 6.9 0 9.6 1.5 10.1 1.8.1.2.2.3.2.4l-1.3 5.6c0 .3-.3.6-.6.5-1.1-.3-2.8-1-6.8-1-4.6 0-9.6 1.3-9.6 11.7s4.5 11.8 7.9 11.8c2.9 0 3.9-.3 3.9-.3v-7.2h-4.6c-.3 0-.6-.3-.6-.5v-6c0-.3.3-.5.6-.5h11.8c.4 0 .6.3.6.5z" fill="#ccc" fill-rule="evenodd"/></svg>