<svg height="51.424" viewBox="0 0 50.844 51.424" width="50.844" xmlns="http://www.w3.org/2000/svg"><g fill="#007fff"><path d="m1247.715-156.517-27.534-27.856-21.948-22.2a.68.68 0 0 0 -.743-.151.681.681 0 0 0 -.422.63v50.061a.681.681 0 0 0 .681.681h49.482a.682.682 0 0 0 .628-.419.68.68 0 0 0 -.144-.746zm-49.285-.2v-47.723l7.731 7.821-2.048 2.048a.681.681 0 0 0 0 .963.679.679 0 0 0 .482.2.679.679 0 0 0 .482-.2l2.042-2.042 5.184 5.245-2.091 2.092a.681.681 0 0 0 0 .964.678.678 0 0 0 .482.2.679.679 0 0 0 .481-.2l2.086-2.086 5.478 5.542-1.842 1.841a.682.682 0 0 0 0 .963.679.679 0 0 0 .482.2.68.68 0 0 0 .482-.2l1.836-1.836 4.8 4.855-1.906 1.907a.681.681 0 0 0 0 .963.677.677 0 0 0 .482.2.678.678 0 0 0 .482-.2l1.9-1.9 5.251 5.313-1.87 1.87a.681.681 0 0 0 0 .963.679.679 0 0 0 .482.2.679.679 0 0 0 .482-.2l1.864-1.865 5.251 5.312-1.834 1.834a.682.682 0 0 0 0 .964.68.68 0 0 0 .482.2.679.679 0 0 0 .482-.2l1.828-1.828 7.728 7.819z" transform="translate(-1197.068 206.78)"/><path d="m1215.982-154.348a.68.68 0 0 0 -.743-.151.682.682 0 0 0 -.422.63v21.8a.681.681 0 0 0 .681.681h21.544a.682.682 0 0 0 .629-.419.682.682 0 0 0 -.144-.741zm.2 21.593v-19.455l19.231 19.456z" transform="translate(-1207.97 174.698)"/><path d="m1246.276-183.922a.647.647 0 0 0 .069.115.619.619 0 0 0 .059.1c0 .005.011.007.016.012a.118.118 0 0 0 .012.018l18.8 18.358a.68.68 0 0 0 .476.194.68.68 0 0 0 .482-.2l2.143-2.143 2.734 2.814a.68.68 0 0 0 .488.207.679.679 0 0 0 .475-.193.681.681 0 0 0 .014-.964l-2.748-2.827 2.741-2.741a.681.681 0 0 0 0-.964l-18.289-18.289a.676.676 0 0 0 -.1-.069.673.673 0 0 0 -.106-.071.663.663 0 0 0 -.114-.028.672.672 0 0 0 -.142-.028h-.016-6.359a.681.681 0 0 0 -.681.681v5.778a.639.639 0 0 0 .02.1.674.674 0 0 0 .026.14zm22.071 14.512-8.347-8.59a.682.682 0 0 0 -.964-.013.682.682 0 0 0 -.013.964l8.359 8.6-1.681 1.68-17.8-17.383 5.343-4.855 17.348 17.348zm-16.847-19.855-3.915 3.557v-3.557z" transform="translate(-1227.264 196.858)"/></g></svg>