<svg height="190.176" viewBox="0 0 124.237 190.176" width="124.237" xmlns="http://www.w3.org/2000/svg" xmlns:xlink="http://www.w3.org/1999/xlink"><radialGradient id="a" cx=".5" cy=".5" gradientUnits="objectBoundingBox" r=".5"><stop offset="0" stop-color="#ff00a7"/><stop offset="1" stop-color="#3b00ff"/></radialGradient><path d="m13.584-2.83q0-17.263 13.159-35.233t36.366-38.347q13.3-11.6 20.942-19.527a76.785 76.785 0 0 0 13.443-19.81q5.8-11.886 5.8-27.168 0-18.112-8.773-28.159t-24.621-10.046q-10.471 0-17.122 4.528t-6.65 10.754q0 2.83 2.547 6.509a16.2 16.2 0 0 1 2.83 8.49q0 7.641-4.245 11.745t-11.32 4.1a16.279 16.279 0 0 1 -12.028-4.669q-4.669-4.67-4.669-13.726 0-17.546 16.414-27.168t38.771-9.622q27.168 0 42.025 13.584t14.857 37.639q0 14.716-5.518 25.187a61.971 61.971 0 0 1 -14.575 18.254 279.427 279.427 0 0 1 -26.036 19.1q-24.9 17.546-37.215 30.423t-13.442 22.5h66.5q10.471 0 15.99-1.981t7.924-5.518a43.194 43.194 0 0 0 4.669-10.33h8.207l-10.181 41.321h-114.049z" fill="url(#a)" transform="translate(-13.584 190.176)"/></svg>