<svg height="47.549" viewBox="0 0 46.225 47.549" width="46.225" xmlns="http://www.w3.org/2000/svg"><g fill="#007fff"><path d="m230.2 1001.862a.643.643 0 0 1 -.644-.642v-20.453h-34.124v16.062a.643.643 0 1 1 -1.286 0v-16.706a.643.643 0 0 1 .644-.642h35.41a.641.641 0 0 1 .642.642v21.1a.641.641 0 0 1 -.642.639z" transform="translate(-189.38 -979.481)"/><path d="m230.2 1012.485h-35.41a.643.643 0 0 1 -.644-.642v-20.243a.643.643 0 1 1 1.286 0v19.6h34.122v-14.887a.643.643 0 1 1 1.286 0v15.53a.641.641 0 0 1 -.64.642z" transform="translate(-189.38 -964.935)"/><path d="m213.068 994.187a.64.64 0 0 1 -.524-.27l-4.764-6.684a.642.642 0 1 1 1.045-.746l4.242 5.952 4.242-5.952a.642.642 0 1 1 1.045.746l-4.764 6.684a.643.643 0 0 1 -.522.27z" transform="translate(-172.251 -970.944)"/><path d="m202.217 998.595a.64.64 0 0 1 -.524-.27l-4.24-5.95-4.242 5.95a.643.643 0 1 1 -1.048-.746l4.766-6.684a.639.639 0 0 1 .524-.27.639.639 0 0 1 .522.27l4.766 6.684a.642.642 0 0 1 -.524 1.016z" transform="translate(-192.044 -965.357)"/></g></svg>