<svg id="Group_15" data-name="Group 15" xmlns="http://www.w3.org/2000/svg" width="49.609" height="57" viewBox="0 0 49.609 57">
  <g id="Group_11" data-name="Group 11" transform="translate(0 0)">
    <g id="Group_8" data-name="Group 8" transform="translate(0.001 48.372)">
      <path id="Path_55" data-name="Path 55" d="M918.965,731.809l-.033,0a.768.768,0,0,1-.546-.261l-6.206-7.088a.769.769,0,0,1,1.157-1.013l5.673,6.48,6.648-6.431a.77.77,0,1,1,1.07,1.108l-7.229,6.991A.776.776,0,0,1,918.965,731.809Z" transform="translate(-911.991 -723.181)" fill="#007fff"/>
    </g>
    <g id="Group_9" data-name="Group 9" transform="translate(6.207 0.709)">
      <path id="Path_56" data-name="Path 56" d="M915.045,761.922a.77.77,0,0,1-.769-.771V706.4a.77.77,0,0,1,1.54,0v54.751A.771.771,0,0,1,915.045,761.922Z" transform="translate(-914.276 -705.631)" fill="#007fff"/>
    </g>
    <g id="Group_10" data-name="Group 10">
      <path id="Path_57" data-name="Path 57" d="M912.761,713.686a.768.768,0,0,1-.557-1.3l6.475-6.779a.774.774,0,0,1,1.092-.022l6.961,6.716a.77.77,0,0,1-1.07,1.108l-6.4-6.179-5.942,6.219A.764.764,0,0,1,912.761,713.686Z" transform="translate(-911.991 -705.37)" fill="#007fff"/>
    </g>
  </g>
  <g id="Group_12" data-name="Group 12" transform="translate(25.572 17.517)">
    <path id="Path_58" data-name="Path 58" d="M938.939,733.783a.769.769,0,0,1-.712-.478l-3.392-8.265h-8.555l-3.392,8.265a.769.769,0,1,1-1.423-.584l3.58-8.726.016-.035,4.785-11.662a.769.769,0,0,1,1.423,0l4.788,11.662.014.035,3.579,8.726a.768.768,0,0,1-.418,1A.786.786,0,0,1,938.939,733.783ZM926.913,723.5h7.292l-3.647-8.883Z" transform="translate(-921.406 -711.82)" fill="#007fff"/>
  </g>
  <g id="Group_13" data-name="Group 13" transform="translate(20.555 29.269)">
    <path id="Path_59" data-name="Path 59" d="M947.844,717.687H920.33a.77.77,0,1,1,0-1.54h27.514a.77.77,0,0,1,0,1.54Z" transform="translate(-919.559 -716.147)" fill="#007fff"/>
  </g>
  <g id="Group_14" data-name="Group 14" transform="translate(25.572 17.517)">
    <path id="Path_60" data-name="Path 60" d="M938.939,733.783a.769.769,0,0,1-.712-.478l-3.392-8.265h-8.555l-3.392,8.265a.769.769,0,1,1-1.423-.584l3.58-8.726.014-.035,4.788-11.662a.769.769,0,0,1,1.423,0l4.788,11.662.008.025,3.585,8.737a.768.768,0,0,1-.418,1A.786.786,0,0,1,938.939,733.783ZM926.913,723.5h7.292l-3.647-8.883Z" transform="translate(-921.406 -711.82)" fill="#007fff"/>
  </g>
</svg>
