<svg fill="none" height="81" viewBox="0 0 247 81" width="247" xmlns="http://www.w3.org/2000/svg"><g fill="#fff"><path d="m85.5426 23.1985c-.4348 0-.804.3155-.872.7453l-5.0319 31.9114c-.0183.1165-.0111.2357.021.3492.0322.1135.0885.2187.1652.3084s.1719.1617.279.2111c.1072.0493.2238.0749.3418.0749h5.9675c.4341 0 .804-.3162.872-.7453l1.4781-9.371c.0674-.4291.4372-.7453.872-.7453h5.4255c6.3392 0 11.7202-4.6254 12.7032-10.8929.991-6.3205-3.947-11.8321-10.945-11.8458zm5.801 7.1238h4.3409c3.5737 0 4.7375 2.1087 4.3695 4.4407-.3679 2.337-2.1753 4.0584-5.6325 4.0584h-4.4183zm28.5574 2.1692c-1.507.0056-3.24.3144-5.187 1.1252-4.465 1.8611-6.609 5.7074-7.52 8.5115 0 0-2.898 8.5553 3.65 13.2554 0 0 6.073 4.525 12.909-.2787l-.118.7503c-.018.1164-.011.2355.021.3489s.089.2186.165.3082c.077.0897.172.1617.279.2112.107.0494.223.0751.341.0753h5.665c.435 0 .804-.3162.872-.7453l3.446-21.8531c.019-.1165.012-.2357-.02-.3493s-.089-.2189-.165-.3087c-.077-.0898-.172-.1619-.279-.2114-.107-.0496-.224-.0753-.342-.0755h-5.665c-.434 0-.804.3163-.872.7454l-.185 1.1763s-2.474-2.7025-6.995-2.6857zm.186 6.9025c.65 0 1.245.0898 1.779.2613 2.444.7846 3.83 3.1328 3.429 5.6781-.495 3.1341-3.065 5.4418-6.361 5.4418-.65 0-1.245-.0892-1.779-.2607-2.444-.7847-3.839-3.1329-3.438-5.6782.495-3.134 3.073-5.4423 6.37-5.4423z"/><path d="m167.122 23.1985c-.435 0-.804.3155-.872.7453l-5.032 31.9114c-.018.1165-.011.2357.021.3492s.089.2187.165.3084c.077.0897.172.1617.279.2111.108.0493.224.0749.342.0749h5.968c.434 0 .804-.3162.872-.7453l1.478-9.371c.067-.4291.437-.7453.872-.7453h5.425c6.339 0 11.72-4.6254 12.702-10.8929.992-6.3205-3.945-11.8321-10.944-11.8458zm5.801 7.1238h4.341c3.574 0 4.737 2.1087 4.369 4.4407-.368 2.337-2.174 4.0584-5.632 4.0584h-4.418zm28.557 2.1692c-1.507.0056-3.241.3144-5.187 1.1252-4.465 1.8611-6.61 5.7074-7.52 8.5115 0 0-2.897 8.5553 3.651 13.2554 0 0 6.072 4.525 12.909-.2787l-.118.7503c-.019.1165-.011.2357.021.3492s.088.2187.165.3084.172.1617.279.2111c.107.0493.224.0749.342.0749h5.664c.435 0 .804-.3162.872-.7453l3.447-21.8531c.019-.1166.012-.2359-.02-.3496s-.089-.219-.165-.3089c-.077-.0898-.172-.1619-.28-.2113-.107-.0495-.224-.0751-.342-.0751h-5.665c-.435 0-.804.3163-.872.7454l-.185 1.1763s-2.475-2.7025-6.996-2.6857zm.185 6.9025c.651 0 1.246.0898 1.78.2613 2.444.7846 3.83 3.1328 3.429 5.6781-.495 3.1341-3.065 5.4418-6.361 5.4418-.65 0-1.245-.0892-1.78-.2607-2.443-.7847-3.838-3.1329-3.437-5.6782.495-3.134 3.073-5.4423 6.369-5.4423z"/><path d="m137.112 33.2556c-.449 0-.768.4384-.631.8656l6.211 19.2729-5.616 9.0822c-.272.441.044 1.0104.563 1.0104h6.637c.19-.0002.376-.0493.542-.1426.165-.0933.303-.2276.402-.39l17.345-28.6944c.267-.441-.051-1.0048-.567-1.0048h-6.636c-.192.0002-.38.0503-.547.1453-.166.095-.305.2317-.403.3967l-6.827 11.5272-3.466-11.4417c-.113-.3724-.457-.6275-.845-.6275z"/><path d="m222.442 23.1985c-.434 0-.804.3162-.872.7453l-5.033 31.9101c-.019.1167-.012.236.02.3496.032.1137.089.2191.165.3089.077.0898.172.1619.28.2114.107.0494.224.075.342.075h5.967c.434 0 .804-.3162.872-.7453l5.032-31.9114c.018-.1165.011-.2355-.021-.3489-.032-.1135-.088-.2186-.165-.3083-.076-.0896-.171-.1616-.278-.2111-.107-.0494-.224-.0751-.342-.0753z"/></g><path d="m35.7928 23.1985c-.3844.0003-.7561.1377-1.0483.3875-.2922.2497-.4858.5955-.5459.9752l-2.6488 16.7999c.1235-.7846.7996-1.3628 1.5942-1.3628h7.7619c7.8117 0 14.4404-5.6987 15.6516-13.4213.0901-.5765.1412-1.1585.1528-1.742-1.9852-1.0409-4.3172-1.6365-6.8725-1.6365z" fill="#000"/><path d="m56.7104 24.8357c-.0116.5834-.0627 1.1654-.1528 1.7419-1.2113 7.7226-7.8405 13.4213-15.6517 13.4213h-7.7619c-.7939 0-1.4706.5776-1.5941 1.3628l-2.4356 15.4377-1.5255 9.6848c-.0298.1871-.0186.3784.0327.5608.0514.1824.1417.3514.2647.4955.1231.1441.2759.2598.448.3391s.3593.1203.5488.1202h8.4248c.3845-.0003.7561-.1377 1.0483-.3875s.4858-.5956.5459-.9753l2.2191-14.0749c.0601-.3799.2539-.7259.5463-.9757.2925-.2498.6645-.3871 1.0491-.3871h4.9603c7.8118 0 14.4404-5.6987 15.6516-13.4213.8601-5.4811-1.9004-10.4688-6.618-12.9423z" fill="#fff"/><path d="m26.2216 12c-.7939 0-1.4706.5775-1.5941 1.3615l-6.6112 41.9224c-.1254.7958.4896 1.5155 1.2954 1.5155h9.8039l2.4343-15.4377 2.6488-16.7998c.0601-.3797.2537-.7255.5459-.9753s.6638-.3872 1.0483-.3875h14.045c2.5559 0 4.8873.5962 6.8725 1.6366.1359-7.031-5.6657-12.8357-13.6421-12.8357z" fill="#fff"/></svg>