<svg fill="none" height="64" viewBox="0 0 172 64" width="172" xmlns="http://www.w3.org/2000/svg"><g fill="#fff"><path d="m56.8004 33.2c-1.7 0-2.9 1.3-3.2 3.2h6c.1-2-1-3.2-2.8-3.2zm6.8 6h-10c0 3 1.5 4.5 4.5 4.5 1.6 0 3.3-.4 4.7-1l.4 3.2c-1.7.7-3.8 1-5.8 1-5.1 0-8-2.6-8-8.3 0-4.9 2.7-8.6 7.6-8.6 4.7 0 6.8 3.2 6.8 7.2 0 .7-.1 1.3-.2 2z"/><path d="m75.1996 44v2.6h-9.6v-2.6c.8-.2 1.9-.3 2.8-.4v-17.5c-.8-.1-1.9-.3-2.8-.3v-2.6c2.1-.3 4.6-.4 7-.3v20.8001c.9 0 1.8.1999 2.6.2999z"/><path d="m84.1002 33.2c-1.7 0-2.9 1.3-3.2 3.2h6c0-2-1.1-3.2-2.8-3.2zm6.8 6h-10c0 3 1.5 4.5 4.5 4.5 1.6 0 3.3-.4 4.7-1l.4 3.2c-1.7.7-3.8 1-5.8 1-5.1 0-8-2.6-8-8.3 0-4.9 2.7-8.6 7.6-8.6 4.7 0 6.8 3.2 6.8 7.2-.1.7-.1 1.3-.2 2z"/><path d="m115.4 36.4c0-1.7-.4-2.8-1.9-2.8-1.8 0-3.7 2.1-3.7 5.3v4.7c.8.1 1.7.2 2.4.4v2.7h-6.5v-10.3c0-1.6-.3-2.8-1.9-2.8-1.9 0-3.7 2.3-3.7 5.3v4.7c.8.1 1.7.2 2.4.4v2.7h-9.4004v-2.6c.8-.2 1.9-.3 2.8-.4v-10c-.8-.2-1.9-.3-2.8-.4v-2.6c2-.3 4.6-.4 6.7-.3 0 .7-.1 2-.2 2.9 1.0004-2 2.9004-3.3 5.3004-3.3 2.9 0 4.1 1.7 4.5 3.3.7-1.6 2.5-3.3 5.3-3.3 3.1 0 4.9 1.7 4.9 5.4v8.1c.9.1 1.9.2 2.6.4v2.6h-6.8z"/><path d="m131.4 33.2c-1.7 0-2.9 1.3-3.2 3.2h6c0-2-1.1-3.2-2.8-3.2zm6.8 6h-10c0 3 1.5 4.5 4.5 4.5 1.6 0 3.3-.4 4.7-1l.4 3.2c-1.7.7-3.8 1-5.8 1-5.1 0-8-2.6-8-8.3 0-4.9 2.7-8.6 7.6-8.6 4.7 0 6.8 3.2 6.8 7.2-.1.7-.1 1.3-.2 2z"/><path d="m153.1 36.3c0-1.7-.5-2.7-2-2.7-2.1 0-3.8 2.4-3.8 5.2v4.8c.8.1 1.7.2 2.4.4v2.7h-9.3v-2.6c.8-.2 1.9-.3 2.8-.4v-10c-.8-.1-1.9-.3-2.8-.3v-2.6c2-.3 4.6-.4 6.7-.3 0 .7-.1 2.1-.2 2.9 1-1.9 2.9-3.3 5.5-3.3 3.6 0 4.8 2.3 4.8 5.2v8.3c.9.1 1.9.2 2.7.4v2.6h-6.8z"/><path d="m167.7 47c-3.6 0-4.7-1.3-4.7-5.1v-8.2h-2.8v-3.2h2.8v-5l4.2-1.1v6.1h3.9v3.2h-3.9v7.1c0 2.1.5 2.7 1.9 2.7.7 0 1.4-.1 2-.3v3.4c-1 .2-2.2.4-3.4.4z"/><path d="m14.3004 20.6c-4.90001 0-8.90001-4-8.90001-8.9s4-8.9 8.90001-8.9c4.9 0 8.9 4 8.9 8.9-.1 4.9-4 8.9-8.9 8.9zm6.8-20.6h-13.80001l-6.899999 11.9 6.899999 11.9h13.80001l6.9-11.9z"/><path d="m37.6002 33.7c-4.9 0-8.9-4-8.9-8.9s4-8.9 8.9-8.9 8.9 4 8.9 8.9-4 8.9-8.9 8.9zm6.8-20.6h-13.8l-6.9 11.9 6.9 11.9h13.8l6.9-11.9z"/><path d="m13.9 47.4c-4.9 0-8.9-4-8.9-8.9s4-8.9001 8.9-8.9001 8.9 4.0001 8.9 8.9001-4 8.9-8.9 8.9zm6.8-20.7h-13.8l-6.9 11.8999 6.9 11.9001h13.8l6.9-11.9001z"/><path d="m37.3 60.3c-4.9 0-8.9-4-8.9-8.9s4-8.9 8.9-8.9 8.9 4 8.9 8.9-4 8.9-8.9 8.9zm6.9-20.6h-13.8l-6.9 11.8999 6.9 11.9001h13.8l6.9-11.9001z"/></g></svg>