<svg enable-background="new 0 0 198.7 75" viewBox="0 0 198.7 75" xmlns="http://www.w3.org/2000/svg"><g fill="#666" transform="translate(-.002027 .53125)"><path d="m45.1 49.4-9.2-5.3c-1.3-.7-2.9-.3-3.7 1-.3.5-.4 1.1-.3 1.6v10.3c0 1.5 1.2 2.7 2.7 2.7s2.7-1.2 2.7-2.7v-6l5.1 3c1.3.7 2.9.3 3.7-1 .7-1.2.2-2.9-1-3.6"/><path d="m22.2 38c0-1-.5-1.8-1.3-2.3l-9.2-5.3c-.4-.2-.9-.4-1.3-.4-.9 0-1.8.5-2.3 1.3-.7 1.3-.3 2.9 1 3.6l5.3 3.1-5.3 3.1c-.6.4-1 .9-1.2 1.6s-.1 1.4.3 2c.5.8 1.3 1.3 2.3 1.3.5 0 .9-.1 1.3-.4l9.2-5.3c.7-.5 1.2-1.3 1.2-2.3"/><path d="m13.8 26.6 9.2 5.3c1.1.6 2.4.4 3.2-.4.5-.5.9-1.2.9-2v-10.6c0-1.5-1.2-2.7-2.7-2.7s-2.7 1.2-2.7 2.7v6l-5.2-3c-1.3-.7-2.9-.3-3.7 1-.7 1.3-.3 3 1 3.7"/><path d="m34.5 38.4c0 .2-.1.5-.3.6l-3.6 3.6c-.1.1-.4.3-.6.3h-1c-.2 0-.5-.1-.6-.3l-3.6-3.6c-.1-.1-.3-.4-.3-.6v-.9c0-.2.1-.5.3-.6l3.6-3.6c.1-.1.4-.3.6-.3h.9c.2 0 .5.1.6.3l3.6 3.6c.1.1.3.4.3.6v.9zm-3.3-.4c0-.2-.1-.4-.2-.5l-1.1-1.1c-.1-.1-.3-.2-.5-.2-.1 0-.4.1-.5.2l-1.1 1.1c-.1.1-.2.3-.2.5 0 .2.1.4.2.5l1.1 1.1c.1.1.3.2.5.2.2 0 .4-.1.5-.2l1.1-1.1c.1-.1.2-.4.2-.5z"/><path d="m35.9 31.9 9.2-5.3c1.3-.7 1.7-2.4 1-3.7s-2.4-1.7-3.7-1l-5.1 3v-6c0-1.5-1.2-2.7-2.7-2.7s-2.7 1.2-2.7 2.7v10.4c-.1.5.1 1.1.3 1.6.7 1.3 2.4 1.8 3.7 1"/><path d="m24.8 43.8c-.6-.1-1.3 0-1.8.3l-9.2 5.3c-1.3.7-1.7 2.4-1 3.7s2.4 1.7 3.7 1l5.2-3v6c0 1.5 1.2 2.7 2.7 2.7s2.7-1.2 2.7-2.7v-10.7c0-1.3-1-2.4-2.3-2.6"/><path d="m50.8 31.3c-.7-1.3-2.4-1.7-3.7-1l-9.2 5.3c-.9.5-1.4 1.4-1.3 2.4 0 .9.5 1.9 1.3 2.4l9.2 5.3c1.3.7 2.9.3 3.7-1 .7-1.3.3-2.9-1-3.7l-5.2-3 5.2-3c1.3-.7 1.7-2.4 1-3.7"/><path d="m191.8 37.4v.1c0 .5-.4.9-.9.9h-12.9c0 .3.1.6.1.9.6 2.8 3 4.9 5.8 4.9h.4.1.3.2.2c.9-.1 1.9-.5 2.7-1.1s.1-.1.1-.1.1-.1.1-.1.1-.1.1-.1 0 0 .1-.1c0 0 0 0 .1-.1 0 0 .1 0 .1-.1 0 0 0 0 .1-.1 0 0 .1-.1.1-.1s0 0 0-.1c0 0 .1-.1.1-.1s.1-.1.1-.1.1-.1.1-.1.1-.1.1-.1 0 0 0-.1c0 0 .1-.1.1-.1s0-.1.1-.1 0-.1.1-.1c0 0 .1-.1.1-.1.1-.1.2-.2.2-.4s0-.1.1-.1h.1.1.1s0 0 0 0h.1.2.2.1s.1 0 .1.1c.4.3.6.9.3 1.3 0 .1-.1.1-.1.1-.9 1.4-2.2 2.5-3.5 3.2h-.1c-.6.3-1.3.5-2.1.6-.1 0-.1 0-.2 0h-.1-.1c-.1 0-.2 0-.3 0 0 0-.3 0-.6 0-.1 0-.2 0-.2 0-4.3 0-7.8-3.6-7.8-8.1s3.5-8.1 7.9-8.1h.4c1.5.1 2.9.6 4.1 1.4.1 0 .1.1.2.1 0 0 .1.1.1.1s.1.1.1.1c1.8 1.3 2.9 3.4 3.1 5.8zm-13.7-.9h11.7c-.6-2.8-3-4.8-5.8-4.8-2.9 0-5.3 2-5.9 4.8z"/><path d="m158.8 30.1c.1.1.2.3.3.6v.1 14.3c0 .5-.4.9-.9.9s-.9-.4-.9-.9v-1.9c-.4.4-.7.8-1.2 1.2s-.1.1-.1.1c-1.3 1-2.9 1.6-4.5 1.6-2.6 0-5-1.4-6.3-3.5 0 0 0 0 0-.1s-.1-.1-.1-.2c0 0-.1-.1-.1-.1s-.1-.1-.1-.1c0-.1-.1-.1-.1-.2 0 0 0 0 0-.1-.5-1-.8-2.2-.9-3.4 0-.1 0-.3 0-.4s0-.3 0-.4c.1-1.2.4-2.4.9-3.4 0 0 0 0 0-.1s.1-.1.1-.2c0 0 0-.1.1-.1 0 0 .1-.1.1-.1 0-.1.1-.1.1-.2 0 0 0 0 0-.1 1.4-2.1 3.7-3.5 6.3-3.5 1.8 0 3.5.7 4.8 1.8.4.3.7.6 1 1v-1.9-.1c0-.2.1-.4.3-.6h.1.1.1c.1 0 .1 0 .2-.1h.1.1.1.1c.1 0 .1 0 .2.1h.1.1c-.2-.1-.2-.1-.1 0 0-.1 0-.1 0 0zm-7.4 14c3.2 0 5.8-2.8 5.8-6.2 0-3.5-2.6-6.3-5.8-6.3s-5.8 2.8-5.8 6.3v.3.1.2.1.2.1.2.1.2c.9 2.8 3.1 4.7 5.8 4.7z"/><path d="m135.3 23h-.3-.1-.1c-.1 0-.2 0-.3 0 0 0 0 0-.1 0s-.1 0-.2 0c-.1 0-.1 0-.2 0-.1 0-.2 0-.2 0-.5.1-.9.2-1.3.4-.1 0-.1.1-.2.1s-.1.1-.1.1 0 0-.1 0c0 0-.1.1-.1.1s-.1 0-.1.1c0 0 0 0-.1.1 0 0-.1.1-.1.1 0 .1-.1.1-.1.1s-.1.1-.1.1v.1s-.1.1-.1.1-.1.1-.1.1c-.3.4-.4.9-.5 1.5v.2.1.2.1.2s0 .1 0 .2v.1.3.1.3 1.5h-1.9c-.1 0-.2 0-.4.1-.4.1-.6.5-.6.8 0 .4.2.7.5.9.1.1.3.1.5.2h1.9v13.6.1c0 .2.1.4.2.6s0 0 .1.1h.1c.2.1.3.2.5.2h.1c.2 0 .4-.1.5-.2s0 0 .1-.1c.1-.2.2-.4.2-.6v-13.5h2.1c.6 0 1-.5.9-1s0 0 0-.1c0-.2-.1-.4-.2-.5s0 0-.1-.1 0 0-.1 0 0 0-.1 0 0 0-.1 0 0 0-.1 0 0 0-.1 0 0 0 0 0h-2.1v-1.8c0-.1 0-.2 0-.2s0 0 0-.1 0-.1 0-.2c0-.1 0-.1 0-.2.1-.8.2-1.2.4-1.5s0 0 0-.1 0-.1.1-.1c.2-.3.6-.4 1.2-.5h.1.1.1.1.1s.1 0 .1 0 .1 0 .1 0h.1.1.1.3c.5 0 1-.4 1-1s-.8-1.1-1.4-1.1"/><path d="m140.4 23.1c0-.1-.1-.1 0 0-.1-.1-.1-.1 0 0-.1 0-.1 0-.1 0s0 0 0 0 0 0-.1 0h-.1c-.5 0-.9.4-.9.9v21.2c0 .5.4.9.9.9h.1.1.1c.4-.1.6-.4.7-.8v-.1-21.3-.1c-.2-.3-.4-.6-.7-.7"/><path d="m68.7 41c0-.1 0-.1 0-.2v-.1-.1-.1-.1-.1-.1c0-.1 0-.1 0-.1s0 0 0-.1 0-.1-.1-.2c0-.1-.1-.1-.1-.2-.2-.4-.5-.8-.9-1.1-.1 0-.1-.1-.2-.1s-.1-.1-.1-.1c-.5-.3-1-.6-1.8-.9-.4-.2-.9-.3-1.4-.5s-.1 0-.2-.1h-.1c-.2-.1-.3-.1-.5-.2-.1 0-.2-.1-.4-.1 0 0-.1 0-.2-.1h-.1c-.4-.1-.7-.2-1-.3-.4-.2-.9-.3-1.2-.6-.5-.3-.8-.6-.8-1.1v-.1-.1c0-.1 0-.1 0-.2v-.1-.1-.1c.2-.6.7-1.1 1.2-1.4 0 0 .1 0 .1-.1 0 0 .1 0 .1-.1.1 0 .1-.1.2-.1h.1c.1 0 .1 0 .2-.1h.1c.1 0 .1 0 .2-.1h.1.2.1.2.1.2.1.3.3c.7 0 1.2.2 1.7.4 0 0 .1 0 .1.1h.1s.1 0 .1.1.1.1.1.1c.1 0 .1.1.2.1.1 0 .1.1.1.1h.1c.1.1.3.2.4.3.1.1.2.2.3.3s.1 0 .1.1h.1.1.1.2.1s.1 0 .1-.1.1 0 .1-.1.1-.1.1-.1 0 0 0-.1c.2-.3.1-.6-.2-1-.7-.9-2.2-1.8-3.6-2.1-.1 0-.1 0-.2 0 0 0 0 0-.1 0s-.1 0-.2 0c0 0 0 0-.1 0h-.1s0 0-.1 0-.1 0-.2 0-.2 0-.3 0-.1 0-.2 0h-.1c-.1 0-.2 0-.2 0s0 0-.1 0-.2 0-.3 0c-.1 0-.2 0-.3 0-.1 0-.2 0-.3 0-.2 0-.3.1-.5.1-.1 0-.2 0-.2.1-.1 0-.2.1-.2.1-.1 0-.1.1-.2.1-.1 0-.1.1-.2.1-.1 0-.1.1-.2.1-.1 0-.1.1-.2.1-.1 0-.1.1-.2.1-.1 0-.1.1-.2.1-.1.1-.1.1-.2.2-.3.2-.6.5-.9.8s-.1.1-.1.1 0 .1-.1.1v.1c0 .1-.1.1-.1.2-.2.4-.3.9-.4 1.5v.3.2c0 1.1.6 2 1.5 2.6s.1.1.1.1.1 0 .1.1c.9.6 2 .9 2.9 1.2.5.1.9.2 1 .3h.1c.6.2 1 .3 1.3.5h.1l.6.3c.2.1.3.2.4.2.4.2.7.5.8.8v.1.1.1.1.1.1.1.1.2.1.2c0 .1-.1.3-.1.4 0 .1-.1.1-.1.2-.1.1-.1.2-.2.4 0 .1-.1.1-.1.2-.1.1-.2.2-.3.3-.1 0-.1.1-.2.1-.1.1-.2.1-.3.2 0 0-.1 0-.1.1s-.1 0-.1.1h-.1c-.1 0-.2.1-.3.1-.1 0-.1 0-.2.1 0 0 0 0-.1 0 .2.1-.1.1-.2.2-.1 0-.2 0-.3 0h-.1-.1c-.1 0-.2 0-.2 0-.1 0-.3 0-.4 0s-.1 0-.2 0-.2 0-.2 0c-.1 0-.1 0-.2 0s-.1 0-.2 0-.2 0-.3-.1c-.1 0-.1 0-.2 0s-.1 0-.2 0-.1 0-.2-.1h-.1c-.1 0-.2-.1-.3-.1 0 0 0 0-.1 0-.2-.1-.4-.2-.7-.3-.1-.1-.4-.2-.6-.3 0 0 0 0-.1 0-.2-.1-.3-.2-.4-.2h-.1c-.1 0-.2-.1-.2-.1s0 0-.1 0c-.1 0-.3.1-.4.2 0 0-.1 0-.1.1v.1.1.1.1.1.1.1c.1.1.1.2.2.4.1.1.3.2.4.4s.1.1.1.1c.1.1.3.2.4.3 0 0 .1 0 .1.1 0 0 .1 0 .1.1 0 0 .1.1.2.1 0 0 .1 0 .1.1.1 0 .2.1.2.1.1 0 .2.1.3.1h.1c.8.3 1.9.5 2.8.6h.2.1.2c1.5 0 2.7-.4 3.7-1.2 1.1-.9 1.8-2.1 1.8-3.4.1-.4.1-.5.1-.7 0 .1 0 .1 0 0"/><path d="m78.2 29.8c-1.8 0-3.6.7-4.8 2.1v-1.1c0-.5-.4-.9-.9-.9h-.1c-.2 0-.4.1-.6.3v.1.1c0 .1 0 .1-.1.2v.1.1 14.5.1.1.1c.1.2.3.4.6.5h.2.1.1.1c.2-.1.3-.2.4-.3.1-.1.1-.1.1-.2v-.1-8.8c.1-2.6 2.2-4.7 4.8-4.7 2.6 0 4.7 2.1 4.7 4.7v8.6.1c0 .2.1.4.3.6h.1.1c.1 0 .1 0 .2.1h.1.1.1.1c.1 0 .1 0 .2-.1h.1.1.1c.1-.1.2-.3.3-.6v-.1-8.6c.1-3.9-2.8-6.9-6.5-6.9"/><path d="m95.1 29.8c4.2 0 7.7 3.6 7.7 8.1s-3.5 8.1-7.7 8.1c-.1 0-.3 0-.4 0 0 0 0 0-.1 0s-.2 0-.3 0c-1.7-.2-3.2-.9-4.5-2.2-.1-.1-.1-.1-.2-.2s-.1-.1-.1-.1c-.1-.1-.1-.1-.2-.2 0-.1-.1-.1-.1-.2 0 0-.1-.1-.1-.1-.1-.1-.1-.2-.2-.3-.8-1.1-1.3-2.3-1.4-3.6 0-.1 0-.2 0-.4 0-.1 0-.2 0-.3 0 0 0 0 0-.1s0-.3 0-.4 0-.3 0-.4v-.1c0-.1 0-.2 0-.3 0-.1 0-.2 0-.4.2-1.3.7-2.5 1.4-3.6.1-.1.1-.2.2-.3 0 0 .1-.1.1-.1 0-.1.1-.1.1-.2l.2-.2s.1-.1.1-.1c0-.1.1-.1.1-.1 1.2-1.3 2.8-2 4.5-2.2h.3.1c.2-.1.3-.1.5-.1zm5.8 7.5c-.1-1.4-.7-2.7-1.6-3.7 0 0-.1-.1-.1-.1s0 0-.1-.1c0 0-.1-.1-.1-.1s-.1-.1-.1-.1-.1-.1-.1-.1c-.1-.1-.1-.1-.2-.2-.8-.7-1.8-1.1-2.9-1.2-.1 0-.2 0-.2 0s0 0-.1 0-.2 0-.3 0-.2 0-.3 0c0 0 0 0-.1 0s-.2 0-.2 0c-1.1.1-2 .6-2.9 1.2-.1.1-.1.1-.2.2 0 0-.1 0-.1.1 0 0-.1.1-.1.1s-.1.1-.1.1 0 0-.1.1c0 0-.1.1-.1.1-.9 1-1.4 2.3-1.6 3.7v.3.3c0 3.4 2.6 6.2 5.8 6.2s5.8-2.8 5.8-6.2c0-.1 0-.2 0-.3 0-.2 0-.2 0-.3z"/><path d="m125.4 30.2c-.1-.1-.2-.2-.4-.3s0 0-.1 0c-.1 0-.3-.1-.4 0-.3 0-.5.2-.7.4s0 .1-.1.1l-4.5 12.3-3.5-8.4c0-.1-.1-.1-.1-.2-.2-.2-.5-.4-.8-.4h-.1c-.3.1-.6.3-.7.6l-3.5 8.4-1.7-4.6-2.8-7.6s0-.1-.1-.1c-.1-.2-.2-.3-.4-.4-.1 0-.2-.1-.3-.1h-.1s0 0-.1 0 0 0-.1 0 0 0-.1 0 0 0-.1 0c-.2.1-.3.2-.4.3s0 0 0 0c-.1.1-.1.3-.1.4s0 .3.1.4l3.2 8.7 2.1 5.6c.1.2.2.4.4.4s0 0 0 0h.1.2.1.1.1.1.1s.1 0 .1-.1.1-.1.1-.1 0-.1.1-.1c0 0 0-.1.1-.1l3.5-8.4 3.6 8.5c0 .1.1.2.1.2s0 0 .1.1 0 0 .1.1.1 0 .1.1h.1.1.1.1.1.1s.1 0 .1-.1.1-.1.1-.1c.2-.1.3-.3.3-.5l2.2-5.9 3.1-8.3c.5-.2.5-.5.3-.8z"/><path d="m175 30.5c0-.1 0-.1 0 0 0-.1 0-.1 0-.1s0 0 0-.1v-.1c0-.1-.1-.2-.2-.2-.3-.3-.8-.4-1.2-.1s0 0-.1.1l-9.2 8.9v-15-.1c0-.3-.3-.6-.6-.8s0 0-.1 0 0 0-.1 0 0 0-.1 0h-.1c-.5 0-.9.4-.9.9v21.2c0 .5.4.9.9.9h.1.1.1c.4-.1.6-.4.7-.8v-.1-3.6l3.1-3.1 6 7.2c0 .1.1.1.1.2h.1.1.1.1.1.2c.1 0 .2-.1.3-.1s.1-.1.1-.1c.4-.4.4-.8.2-1.2 0 0 0-.1-.1-.1l-6.1-7.4 6-5.8c.2-.2.3-.4.3-.6s0 0 0-.1c.1.2.1.2.1.1z"/></g></svg>