<svg height="57.396" viewBox="0 0 58.26 57.396" width="58.26" xmlns="http://www.w3.org/2000/svg"><g fill="#007fff"><path d="m1042.742 351.519a.808.808 0 0 1 -.508-.18c-1.167-.942-28.622-23.261-28.622-41.421 0-7.949 4.091-13.852 10.676-15.407 6.936-1.641 14.325 2.02 18.44 8.973 4.508-7.917 12.505-10.191 18.311-8.87 7.989 1.817 10.833 9.1 10.833 15.3 0 5.96-2.981 13.007-8.859 20.942a.809.809 0 0 1 -1.3-.962c5.669-7.652 8.542-14.374 8.542-19.98 0-7.233-3.577-12.363-9.575-13.729-5.521-1.255-13.261 1.138-17.207 9.361a.808.808 0 0 1 -1.452.011c-2.93-5.849-9.612-11.31-17.361-9.478-5.9 1.4-9.43 6.568-9.43 13.835 0 16.083 23.718 36.571 27.513 39.744a136.948 136.948 0 0 0 12.037-11.469.809.809 0 0 1 1.187 1.1 135.253 135.253 0 0 1 -12.717 12.049.806.806 0 0 1 -.508.181z" transform="translate(-1013.612 -294.123)"/><path d="m1048.6 310.193h-22.054a.809.809 0 1 1 0-1.618h22.054a.809.809 0 0 1 0 1.618z" transform="translate(-991.147 -267.341)"/><path d="m1030.41 328.2a.81.81 0 0 1 -.81-.81v-21.831a.809.809 0 1 1 1.618 0v21.829a.809.809 0 0 1 -.808.812z" transform="translate(-983.985 -274.431)"/></g></svg>