<svg enable-background="new 0 0 504.5 114.9" viewBox="0 0 504.5 114.9" xmlns="http://www.w3.org/2000/svg"><g fill="#636363"><path d="m142.2 89-4.9-4.8h-3.4l7.2 6.9v5.2h2.4v-5.2l7.2-6.9h-3.4zm20.7-5.2c-4.7 0-8.6 2.9-8.6 6.6 0 3.6 3.8 6.5 8.6 6.5 4.7 0 8.6-2.9 8.6-6.5 0-3.7-3.9-6.6-8.6-6.6zm0 10.9c-3.3 0-6.1-1.9-6.1-4.3s2.7-4.4 6.1-4.4 6.1 1.9 6.1 4.4c0 2.3-2.7 4.3-6.1 4.3zm24.7-4.2c0 2.9-2.1 4.2-4.3 4.2-2.1 0-4.3-1.3-4.3-4.2v-6.3h-2.4v6.6c0 4.2 3.3 6 6.6 6s6.7-1.9 6.7-6v-6.6h-2.4zm20.3-2.8c0-2.6-2.6-3.5-4.8-3.5h-7.4v12.2h2.4v-5.2h4.5l3.3 5.2h2.8l-3.5-5.4c1.5-.5 2.7-1.4 2.7-3.3zm-5 1.3h-4.8v-2.6h4.8c1.8 0 2.5.5 2.5 1.3 0 .9-.6 1.3-2.5 1.3zm28.4-4.8h-6.7v12.2h6.7c3.6 0 8.3-1.7 8.3-6.1s-4.7-6.1-8.3-6.1zm-.2 10h-4.1v-7.8h4.1c2.6 0 6.1.8 6.1 3.9-.1 3.1-3.6 3.9-6.1 3.9zm10.9 2.2h2.8l2.3-3.6h6.6l2.3 3.6h2.8l-8.4-13.1zm6.5-5.7 1.9-2.9 1.9 2.9zm11.3-4.3h5.9v10h2.4v-10h5.9v-2.2h-14.2zm15.1 10h2.8l2.3-3.6h6.6l2.3 3.6h2.8l-8.4-13.1zm6.6-5.7 1.9-2.9 1.9 2.9zm31.5-6.5h-6.7v12.2h6.7c3.6 0 8.3-1.7 8.3-6.1s-4.7-6.1-8.3-6.1zm-.2 10h-4.1v-7.8h4.1c2.6 0 6.1.8 6.1 3.9-.1 3.1-3.6 3.9-6.1 3.9zm13.8 2.2h12.1v-2.2h-9.7v-3.1h8.2v-2.2h-8.2v-2.5h9.7v-2.2h-12.1zm19.8-12.2h-2.4v12.2h11.9v-2.2h-9.5zm14 12.2h2.4v-12.2h-2.4zm15.4-3.5-5.6-8.7h-2.8l8.4 13.1 8.4-13.1h-2.8zm12.7 3.5h12.1v-2.2h-9.7v-3.1h8.2v-2.2h-8.2v-2.5h9.7v-2.2h-12.1zm29.5-8.7c0-2.6-2.6-3.5-4.8-3.5h-7.4v12.2h2.4v-5.2h4.5l3.3 5.2h2.8l-3.5-5.4c1.5-.5 2.7-1.4 2.7-3.3zm-5 1.3h-4.8v-2.6h4.8c1.8 0 2.5.5 2.5 1.3 0 .9-.7 1.3-2.5 1.3zm11.4 7.4h12.1v-2.2h-9.7v-3.1h8.2v-2.2h-8.2v-2.5h9.7v-2.2h-12.1zm24-12.2h-6.7v12.2h6.7c3.6 0 8.3-1.7 8.3-6.1.1-4.4-4.6-6.1-8.3-6.1zm-.2 10h-4.1v-7.8h4.1c2.6 0 6.1.8 6.1 3.9s-3.5 3.9-6.1 3.9zm-269.6-49.6h-12.4v19.2c-.7.2-1.6.3-2.6.3-1 .1-2.2.1-3.5.1-2.5 0-4.8-.4-6.7-1.3s-3.5-2.1-4.8-3.7-2.2-3.5-2.9-5.7c-.6-2.2-1-4.7-1-7.4 0-5.6 1.3-10 3.9-13.2s6.7-4.8 12.5-4.8c2.6 0 5 .3 7.2 1s4.1 1.4 5.8 2.3l3.6-9.9c-.4-.3-1.1-.6-2.1-1.1s-2.2-.9-3.7-1.4c-1.5-.4-3.3-.8-5.4-1.2-2.1-.3-4.4-.5-7-.5-3.8 0-7.4.6-10.8 1.9s-6.3 3.1-8.8 5.6-4.5 5.5-5.9 9c-1.4 3.6-2.1 7.6-2.1 12.2s.6 8.6 1.9 12.2 3.1 6.5 5.5 9c2.4 2.4 5.3 4.3 8.6 5.6 3.4 1.3 7.1 1.9 11.3 1.9 4.8 0 8.9-.3 12.2-1s5.7-1.3 7.2-1.9zm37.9 19.5c-2.1.4-4.2.6-6.4.6-3.4 0-6.1-.7-8.1-2.1s-3.2-3.4-3.4-5.8h26.9c.1-.6.1-1.4.2-2.2s.1-1.6.1-2.3c0-7-1.7-12.4-5.2-16-3.4-3.6-8.1-5.4-14.1-5.4-2.5 0-5 .5-7.4 1.4-2.4 1-4.5 2.4-6.4 4.2-1.9 1.9-3.4 4.2-4.5 7s-1.7 6-1.7 9.7c0 3.1.4 5.9 1.3 8.6s2.2 4.9 4.1 6.9c1.8 1.9 4.1 3.5 6.9 4.6s6.1 1.7 9.8 1.7c1.5 0 3-.1 4.5-.2 1.5-.2 2.9-.4 4.2-.6s2.5-.5 3.5-.8c1.1-.3 1.9-.6 2.5-1l-1.6-9.6c-1.4.4-3.1.9-5.2 1.3zm-17.2-18.5c.3-1 .8-1.8 1.5-2.6.6-.7 1.4-1.3 2.4-1.8 1-.4 2.1-.7 3.4-.7 1.4 0 2.5.2 3.5.7.9.5 1.7 1.1 2.3 1.8s1.1 1.6 1.4 2.5c.3 1 .5 1.9.5 2.9h-15.7c.1-.8.4-1.8.7-2.8zm37.3 23.1c1.8 1.9 4 3.4 6.5 4.5s5.3 1.6 8.4 1.6 6-.5 8.5-1.6 4.7-2.6 6.5-4.5 3.2-4.3 4.1-7c1-2.7 1.4-5.7 1.4-9s-.5-6.3-1.5-9-2.4-5-4.2-6.9-4-3.4-6.5-4.5-5.3-1.6-8.3-1.6-5.7.5-8.2 1.6-4.7 2.5-6.5 4.5c-1.8 1.9-3.3 4.2-4.3 6.9s-1.6 5.7-1.6 9 .5 6.3 1.5 9c1 2.8 2.4 5.1 4.2 7zm8.6-24.6c1.5-2.1 3.6-3.1 6.3-3.1s4.8 1 6.2 3.1c1.5 2.1 2.2 5 2.2 8.6 0 3.7-.7 6.6-2.2 8.7s-3.5 3.2-6.2 3.2-4.8-1.1-6.3-3.2-2.2-5-2.2-8.7c-.1-3.6.7-6.5 2.2-8.6zm70.4 14.5c0-2.7-.3-4.9-1-6.8s-1.7-3.5-3.1-4.9-3.2-2.6-5.3-3.6-4.6-2.1-7.5-3.1c-1.4-.5-2.6-.9-3.8-1.4-1.1-.4-2.1-1-3-1.5-.9-.6-1.6-1.2-2-1.9-.5-.7-.7-1.5-.7-2.5 0-1.7.6-3 1.9-3.8s3.4-1.2 6.4-1.2c2.7 0 4.9.3 6.8.9s3.6 1.3 5.1 2.1l3.6-9.8c-1.7-1-4-1.8-6.7-2.6s-5.9-1.2-9.6-1.2c-3.1 0-5.9.4-8.4 1.2s-4.6 1.9-6.4 3.3c-1.7 1.4-3.1 3.2-4.1 5.2s-1.4 4.3-1.4 6.9c0 2.5.4 4.7 1.4 6.5.9 1.8 2.1 3.3 3.5 4.5s3 2.3 4.9 3.1c1.8.8 3.6 1.6 5.4 2.2 4.1 1.4 7 2.7 8.7 3.9s2.5 2.7 2.5 4.5c0 .8-.1 1.6-.4 2.3s-.7 1.3-1.4 1.8-1.6.9-2.7 1.2-2.6.4-4.3.4c-3.5 0-6.5-.4-8.9-1.1s-4.4-1.5-6.1-2.4l-3.5 9.9c.7.4 1.7.9 2.7 1.4 1.1.5 2.4.9 3.9 1.4 1.5.4 3.2.8 5.2 1.1s4.2.4 6.6.4c7.3 0 12.7-1.4 16.3-4.3 3.6-3 5.4-6.9 5.4-12.1zm22 16.1c2.5 0 4.7-.2 6.4-.6s3.3-.9 4.8-1.5l-1.7-9.2c-1.1.4-2.3.8-3.7 1s-2.7.4-3.9.4c-2.7 0-4.4-.7-5.3-2.2s-1.3-3.5-1.3-6v-14.8h14.2v-9.9h-14.2v-12.3l-11.9 1.9v35.1c0 2.7.3 5.2.8 7.4s1.4 4.1 2.7 5.7 3 2.8 5.1 3.7c2 .8 4.7 1.3 8 1.3zm45.7-.9c3-.5 5.4-.9 7.1-1.3v-24.6c0-2.6-.3-5-.9-7.1s-1.6-3.9-3-5.4-3.3-2.6-5.6-3.4-5.2-1.2-8.7-1.2c-1.4 0-2.7.1-4.1.2s-2.6.3-3.9.5c-1.2.2-2.3.4-3.4.6-1 .2-1.9.5-2.6.7l1.5 9.5c1.4-.5 3.1-.9 5.1-1.2s3.9-.4 6-.4c3 0 5.1.6 6.4 1.8 1.2 1.2 1.8 2.8 1.8 4.9v1.1c-.7-.2-1.7-.4-2.9-.5s-2.6-.2-4.1-.2c-2.3 0-4.5.2-6.6.7s-4 1.2-5.6 2.2-3 2.4-3.9 4.1c-1 1.7-1.5 3.8-1.5 6.2 0 2.5.4 4.7 1.3 6.4.8 1.7 2.1 3.2 3.7 4.3s3.5 1.9 5.7 2.3c2.2.5 4.7.7 7.4.7 4.1-.1 7.8-.4 10.8-.9zm-17.2-13.3c0-1 .2-1.7.6-2.4.4-.6 1-1.1 1.7-1.5s1.6-.6 2.6-.8c1-.1 2-.2 3.1-.2.8 0 1.7.1 2.6.2 1 .1 1.7.2 2.1.3v9c-.6.1-1.5.2-2.5.2-1.1.1-2.2.1-3.3.1-2.2 0-3.9-.4-5.1-1.1-1.2-.6-1.8-1.9-1.8-3.8zm87.5-24.2c-1.3-1.7-3-3-5.1-3.9s-4.9-1.4-8.2-1.4c-1.9 0-3.9.3-6.1 1s-4.1 1.6-5.8 2.9c-1.2-1.1-2.8-2-4.7-2.7-1.9-.8-4.3-1.2-7.4-1.2-1.5 0-3.1.1-4.7.2s-3.1.3-4.7.6c-1.5.2-2.9.5-4.3.8s-2.5.6-3.5.8v40.4h11.8v-32.4c.7-.1 1.5-.2 2.3-.3s1.6-.1 2.3-.1c2.4 0 4.1.8 5 2.4 1 1.6 1.5 4.3 1.5 8.1v22.2h11.8v-22.8c0-1.5-.1-3-.2-4.3-.1-1.4-.3-2.6-.7-3.9.7-.5 1.7-.9 2.8-1.2s2-.5 2.7-.5c2.4 0 4.1.8 5 2.4 1 1.6 1.5 4.3 1.5 8.1v22.2h11.8v-23.6c0-2.9-.2-5.5-.7-7.8-.3-2.3-1.2-4.3-2.4-6zm49.5 7.4c-1-2.7-2.4-5-4.3-6.9s-4.1-3.3-6.8-4.4c-2.7-1-5.8-1.6-9.2-1.6-1.4 0-2.9.1-4.5.2s-3.1.3-4.6.5-3 .5-4.3.8c-1.4.3-2.6.6-3.7.9v63.1h11.8v-23.6c1.3.6 2.7 1 4.1 1.4 1.4.3 3 .5 4.6.5 3 0 5.6-.5 7.9-1.6s4.2-2.5 5.7-4.5c1.5-1.9 2.7-4.2 3.5-6.8.8-2.7 1.2-5.6 1.2-8.8 0-3.4-.5-6.5-1.4-9.2zm-19.1 20.8c-1.2 0-2.4-.2-3.6-.5s-2.2-.7-2.9-1.2v-21.4c.6-.1 1.3-.2 2.2-.3s1.9-.1 2.9-.1c3.2 0 5.7 1.1 7.3 3.3s2.5 5.1 2.5 8.8c.1 7.6-2.8 11.4-8.4 11.4z"/><path d="m91.9 57.5c0-19-15.4-34.4-34.4-34.4s-34.4 15.4-34.4 34.4c0 15.1 9.8 28 23.4 32.6-4.5-11.2-8.7-21.5-8.7-21.5-1.4-2.9-2.2-6.1-2.2-9.5 0-2.4.4-4.7 1.1-6.9 2.4-9.4 10.8-16.2 20.8-16.2 8.5 0 15.9 5 19.4 12.2 1.8 3.2 2.8 6.9 2.8 10.8 0 3.6-.9 7-2.4 10l-8.5 21c13.5-4.7 23.1-17.5 23.1-32.5z"/><path d="m57.5 0c-31.8 0-57.5 25.7-57.5 57.5 0 31.4 25.2 56.9 56.5 57.5-1.2-2.9-3.2-7.8-5.4-13.4-21.6-3.1-38.2-21.7-38.2-44.1 0-24.6 20-44.6 44.6-44.6s44.6 20 44.6 44.6c0 22.3-16.5 40.8-37.9 44.1l-5.4 13.4c31.2-.7 56.2-26.1 56.2-57.4 0-31.9-25.8-57.6-57.5-57.6z"/><circle cx="57.5" cy="57.5" r="11.3"/></g></svg>