<svg height="36.358" viewBox="0 0 38.646 36.358" width="38.646" xmlns="http://www.w3.org/2000/svg"><g fill="#007fff"><path d="m2558.323 327.423a.54.54 0 0 1 -.452-.244l-6.544-9.986a.539.539 0 0 1 0-.591l6.544-9.987a.54.54 0 0 1 .9.592l-6.35 9.691 6.35 9.691a.54.54 0 0 1 -.451.835z" transform="translate(-2551.239 -298.08)"/><path d="m2663.572 327.423a.539.539 0 0 1 -.45-.836l6.35-9.691-6.35-9.691a.539.539 0 1 1 .9-.592l6.544 9.987a.538.538 0 0 1 0 .592l-6.544 9.986a.538.538 0 0 1 -.45.245z" transform="translate(-2632.01 -298.08)"/><path d="m2596.026 312.854a.541.541 0 0 1 -.506-.727l13.01-35.279a.54.54 0 0 1 1.013.374l-13.011 35.278a.54.54 0 0 1 -.506.354z" transform="translate(-2583.208 -276.496)"/></g></svg>