<svg enable-background="new 0 0 777 110.4" viewBox="0 0 777 110.4" xmlns="http://www.w3.org/2000/svg"><g fill="#636363"><path d="m0 1.1h20v22.7h21.9v-22.7h20.1v64.8h-20.1v-26.2h-21.9v26.2h-20z"/><path d="m75.2 1.1h53.6v13.8h-33.5v10.3h31.1v13.2h-31.1v12.8h34.5v14.7h-54.6z"/><path d="m180.4 55.2h-22.7l-3.2 10.7h-20.4l24.3-64.8h21.8l24.3 64.8h-21zm-4.1-14-7.1-23.3-7.1 23.3z"/><path d="m211 1.1h20v48.8h31.2v15.9h-51.2z"/><path d="m262.2 1.1h60.8v16h-20.4v48.8h-20v-48.8h-20.4z"/><path d="m332.2 1.1h20v22.7h21.9v-22.7h20.1v64.8h-20.1v-26.2h-21.9v26.2h-20z"/><path d="m450.6 39.4 17.5 5.3c-1.2 4.9-3 9-5.6 12.3-2.5 3.3-5.7 5.8-9.4 7.5-3.8 1.7-8.5 2.5-14.3 2.5-7 0-12.8-1-17.3-3.1-4.5-2-8.3-5.6-11.6-10.8s-4.9-11.7-4.9-19.8c0-10.7 2.8-18.9 8.5-24.7s13.8-8.6 24.2-8.6c8.2 0 14.6 1.6 19.2 4.9 4.7 3.3 8.1 8.4 10.4 15.2l-17.7 3.9c-.6-2-1.3-3.4-1.9-4.3-1.1-1.5-2.5-2.7-4.1-3.5s-3.4-1.2-5.4-1.2c-4.5 0-8 1.8-10.4 5.5-1.8 2.7-2.7 7-2.7 12.8 0 7.2 1.1 12.1 3.3 14.8s5.2 4 9.2 4c3.8 0 6.7-1.1 8.7-3.2s3.4-5.4 4.3-9.5z"/><path d="m517.7 55.2h-22.7l-3.2 10.7h-20.4l24.3-64.8h21.8l24.3 64.8h-21zm-4.2-14-7.1-23.3-7.1 23.3z"/><path d="m548.5 65.9v-64.8h33.4c6.2 0 10.9.5 14.2 1.6s5.9 3 7.9 5.9 3 6.4 3 10.5c0 3.6-.8 6.7-2.3 9.3s-3.6 4.7-6.3 6.3c-1.7 1-4.1 1.9-7 2.6 2.4.8 4.1 1.6 5.2 2.4.7.5 1.8 1.7 3.2 3.4s2.3 3.1 2.8 4l9.7 18.8h-22.6l-10.7-19.8c-1.4-2.6-2.6-4.2-3.6-5-1.4-1-3.1-1.5-4.9-1.5h-1.8v26.3zm20.1-38.6h8.4c.9 0 2.7-.3 5.3-.9 1.3-.3 2.4-.9 3.2-2s1.3-2.3 1.3-3.8c0-2.1-.7-3.7-2-4.8s-3.8-1.7-7.5-1.7h-8.8z"/><path d="m618.5 1.1h53.6v13.8h-33.6v10.3h31.1v13.2h-31.1v12.8h34.5v14.7h-54.6z"/><path d="m430.8 82.6h14.1c3.1 0 5.4.7 6.9 2.2s2.3 3.5 2.3 6.2c0 2.8-.8 4.9-2.5 6.5s-4.2 2.3-7.6 2.3h-4.6v10.2h-8.5zm8.5 11.6h2.1c1.6 0 2.8-.3 3.4-.9.7-.6 1-1.3 1-2.2s-.3-1.6-.9-2.2-1.7-.9-3.2-.9h-2.4z"/><path d="m458.6 110v-27.4h14.1c2.6 0 4.6.2 6 .7 1.4.4 2.5 1.3 3.3 2.5s1.3 2.7 1.3 4.4c0 1.5-.3 2.8-1 3.9s-1.5 2-2.7 2.7c-.7.4-1.7.8-3 1.1 1 .3 1.7.7 2.2 1 .3.2.8.7 1.4 1.4s1 1.3 1.2 1.7l4.1 7.9h-9.5l-4.5-8.4c-.6-1.1-1.1-1.8-1.5-2.1-.6-.4-1.3-.6-2.1-.6h-.7v11.2zm8.5-16.3h3.6c.4 0 1.1-.1 2.2-.4.6-.1 1-.4 1.4-.9s.5-1 .5-1.6c0-.9-.3-1.6-.8-2-.6-.5-1.6-.7-3.2-.7h-3.7z"/><path d="m486.5 96.3c0-4.5 1.2-8 3.7-10.5s6-3.7 10.4-3.7c4.6 0 8.1 1.2 10.5 3.7 2.5 2.4 3.7 5.9 3.7 10.3 0 3.2-.5 5.8-1.6 7.9s-2.6 3.6-4.7 4.8-4.6 1.7-7.6 1.7c-3.1 0-5.7-.5-7.7-1.5s-3.7-2.5-4.9-4.7c-1.1-2.2-1.8-4.8-1.8-8zm8.5 0c0 2.8.5 4.8 1.5 6s2.4 1.8 4.2 1.8 3.2-.6 4.2-1.8 1.5-3.3 1.5-6.4c0-2.6-.5-4.5-1.6-5.7-1-1.2-2.5-1.8-4.2-1.8s-3.1.6-4.1 1.8c-1 1.3-1.5 3.3-1.5 6.1z"/><path d="m515.2 82.6h8.9l6.2 19.7 6.1-19.7h8.6l-10.3 27.4h-9.2z"/><path d="m548 82.6h8.5v27.4h-8.5z"/><path d="m562.6 82.6h12.6c2.5 0 4.5.3 6 1s2.8 1.6 3.8 2.9 1.7 2.7 2.2 4.4c.4 1.7.7 3.4.7 5.3 0 2.9-.3 5.2-1 6.8s-1.6 3-2.8 4.1-2.5 1.8-3.8 2.2c-1.9.5-3.5.7-5 .7h-12.6v-27.4zm8.5 6.2v15h2.1c1.8 0 3-.2 3.8-.6s1.3-1.1 1.8-2.1.6-2.6.6-4.8c0-2.9-.5-4.9-1.4-6s-2.5-1.6-4.7-1.6z"/><path d="m592.3 82.6h22.7v5.9h-14.2v4.4h13.2v5.6h-13.2v5.4h14.6v6.2h-23.1z"/><path d="m620.1 110v-27.4h14.1c2.6 0 4.6.2 6 .7 1.4.4 2.5 1.3 3.3 2.5s1.3 2.7 1.3 4.4c0 1.5-.3 2.8-1 3.9s-1.5 2-2.7 2.7c-.7.4-1.7.8-3 1.1 1 .3 1.7.7 2.2 1 .3.2.8.7 1.4 1.4s1 1.3 1.2 1.7l4.1 7.9h-9.6l-4.5-8.4c-.6-1.1-1.1-1.8-1.5-2.1-.6-.4-1.3-.6-2.1-.6h-.7v11.2zm8.5-16.3h3.6c.4 0 1.1-.1 2.2-.4.6-.1 1-.4 1.4-.9s.5-1 .5-1.6c0-.9-.3-1.6-.8-2-.6-.5-1.6-.7-3.2-.7h-3.7z"/><path d="m648.3 100.9 8.1-.5c.2 1.3.5 2.3 1.1 3 .9 1.1 2.1 1.7 3.7 1.7 1.2 0 2.1-.3 2.8-.9s1-1.2 1-2c0-.7-.3-1.3-.9-1.9s-2.1-1.1-4.3-1.6c-3.7-.8-6.4-1.9-7.9-3.3-1.6-1.4-2.4-3.1-2.4-5.3 0-1.4.4-2.7 1.2-4s2-2.2 3.7-3c1.6-.7 3.9-1.1 6.7-1.1 3.5 0 6.2.7 8 2s2.9 3.4 3.3 6.2l-8 .5c-.2-1.2-.7-2.1-1.3-2.7-.7-.6-1.6-.8-2.8-.8-1 0-1.7.2-2.2.6s-.7.9-.7 1.5c0 .4.2.8.6 1.2s1.3.7 2.8 1c3.7.8 6.4 1.6 8 2.4s2.8 1.8 3.5 3 1.1 2.6 1.1 4.1c0 1.8-.5 3.4-1.5 4.9s-2.3 2.6-4.1 3.4-3.9 1.2-6.6 1.2c-4.7 0-7.9-.9-9.7-2.7-2-1.9-3-4.1-3.2-6.9z"/></g><path d="m735.5 0h15.6v67.3h-15.6z" fill="#d11e1e"/><path d="m709.7 25.3h67.3v15.6h-67.3z" fill="#d11e1e"/></svg>