<svg xmlns="http://www.w3.org/2000/svg" xmlns:xlink="http://www.w3.org/1999/xlink" width="500" height="159" viewBox="0 0 500 159">
  <defs>
    <clipPath id="clip-Trane_Technologies">
      <rect width="500" height="159"/>
    </clipPath>
  </defs>
  <g id="Trane_Technologies" data-name="Trane Technologies" clip-path="url(#clip-Trane_Technologies)">
    <rect width="500" height="159" fill="#fff"/>
    <g id="Group_2691" data-name="Group 2691" transform="translate(-17809.141 656.355)">
      <path id="black-plate" d="M191.261,79.851a7.667,7.667,0,1,1,7.667-7.667A7.681,7.681,0,0,1,191.261,79.851Zm0-13.727a6.106,6.106,0,1,0,6.106,6.106A6.133,6.133,0,0,0,191.261,66.124ZM31.953,79.529V66.4h5.509V64.838H24.883V66.4h5.509v13.13Zm41.824.321a6.244,6.244,0,0,0,6.473-4.775l-1.561-.321a4.716,4.716,0,0,1-4.912,3.535c-3.122,0-5.6-2.158-5.6-6.106,0-3.765,2.3-6.106,5.555-6.106a4.46,4.46,0,0,1,4.683,3.306l1.515-.413c-1.01-2.709-2.571-4.453-6.152-4.453-4.224,0-7.162,2.984-7.162,7.621C66.661,76.683,69.6,79.851,73.777,79.851Zm18.594-.321v-7.07h8.907v7.07h1.561V64.838h-1.561v6.106H92.371v-6.06H90.81V79.575h1.561Zm82.868,0V77.968h-8.447V64.838H165.23V79.529Zm98.707.321c3.214,0,5.371-1.7,5.371-4.132,0-2.525-1.791-3.535-4.821-4.453-2.938-.918-3.994-1.423-3.994-3.03,0-1.24,1.148-2.158,3.076-2.158a3.953,3.953,0,0,1,3.9,2.479l1.423-.78a5.3,5.3,0,0,0-5.326-3.306c-2.892,0-4.866,1.653-4.866,3.9,0,2.571,1.882,3.4,5,4.316,2.984.918,3.811,1.653,3.811,3.076,0,1.561-1.423,2.433-3.535,2.433a4.244,4.244,0,0,1-4.27-2.938l-1.515.643A5.684,5.684,0,0,0,273.945,79.851ZM56.837,66.4V64.838H47.425V79.529h9.412V77.968H48.986V73.056h7.392V71.5H48.986V66.353h7.851Zm59.316,13.13v-11.2L127.4,79.9V64.884h-1.561V76.132l-11.2-11.615V79.529Zm29.933.321a7.667,7.667,0,1,1,7.667-7.667A7.681,7.681,0,0,1,146.086,79.851Zm0-13.727a6.106,6.106,0,1,0,6.106,6.106A6.133,6.133,0,0,0,146.086,66.124Zm77.358,6.7v-.78h-5.968v1.561h4.316c-.321,2.892-2.341,4.683-5.509,4.683a6.106,6.106,0,1,1,5.142-9.5l1.331-.872a7.863,7.863,0,0,0-6.473-3.4,7.668,7.668,0,1,0,0,15.334C220.6,79.851,223.444,77.05,223.444,72.826Zm11.891-7.988V79.529H236.9V64.838ZM279.317,1.482H248.1V6.808h31.219Zm0,43.339H248.1v5.326h31.219Zm-7.942-21.67h-23.23v5.326h23.23ZM221.24,1.482V39.45L180.151-.4V50.193h5.326V12.179l41.135,39.9V1.482ZM85.576,50.147,69.783,30.5H74.65c8.907,0,14.186-6.336,14.186-14.416s-6.2-14.6-13.819-14.6H51.741V6.808H75.017c4.958,0,8.493,4.407,8.493,9.274,0,4.912-3.168,9.044-7.988,9.044h-16.8L78.69,50.147ZM0,1.482V6.808H24.883V50.147h5.326V1.482ZM282.576,65.205v2.709h-.367V65.205h-.964v-.367h2.3v.367Zm4.361,2.755h-.367V65.389l-.918,2.571h-.413l-.918-2.571V67.96h-.367V64.884h.6l.918,2.617.918-2.617h.551ZM258.7,66.4V64.838h-9.412V79.529H258.7V77.968h-7.851V73.056h7.391V71.5h-7.391V66.353H258.7Z" transform="translate(17915.672 -616.603)" fill="#636363"/>
      <path id="purple-uplift_1_" d="M277.96,50.147,255.6,10.113,233.244,50.147H227L255.6-.4l28.6,50.593H277.96Z" transform="translate(17792.889 -616.603)" fill="#a0a0a0"/>
    </g>
  </g>
</svg>
