<svg enable-background="new 0 0 2438.2 2438.2" viewBox="0 0 2438.2 2438.2" xmlns="http://www.w3.org/2000/svg"><path d="m2407.3 1219.5c0 101.9-131.1 185.8-155.4 279.9-25.3 97.6 47.6 234.6-.4 320.2-48.9 87.3-204.2 96.3-273 167.3-69.2 71.4-73.6 226.9-159.1 277.9-84.7 50.6-223.1-19.2-319.9 7.5-93.9 25.9-176.7 157.6-278.5 157.6-101.9 0-184.7-131.7-278.5-157.6-96.9-26.7-235.3 43-319.9-7.5-85.4-51-89.9-206.5-159.1-277.9-68.8-71-224-80-273-167.3-48-85.6 24.9-222.6-.4-320.2-24.4-94.1-155.4-177.9-155.4-279.9 0-101.9 131.1-185.8 155.4-279.9 25.3-97.6-47.6-234.6.4-320.2 48.9-87.3 204.2-96.3 273-167.3 69.2-71.4 73.6-226.9 159.1-277.9 84.7-50.6 223.1 19.2 319.9-7.5 93.7-26 176.5-157.7 278.4-157.7s184.7 131.7 278.5 157.6c96.9 26.7 235.3-43 319.9 7.5 85.4 51 89.9 206.5 159.1 277.9 68.8 71 224 80 273 167.3 48 85.6-24.9 222.6.4 320.2 24.4 94.2 155.5 178 155.5 280z" fill="#00b748"/><path d="m1726.9 621-761.1 761.1-355.2-355.2-253.7 253.7 608.9 608.9 1014.8-1014.8z" fill="#fff"/></svg>