<svg id="Group_573" data-name="Group 573" xmlns="http://www.w3.org/2000/svg" width="55.403" height="61.5" viewBox="0 0 55.403 61.5">
  <path id="Path_1156" data-name="Path 1156" d="M1069.156,1087.2a.852.852,0,0,1-.853-.853v-59.794a.852.852,0,1,1,1.7,0v59.794A.852.852,0,0,1,1069.156,1087.2Z" transform="translate(-1068.303 -1025.704)" fill="#06f"/>
  <path id="Path_1157" data-name="Path 1157" d="M1087.028,1060.55a20.658,20.658,0,0,1-4.182-.429l-12.444-2.571a.851.851,0,0,1-.682-.832v-29.085a.854.854,0,0,1,1.025-.835l12.444,2.571a18.921,18.921,0,0,0,7.729,0l8.311-2.562a20.789,20.789,0,0,1,8.534-.021l12.423,2.568a.851.851,0,0,1,.682.832v29.084a.851.851,0,0,1-1.025.832l-12.426-2.566h0a19.026,19.026,0,0,0-7.768,0l-8.311,2.566A21.166,21.166,0,0,1,1087.028,1060.55Zm-15.6-4.527,11.765,2.43a18.93,18.93,0,0,0,7.729,0l8.311-2.565a20.724,20.724,0,0,1,8.534-.018l11.4,2.355v-27.346l-11.747-2.427a19.107,19.107,0,0,0-7.768,0l-8.311,2.565a20.792,20.792,0,0,1-8.491.021l-11.423-2.361Z" transform="translate(-1065.464 -1024.404)" fill="#06f"/>
</svg>
