<?xml version="1.0" encoding="utf-8"?>
<!-- Generator: Adobe Illustrator 26.0.1, SVG Export Plug-In . SVG Version: 6.00 Build 0)  -->
<svg version="1.1" id="Layer_1" xmlns="http://www.w3.org/2000/svg" xmlns:xlink="http://www.w3.org/1999/xlink" x="0px" y="0px"
	 viewBox="0 0 221.2 47.6" style="enable-background:new 0 0 221.2 47.6;" xml:space="preserve">
<style type="text/css">
	.st0{fill:#636363;}
</style>
<g>
	<path class="st0" d="M77.6,26.4l-2.5-5.7c-0.1-0.2-0.2-0.3-0.4-0.3h-8.1c-0.2,0-0.3,0.1-0.4,0.3l-2.5,5.7c-0.1,0.2-0.2,0.3-0.4,0.3
		h-1c-0.2,0-0.4-0.2-0.4-0.4c0-0.1,0-0.1,0-0.2l7.6-17.8c0-0.1,0.1-0.2,0.2-0.2h1.7c0.1,0,0.2,0.1,0.2,0.2L79.5,26
		c0.1,0.2,0,0.5-0.2,0.6c-0.1,0-0.1,0-0.2,0H78C77.9,26.6,77.7,26.5,77.6,26.4z M70.5,10.7l-3.2,7.6c-0.1,0.1,0,0.3,0.1,0.3
		c0,0,0.1,0,0.1,0h6.4c0.1,0,0.3-0.1,0.3-0.3c0,0,0-0.1,0-0.1L71,10.7c-0.1-0.1-0.2-0.2-0.3-0.1C70.6,10.6,70.6,10.6,70.5,10.7z
		 M94.4,25.1c-1.8,1-3.9,1.6-6.1,1.5h-5c-0.2,0-0.4-0.2-0.4-0.4V8.3C82.9,8.1,83,8,83.2,8l0,0h5.2c2.1,0,4.2,0.5,6.1,1.5
		c4.3,2.8,5.5,8.5,2.7,12.8C96.4,23.5,95.5,24.4,94.4,25.1L94.4,25.1z M93.6,11.1c-1.8-1.3-3.9-1.4-6.1-1.4H85
		c-0.1,0-0.3,0.1-0.3,0.3c0,0,0,0,0,0v14.5c0,0.2,0.2,0.4,0.4,0.4h2.7c2.2,0,4.1-0.2,6-1.5c1.9-1.5,3-3.7,2.9-6.1
		C96.8,14.9,95.6,12.6,93.6,11.1L93.6,11.1z M109.7,26.6h-1.3c-0.2,0-0.3-0.1-0.4-0.3l-7.4-18c-0.1-0.1,0-0.3,0.1-0.3
		c0,0,0.1,0,0.1,0h1.5c0.1,0,0.2,0.1,0.2,0.2l6.1,15.1c0.1,0.2,0.3,0.3,0.6,0.2c0.1,0,0.2-0.1,0.2-0.2l6.1-15.1
		c0-0.1,0.1-0.2,0.2-0.2h1.4c0.1,0,0.3,0.1,0.3,0.3c0,0,0,0.1,0,0.1l-7.5,18C110,26.5,109.9,26.6,109.7,26.6L109.7,26.6z
		 M132.5,26.4l-2.5-5.7c-0.1-0.2-0.2-0.3-0.4-0.3h-8.1c-0.2,0-0.3,0.1-0.4,0.3l-2.5,5.7c-0.1,0.2-0.2,0.3-0.4,0.3h-1
		c-0.2,0-0.4-0.2-0.4-0.4c0-0.1,0-0.1,0-0.2l7.6-17.8c0-0.1,0.1-0.2,0.2-0.2h1.7c0.1,0,0.2,0.1,0.2,0.2l7.7,17.8
		c0.1,0.2,0,0.5-0.2,0.6c-0.1,0-0.1,0-0.2,0h-1.1C132.7,26.6,132.6,26.5,132.5,26.4L132.5,26.4z M125.4,10.7l-3.2,7.6
		c-0.1,0.1,0,0.3,0.1,0.3c0,0,0.1,0,0.1,0h6.4c0.1,0,0.3-0.1,0.3-0.3c0,0,0-0.1,0-0.1l-3.2-7.6c-0.1-0.1-0.2-0.2-0.3-0.1
		C125.5,10.6,125.4,10.6,125.4,10.7L125.4,10.7z M151.5,26.6c-0.1,0-0.3-0.1-0.4-0.2l-10.9-16.2h-0.1v15.9c0,0.2-0.2,0.4-0.4,0.4h-1
		c-0.2,0-0.4-0.2-0.4-0.4V8.3c0-0.1,0.1-0.3,0.3-0.3h2.1c0.1,0,0.2,0,0.2,0.1l10.3,15.3h0.1V8.3c0-0.1,0.1-0.3,0.3-0.3h1.3
		c0.1,0,0.3,0.1,0.3,0.3v17.9c0,0.2-0.2,0.4-0.4,0.4L151.5,26.6z M162.8,10v16.2c0,0.2-0.2,0.4-0.4,0.4h-1c-0.2,0-0.4-0.2-0.4-0.4
		V10c0-0.1-0.1-0.3-0.3-0.3c0,0,0,0,0,0H157c-0.1,0-0.3-0.1-0.3-0.3V8.3c0-0.1,0.1-0.3,0.3-0.3h9.9c0.1,0,0.3,0.1,0.3,0.3
		c0,0,0,0,0,0v1.2c0,0.1-0.1,0.3-0.3,0.3c0,0,0,0,0,0h-3.7C163,9.7,162.8,9.8,162.8,10C162.8,10,162.8,10,162.8,10L162.8,10z
		 M182.9,26.4l-2.5-5.7c-0.1-0.2-0.2-0.3-0.4-0.3H172c-0.2,0-0.3,0.1-0.4,0.3l-2.5,5.7c-0.1,0.2-0.2,0.3-0.4,0.3h-1
		c-0.2,0-0.4-0.2-0.4-0.4c0-0.1,0-0.1,0-0.2l7.6-17.8c0-0.1,0.1-0.2,0.2-0.2h1.7c0.1,0,0.2,0.1,0.2,0.2l7.7,17.8
		c0.1,0.2,0,0.5-0.2,0.6c-0.1,0-0.1,0-0.2,0h-1.1C183.1,26.6,183,26.5,182.9,26.4L182.9,26.4z M175.8,10.7l-3.2,7.6
		c-0.1,0.1,0,0.3,0.1,0.3c0,0,0.1,0,0.1,0h6.4c0.1,0,0.3-0.1,0.3-0.3c0,0,0-0.1,0-0.1l-3.2-7.6c-0.1-0.1-0.2-0.2-0.3-0.1
		C175.9,10.6,175.8,10.6,175.8,10.7L175.8,10.7z M196.8,27c-5.4,0-9.8-4.2-10-9.6c0.1-5.4,4.6-9.7,10-9.6c2.9,0,5.7,1.2,7.6,3.4
		c0.4,0.4,0.8,0.9,1,1.5c0.1,0.1,0,0.3-0.1,0.3c0,0-0.1,0-0.1,0h-1.6c-0.1,0-0.2,0-0.2-0.1c-1.5-2.2-3.9-3.5-6.5-3.5
		c-4.4,0-8.1,3.5-8.1,8c0.1,4.4,3.7,8,8.2,7.9c0,0,0,0,0,0c3.3,0,6.3-2.1,7.4-5.2c0-0.1,0-0.3-0.2-0.3c0,0-0.1,0-0.1,0h-9.8
		c-0.1,0-0.3-0.1-0.3-0.3c0,0,0,0,0,0v-1.2c0-0.1,0.1-0.3,0.3-0.3h12.1c0.1,0,0.3,0.1,0.3,0.3c0,0,0,0,0,0
		C206,23.3,201.8,27,196.8,27z M211,26.2V8.3c0-0.1,0.1-0.3,0.3-0.3h9.7c0.1,0,0.3,0.1,0.3,0.3v1.2c0,0.1-0.1,0.3-0.3,0.3h-7.8
		c-0.1,0-0.3,0.1-0.3,0.3c0,0,0,0,0,0v6.2c0,0.1,0.1,0.3,0.3,0.3c0,0,0,0,0,0h7.5c0.1,0,0.3,0.1,0.3,0.3c0,0,0,0,0,0v1.2
		c0,0.1-0.1,0.3-0.3,0.3c0,0,0,0,0,0h-7.5c-0.1,0-0.3,0.1-0.3,0.3v6.2c0,0.2,0.2,0.4,0.4,0.4h7.5c0.2,0,0.4,0.2,0.4,0.4v0.8
		c0,0.2-0.2,0.4-0.4,0.4h-9.3C211.2,26.6,211,26.4,211,26.2L211,26.2z M60.4,40.6l1-1.3c0.7,0.7,1.6,1.2,2.6,1.2
		c1,0,1.6-0.5,1.6-1.3v0c0-0.6-0.3-1-1.9-1.6c-1.9-0.7-2.9-1.4-2.9-3v0c0-1.6,1.4-2.9,3-2.8c0.1,0,0.2,0,0.2,0
		c1.2,0,2.3,0.4,3.2,1.2l-0.9,1.3c-0.6-0.6-1.4-0.9-2.3-1c-0.9,0-1.5,0.5-1.5,1.2v0c0,0.7,0.4,1.1,2.1,1.7c1.9,0.7,2.7,1.5,2.7,3v0
		c0,1.6-1.4,2.9-3,2.9c-0.1,0-0.2,0-0.3,0C62.6,42,61.3,41.5,60.4,40.6L60.4,40.6z M70.6,37v-0.1c0-3,1.8-5.1,4.5-5.1
		c2.6,0,4.4,2.1,4.4,5.1v0.1c0,3-1.8,5.1-4.5,5.1C72.4,42.1,70.6,39.9,70.6,37z M77.8,36.9v-0.1c0-2.2-1.2-3.6-2.8-3.6
		c-1.6,0-2.7,1.4-2.7,3.6v0.1c0,2.2,1.2,3.6,2.7,3.6S77.8,39.1,77.8,36.9z M83.4,31.8H85v8.5h4.3v1.5h-6V31.8z M92.5,38.1v-6.2h1.7
		V38c0,1.6,0.8,2.5,2.1,2.5c1.3,0,2.1-0.8,2.1-2.4v-6.3h1.7V38c0,2.7-1.5,4.1-3.8,4.1C94,42.1,92.5,40.7,92.5,38.1L92.5,38.1z
		 M106.1,33.4h-2.6v-1.6h7v1.6h-2.6v8.5h-1.7L106.1,33.4z M114.1,31.8h1.7v10.1h-1.7V31.8z M119.7,37v-0.1c0-3,1.8-5.1,4.5-5.1
		c2.6,0,4.4,2.1,4.4,5.1v0.1c0,3-1.8,5.1-4.5,5.1C121.5,42.1,119.7,39.9,119.7,37z M126.8,36.9v-0.1c0-2.2-1.2-3.6-2.7-3.6
		c-1.6,0-2.7,1.4-2.7,3.6v0.1c0,2.2,1.2,3.6,2.8,3.6C125.7,40.5,126.8,39.1,126.8,36.9z M132.4,31.8h1.6l4.4,6.7v-6.7h1.6v10.1h-1.4
		L134,35v6.9h-1.6L132.4,31.8z M143.5,40.6l1-1.3c0.7,0.7,1.6,1.2,2.6,1.2c1,0,1.6-0.5,1.6-1.3v0c0-0.6-0.3-1-1.9-1.6
		c-1.9-0.7-2.9-1.4-2.9-3v0c0-1.6,1.4-2.9,3-2.8c0.1,0,0.2,0,0.2,0c1.2,0,2.3,0.4,3.2,1.2l-0.9,1.3c-0.6-0.6-1.4-0.9-2.3-1
		c-0.9,0-1.5,0.5-1.5,1.2v0c0,0.7,0.4,1.1,2.1,1.7c1.9,0.7,2.7,1.5,2.7,3v0c0,1.6-1.4,2.9-3,2.9c-0.1,0-0.2,0-0.3,0
		C145.8,42,144.5,41.5,143.5,40.6L143.5,40.6z M23.8,47.6C10.6,47.6,0,36.9,0,23.8S10.7,0,23.8,0c13.1,0,23.8,10.6,23.8,23.8
		C47.6,36.9,36.9,47.6,23.8,47.6L23.8,47.6z M23.8,1.3C11.4,1.3,1.3,11.4,1.3,23.8s10.1,22.5,22.5,22.5s22.5-10.1,22.5-22.5
		C46.3,11.4,36.2,1.3,23.8,1.3z"/>
	<path class="st0" d="M23.8,24.8l5-8.7h-10L23.8,24.8z M12.8,25.4H23l-5.1-8.8L12.8,25.4z M22.9,26.4h-10l5,8.7L22.9,26.4z M17,35.6
		l-5.1-8.8l-5.1,8.8H17z M18.7,15.1h10.2l-5.1-8.8L18.7,15.1z M29.7,16.6l-5.1,8.8h10.2L29.7,16.6z M34.7,26.4h-10l5,8.7L34.7,26.4z
		 M35.6,26.8l-5.1,8.8h10.2L35.6,26.8z"/>
</g>
</svg>
