<svg height="46.183" viewBox="0 0 46.183 46.183" width="46.183" xmlns="http://www.w3.org/2000/svg"><g fill="#007fff"><path d="m1254.2 285.208a.693.693 0 0 1 -.492-.2l-42.961-42.961a.7.7 0 0 1 .984-.984l42.961 42.961a.7.7 0 0 1 -.492 1.188z" transform="translate(-1209.623 -239.939)"/><path d="m1211.235 285.208a.7.7 0 0 1 -.492-1.188l42.961-42.961a.7.7 0 1 1 .984.984l-42.961 42.957a.693.693 0 0 1 -.492.208z" transform="translate(-1209.623 -239.939)"/><path d="m1306.135 250.58a.7.7 0 0 1 -.687-.811l1.634-9.743-9.744 1.634a.7.7 0 1 1 -.229-1.372l10.706-1.8a.7.7 0 0 1 .8.8l-1.8 10.707a.7.7 0 0 1 -.68.585z" transform="translate(-1262.443 -238.481)"/><path d="m1208.862 338.941a.7.7 0 0 1 -.687-.811l1.8-10.707a.7.7 0 1 1 1.372.23l-1.634 9.744 9.745-1.634a.7.7 0 1 1 .229 1.373l-10.707 1.8a.672.672 0 0 1 -.118.005z" transform="translate(-1208.166 -292.758)"/><path d="m1307.049 338.062a.682.682 0 0 1 -.115-.01l-10.706-1.8a.7.7 0 1 1 .23-1.373l9.744 1.634-1.635-9.743a.7.7 0 0 1 1.373-.231l1.8 10.707a.7.7 0 0 1 -.686.811z" transform="translate(-1261.901 -292.218)"/><path d="m1211.04 250.964a.7.7 0 0 1 -.686-.581l-1.8-10.707a.7.7 0 0 1 .8-.8l10.707 1.8a.7.7 0 0 1 -.229 1.373l-9.744-1.634 1.634 9.743a.7.7 0 0 1 -.572.8.733.733 0 0 1 -.11.006z" transform="translate(-1208.401 -238.717)"/></g></svg>