<svg enable-background="new 0 0 78.9 75" viewBox="0 0 78.9 75" xmlns="http://www.w3.org/2000/svg" xmlns:xlink="http://www.w3.org/1999/xlink"><linearGradient id="a" gradientUnits="userSpaceOnUse" x1="35.3568625" x2="12.76139375" y1="7.67765625" y2="74.43078125"><stop offset="0" stop-color="#939393"/><stop offset="1" stop-color="#5b5b5b"/></linearGradient><linearGradient id="b"><stop offset="0" stop-opacity=".3"/><stop offset=".071" stop-opacity=".2"/><stop offset=".321" stop-opacity=".1"/><stop offset=".623" stop-opacity=".05"/><stop offset="1" stop-opacity="0"/></linearGradient><linearGradient id="c" gradientUnits="userSpaceOnUse" x1="22.9432" x2="67.5362" xlink:href="#b" y1="59.6272" y2="59.6272"/><linearGradient id="d" gradientUnits="userSpaceOnUse" x1="42.41733125" x2="37.1906125" xlink:href="#b" y1="38.78140625" y2="40.54859375"/><linearGradient id="e" gradientUnits="userSpaceOnUse" x1="39.70326875" x2="64.50655" y1="5.6696875" y2="71.75015625"><stop offset="0" stop-color="#b2b2b2"/><stop offset="1" stop-color="#606060"/></linearGradient><path d="m27.4 2.5h21.8l-22.6 67c-.5 1.4-1.8 2.4-3.3 2.4h-16.9c-1.9 0-3.5-1.6-3.5-3.5 0-.4.1-.8.2-1.1l21-62.4c.5-1.4 1.8-2.4 3.3-2.4z" fill="url(#a)"/><path d="m59 47.4h-34.5c-.9 0-1.6.7-1.6 1.6 0 .4.2.9.5 1.2l22.2 20.7c.6.6 1.5.9 2.4.9h19.5z" fill="url(#c)"/><path d="m27.4 2.5c-1.5 0-2.8 1-3.3 2.4l-21 62.2c-.6 1.9.3 3.9 2.1 4.5.4.1.8.2 1.2.2h17.4c1.3-.2 2.4-1.2 2.8-2.4l4.2-12.4 15 14c.6.5 1.4.8 2.2.8h19.5l-8.5-24.4h-24.9l15.2-44.9z" fill="url(#d)"/><path d="m55.2 4.9c-.5-1.4-1.8-2.4-3.3-2.4h-24.2c1.5 0 2.8.9 3.3 2.4l21 62.4c.6 1.8-.4 3.8-2.2 4.4-.4.1-.7.2-1.1.2h24.3c1.9 0 3.5-1.6 3.5-3.5 0-.4-.1-.8-.2-1.1z" fill="url(#e)"/></svg>