<svg enable-background="new 0 0 1527.6 492.1" viewBox="0 0 1527.6 492.1" xmlns="http://www.w3.org/2000/svg"><path d="m426.1 79c-20.8 16.1-41.2 31.9-61.8 47.9-40.7-38.3-88.8-54.8-144.2-46.6-42.6 6.3-77.7 27-104.8 60.5-53.6 66.2-48.6 162.2 10.9 222.9 61.2 62.5 167.9 70.3 238.1 1.5 20.5 15.8 41 31.7 61.5 47.6-52 59.5-146.8 97-244 70.7-102.4-27.7-176.2-118.6-181.5-222.6-5.5-108.9 57.7-206.9 157.9-244.8 98.6-37.3 204.3-7.1 267.9 62.9z" fill="#636363"/><path d="m1519.6 113.3v38.5c-1.9.1-3.8.2-5.7.2-34.5 0-69 0-103.5 0-4.6 0-8.7.9-11 5.3-4.1 7.9.7 15.9 9.6 16 20.8.1 41.7-.1 62.5.1 7.3.1 14.7.5 21.9 1.8 21.2 3.7 32.5 16.8 34 38.2 1.1 15.2-1.6 29.3-13.3 40.2-10.1 9.4-22.5 12.4-35.9 12.5-37.5.1-75 0-112.5 0-1.6 0-3.2-.1-5.1-.2 0-12.8 0-25.2 0-38.5h5.7 107c3.1 0 6.4-.1 9.4-.9 5.5-1.4 8.3-5.1 8.3-10.4 0-5.2-2.9-9.4-7.9-10.9-2.5-.7-5.2-1-7.9-1-23.7-.1-47.3.1-71-.3-20.8-.3-37.7-11.9-43.7-29.2-10.3-29.5 7.9-57.9 39.1-60.6 5.3-.5 10.6-.7 16-.7 32.7-.1 65.3 0 98 0 1.8-.1 3.8-.1 6-.1z" fill="#636363"/><path d="m452.2 378.9c-20.6-16-40.7-31.5-61-47.2 30.8-57 30.9-113.8 0-171.4 20-15.5 40.2-31.1 60.9-47.2 25.4 40.3 38.4 83.5 38.8 130.6.5 48.7-12.4 93.5-38.7 135.2z" fill="#385bd4"/><g fill="#636363"><path d="m1015.4 265.8c-13.1 0-25.4 0-38.1 0 0-50.8 0-101.3 0-152.5h5.5c34.3 0 68.6-.3 103 .2 8.7.1 17.7 1.4 26 4.1 22.9 7.6 35 28.1 33.7 54.7-1.6 32.2-22.5 52.9-54.7 53.6-18.6.4-37.2.1-56.2.1 0-12.4 0-24.4 0-36.9 1.9-.1 3.7-.3 5.4-.3 15 0 30 .1 45-.1 3.5 0 7-.4 10.3-1.4 8-2.3 12.2-8.4 12.2-16.8s-4.2-14.5-12-17c-2.5-.8-5.2-1.4-7.8-1.4-23-.1-46-.1-69 0-1 0-1.9.2-3.4.4.1 37.7.1 75.3.1 113.3z"/><path d="m751.2 113.6v38.4c-2.2 0-4.1 0-6.1 0-26.5 0-53-.2-79.5.1-15.4.2-27.4 7-33.9 21.3-6.5 14.5-5.2 28.7 5.1 41.2 6.6 8.1 15.6 12.2 25.8 12.3 27.3.4 54.6.2 81.9.3h6.4v38.7c-1.7 0-3.5 0-5.2 0-27 0-54 0-81 0-42.2-.1-75.3-33.3-75.5-75.6-.2-29 10.5-52.2 36.2-67.1 12.1-7 25.5-9.8 39.3-10 28-.3 56-.1 84-.1.7.2 1.3.4 2.5.5z"/><path d="m966.2 266c-15.4 0-30 .1-44.6-.1-1.2 0-2.7-1.6-3.5-2.9-5.3-8.7-10.5-17.4-15.5-26.2-1.8-3.3-3.9-4.7-7.8-4.6-15 .3-30 .1-45 .1-1.8 0-3.6 0-6.6 0 4-6.7 8.2-12.4 10.8-18.7 3.7-8.9 9.6-12.2 18.8-10.6 2.8.5 5.9.1 9.7.1-7.5-12.6-14.4-24.4-21.7-36.8-9.5 16.2-18.6 31.6-27.7 47.1-9.6 16.4-19.3 32.7-28.8 49.1-1.5 2.6-3.2 3.7-6.3 3.6-13-.2-26-.1-39.5-.1.7-1.6 1.2-2.8 1.8-3.8 27.3-45.5 54.7-91.1 82-136.6 1.1-1.9 2.3-3.7 3.6-5.4 9-12 23.5-12.1 32.4-.1 3.1 4.1 5.6 8.7 8.2 13.1 25.8 42.9 51.7 85.9 77.5 128.8.6 1 1.1 2.1 2.2 4z"/><path d="m1294.9 152c-17.9 0-35.4 0-53.5 0v113.7c-13.2 0-25.8 0-38.8 0 0-37.6 0-75.2 0-113.4-18.2 0-35.9 0-53.8 0-.4-1.3-.8-2-.8-2.8-.1-10.8 0-21.7-.1-32.5 0-2.7.8-3.8 3.7-3.8 47.2.1 94.3.1 141.5.1.5 0 .9.2 1.8.4z"/><path d="m1304.4 113.5h37.7v152.2c-12.4 0-24.8 0-37.7 0 0-50.6 0-101.1 0-152.2z"/><path d="m1514 310.9c-303.8 0-606.9 0-910.1 0-1.3-2.7-.9-4.2 2.3-4.2h3.5c299.3 0 598.7 0 898 .1 2.4 0 6.8-2 6.3 4.1z"/><path d="m1138 385.7c-7.8 0-15.5 0-23.5 0 0-2.6 0-4.8 0-7.2h32.9c.4 12.9-3.9 23.5-14.3 31.1-19.8 14.5-63.4 8.6-68.2-28.9-2.1-16.5 7.6-33.4 23.4-40.4 17.9-8 40.7-3.4 54.7 11.1-1.9 1.7-3.8 3.5-5.8 5.4-7.2-6.6-15.2-11-24.7-12.4-18-2.7-40.9 10.7-39.4 34.5.9 14.9 14.4 28.5 30.5 30.2 11.7 1.2 22.4-1.1 30-10.9 2.5-3.3 3.9-7.4 5.9-11.2-.7-.4-1.1-.9-1.5-1.3z"/><path d="m703 338.6h7.6v75.9c-.3.3-.7.5-1 .8-16.9-19-33.9-37.9-51.9-58.1v57.5c-3.1 0-5.3 0-7.8 0 0-25.4 0-50.6 0-75.8.4-.2.8-.5 1.2-.7 17 19.1 34 38.3 52 58.4-.1-20.1-.1-38.8-.1-58z"/><path d="m1316.9 415.2c-16.9-18.9-33.7-37.8-51.5-57.7v57.2c-3 0-5.2 0-7.8 0 0-25.3 0-50.6 0-77.6 17.9 20.1 34.9 39.2 52.8 59.4 0-19.9 0-38.6 0-57.7h7.5v75.7c-.4.2-.7.5-1 .7z"/><path d="m1422.1 397.1c2.1 1.5 3.8 2.8 5.5 4-7.4 12.7-28.5 18.8-46.8 13.9-17.2-4.6-28.6-19.4-28.7-37.6-.2-19.1 10.9-34.3 28.6-39.2 18.3-5.1 38.8 1.1 47.1 14.6-1.8 1.3-3.6 2.7-5.4 4.1-19.1-16.3-39.5-17.1-53.5-2.4-11.7 12.3-11.6 32.1-.1 44.5 10.9 12.1 36.3 16.3 53.3-1.9z"/><path d="m856.8 338.6v7.1c-11.9 0-24 0-36.4 0v24.2h36.1v7.2c-11.9 0-23.9 0-36.2 0v30h36.2v7.5c-14.7 0-29.2 0-44 0 0-25.4 0-50.6 0-76z"/><path d="m1225 338.3v7.6c-12.2 0-24.1 0-36.4 0v23.9h36.3v7.4c-12 0-24 0-36.3 0v29.8h36.3v7.7c-14.7 0-29.3 0-44.1 0-.1-1.5-.2-2.8-.2-4.1 0-22.5.1-45-.1-67.5 0-3.7 1-4.9 4.8-4.8 13.1.2 26.2 0 39.7 0z"/><path d="m1505.9 370v7.4c-7.8 0-15.4 0-23 0-13.4 0-13.4 0-13.4 13.6v16h36.3v8c-7.3 0-14.5 0-21.8 0-7.1 0-14.3 0-21.7 0 0-25.6 0-50.8 0-76.3h43.7v7.2c-12 0-23.9 0-36.1 0v24.2c12.2-.1 23.9-.1 36-.1z"/><path d="m765.6 414.8c-3.2 0-5.3 0-8 0 0-22.9 0-45.6 0-68.8-6 0-11.4 0-17 0 0-2.7 0-5 0-7.4h42.2v7.1c-5.4 0-11 0-17.2 0z"/><path d="m888.8 338.5h7.6v68.8h29.5v7.4c-12.3 0-24.6 0-37.1 0 0-25.4 0-50.5 0-76.2z"/><path d="m964.8 339.1v68.2h29.4v7.3c-12.3 0-24.5 0-37.3 0 0-2 0-3.8 0-5.6 0-21.5 0-42.9 0-64.4 0-7 .2-7.1 7.9-5.5z"/><path d="m1031.6 414.7c-2.4 0-4.5 0-7 0 0-25.2 0-50.5 0-76h7z"/><path d="m606.4 338.6h6.6v76c-2 0-4.1 0-6.6 0 0-25.1 0-50.3 0-76z"/></g><path d="m245.1 150.9c-52.4 0-94.9 42.5-94.9 94.9s42.5 94.9 94.9 94.9 94.9-42.5 94.9-94.9-42.5-94.9-94.9-94.9zm0 148.8c-29.8 0-53.9-24.1-53.9-53.9s24.1-53.9 53.9-53.9 53.9 24.1 53.9 53.9-24.2 53.9-53.9 53.9z" fill="#999"/></svg>