<svg height="159" viewBox="0 0 500 159" width="500" xmlns="http://www.w3.org/2000/svg" xmlns:xlink="http://www.w3.org/1999/xlink"><clipPath id="a"><path d="m0 0h500v159h-500z"/></clipPath><g clip-path="url(#a)"><path d="m0 0h500v159h-500z" fill="#fff"/><path d="m158.988 437.231q-9.517-.378-15.594-5.212a31.14 31.14 0 0 1 -3.24-3.242 20.245 20.245 0 0 1 -3.511-6.318c-2.3-6.879-1.115-15.906 3.381-25.812 3.849-8.481 9.788-16.893 20.15-28.543 1.526-1.714 6.072-6.728 6.1-6.728.011 0-.237.429-.549.952a61.066 61.066 0 0 0 -6.255 14.43c-2.017 7.384-1.774 13.721.713 18.635a18.2 18.2 0 0 0 7.963 7.938c5.789 2.837 14.265 3.071 24.616.687.713-.165 36.026-9.539 78.475-20.832s77.186-20.527 77.191-20.519-98.621 42.215-149.823 64.111c-8.109 3.467-10.277 4.342-14.089 5.681-9.745 3.422-18.474 5.055-25.53 4.775z" fill="#636363" transform="translate(31.035 -319.818)"/></g></svg>