<svg viewBox="0 0 420.83 420.82" xmlns="http://www.w3.org/2000/svg"><circle cx="211.07" cy="211.07" r="198.01"/><path d="m210.41 1.09c-115.61 0-209.32 93.71-209.32 209.32s93.72 209.32 209.32 209.32 209.32-93.72 209.32-209.32-93.71-209.32-209.32-209.32zm0 364.92c-85.93 0-155.6-69.67-155.6-155.6s69.65-155.6 155.6-155.6 155.6 69.67 155.6 155.6-69.67 155.6-155.6 155.6z"/><g fill="#fff"><path d="m210.41 420.82c-116.02 0-210.41-94.39-210.41-210.41s94.39-210.41 210.41-210.41 210.42 94.39 210.42 210.41-94.39 210.41-210.42 210.41zm0-418.64c-114.82 0-208.23 93.41-208.23 208.23s93.41 208.24 208.23 208.24 208.24-93.41 208.24-208.24-93.41-208.23-208.24-208.23zm0 364.92c-86.4 0-156.69-70.28-156.69-156.69s70.29-156.69 156.69-156.69 156.69 70.28 156.69 156.69-70.29 156.69-156.69 156.69zm0-311.2c-85.21 0-154.51 69.33-154.51 154.51s69.33 154.51 154.51 154.51 154.52-69.3 154.52-154.51-69.33-154.51-154.52-154.51z"/><path d="m41.19 298.69c-.61-1.2-.98-2.35-1.11-3.48-.11-1.13 0-2.22.37-3.24.35-1.02.94-1.96 1.72-2.83s1.78-1.59 2.98-2.22c1.24-.65 2.46-1.04 3.61-1.17 1.17-.13 2.26-.04 3.31.28 1.04.33 1.98.87 2.85 1.63.85.76 1.59 1.72 2.2 2.87.7 1.35 1.09 2.63 1.17 3.9.09 1.26-.11 2.39-.59 3.42-.48 1.02-1.22 1.89-2.22 2.59l-1.5-2.89c.54-.46.96-.98 1.17-1.61.22-.61.31-1.28.24-1.98-.07-.72-.3-1.44-.68-2.18-.5-.98-1.17-1.72-1.96-2.24-.78-.52-1.72-.76-2.74-.72s-2.13.37-3.33.98c-.89.46-1.63.98-2.22 1.57s-1 1.22-1.24 1.87c-.24.67-.35 1.35-.28 2.07.06.72.28 1.44.65 2.15.5.96 1.09 1.68 1.81 2.2s1.5.78 2.35.83c.85.04 1.74-.17 2.63-.65l.54-.28-.54 1.33-2.83-5.44 2.05-1.07 3.9 7.44-1.28.68c-1.07.57-2.13.89-3.2.98s-2.07-.02-3.02-.37c-.96-.35-1.83-.89-2.65-1.63-.83-.76-1.52-1.7-2.11-2.83l-.04.07z"/><path d="m48.09 310.41 14.78-9.27 1.67 2.68-14.77 9.27z"/><path d="m55.07 320.95 11.9-8.62-3.11-4.31 2.22-1.61 8.14 11.25-2.22 1.61-3.18-4.37-11.9 8.62z"/><path d="m62.93 331.43 13.03-11.6 2.09 2.35-5.72 5.09v-.57l6.55 7.33-.57-.04 5.72-5.09 2.09 2.35-13.03 11.6-2.09-2.35 5.9-5.24-.04.57-6.53-7.33.57.04-5.9 5.24-2.09-2.35z"/><path d="m82.79 352.34c-1.13-1.02-1.92-2.11-2.37-3.24-.44-1.13-.52-2.26-.28-3.42.26-1.13.85-2.22 1.76-3.26l7.29-8.09 2.33 2.09-7.27 8.07c-.59.65-.96 1.31-1.11 1.98-.15.68-.09 1.31.17 1.96.26.63.72 1.24 1.35 1.83.7.61 1.37 1.02 2.02 1.17.65.18 1.31.13 1.94-.09.63-.24 1.22-.65 1.76-1.26l7.27-8.07 2.33 2.09-7.29 8.1c-.94 1.04-1.98 1.74-3.09 2.11-1.11.35-2.26.37-3.44.04-1.17-.33-2.33-1-3.44-2h.07z"/><path d="m93.17 360.94 10.27-14.1 6.72 4.9c.96.7 1.63 1.41 2.05 2.18.41.76.57 1.52.5 2.31-.06.78-.37 1.52-.89 2.24-.35.5-.78.89-1.26 1.2s-.98.48-1.52.54c-.54.07-1.09 0-1.65-.24l-.09.13c.5.52.81 1.07.96 1.65.15.59.15 1.17.02 1.76s-.39 1.15-.78 1.7c-.63.87-1.35 1.46-2.2 1.76-.83.31-1.72.35-2.68.13-.96-.24-1.96-.72-3-1.48l-6.42-4.68h-.02zm3.94-.2 3.68 2.68c.89.65 1.72.94 2.42.85.72-.09 1.31-.46 1.76-1.11.5-.7.68-1.37.5-2.04-.17-.65-.65-1.26-1.41-1.83l-3.85-2.81-3.09 4.27zm4.48-6.18 3.74 2.72c.5.37.98.59 1.41.65.44.06.85 0 1.22-.15.37-.18.7-.46 1-.85.48-.65.61-1.28.44-1.94-.17-.65-.63-1.24-1.35-1.76l-3.59-2.61-2.89 3.96z"/><path d="m114.95 375.62 8.27-15.36 6.38 3.44c.83.44 1.5.96 2.07 1.52.57.59.96 1.22 1.2 1.89.24.68.33 1.39.26 2.15-.06.76-.3 1.52-.74 2.31-.54 1-1.22 1.76-2.07 2.26-.85.52-1.78.76-2.81.76s-2.11-.33-3.26-.94l-3.87-2.11 1.18-2.2 3.39 1.85c.59.33 1.15.5 1.72.57.54.06 1.07-.04 1.54-.28.48-.24.89-.72 1.24-1.35s.5-1.24.44-1.78c-.07-.54-.26-1.02-.63-1.44-.35-.41-.83-.78-1.41-1.11l-3.55-1.92.61-.17-7.2 13.38-2.79-1.5.04.02z"/><path d="m127.9 382.59 12.4-13.66 4.09 1.76-1.35 18.41-3-1.28.3-4.05-6.68-2.87-2.7 3-3.05-1.31h-.02zm7.4-3.66 5.31 2.26.35-5.18.33-3.52-.11-.04-2.37 2.66-3.5 3.83z"/><path d="m147.22 390.53 5.2-16.65 7.99 2.5c.94.28 1.72.65 2.35 1.09s1.13.91 1.48 1.46c.35.54.54 1.15.61 1.8.06.65-.04 1.35-.26 2.11-.31 1-.83 1.76-1.57 2.33s-1.59.81-2.59.76l-.04.15c.83.43 1.35.98 1.59 1.65.24.65.22 1.46-.09 2.37l-.85 2.7c-.09.3-.17.61-.26.94-.07.33-.09.65-.07 1.02l-3.05-.96c-.02-.24 0-.52.04-.87.04-.33.15-.7.28-1.11l.68-2.16c.15-.52.22-.98.17-1.37-.04-.39-.24-.76-.57-1.07s-.87-.59-1.61-.81l-4.46-1.39-2.02 6.44-3.02-.94.06-.02zm5.79-7.92 4.55 1.41c1.09.35 1.94.33 2.55-.02s1.04-.94 1.28-1.72c.2-.63.22-1.15.09-1.61s-.39-.83-.78-1.15c-.39-.33-.89-.57-1.48-.76l-4.55-1.41-1.65 5.27z"/><path d="m169.2 396.71 3.05-14.38-5.2-1.11.57-2.7 13.58 2.89-.57 2.7-5.29-1.13-3.05 14.38z"/><path d="m182.04 399.23 1.91-17.34 3.81.41 6.7 13.95h.15l.5-5.66.81-7.4 3.02.33-1.91 17.34-3.61-.39-6.7-13.73h-.17l-.48 5.18-.85 7.66z"/><path d="m203.32 401.11.28-17.45 12.45.2-.04 2.72-9.99-.15.7-.67-.09 5.94-.68-.7 8.81.15-.04 2.57-8.81-.15.7-.67-.11 6.27-.67-.7 10.03.17-.04 2.72-12.49-.2v-.04z"/><path d="m221.36 401.02-1.57-17.39 8.33-.76c.98-.09 1.83-.06 2.59.09s1.41.41 1.94.78c.52.37.96.85 1.24 1.44s.48 1.26.57 2.05c.09 1.02-.09 1.94-.57 2.74-.46.81-1.15 1.37-2.09 1.7v.17c.94.09 1.63.39 2.11.91s.74 1.26.83 2.24l.26 2.81c.02.33.06.63.13.96.04.33.17.65.35.96l-3.18.28c-.11-.22-.22-.48-.28-.81-.09-.33-.13-.72-.18-1.13l-.2-2.24c-.04-.54-.17-.98-.37-1.33s-.5-.61-.94-.76-1.02-.22-1.78-.13l-4.66.41.61 6.72-3.15.28zm2.3-9.53 4.74-.44c1.13-.11 1.91-.44 2.33-1 .41-.57.61-1.26.52-2.09-.06-.65-.24-1.15-.54-1.52s-.7-.61-1.17-.76c-.48-.13-1.04-.17-1.65-.13l-4.74.44.5 5.5h.02z"/><path d="m255.32 396.14c-1.26.31-2.48.39-3.59.24-1.13-.15-2.16-.5-3.07-1.07s-1.72-1.35-2.37-2.33-1.15-2.15-1.48-3.52-.41-2.63-.26-3.81.5-2.22 1.07-3.13 1.33-1.7 2.26-2.35c.94-.65 2.05-1.11 3.31-1.41s2.48-.39 3.59-.24c1.13.15 2.15.5 3.09 1.09s1.72 1.35 2.37 2.31c.65.98 1.13 2.13 1.46 3.5s.41 2.63.28 3.81c-.15 1.17-.5 2.22-1.07 3.15-.57.91-1.33 1.7-2.26 2.35-.94.65-2.05 1.11-3.31 1.41zm-.63-2.65c1.09-.26 1.96-.72 2.65-1.37.68-.65 1.13-1.48 1.33-2.48.22-1 .15-2.15-.15-3.46-.24-.98-.57-1.81-1-2.5-.43-.7-.94-1.24-1.5-1.63-.59-.39-1.22-.65-1.94-.76s-1.48-.06-2.29.13c-1.07.26-1.94.72-2.63 1.35-.68.65-1.13 1.48-1.35 2.48s-.15 2.16.15 3.46c.24.98.57 1.81 1 2.52.43.7.94 1.26 1.52 1.65.59.39 1.22.65 1.94.76s1.46.07 2.26-.13v-.02z"/><path d="m268.73 392.27-5.79-16.45 11.73-4.11.91 2.57-9.25 3.26.35-.7 2.02 5.74-.7-.33 8.36-2.94.85 2.44-8.36 2.94.35-.7 2.55 7.27-2.98 1.04-.04-.04z"/><path d="m294.42 381.87-6.57-13.14-4.74 2.37-1.24-2.46 12.42-6.2 1.24 2.46-4.83 2.42 6.57 13.14-2.83 1.41z"/><path d="m306.02 375.85-9.34-14.75 2.68-1.7 4.1 6.46-.57-.13 8.29-5.24-.13.57-4.09-6.46 2.68-1.7 9.33 14.75-2.68 1.7-4.22-6.68.57.13-8.29 5.24.13-.57 4.22 6.68z"/><path d="m324.12 363.9-10.81-13.71 9.77-7.7 1.7 2.13-7.83 6.18.11-.98 3.67 4.66-.97-.11 6.92-5.46 1.58 2-6.92 5.46.11-.98 3.88 4.92-.99-.11 7.88-6.2 1.69 2.13-9.82 7.75.02.02z"/><path d="m346.26 344.6-4.84-4.7-12.17-2.83 2.52-2.59 8.49 2.18.11-.11-2.4-8.46 2.51-2.57 3.13 12.12 4.84 4.7-2.2 2.26h.02z"/><path d="m355.83 334.33-13.6-10.92 7.78-9.7 2.14 1.72-6.25 7.79-.11-.98 4.63 3.72-.97.11 5.5-6.88 2.01 1.61-5.51 6.88-.11-.98 4.9 3.92-.99.11 6.29-7.81 2.14 1.72-7.82 9.75-.04-.04z"/><path d="m365.77 321.77-11.29-14.6 2.43-3.72 17.89 4.55-1.81 2.74-3.92-1-3.98 6.09 2.51 3.18-1.81 2.76zm-2.3-7.94 3.15-4.83-5.05-1.24-3.44-.94-.06.11 2.2 2.79 3.17 4.11h.02z"/><path d="m376.96 304.17-15.5-8.05 3.88-7.44c.45-.87.94-1.57 1.47-2.13.55-.57 1.12-.96 1.7-1.2s1.22-.35 1.87-.28c.64.07 1.33.26 2.02.63.91.48 1.59 1.13 2.01 1.94.41.83.52 1.72.3 2.68l.15.09c.57-.72 1.23-1.15 1.9-1.26.69-.11 1.46.04 2.32.5l2.51 1.31c.28.15.57.28.88.41.3.13.63.22 1 .24l-1.46 2.83c-.24 0-.52-.09-.85-.2-.32-.11-.67-.26-1.05-.46l-1.99-1.04c-.47-.24-.91-.39-1.33-.41-.39-.02-.79.09-1.16.37-.36.28-.72.76-1.09 1.44l-2.15 4.13 5.98 3.11-1.46 2.81h.05zm-6.79-7.09 2.2-4.22c.52-1 .64-1.85.41-2.5-.24-.65-.74-1.2-1.48-1.57-.58-.31-1.11-.44-1.57-.37-.45.07-.89.24-1.26.59-.36.33-.72.78-1 1.33l-2.2 4.22 4.9 2.55v-.02z"/><path d="m58.58 127.51c-.63 1.17-1.39 2.13-2.28 2.85s-1.85 1.22-2.89 1.5-2.15.33-3.31.13c-1.15-.17-2.33-.59-3.5-1.24-1.24-.68-2.22-1.46-2.98-2.35s-1.28-1.87-1.61-2.92c-.31-1.04-.39-2.13-.24-3.26s.54-2.26 1.17-3.42c.72-1.33 1.59-2.37 2.57-3.15 1-.76 2.05-1.24 3.18-1.41s2.26-.04 3.39.41l-1.57 2.85c-.7-.22-1.35-.24-1.98-.09s-1.24.46-1.78.91c-.54.46-1.02 1.04-1.41 1.78-.52.96-.78 1.94-.76 2.87 0 .96.33 1.85.91 2.68.61.83 1.48 1.57 2.66 2.22.89.48 1.72.81 2.55.96s1.57.15 2.26 0c.7-.17 1.33-.48 1.87-.91.57-.46 1.04-1.02 1.44-1.74.52-.94.78-1.85.83-2.72.04-.87-.17-1.67-.63-2.41-.44-.74-1.11-1.35-2-1.83l-.54-.31 1.41-.28-2.94 5.37-2.02-1.11 4.02-7.38 1.28.7c1.07.59 1.94 1.28 2.59 2.11.67.83 1.13 1.74 1.37 2.72s.28 2.02.11 3.11-.57 2.2-1.17 3.33l.02.02z"/><path d="m64.56 116.98-14.6-9.55 1.72-2.63 14.6 9.55z"/><path d="m71.11 107.47-11.73-8.86-3.2 4.24-2.2-1.65 8.36-11.1 2.2 1.65-3.26 4.33 11.73 8.86-1.89 2.52z"/><path d="m78.03 98.46-12.82-11.84 2.15-2.33 5.63 5.2h-.57l6.66-7.18v.57l-5.61-5.2 2.13-2.33 12.82 11.84-2.13 2.33-5.81-5.35h.57l-6.66 7.18v-.57l5.79 5.35z"/><path d="m97.18 79.62c-1.15 1-2.33 1.65-3.5 1.96s-2.33.26-3.42-.13-2.11-1.11-3-2.15l-7.14-8.23 2.37-2.05 7.12 8.2c.57.65 1.17 1.11 1.83 1.33.65.22 1.28.24 1.96.07s1.33-.57 1.98-1.13c.7-.61 1.17-1.24 1.41-1.87s.3-1.28.15-1.94c-.15-.65-.5-1.28-1.04-1.91l-7.12-8.2 2.37-2.07 7.14 8.23c.91 1.07 1.48 2.18 1.72 3.33s.09 2.29-.37 3.42c-.46 1.11-1.26 2.18-2.41 3.18l-.04-.02z"/><path d="m106.03 72-10.01-14.3 6.81-4.77c.96-.68 1.87-1.09 2.72-1.22s1.63-.04 2.35.28c.72.33 1.33.85 1.83 1.59.35.5.59 1.02.72 1.57.13.54.13 1.09.02 1.61s-.37 1.02-.76 1.5l.09.13c.65-.3 1.28-.41 1.87-.37.61.07 1.15.24 1.68.54.52.3.98.74 1.35 1.28.61.87.94 1.76.96 2.66.02.89-.22 1.74-.76 2.57-.52.83-1.33 1.61-2.39 2.35l-6.51 4.55.04.02zm-3.28-10.03 3.79-2.65c.5-.35.87-.74 1.09-1.13.2-.39.28-.81.24-1.22s-.2-.83-.48-1.22c-.46-.65-1.02-1-1.7-1.04-.67-.04-1.37.2-2.11.7l-3.63 2.55 2.81 4.02zm4.37 6.25 3.72-2.61c.91-.63 1.44-1.31 1.59-2.02.15-.7 0-1.37-.48-2.04-.5-.7-1.09-1.09-1.76-1.13-.7-.04-1.41.2-2.18.74l-3.9 2.72 3.02 4.31-.02.04z"/><path d="m126.03 58.95-7.99-15.51 6.44-3.33c.83-.41 1.63-.7 2.44-.83s1.55-.11 2.24.09c.7.2 1.33.52 1.91 1 .59.48 1.07 1.13 1.48 1.91.52 1 .76 2 .7 2.98-.07.98-.37 1.89-.98 2.74-.59.85-1.46 1.57-2.61 2.15l-3.92 2-1.13-2.22 3.46-1.76c.59-.3 1.09-.67 1.44-1.09.37-.41.59-.91.63-1.46.07-.54-.09-1.13-.41-1.78-.33-.65-.74-1.11-1.22-1.37s-1-.35-1.54-.31c-.54.07-1.11.24-1.72.54l-3.57 1.85.2-.61 6.96 13.51-2.81 1.46v.02z"/><path d="m137.71 52.88-1-18.43 4.13-1.68 12.14 13.9-3.05 1.24-2.66-3.05-6.75 2.74.24 4.03-3.07 1.24zm2.59-7.84 5.35-2.18-3.44-3.89-2.29-2.72-.11.04.24 3.55.28 5.18-.04.02z"/><path d="m155.47 45.87-4.9-16.75 8.05-2.35c.94-.28 1.78-.41 2.57-.41s1.46.13 2.05.39 1.09.65 1.5 1.15.72 1.13.94 1.91c.28 1 .28 1.94 0 2.81-.31.87-.87 1.57-1.72 2.07l.04.15c.91-.09 1.68.09 2.22.5.57.41.98 1.09 1.26 2.02l.78 2.72c.09.3.2.61.3.91.11.3.28.61.52.89l-3.05.89c-.15-.2-.3-.44-.44-.74-.13-.31-.26-.68-.39-1.09l-.63-2.15c-.15-.52-.35-.94-.61-1.24s-.61-.5-1.07-.57-1.04 0-1.78.22l-4.48 1.31 1.89 6.49-3.02.89-.04-.02zm.42-9.79 4.57-1.33c1.09-.33 1.78-.81 2.09-1.44.3-.63.35-1.35.11-2.15-.17-.63-.46-1.09-.83-1.39-.37-.31-.81-.48-1.31-.52s-1.04 0-1.65.2l-4.57 1.33 1.54 5.31h.04z"/><path d="m176.01 40.52-2.79-14.43-5.22 1-.52-2.7 13.62-2.63.52 2.7-5.31 1.02 2.79 14.43-3.11.59z"/><path d="m187.15 38.47-1.59-17.39 3.81-.35 9.33 12.34h.15l-.63-5.68-.68-7.42 3.02-.28 1.59 17.39-3.63.33-9.31-12.12h-.17l.57 5.2.7 7.68-3.2.28z"/><path d="m206.71 36.97.28-17.45 12.45.2-.04 2.72-9.99-.15.7-.68-.09 5.94-.68-.7 8.81.15-.04 2.57-8.81-.15.7-.68-.11 6.27-.67-.7 10.03.17-.04 2.72-12.49-.2v-.04z"/><path d="m223.01 37.36 1.89-17.34 8.33.91c.98.11 1.81.31 2.52.61.72.3 1.28.68 1.74 1.15.43.48.76 1.02.94 1.63s.22 1.33.15 2.13c-.11 1.02-.48 1.89-1.09 2.57-.61.7-1.41 1.11-2.39 1.26v.17c.87.28 1.48.72 1.85 1.31s.48 1.39.37 2.35l-.3 2.81c-.04.33-.07.63-.07.98 0 .33.04.67.15 1.02l-3.16-.35c-.06-.24-.11-.52-.13-.85 0-.35 0-.72.04-1.15l.24-2.24c.06-.54.02-1-.09-1.39-.11-.37-.37-.7-.76-.94s-.96-.41-1.72-.48l-4.64-.5-.74 6.7-3.13-.35-.02-.02zm4.14-8.87 4.74.52c1.13.13 1.96-.04 2.48-.52.54-.48.85-1.11.94-1.94.06-.65 0-1.17-.22-1.61-.22-.41-.54-.74-1-.98s-.98-.39-1.61-.46l-4.74-.52-.61 5.5h.02z"/><path d="m254.26 42.82c-1.26-.33-2.35-.83-3.29-1.48-.91-.65-1.65-1.46-2.22-2.39-.54-.94-.89-1.98-1-3.18-.13-1.18 0-2.44.35-3.81.35-1.35.87-2.52 1.55-3.48.67-.96 1.48-1.72 2.42-2.26s1.96-.89 3.09-1.02 2.33-.02 3.59.3c1.26.33 2.35.83 3.29 1.48s1.68 1.46 2.22 2.42c.54.94.89 2 1 3.15s0 2.42-.35 3.79c-.35 1.35-.87 2.52-1.54 3.48-.68.96-1.48 1.72-2.42 2.29-.94.54-1.96.89-3.09 1.02s-2.33.02-3.59-.31zm.69-2.63c1.09.28 2.07.28 2.98.04.91-.26 1.7-.78 2.35-1.57.65-.78 1.15-1.83 1.5-3.13.26-.98.35-1.87.3-2.68-.04-.81-.24-1.52-.57-2.15s-.78-1.15-1.35-1.59c-.59-.44-1.26-.74-2.07-.96-1.07-.28-2.05-.28-2.96-.04s-1.7.76-2.35 1.54-1.15 1.83-1.5 3.13c-.26.98-.35 1.87-.3 2.7.04.83.24 1.54.57 2.18.33.63.78 1.15 1.35 1.57.57.41 1.26.74 2.07.94z"/><path d="m265.96 46 6.09-16.34 11.64 4.33-.96 2.57-9.2-3.44.72-.33-2.13 5.7-.33-.72 8.29 3.09-.91 2.42-8.29-3.09.72-.33-2.7 7.22-2.96-1.11.02.02z"/><path d="m289.53 56.01 6.81-13.01-4.7-2.46 1.28-2.44 12.3 6.44-1.29 2.44-4.79-2.5-6.81 13.01-2.81-1.46v-.02z"/><path d="m299.52 61.36 9.59-14.58 2.64 1.74-4.23 6.4-.11-.57 8.21 5.4-.57.11 4.23-6.4 2.63 1.74-9.6 14.58-2.63-1.74 4.34-6.59.11.57-8.2-5.4.56-.11-4.34 6.59-2.64-1.74z"/><path d="m315.92 72.57 11.06-13.49 9.62 7.9-1.73 2.11-7.72-6.33.99-.09-3.77 4.59-.09-.98 6.81 5.59-1.63 1.98-6.81-5.59.97-.09-3.98 4.85-.09-.98 7.76 6.35-1.71 2.11-9.66-7.92-.02-.02z"/><path d="m336.03 90.72 4.91-4.61 3.39-12.03 2.48 2.63-2.57 8.38.11.13 8.57-2 2.46 2.61-12.25 2.57-4.93 4.61-2.15-2.31-.04.02z"/><path d="m344.32 99.92 13.82-10.66 7.61 9.86-2.15 1.67-6.09-7.9.97.13-4.69 3.63.13-.98 5.36 6.96-2.02 1.57-5.38-6.96.99.13-4.96 3.83.13-.98 6.13 7.94-2.15 1.68-7.64-9.88z"/><path d="m353.04 111.24 17.98-4.22 2.37 3.76-11.58 14.38-1.74-2.79 2.54-3.15-3.87-6.16-3.94.96-1.76-2.81v.02zm8.17 1.19 3.06 4.87 3.25-4.07 2.26-2.72-.07-.11-3.45.85-5.05 1.17z"/><path d="m363.05 127.51 15.63-7.75 3.71 7.51c.44.87.72 1.7.85 2.44s.13 1.46-.04 2.09c-.18.63-.46 1.2-.88 1.67-.44.48-1 .91-1.71 1.26-.94.46-1.85.61-2.76.48-.92-.15-1.7-.59-2.36-1.33l-.15.07c.23.89.22 1.65-.11 2.28s-.91 1.15-1.79 1.59l-2.52 1.26c-.29.15-.57.31-.85.46-.28.17-.55.39-.79.67l-1.41-2.85c.16-.17.38-.37.66-.57s.61-.39 1-.57l2.02-1c.49-.24.85-.52 1.12-.83.26-.31.39-.7.36-1.15 0-.46-.17-1.02-.52-1.72l-2.07-4.18-6.04 3-1.41-2.83.06-.02zm9.71-1.3 2.1 4.27c.51 1.02 1.09 1.61 1.79 1.8.69.2 1.4.11 2.13-.26.6-.28 1.01-.63 1.23-1.04s.32-.87.28-1.37c-.05-.5-.19-1.02-.47-1.59l-2.12-4.27-4.96 2.46z"/><path d="m381.15 182.06.46-.07c1-.13 1.9-.09 2.68.13s1.51.54 2.15.96c.66.44 1.26.91 1.81 1.46.54.54 1.06 1.09 1.56 1.65.49.57.99 1.07 1.46 1.52.49.46.99.81 1.48 1.04.5.24 1.05.33 1.61.26.55-.06 1.02-.24 1.37-.52s.63-.63.79-1.09c.15-.46.19-.94.1-1.5-.06-.57-.26-1.07-.54-1.48-.29-.41-.71-.7-1.18-.87-.5-.17-1.07-.2-1.71-.07l-.38-2.92c1.13-.17 2.15-.09 3.08.28.91.37 1.65.98 2.24 1.83.58.85.96 1.87 1.11 3.07.16 1.13.07 2.15-.24 3.07-.3.89-.8 1.63-1.47 2.2-.69.57-1.54.91-2.59 1.04-.74.09-1.41.07-2.04-.11-.61-.17-1.2-.44-1.73-.78-.54-.35-1.03-.76-1.52-1.22-.47-.46-.94-.94-1.37-1.41-.43-.48-.86-.94-1.3-1.37-.44-.44-.86-.81-1.3-1.11s-.91-.52-1.42-.61l1.05 8.07-2.6.33-1.53-11.79z"/><path d="m382.99 202.82c-.05-.98.12-1.89.5-2.7.36-.81.94-1.5 1.68-2.09.73-.59 1.65-1.04 2.71-1.39 1.07-.35 2.31-.52 3.7-.59 1.44-.07 2.7.04 3.81.28 1.09.26 2.03.65 2.81 1.17.79.52 1.37 1.2 1.79 1.98.41.78.66 1.65.69 2.61.05.98-.11 1.89-.47 2.68-.38.81-.91 1.5-1.65 2.09s-1.65 1.04-2.72 1.39c-1.06.33-2.3.52-3.7.59-1.41.07-2.68-.04-3.81-.3s-2.07-.65-2.83-1.2c-.78-.54-1.36-1.17-1.78-1.94-.41-.76-.66-1.63-.71-2.59h-.01zm2.54-.09c0 .5.15.96.39 1.37s.61.74 1.13 1.02c.5.28 1.18.48 1.98.61s1.8.15 2.96.11 2.12-.17 2.92-.37 1.44-.46 1.91-.78c.49-.33.81-.7 1.03-1.13.19-.44.3-.89.28-1.39-.02-.52-.16-1-.39-1.39-.24-.41-.61-.74-1.12-1.02-.5-.28-1.14-.48-1.96-.61-.8-.13-1.78-.15-2.96-.11-1.16.04-2.15.17-2.93.37-.81.2-1.45.46-1.92.78s-.83.7-1.02 1.13c-.19.44-.3.89-.28 1.44l-.02-.02z"/><path d="m383.44 211.7h.46c1 .07 1.87.26 2.63.59.74.35 1.4.78 1.98 1.31.57.54 1.09 1.11 1.52 1.74.44.63.88 1.26 1.26 1.89.39.63.79 1.22 1.18 1.74s.83.96 1.28 1.28c.46.33.99.5 1.54.52.57.02 1.05-.06 1.46-.28s.72-.52.96-.94c.22-.41.35-.89.36-1.48.02-.59-.06-1.09-.3-1.54-.22-.46-.56-.81-1.02-1.07-.45-.26-1.02-.37-1.68-.35l.13-2.94c1.16 0 2.14.28 2.98.81.83.52 1.46 1.24 1.9 2.18s.63 2 .56 3.22c-.04 1.15-.3 2.13-.73 2.98-.46.83-1.07 1.48-1.85 1.92-.79.43-1.68.63-2.72.59-.74-.02-1.41-.17-2.01-.46-.58-.28-1.11-.63-1.56-1.07-.49-.43-.9-.91-1.29-1.46-.39-.54-.77-1.09-1.11-1.63-.35-.54-.72-1.07-1.07-1.57s-.72-.94-1.11-1.33-.8-.68-1.29-.85l-.33 8.14-2.63-.11.47-11.88v.04z"/><path d="m381.81 233.72 4.07.48 1.02-8.2 2.26.28 9.88 8.77-.47 3.79-10.62-1.33-.29 2.29-2.43-.33.28-2.26-4.06-.5.36-2.96v-.02zm7.16-4.4-.66 5.22 7.5.94-6.85-6.16z"/><path d="m38.86 238.81-.46.07c-1 .13-1.89.09-2.68-.13-.78-.22-1.52-.52-2.15-.96s-1.26-.91-1.81-1.46c-.54-.54-1.07-1.11-1.57-1.65-.5-.57-.98-1.07-1.46-1.52-.48-.46-.98-.81-1.48-1.04-.5-.24-1.04-.33-1.61-.26-.54.07-1.02.24-1.37.52-.37.28-.63.63-.78 1.09-.15.44-.2.94-.11 1.52.06.57.26 1.07.54 1.48s.7.7 1.17.87c.5.17 1.07.2 1.72.07l.37 2.92c-1.13.17-2.15.09-3.07-.28-.91-.37-1.65-.98-2.24-1.83s-.96-1.87-1.11-3.07c-.15-1.13-.07-2.15.24-3.07.3-.91.8-1.63 1.48-2.2.7-.57 1.54-.91 2.59-1.04.74-.09 1.44-.07 2.05.11.61.17 1.2.44 1.72.78.54.35 1.04.76 1.52 1.22s.94.94 1.37 1.41c.44.48.87.94 1.31 1.37.44.44.87.81 1.31 1.13.44.31.91.52 1.41.61l-1.04-8.07 2.61-.35 1.52 11.79v-.02z"/><path d="m37.01 218c.04.98-.13 1.89-.5 2.7s-.94 1.5-1.68 2.09-1.65 1.04-2.72 1.39c-1.07.33-2.31.52-3.7.59-1.44.07-2.7-.04-3.81-.28-1.09-.26-2.02-.65-2.81-1.17-.78-.52-1.37-1.2-1.78-1.98s-.65-1.65-.7-2.61c-.04-.98.11-1.89.48-2.68.37-.81.91-1.5 1.65-2.09s1.65-1.04 2.72-1.39 2.31-.52 3.68-.59c1.41-.06 2.68.04 3.81.31 1.13.26 2.07.65 2.83 1.2.78.54 1.37 1.17 1.78 1.94.41.76.65 1.63.7 2.59h.04zm-2.54.09c-.02-.5-.15-.96-.39-1.37s-.61-.74-1.13-1.02c-.5-.28-1.17-.48-1.98-.61s-1.81-.15-2.96-.11-2.11.17-2.92.37c-.8.2-1.44.46-1.91.78-.48.33-.81.7-1.02 1.13-.2.44-.3.89-.28 1.39.02.52.15 1 .39 1.39.24.41.61.74 1.11 1.02s1.15.48 1.96.61 1.78.15 2.96.11c1.17-.04 2.16-.17 2.94-.37.81-.2 1.44-.46 1.91-.78.48-.33.83-.7 1.02-1.13.2-.44.3-.89.28-1.44l.02.02z"/><path d="m36.56 209.13h-.46c-1-.07-1.87-.26-2.63-.59s-1.39-.78-1.98-1.31c-.57-.54-1.09-1.11-1.54-1.74-.46-.63-.87-1.26-1.26-1.89s-.78-1.22-1.17-1.74-.83-.96-1.28-1.28c-.46-.33-.98-.5-1.55-.52s-1.04.06-1.46.28c-.41.22-.72.52-.96.94-.22.41-.35.89-.37 1.48-.02.57.07 1.09.31 1.54.22.46.57.81 1.02 1.07.46.26 1.02.37 1.67.35l-.13 2.94c-1.15 0-2.13-.28-2.98-.81-.85-.52-1.46-1.24-1.89-2.18s-.63-2-.57-3.22c.04-1.15.31-2.13.74-2.98.46-.83 1.07-1.48 1.83-1.92.78-.44 1.68-.63 2.72-.59.74.02 1.41.17 2 .46.59.26 1.11.63 1.57 1.07.48.44.89.91 1.28 1.46.39.54.76 1.09 1.11 1.63s.7 1.07 1.07 1.57.72.94 1.11 1.33.81.68 1.28.85l.33-8.14 2.63.11-.5 11.88.06-.04z"/><path d="m38.19 187.17-4.07-.48-1.02 8.2-2.26-.28-9.88-8.77.48-3.79 10.62 1.33.28-2.29 2.44.33-.28 2.26 4.07.5-.37 2.96v.02zm-7.16 4.4.65-5.22-7.51-.94 6.85 6.16z"/><path d="m211.07 100.13c-31.28 0-56.57 24.9-56.57 55.74 0 24.63 16.22 45.5 38.7 52.9 2.82.57 3.84-1.18 3.84-2.67 0-1.31-.09-5.73-.09-10.33-15.73 3.33-19.04-6.65-19.04-6.65-2.55-6.48-6.26-8.14-6.26-8.14-5.14-3.41.36-3.41.36-3.41 5.72.35 8.71 5.73 8.71 5.73 5.05 8.49 13.23 6.08 16.49 4.59.45-3.59 1.97-6.08 3.57-7.48-12.56-1.31-25.74-6.08-25.74-27.52 0-6.08 2.23-11.07 5.81-14.96-.58-1.4-2.55-7.09.58-14.79 0 0 4.78-1.49 15.55 5.73 4.6-1.22 9.38-1.84 14.12-1.84s9.65.66 14.17 1.84c10.77-7.22 15.55-5.73 15.55-5.73 3.08 7.66 1.12 13.39.58 14.79 3.66 3.89 5.81 8.88 5.81 14.96 0 21.4-13.23 26.12-25.87 27.52 2.06 1.75 3.84 5.08 3.84 10.33 0 7.48-.09 13.48-.09 15.31 0 1.49 1.03 3.24 3.84 2.67 22.48-7.39 38.7-28.22 38.7-52.9.09-30.8-25.29-55.74-56.49-55.74l-.09.04z" fill-rule="evenodd"/><path d="m131.87 263.07c.98 1.48 2.2 2.59 3.68 3.35 1.48.75 3.21 1.13 5.19 1.13 2.33 0 4.32-.42 5.99-1.27 1.7-.88 3.03-2.25 4.01-4.1.97-1.86 1.54-4.26 1.7-7.22h-6.51c-.16 1.48-.42 2.72-.8 3.73s-.91 1.78-1.6 2.31c-.66.5-1.49.76-2.5.76-.88 0-1.65-.24-2.31-.71-.66-.5-1.21-1.23-1.65-2.17-.41-.98-.72-2.2-.94-3.68-.19-1.51-.28-3.27-.28-5.28 0-2.58.17-4.73.52-6.46.35-1.76.91-3.08 1.7-3.96.79-.91 1.79-1.37 3.02-1.37.97 0 1.79.24 2.45.71s1.18 1.2 1.56 2.17c.41.98.69 2.22.85 3.73h6.51c-.19-2.83-.76-5.16-1.7-6.98-.91-1.82-2.19-3.19-3.82-4.1-1.6-.91-3.57-1.37-5.9-1.37-2.04 0-3.82.38-5.33 1.13-1.51.76-2.77 1.89-3.77 3.4-.97 1.48-1.71 3.32-2.22 5.52-.47 2.17-.71 4.7-.71 7.59s.24 5.44.71 7.64 1.19 4.04 2.17 5.52z"/><path d="m291.89 261.05h-9.01v-28.3h-6.65v34.38h15.66z"/><path d="m273.53 261.28h-10.71v-8.96h9.39v-5.47h-9.39v-8.26h10.71v-5.84h-17.36v34.38h17.36z"/><path d="m186.78 260.24h8.21l1.46 6.89h6.7l-7.55-34.39h-9.43l-7.5 34.39h6.7zm2.83-14.52 1.13-6.75h.28l1.23 6.7 1.84 9.34h-6.41z"/><path d="m161.81 252.65h8.44v14.48h6.84v-34.38h-6.84v14.05h-8.44v-14.05h-6.79v34.38h6.79z"/><path d="m138.73 278.29c-.88-.98-1.98-1.71-3.3-2.22s-2.85-.76-4.58-.76h-10.14v34.39h6.7v-11.46h3.44c2.36 0 4.32-.44 5.9-1.32 1.57-.91 2.75-2.22 3.54-3.92.79-1.73 1.18-3.82 1.18-6.27 0-1.85-.24-3.49-.71-4.91-.44-1.41-1.12-2.59-2.03-3.54zm-4.58 11.74c-.31.85-.8 1.48-1.46 1.89-.63.41-1.42.61-2.36.61h-2.93v-11.41h2.93c.88 0 1.63.17 2.26.52.66.35 1.16.93 1.51 1.75.38.82.57 1.95.57 3.4 0 1.32-.17 2.41-.52 3.25z"/><path d="m266.7 290.41c.82-1.41 1.23-3.19 1.23-5.33 0-1.73-.24-3.21-.71-4.43-.47-1.26-1.16-2.28-2.07-3.07s-2.03-1.35-3.35-1.7c-1.29-.38-2.77-.57-4.43-.57h-10.9v34.39h6.7v-12.88h4.2c.85 0 1.49.19 1.93.57.47.35.79.85.94 1.51.19.66.28 1.45.28 2.36v5.05c0 .54.03 1.12.09 1.75s.17 1.18.33 1.65h6.75c-.16-.57-.27-1.15-.33-1.75-.03-.6-.05-1.23-.05-1.89v-5.61c0-1.89-.31-3.43-.94-4.62-.6-1.23-1.59-1.98-2.97-2.26v-.33c1.38-.47 2.48-1.41 3.3-2.83zm-6.51-.33c-.6.97-1.7 1.46-3.3 1.46h-3.73v-10.42h3.63c1.01 0 1.82.19 2.45.57.63.35 1.1.9 1.42 1.65.31.76.47 1.73.47 2.93 0 1.57-.31 2.84-.94 3.82z"/><path d="m252.42 232.75h-6.27v11.41l.33 10.71h-.33l-8.21-22.12h-7.49v34.38h6.36v-11.7l-.33-10.14h.33l8.26 21.84h7.35z"/><path d="m288.88 275.31-3.91 22.6h-.29l-3.91-22.6h-10.33v34.39h6.42v-11.04l-.1-16.74h.33l5 27.78h5.57l4.95-27.78h.33l-.1 16.74v11.04h6.42v-34.39z"/><path d="m166.86 275.31-7.43 34.08v-5.78h-9.01v-28.3h-6.65v34.39h22.29l1.41-6.89h8.21l1.46 6.89h6.7l-7.55-34.39zm1.51 22.27 1.93-9.29 1.13-6.75h.28l1.23 6.7 1.84 9.34z"/><path d="m240.88 279.32c-.98-1.48-2.22-2.59-3.73-3.35-1.51-.75-3.3-1.13-5.38-1.13s-3.82.38-5.33 1.13c-1.48.76-2.72 1.87-3.73 3.35s-1.76 3.32-2.26 5.52c-.47 2.2-.71 4.75-.71 7.64s.24 5.49.71 7.69c.5 2.2 1.26 4.04 2.26 5.52 1.01 1.48 2.25 2.59 3.73 3.35 1.51.72 3.29 1.08 5.33 1.08s3.87-.36 5.38-1.08c1.51-.76 2.75-1.87 3.73-3.35 1.01-1.48 1.75-3.32 2.22-5.52.5-2.2.76-4.76.76-7.69s-.25-5.44-.76-7.64c-.47-2.2-1.21-4.04-2.22-5.52zm-4.39 19.67c-.35 1.76-.91 3.1-1.7 4.01-.75.88-1.76 1.32-3.02 1.32-.88 0-1.65-.24-2.31-.71-.66-.5-1.21-1.23-1.65-2.17-.41-.98-.72-2.2-.94-3.68-.19-1.51-.28-3.27-.28-5.28 0-2.58.17-4.73.52-6.46.35-1.76.9-3.08 1.65-3.96.79-.91 1.79-1.37 3.02-1.37.91 0 1.7.24 2.36.71s1.2 1.2 1.6 2.17c.44.98.77 2.2.99 3.68s.33 3.22.33 5.24c0 2.58-.19 4.75-.57 6.51z"/><path d="m180.11 281.21h6.37v28.49h6.84v-28.49h6.51v-5.9h-19.72z"/><path d="m201.64 309.7h6.84v-13.77h9.15v-5.57h-9.15v-9.2h10.38v-5.85h-17.22z"/><path d="m226.7 232.75h-6.28v11.41l.34 10.71h-.34l-8.2-22.12h-7.5v34.38h6.37v-11.7l-.33-10.14h.33l8.25 21.84h7.36z"/></g></svg>