<svg fill="none" height="81" viewBox="0 0 247 81" width="247" xmlns="http://www.w3.org/2000/svg"><path d="m67.1049 65.9789c-4.3502-.1727-7.9093-1.3623-10.6923-3.5718-.5311-.422-1.7966-1.6875-2.2212-2.2213-1.1286-1.4181-1.8958-2.7982-2.4075-4.3295-1.5748-4.7137-.7643-10.899 2.3181-17.6873 2.6391-5.8117 6.7115-11.5757 13.8163-19.5588 1.0466-1.1747 4.1632-4.6102 4.1834-4.6102.0074 0-.1624.294-.3762.6521-1.8474 3.0923-3.428 6.7347-4.2891 9.8881-1.3833 5.0598-1.2164 9.402.4886 12.7689 1.1762 2.3197 3.1927 4.3288 5.4601 5.4395 3.9696 1.9437 9.7813 2.1045 16.8786.4705.4887-.1132 24.7023-6.5368 53.8083-14.275 29.106-7.7389 52.924-14.0657 52.928-14.0605.008.0067-67.622 28.9273-102.7295 43.931-5.5599 2.3754-7.0467 2.9754-9.6605 3.8925-6.6818 2.345-12.667 3.4638-17.5051 3.2718z" fill="#fff"/></svg>