<svg id="Group_16" data-name="Group 16" xmlns="http://www.w3.org/2000/svg" width="56.62" height="57" viewBox="0 0 56.62 57">
  <path id="Path_61" data-name="Path 61" d="M857.59,941.769H809.01a.786.786,0,0,1-.785-.785V892.4a.786.786,0,0,1,.785-.786h27.339a.787.787,0,0,1,0,1.573H809.8V940.2h47.008V913.268a.787.787,0,0,1,1.573,0v27.716A.787.787,0,0,1,857.59,941.769Z" transform="translate(-808.224 -884.769)" fill="#007fff"/>
  <path id="Path_62" data-name="Path 62" d="M846.574,918.432h-27.71a.785.785,0,0,1-.788-.785V889.936a.788.788,0,0,1,.788-.788h27.71a.785.785,0,0,1,.785.788v27.711A.783.783,0,0,1,846.574,918.432Zm-26.925-1.571h26.14v-26.14h-26.14Z" transform="translate(-790.739 -889.148)" fill="#007fff"/>
</svg>
