<svg height="57.396" viewBox="0 0 61.241 57.396" width="61.241" xmlns="http://www.w3.org/2000/svg"><g fill="#007fff"><path d="m479.05 1129.326a.818.818 0 0 1 -.634-.3l-29.774-36.251a.822.822 0 0 1 -.02-1.023l14.887-19.5a.828.828 0 0 1 .657-.323h30.423a.829.829 0 0 1 .669.34l14.28 19.774a.817.817 0 0 1 -.035 1.006l-29.815 35.975a.817.817 0 0 1 -.638.302zm-28.725-37.091 28.728 34.972 28.771-34.713-13.66-18.913h-29.594z" transform="translate(-448.45 -1071.93)"/><path d="m469.284 1129.328a.824.824 0 0 1 -.765-.512l-14.887-36.248a.829.829 0 0 1 .107-.814l14.887-19.5a.824.824 0 0 1 1.311 1l-14.6 19.122 14.71 35.812a.827.827 0 0 1 -.451 1.076.84.84 0 0 1 -.312.064z" transform="translate(-438.684 -1071.931)"/><path d="m459.524 1129.328a.855.855 0 0 1 -.314-.061.825.825 0 0 1 -.448-1.076l14.707-35.812-14.6-19.122a.823.823 0 1 1 1.308-1l14.887 19.5a.829.829 0 0 1 .108.814l-14.887 36.248a.82.82 0 0 1 -.761.509z" transform="translate(-428.903 -1071.931)"/><path d="m508.865 1080.287h-59.592a.824.824 0 0 1 0-1.649h59.592a.824.824 0 1 1 0 1.649z" transform="translate(-448.45 -1059.139)"/></g></svg>