<svg fill="none" height="52" viewBox="0 0 52 52" width="52" xmlns="http://www.w3.org/2000/svg" xmlns:xlink="http://www.w3.org/1999/xlink"><linearGradient id="a"><stop offset="0" stop-color="#008cff"/><stop offset="1" stop-color="#1eff00"/></linearGradient><linearGradient id="b" gradientUnits="userSpaceOnUse" x1="26" x2="26" xlink:href="#a" y1="0" y2="52"/><linearGradient id="c" gradientUnits="userSpaceOnUse" x1="26" x2="26" xlink:href="#a" y1="14.6221" y2="37.377"/><clipPath id="d"><path d="m0 0h52v52h-52z"/></clipPath><g clip-path="url(#d)"><path d="m45.5 3.25c.862 0 1.6886.34241 2.2981.9519.6095.6095.9519 1.43615.9519 2.2981v39c0 .862-.3424 1.6886-.9519 2.2981s-1.4361.9519-2.2981.9519h-39c-.86195 0-1.6886-.3424-2.2981-.9519-.60949-.6095-.9519-1.4361-.9519-2.2981v-39c0-.86195.34241-1.6886.9519-2.2981.6095-.60949 1.43615-.9519 2.2981-.9519zm-39-3.25c-1.72391 0-3.37721.68482-4.59619 1.90381-1.21899 1.21898-1.90381 2.87228-1.90381 4.59619v39c0 1.7239.68482 3.3772 1.90381 4.5962 1.21898 1.219 2.87228 1.9038 4.59619 1.9038h39c1.7239 0 3.3772-.6848 4.5962-1.9038s1.9038-2.8723 1.9038-4.5962v-39c0-1.72391-.6848-3.37721-1.9038-4.59619-1.219-1.21899-2.8723-1.90381-4.5962-1.90381z" fill="url(#b)"/><path d="m22.2755 15.0995c.1513.1509.2714.3302.3533.5277.0819.1974.1241.409.1241.6228 0 .2137-.0422.4254-.1241.6228s-.202.3767-.3533.5277l-8.6028 8.5995 8.6028 8.5995c.3051.3051.4765.719.4765 1.1505s-.1714.8453-.4765 1.1505c-.3052.3051-.719.4765-1.1505.4765s-.8454-.1714-1.1505-.4765l-9.75-9.75c-.1514-.151-.27142-.3303-.35334-.5277s-.12409-.4091-.12409-.6228c0-.2138.04217-.4254.12409-.6228.08192-.1975.20194-.3768.35334-.5277l9.75-9.75c.1509-.1514.3302-.2714.5277-.3533.1974-.082.409-.1241.6228-.1241.2137 0 .4254.0421.6228.1241.1974.0819.3767.2019.5277.3533zm7.449 0c-.1514.1509-.2714.3302-.3533.5277-.082.1974-.1241.409-.1241.6228 0 .2137.0421.4254.1241.6228.0819.1974.2019.3767.3533.5277l8.6027 8.5995-8.6027 8.5995c-.3052.3051-.4766.719-.4766 1.1505s.1714.8453.4766 1.1505c.3051.3051.719.4765 1.1505.4765s.8453-.1714 1.1505-.4765l9.75-9.75c.1513-.151.2714-.3303.3533-.5277s.1241-.4091.1241-.6228c0-.2138-.0422-.4254-.1241-.6228-.0819-.1975-.202-.3768-.3533-.5277l-9.75-9.75c-.151-.1514-.3303-.2714-.5277-.3533-.1974-.082-.4091-.1241-.6228-.1241-.2138 0-.4254.0421-.6228.1241-.1975.0819-.3768.2019-.5277.3533z" fill="url(#c)"/></g></svg>