<svg fill="none" height="52" viewBox="0 0 52 52" width="52" xmlns="http://www.w3.org/2000/svg" xmlns:xlink="http://www.w3.org/1999/xlink"><linearGradient id="a" gradientUnits="userSpaceOnUse" x1="26" x2="26" y1="0" y2="51.999"><stop offset="0" stop-color="#008cff"/><stop offset="1" stop-color="#1eff00"/></linearGradient><clipPath id="b"><path d="m0 0h52v52h-52z"/></clipPath><g clip-path="url(#b)"><path d="m25.194.213976c.2455-.1402221.5233-.213976.806-.213976s.5605.0737539.806.213976l12.1875 6.964754c.2487.14207.4555.34735.5993.59505s.2196.52902.2197.81545v12.98377l11.3685 6.5c.2478.1415.4539.3458.5977.5922.1437.2465.2201.5264.2213.8118v13.9295c-.0001.2864-.0759.5677-.2197.8154s-.3506.453-.5993.5951l-12.1875 6.9647c-.2455.1402-.5233.214-.806.214s-.5605-.0738-.806-.214l-11.3815-6.5-11.3815 6.5033c-.2455.1402-.5233.214-.806.214s-.5605-.0738-.806-.214l-12.1875-6.9648c-.248713-.142-.455456-.3473-.599282-.595-.1438264-.2477-.21962561-.529-.219718-.8155v-13.9295c.00009239-.2864.0758916-.5677.219718-.8154.143826-.2477.350569-.453.599282-.5951l11.3685-6.4967v-12.98377c.0001-.28643.0759-.56775.2197-.81545s.3506-.45298.5993-.59505zm-11.3815 24.173524-8.9115 5.0927 8.9115 5.0928 8.9115-5.0928zm10.5625 7.8942-8.9375 5.1058v10.1855l8.9375-5.1058zm3.25 10.1855 8.9375 5.1058v-10.1855l-8.9375-5.1058zm1.651-12.987 8.9115 5.0928 8.9115-5.0928-8.9115-5.0927zm7.2865-7.9072v-10.1855l-8.9375 5.109v10.1855zm-12.1875 5.109v-10.1855l-8.9375-5.109v10.1855zm-7.2865-18.09277 8.9115 5.09277 8.9115-5.09277-8.9115-5.09275zm31.6615 23.69247-8.9375 5.1058v10.1855l8.9375-5.1058zm-36.5625 15.2913v-10.1855l-8.9375-5.1058v10.1855z" fill="url(#a)"/></g></svg>