<svg enable-background="new 0 0 49.6 57" viewBox="0 0 49.6 57" xmlns="http://www.w3.org/2000/svg"><g fill="#007fff"><path d="m18.7 28.1c-7.7 0-13.9-6.2-13.9-13.9s6.2-13.9 13.9-13.9 13.9 6.2 13.9 13.9-6.3 13.9-13.9 13.9zm0-26.2c-6.8 0-12.3 5.5-12.3 12.3s5.5 12.3 12.3 12.3 12.3-5.5 12.3-12.3-5.5-12.3-12.3-12.3z"/><path d="m36.1 57h-34.2c-.4 0-.8-.4-.8-.8v-11.8c0-9.8 8-17.9 17.9-17.9s17.9 8 17.9 17.9v11.8c0 .4-.4.8-.8.8zm-33.4-1.6h32.6v-11c0-9-7.3-16.3-16.3-16.3s-16.3 7.3-16.3 16.3v11z"/><path d="m31.2 31.1c-3.4 0-6.5-1.3-8.9-3.7-.3-.3-.3-.8 0-1.1s.8-.3 1.1 0c2.1 2.1 4.8 3.2 7.8 3.2 6.1 0 11-4.9 11-11s-4.9-11-11-11c-.5 0-1.1 0-1.6.1-.4.1-.8-.2-.9-.7-.1-.4.2-.8.7-.9.6-.1 1.2-.1 1.8-.1 6.9 0 12.6 5.6 12.6 12.6s-5.7 12.6-12.6 12.6z"/><path d="m46.8 57h-10.7c-.4 0-.8-.4-.8-.8s.4-.8.8-.8h10v-9.8c0-8-6.4-14.5-14.3-14.5-.8 0-1.6.1-2.4.2-.4.1-.8-.2-.9-.6s.2-.8.6-.9c.9-.2 1.8-.2 2.7-.2 8.7 0 15.8 7.2 15.8 16.1v10.6c0 .3-.3.7-.8.7z"/></g></svg>