<svg fill="none" height="100" viewBox="0 0 250 100" width="250" xmlns="http://www.w3.org/2000/svg"><g fill="#fff"><path d="m66.4968 30.5359c-1.3422 0-2.4228 1.08-2.4228 2.4221v29.5696c0 1.3421 1.0806 2.4221 2.4228 2.4221h18.5924c.3512 0 .6339-.2826.6339-.6337v-3.3919c0-.3512-.2827-.6339-.6339-.6339h-15.8098v-10.8137h14.216c.3511 0 .6337-.2827.6337-.6339v-3.2052c0-.3511-.2826-.6337-.6337-.6337h-14.216v-9.9176h15.8098c.3512 0 .6339-.2826.6339-.6337v-3.2828c0-.3511-.2827-.6337-.6339-.6337z"/><path d="m129.263 39.1509c-4.424 0-7.171 1.5235-9.01 4.0567v-2.6465c0-.3512-.283-.6339-.634-.6339h-3.829c-.351 0-.634.2827-.634.6339v32.2814c0 .3511.283.6339.634.6339h3.895c.351 0 .634-.2828.634-.6339v-11.0435c1.706 2.4568 4.471 3.9113 8.944 3.9112 7.521 0 12.205-5.9533 12.205-13.2875 0-7.3341-4.587-13.2718-12.205-13.2718zm-1.093 4.2706c5.412 0 8.074 4.03 8.074 9.0012 0 4.9713-2.662 9.0013-8.074 9.0013-5.411 0-8.073-4.03-8.073-9.0013 0-4.9712 2.662-9.0012 8.073-9.0012z"/><path d="m204.805 39.9272h3.851c.351 0 .634.2827.634.6339v23.7547c0 .3512-.283.6339-.634.6339h-3.851c-.351 0-.634-.2827-.634-.6339v-23.7547c0-.3512.283-.6339.634-.6339z"/><path d="m204.75 30.5234h3.961c.351 0 .634.2827.634.6339v3.9611c0 .3511-.283.6338-.634.6338h-3.961c-.351 0-.634-.2827-.634-.6338v-3.9611c0-.3512.283-.6339.634-.6339z"/><path d="m184.55 65.7104c4.424 0 7.171-1.5236 9.01-4.0568v2.6623c0 .3511.283.6338.634.6338h3.828c.351 0 .634-.2827.634-.6338v-33.1461c0-.3512-.283-.6339-.634-.6339h-3.894c-.351 0-.634.2827-.634.6339v12.033c-1.831-2.3943-4.472-4.0518-8.944-4.0518-7.522.0001-12.205 5.9533-12.205 13.2875 0 7.3341 4.586 13.2719 12.205 13.2719zm1.092-4.2706c-5.411 0-8.073-4.03-8.073-9.0013s2.662-9.0013 8.073-9.0013c5.412 0 8.074 4.03 8.074 9.0013s-2.662 9.0013-8.074 9.0013z"/><path d="m225.894 39.1667c-7.619 0-12.205 5.9377-12.205 13.2719 0 7.3341 4.586 13.2718 12.205 13.2718 4.424 0 7.171-1.5236 9.01-4.0567v2.6622c0 .3511.283.6339.634.6339h3.828c.351 0 .634-.2828.634-.6339v-11.8773-11.8774c0-.3511-.283-.6338-.634-.6338h-3.828c-.351 0-.634.2827-.634.6338v2.6622c-1.839-2.5331-4.586-4.0567-9.01-4.0567zm1.092 4.2706c5.412 0 8.074 4.03 8.074 9.0013 0 4.9712-2.662 9.0012-8.074 9.0012-5.411 0-8.073-4.03-8.073-9.0012 0-4.9713 2.662-9.0013 8.073-9.0013z"/><path d="m89.8233 39.9272c-.5471 0-.6451.4321-.3968.7743l8.1488 11.159-8.9439 12.3147c-.2485.3421-.1503.7745.3968.7745h4.4123c.3827 0 .5815-.1307.7087-.3184l6.0948-8.9938 6.347 8.9938c.131.1852.326.3184.709.3184h4.581c.547 0 .646-.433.397-.7745l-8.995-12.3148 8.097-11.1589c.249-.3422.151-.7743-.397-.7743h-4.325c-.383 0-.582.1308-.709.3183l-5.348 7.8595-5.5245-7.8595c-.13-.1858-.326-.3183-.7086-.3183z"/><path d="m156.918 39.1509c-7.661 0-12.272 5.5085-12.272 13.2797 0 8.5709 5.45 13.2796 12.272 13.2796 8.244 0 11.494-4.8484 11.675-5.0299.209-.209.152-.598-.023-.77l-2.383-2.3362c-.176-.1721-.51-.1985-.741.0345-.174.1755-3.075 3.8422-7.827 3.8422-5.051 0-7.538-3.0946-7.872-7.6536h18.823c.584 0 .615-.519.617-.8597.039-9.2557-5.34-13.7866-12.269-13.7866zm.017 4.0276c4.633 0 6.574 2.7862 6.984 6.755h-13.989c.55-3.8907 2.593-6.755 7.005-6.755z"/><path d="m17.6133 27h24.3175c4.7717 0 8.6133 3.8415 8.6133 8.6133v24.3173c0 4.7718-3.8416 8.6133-8.6133 8.6133h-24.3175c-4.7718 0-8.6133-3.8415-8.6133-8.6133v-24.3173c0-4.7718 3.8415-8.6133 8.6133-8.6133z"/></g><path d="m20.6174 34.438c-.3871 0-.6304.089-.8354.294l-4.1513 4.1513c-.0771.0771-.1204.1817-.1204.2907-.0001.227.184.411.4109.411h17.9962l-11.0636 11.0634c-.218.218-.3448.3449-.3448.7727v2.911c0 .1762.0801.329.1952.4441.115.115.2677.195.4439.195h2.9111c.4279 0 .5546-.1266.7726-.3447l11.0636-11.0636v17.9962c0 .227.184.411.4109.411.1091 0 .2137-.0433.2908-.1204l4.1513-4.1513c.205-.205.294-.4484.294-.8355v-19.6508c-.0001-.3643-.0718-.7251-.2112-1.0616-.1395-.3366-.3438-.6424-.6014-.9-.2577-.2576-.5635-.462-.9001-.6014s-.6973-.2111-1.0616-.2111z" fill="#191e3b"/><path d="m17.0915 55.7803h3.9931c.334 0 .6029.2689.6029.6029v4.0182c0 .334-.2689.6029-.6029.6029h-3.9931c-.3341 0-.603-.2689-.603-.6029v-4.0182c0-.334.2689-.6029.603-.6029z" fill="#191e3b"/></svg>