<svg height="159" viewBox="0 0 500 159" width="500" xmlns="http://www.w3.org/2000/svg" xmlns:xlink="http://www.w3.org/1999/xlink"><clipPath id="a"><path d="m0 0h500v159h-500z"/></clipPath><g clip-path="url(#a)"><path d="m0 0h500v159h-500z" fill="#fff"/><g transform="translate(86.299 34.767)"><path d="m110.75 28.921c0-1.686-.4-2.473-1.681-2.473h-2.278c-.295 0-.395-.1-.395-.446v-1.14c0-.3.1-.4.495-.4.495 0 2.872.151 7.623.151 4.159 0 6.534-.151 7.128-.151.295 0 .395.1.395.344v1.24c0 .3-.1.4-.395.4h-2.08a2.177 2.177 0 0 0 -2.426 1.927c-.049.594-.146 3.562-.146 6.434v6.137c0 2.473.047 5.993.146 7.574.149 2.276.546 4.556 1.732 6.139a8.169 8.169 0 0 0 6.729 3.067 10.444 10.444 0 0 0 6.636-2.375c1.883-1.881 2.87-4.751 2.87-8.364v-8.909a92.429 92.429 0 0 0 -.543-9.455 2.168 2.168 0 0 0 -2.032-2.174h-1.781c-.3 0-.4-.151-.4-.346v-1.24c0-.3.1-.4.4-.4.5 0 2.77.151 6.042.151 3.063 0 4.653-.151 5.046-.151.446 0 .5.151.5.4v1.139c0 .295-.051.446-.3.446h-1.785a1.958 1.958 0 0 0 -2.078 1.927c-.1.594-.1 7.525-.1 8.171 0 .692-.1 9.3-.295 11.283-.3 4.059-1.484 7.128-4.156 9.506a13.387 13.387 0 0 1 -9.011 3.065 20.217 20.217 0 0 1 -7.126-1.189 10.075 10.075 0 0 1 -5.84-6.629c-.694-2.176-.892-5.445-.892-11.932m31.88 7.867c-.2 0-.246.1-.3.4-.1.594-.79 8.614-.889 9.2 0 .5.2.794.6.794s.592-.1.889-.6.5-.887.792-.887.594.2 1.187.592c1.981 1.486 4.356 2.378 8.413 2.378 6.536 0 10.5-4.95 10.5-10.99 0-3.316-.889-5.4-2.475-7.08-1.883-1.978-4.256-2.968-7.128-3.857-1.981-.6-4.753-1.783-6.039-3.07a6.034 6.034 0 0 1 -1.386-4.456 5.285 5.285 0 0 1 5.545-5 6.492 6.492 0 0 1 5.146 2.08 14.2 14.2 0 0 1 3.072 5.243.383.383 0 0 0 .495.3l.792-.251a.324.324 0 0 0 .295-.346c0-.492-.79-7.421-.79-8.217 0-.492-.1-.785-.4-.785a.9.9 0 0 0 -.694.295l-.643.643a.854.854 0 0 1 -1.04.149 15.526 15.526 0 0 0 -6.237-1.189 10.1 10.1 0 0 0 -7.026 2.373 8.4 8.4 0 0 0 -3.467 6.929c0 3.021.79 5.5 2.475 7.08a23.523 23.523 0 0 0 7.226 4.159c5.245 1.978 7.326 3.462 7.326 8.016 0 4.11-3.759 5.791-6.436 5.791a7.69 7.69 0 0 1 -6.53-3.56 11.463 11.463 0 0 1 -1.883-5.642c0-.3-.1-.4-.295-.4m53.112 2.233c-.146-.149-.346 0-.59.342a14.439 14.439 0 0 1 -11.849 5.746c-2.375 0-5.243-.395-8.512-3.855-3.662-3.961-4.553-9.8-4.553-12.875 0-7.128 3.267-14.255 11.185-14.255a11.789 11.789 0 0 1 8.612 3.664 17.511 17.511 0 0 1 3.868 6.433c.149.4.3.6.546.5l.938-.3c.2-.049.248-.2.2-.5-.2-1.484-1.187-9.4-1.187-10.291 0-.7-.1-.794-.694-.794s-.692 0-.79.3l-.4 1.286c-.1.4-.3.4-.989 0a21.626 21.626 0 0 0 -10-2.373 17.111 17.111 0 0 0 -12.871 5.243 19.194 19.194 0 0 0 -5.046 13.268c0 4.354 1.681 10.1 5.345 13.365 3.067 2.772 6.632 4.651 12.966 4.651 7.031 0 11.782-4.057 14.751-8.315a.385.385 0 0 0 -.1-.495" fill="#a0a0a0" transform="translate(129.582 29.067)"/><path d="m111.841 35.17c-.614-.461-.923-.612-1.18-.612-.306 0-.512.359-.821.872-.3.563-.563.614-.923.614-.306 0-.561-.255-.457-.818.2-1.284.716-7.794.869-9.28.051-.311.153-.311.357-.311l.77.051c.2 0 .306.1.306.41a10.1 10.1 0 0 0 1.848 5.951 8.558 8.558 0 0 0 7.175 3.793c3.078 0 6.973-1.9 6.973-6.514 0-5.279-3.793-7.23-7.9-8.663-1.588-.563-5.281-1.841-7.483-4.15-1.692-1.694-2.564-4.1-2.564-7.483a9.691 9.691 0 0 1 3.178-6.563 10.215 10.215 0 0 1 7.18-2.467 14.8 14.8 0 0 1 6.05 1.282c.461.257.716.2.974-.051l.668-.612a.975.975 0 0 1 .663-.311c.259 0 .413.413.413.874 0 1.794.668 7.022.719 8.151 0 .255-.051.359-.257.41l-.614.151a.214.214 0 0 1 -.308-.151 12.416 12.416 0 0 0 -3.18-5.687 7.137 7.137 0 0 0 -5.585-2.2 5.8 5.8 0 0 0 -6.2 6 6.219 6.219 0 0 0 1.588 4.458 16.106 16.106 0 0 0 5.842 3.078c3.54 1.129 6.412 2 8.253 4.254a10.019 10.019 0 0 1 2.258 6.973c0 6.048-3.691 11.227-10.455 11.227a12.66 12.66 0 0 1 -8.153-2.675m24.608-10.506c0-5.281 3.127-7.947 6.05-7.947 1.227 0 2.3.151 3.433 2.253.77 1.386 1.639 2.049 2.819 2.049a1.745 1.745 0 0 0 1.9-1.792c0-1.076-1.641-4.152-6.971-4.152-6.767 0-10.968 6.05-10.968 12.048a10.615 10.615 0 0 0 2.3 6.973 9.356 9.356 0 0 0 7.945 3.589 11.864 11.864 0 0 0 8.255-3.642c.257-.308.2-.459 0-.668l-.512-.512a.268.268 0 0 0 -.41 0 7.028 7.028 0 0 1 -5.638 2.2 6.6 6.6 0 0 1 -5.589-2.613 14.472 14.472 0 0 1 -2.615-7.792m19.265-.055c0 3.334 0 8.971-.153 9.95-.1.61-.872.816-1.694.816h-1.08c-.563 0-.767.051-.767.413v.923c0 .359.151.512.357.512.461 0 2.409-.153 4.973-.153 2.36 0 4.462.153 4.871.153.308 0 .41-.211.41-.566v-.872c0-.308-.2-.413-.563-.413h-1.537c-.976 0-1.127-.461-1.127-2.1v-11.174a4.452 4.452 0 0 1 1.027-2.513 6.267 6.267 0 0 1 4.766-2.156 4.692 4.692 0 0 1 3.382 1.435c1.486 1.386 1.694 3.433 1.694 6.3v4.152c0 1.646.049 4.358 0 5.079-.051.869-1.078.971-1.95.971h-1.178c-.311 0-.362.151-.362.41v.874c0 .41.1.566.461.566.459 0 2.3-.155 4.817-.155 2.923 0 4.562.155 4.922.155.308 0 .408-.211.408-.614v-.77c0-.359-.151-.464-.563-.464h-.872c-1.073 0-1.9-.151-1.9-.772 0-.971-.1-4.154-.1-7.024v-2.904c0-2.77.1-5.39-2.2-7.539a6.719 6.719 0 0 0 -5.077-2.052 9.8 9.8 0 0 0 -7.022 3.336h-.26v-3.282c0-2.564.051-12.975.153-13.842s-.1-1.28-.413-1.28a2.728 2.728 0 0 0 -1.178.408l-5.33 2.821c-.464.257-.614.306-.614.51v.457c0 .16.051.208.357.313l.872.308c1.845.617 2.46 1.18 2.46 4.3m24.448 25.016a10.345 10.345 0 0 0 7.794 3.538 11.7 11.7 0 0 0 11.331-11.275 11.39 11.39 0 0 0 -3.487-8.359 10.86 10.86 0 0 0 -7.175-2.972 11.1 11.1 0 0 0 -6.869 2.462 10.9 10.9 0 0 0 -4.409 8.253c0 3.642.459 5.536 2.819 8.357m14.813-8.255c0 5.487-2.513 10.253-6.408 10.253a5.673 5.673 0 0 1 -5.077-2.666c-1.641-2.358-1.95-4.3-1.95-7.173 0-3.9.721-6 2.717-8.051a4.946 4.946 0 0 1 3.95-1.641c2.615 0 6.767 3.586 6.767 9.278m8.619 8.253a10.338 10.338 0 0 0 7.792 3.538 11.7 11.7 0 0 0 11.328-11.277 11.4 11.4 0 0 0 -3.487-8.362 10.869 10.869 0 0 0 -7.177-2.97 11.1 11.1 0 0 0 -6.867 2.462 10.9 10.9 0 0 0 -4.409 8.251c0 3.642.461 5.538 2.821 8.357m14.813-8.255c0 5.487-2.511 10.256-6.408 10.256a5.665 5.665 0 0 1 -5.075-2.668c-1.641-2.358-1.95-4.3-1.95-7.175 0-3.895.716-6 2.719-8.047a4.935 4.935 0 0 1 3.946-1.641c2.617 0 6.767 3.584 6.767 9.275m11.586-8.665c0-2.819.151-13.483.2-16.3.055-.672-.049-.925-.408-.925a1.908 1.908 0 0 0 -1.078.408 45.5 45.5 0 0 1 -6 2.974c-.308.106-.459.206-.459.357v.415c0 .106.051.151.3.257l1.031.355a3.09 3.09 0 0 1 2.559 3.078c.1 1.333.151 6 .151 9.639v3.229c0 2.972 0 11.788-.047 13.378-.051.92-.563 1.282-1.127 1.282h-2.46c-.566 0-.67.1-.67.459v.874c0 .308.1.512.359.512.461 0 2.511-.155 5.791-.155 3.18 0 5.432.153 5.791.153.208 0 .308-.206.308-.51v-.874c0-.308-.1-.461-.563-.461h-2.3c-1.078 0-1.282-.721-1.337-1.592-.049-1.59-.049-9.331-.049-11.992m-224.942-3.231c0 6.294-.1 15.406-.151 15.856-.1.508-.455.909-1.357.909h-2.065c-.2 0-.353.049-.353.3v1.309c0 .251.1.353.353.353.455 0 2.065-.149 6.042-.149 3.575 0 5.086.149 5.691.149.251 0 .3-.149.3-.353v-1.309c0-.2-.151-.3-.4-.3h-2.216a1.128 1.128 0 0 1 -1.16-1.107c-.051-.708-.151-8.109-.151-10.628v-3.621h.956a3.127 3.127 0 0 1 2.218.754c.652.5 9.566 12.285 10.021 13.294a.883.883 0 0 1 -.805 1.36h-.756a.268.268 0 0 0 -.3.3v1.306a.269.269 0 0 0 .3.3c.705 0 2.668-.151 6.847-.151 3.779 0 5.693.149 6.2.149.3 0 .4-.1.4-.35v-1.25a.316.316 0 0 0 -.35-.353h-1.768a4.405 4.405 0 0 1 -3.524-1.258c-.452-.554-13.041-16.166-13.5-16.721 2.168-2.816 9.873-11.737 11.732-13.087a5.234 5.234 0 0 1 2.772-.96h1.058c.253 0 .4-.1.4-.35v-1.364c0-.151-.1-.251-.348-.251-.608 0-2.369.151-3.83.151-2.316 0-4.383-.151-4.986-.151-.2 0-.3.1-.3.353v1.154c0 .253.049.35.251.35h.708c.654 0 .9.508.452 1.209-.452.657-9.77 12.542-10.874 13.35a3.231 3.231 0 0 1 -2.067.7h-.9v-2.514c0-2.466.149-10.322.149-11.078 0-1.207.4-1.559 1.413-1.559h2.114c.253 0 .353-.1.353-.35v-1.315c0-.2-.1-.3-.4-.3-.654 0-2.316.151-5.691.151-3.777 0-5.285-.151-5.891-.151-.3 0-.4.1-.4.3v1.312c0 .248.1.35.4.35h1.75c1.262 0 1.51.652 1.51 1.209 0 .406.153 10.22.153 11.13m44.318 8.106c.805 0 1.408-.1 1.408-.81 0-1.961-1.612-7.4-7.4-7.4a9.343 9.343 0 0 0 -7.2 2.67 11.342 11.342 0 0 0 -3.172 8c0 3.529.457 5.394 2.216 7.958 1.865 2.719 5.039 3.573 7.907 3.573 4.482 0 7.1-3.469 8.007-5.487.253-.554.153-.705 0-.754l-.654-.353a.405.405 0 0 0 -.452.251 6.82 6.82 0 0 1 -6.095 3.427c-4.028 0-7.151-3.728-7.151-8.663a12.769 12.769 0 0 1 .153-2.418m.2-1.508c.956-3.728 3.07-5.185 5.288-5.185 3.271 0 3.877 3.318 3.877 4.482 0 .455-.4.7-1.362.7zm19.276 2.72c0-5.188 3.07-7.809 5.942-7.809 1.211 0 2.264.151 3.373 2.216.756 1.36 1.612 2.016 2.77 2.016a1.72 1.72 0 0 0 1.867-1.761c0-1.058-1.615-4.079-6.851-4.079-6.647 0-10.777 5.944-10.777 11.835a10.463 10.463 0 0 0 2.267 6.844 9.2 9.2 0 0 0 7.809 3.527 11.648 11.648 0 0 0 8.1-3.578c.253-.3.2-.448 0-.657l-.5-.5a.258.258 0 0 0 -.4 0 6.913 6.913 0 0 1 -5.538 2.162 6.481 6.481 0 0 1 -5.487-2.564 14.17 14.17 0 0 1 -2.575-7.652m18.429-.053c0 4.431-.049 7.155-.1 9.371 0 .654-.255 1.209-.909 1.209h-1.86c-.353 0-.5.1-.5.452v.856c0 .3.1.5.253.5.35 0 2.114-.149 4.835-.149 2.517 0 4.181.149 4.48.149s.4-.149.4-.554v-.858c0-.3-.1-.4-.452-.4h-1.461c-.705 0-.956-.353-1.007-1.062-.051-1.761-.051-3.471-.051-5.232v-2.217a3.677 3.677 0 0 1 2.165.554c.805.756 6.547 6.849 6.7 7.253a.58.58 0 0 1 -.552.805h-.355c-.4 0-.5.146-.5.4v.807c0 .353.1.5.35.5.4 0 2.52-.146 5.492-.146 2.367 0 3.775.146 4.179.146.35 0 .452-.146.452-.452v-.9c0-.355-.1-.455-.4-.455a7.072 7.072 0 0 1 -2.617-.7c-.858-.4-9.317-8.863-10.324-9.872 1.712-1.659 5.944-5.54 6.647-5.942a7.3 7.3 0 0 1 3.473-1.158h.353c.353 0 .406-.1.406-.4v-.909c0-.353-.1-.5-.306-.5-.35 0-1.608.146-4.077.146-2.568 0-4.38-.146-4.684-.146-.251 0-.353.146-.353.4v.956c0 .306.053.455.4.455a2.237 2.237 0 0 1 1.311.3c.3.2.3.6 0 1.156a54.175 54.175 0 0 1 -5.336 5.591 4.9 4.9 0 0 1 -2.418.554v-7.96c0-6.046 0-13.447.248-15.863.053-.6 0-.856-.3-.856a3.337 3.337 0 0 0 -1.107.4l-5.142 2.22c-.506.2-.657.3-.657.5v.452c0 .151.151.2.708.353 2.464.652 2.617 1.508 2.617 3.573m114.875 76.996a10.154 10.154 0 0 0 7.654 3.475 11.494 11.494 0 0 0 11.127-11.076 11.186 11.186 0 0 0 -3.422-8.213 10.663 10.663 0 0 0 -7.051-2.919 10.887 10.887 0 0 0 -6.745 2.418 10.714 10.714 0 0 0 -4.335 8.107c0 3.573.455 5.436 2.772 8.206m14.554-8.106c0 5.39-2.466 10.072-6.294 10.072a5.59 5.59 0 0 1 -4.988-2.617c-1.612-2.318-1.91-4.23-1.91-7.051 0-3.828.7-5.889 2.664-7.907a4.873 4.873 0 0 1 3.881-1.61c2.566 0 6.647 3.524 6.647 9.113m8.725-1.919v9.471c-.047 1.156-.246 1.763-1.2 1.763h-2.418c-.406 0-.508.1-.508.355v1.1c0 .246.1.355.4.355.4 0 2.972-.151 5.744-.151 3.873 0 5.74.149 6.042.149.248 0 .353-.2.353-.6v-.805c0-.3-.1-.4-.554-.4h-2.873c-1.056 0-1.209-.452-1.309-1.311-.049-.552-.049-5.185-.049-11.127v-4.486h5.538c.4 0 .606-.051.652-.248l.253-1.663c.051-.2 0-.506-.35-.506h-6.093v-1c0-3.526-.1-7.907 1.761-10.276a4.475 4.475 0 0 1 3.777-1.759 2.761 2.761 0 0 1 2.316 1.156 5.373 5.373 0 0 0 1.207 1.16 3.26 3.26 0 0 0 1.415.3 2.4 2.4 0 0 0 2.111-2.167c0-1.912-2.216-2.819-4.582-2.819-2.819 0-5.589 1.056-8.257 3.979-1.965 2.213-3.373 5.487-3.373 10.473v.958h-2.919c-.408 0-.552.051-.6.35l-.2 1.515c-.1.452 0 .554.253.554h3.471m34.859-35.307a10.153 10.153 0 0 0 7.652 3.475 11.5 11.5 0 0 0 11.129-11.076 11.194 11.194 0 0 0 -3.422-8.213 10.663 10.663 0 0 0 -7.049-2.919 10.906 10.906 0 0 0 -6.749 2.42 10.71 10.71 0 0 0 -4.334 8.106c0 3.573.452 5.436 2.772 8.206m14.55-8.113c0 5.392-2.464 10.072-6.294 10.072a5.587 5.587 0 0 1 -4.988-2.617c-1.61-2.318-1.912-4.23-1.912-7.051 0-3.828.705-5.889 2.668-7.907a4.865 4.865 0 0 1 3.881-1.608c2.564 0 6.645 3.522 6.645 9.111m8.728-1.914v9.468c-.049 1.156-.248 1.763-1.209 1.763h-2.419c-.4 0-.506.1-.506.355v1.1c0 .248.1.355.406.355.4 0 2.972-.151 5.74-.151 3.877 0 5.74.149 6.044.149.251 0 .353-.2.353-.6v-.8c0-.306-.1-.406-.554-.406h-2.87c-1.058 0-1.209-.452-1.309-1.309-.051-.554-.051-5.188-.051-11.13v-4.485h5.538c.406 0 .6-.051.652-.248l.255-1.663c.051-.2 0-.506-.353-.506h-6.093v-1c0-3.526-.1-7.907 1.761-10.276a4.478 4.478 0 0 1 3.777-1.759 2.764 2.764 0 0 1 2.315 1.156 5.374 5.374 0 0 0 1.207 1.16 3.267 3.267 0 0 0 1.415.3 2.4 2.4 0 0 0 2.111-2.165c0-1.914-2.216-2.819-4.58-2.819-2.819 0-5.591 1.058-8.26 3.979-1.965 2.213-3.373 5.489-3.373 10.475v.954h-2.921c-.406 0-.552.051-.6.35l-.2 1.513c-.1.455 0 .557.255.557h3.473m-258.188 34.756a1.149 1.149 0 0 0 -1.311-.858c-.6 0-1.914.151-4.281.151-4.281 0-5.64-.151-6.146-.151-.3 0-.35.151-.35.306v1.313c0 .2.051.353.35.353h3.075c2.065 0 2.016.7 2.065 1.863.049 1.459.051 9.065.051 9.768 0 .9-.151 13.8-.756 17.375-.3 1.71-.754 3.019-2.668 3.019h-2.667a.269.269 0 0 0 -.306.3v1.207c0 .4.051.452.452.452.455 0 2.218-.151 6.5-.151 4.181 0 5.54.151 6.095.151.4 0 .452-.151.452-.355v-1.257c0-.2-.049-.35-.355-.35h-2.518c-1.61 0-2.065-.8-2.316-3.673-.151-1.765-.1-12.392-.1-12.995s.1-13.343.3-14.048c.7.6 5.285 11.881 6.241 14.2.255.6 6.7 16.515 6.851 16.865.2.506.455.907.756.907.4 0 .805-.756 1.007-1.211s5.789-13.294 6.093-13.9c.253-.5 7.4-16.366 7.9-17.023h.1c.149.457.149 9.422.151 12.744v3.225c0 3.724-.051 12.487-.1 13.09-.1 1.51-.552 1.81-1.408 1.81h-3.416c-.355 0-.4.1-.4.355v1.158c0 .3.049.45.4.45.652 0 2.617-.149 7.248-.149 5.54 0 6.447.149 7.051.149.4 0 .455-.149.455-.452v-1.156c0-.2-.053-.355-.353-.355h-2.972c-1.258 0-1.712-.8-1.712-2.717 0-1.007-.151-9.167-.151-11.688v-3.523c0-3.373.149-10.575.149-12.037 0-1.158.151-2.063 1.663-2.063h2.216c.35 0 .4-.151.4-.452v-1.162c0-.2-.051-.35-.3-.35-.554 0-2.267.151-8.965.151-.5 0-1.056.053-1.158.605-.151 1.007-5.638 12.84-5.991 13.543-.4.657-5.438 12.7-6.144 13.447m39.013-5.334c.8 0 1.408-.1 1.408-.805 0-1.963-1.612-7.4-7.4-7.4a9.338 9.338 0 0 0 -7.2 2.67 11.346 11.346 0 0 0 -3.172 8.009c0 3.524.455 5.387 2.216 7.956 1.867 2.717 5.037 3.575 7.907 3.575 4.482 0 7.1-3.475 8.007-5.492.253-.557.151-.7 0-.756l-.654-.35a.409.409 0 0 0 -.452.248 6.821 6.821 0 0 1 -6.095 3.427c-4.026 0-7.151-3.726-7.151-8.663a12.8 12.8 0 0 1 .153-2.418m.2-1.506c.956-3.731 3.072-5.186 5.288-5.186 3.271 0 3.877 3.322 3.877 4.478 0 .457-.4.705-1.36.705zm31.659-5.948a18.9 18.9 0 0 0 -5.39-.752 10.136 10.136 0 0 0 -7.5 3.172 12 12 0 0 0 -3.522 8.561c0 3.373.6 5.64 3.172 8.158a6.969 6.969 0 0 0 5.942 2.316 11.586 11.586 0 0 0 7.4-2.719l.657 2.218c.1.348.35.5.652.4l5.691-1.912c.3-.1.4-.253.353-.554l-.1-.406c-.1-.246-.306-.3-1.011-.353a3.714 3.714 0 0 1 -2.213-.854c-.4-.5-.5-2.719-.5-4.58v-11.135c0-6.4.049-13.7.2-16.217.051-.55 0-.9-.251-.9a11.49 11.49 0 0 0 -1.158.153c-.958.2-3.577.654-5.54 1.056-.3.049-.4.151-.4.353v.856c0 .2.051.3.355.353 2.803.453 3.156 1.053 3.156 2.966m0 24.623a4.749 4.749 0 0 1 -.3 1.714c-.5 1.306-2.67 2.768-5.489 2.768-2.921 0-6.849-4.132-6.849-9.819a9.634 9.634 0 0 1 2.316-6.7 6.224 6.224 0 0 1 4.582-1.812c2.97 0 4.582 1.36 5.29 2.721a4.974 4.974 0 0 1 .452 2.466zm12.085-1.209c0 1.513 0 3.072-.049 4.582-.051.8-.253 1.007-.807 1.007h-2.464c-.353 0-.5.1-.5.4v1.007c0 .3.151.408.4.408.552 0 2.517-.151 5.438-.151 2.114 0 4.431.151 4.833.151.353 0 .455-.153.455-.508v-.861c0-.3-.1-.45-.506-.45h-2.315c-.554 0-.705-.35-.805-1.313-.051-.55-.051-2.364-.051-4.329v-5.481c0-4.183 0-7.352.1-8.211.051-.353 0-.6-.251-.6a2.073 2.073 0 0 0 -.958.3 40.27 40.27 0 0 1 -5.441 2.464c-.248.1-.353.2-.353.355v.452c0 .2.1.3.457.353 2.517.4 2.819 1.309 2.819 3.023m-2.266-15.356a2.861 2.861 0 0 0 2.77 2.619 2.734 2.734 0 0 0 2.921-2.768 2.5 2.5 0 0 0 -2.619-2.471 2.791 2.791 0 0 0 -3.072 2.619m12.959 17.823c0-5.185 3.07-7.8 5.94-7.8 1.211 0 2.267.146 3.376 2.213.754 1.357 1.612 2.016 2.772 2.016a1.719 1.719 0 0 0 1.861-1.768c0-1.058-1.612-4.079-6.849-4.077-6.647 0-10.777 5.946-10.775 11.835a10.434 10.434 0 0 0 2.267 6.849 9.2 9.2 0 0 0 7.8 3.526 11.667 11.667 0 0 0 8.109-3.577c.251-.3.2-.452 0-.654l-.506-.506a.263.263 0 0 0 -.4 0 6.892 6.892 0 0 1 -5.538 2.167 6.49 6.49 0 0 1 -5.487-2.566 14.183 14.183 0 0 1 -2.571-7.656m19.289 4.935c0 1.508 0 3.07-.051 4.58-.049.805-.248 1.007-.807 1.007h-2.463c-.355 0-.5.1-.5.406v1c0 .306.149.406.4.406.554 0 2.52-.153 5.438-.153 2.116 0 4.434.153 4.835.153.353 0 .455-.153.455-.506v-.858c0-.3-.1-.457-.5-.457h-2.328c-.554 0-.705-.346-.805-1.306-.051-.552-.051-2.367-.051-4.329v-5.487c0-4.183 0-7.352.1-8.211.051-.353 0-.6-.253-.6a2.053 2.053 0 0 0 -.956.3 41.356 41.356 0 0 1 -5.438 2.464c-.251.1-.353.2-.353.353v.452c0 .2.1.3.452.353 2.52.4 2.821 1.309 2.821 3.023m-2.267-15.357a2.864 2.864 0 0 0 2.77 2.622 2.732 2.732 0 0 0 2.919-2.77 2.5 2.5 0 0 0 -2.617-2.469 2.791 2.791 0 0 0 -3.072 2.617m31.774 14.3a7.338 7.338 0 0 0 -2.77-4.786 7.8 7.8 0 0 0 -4.281-1.107c-2.52 0-5.438 1.863-6.9 3.677h-.1l-.353-3.072c-.049-.4-.153-.605-.4-.605a2.668 2.668 0 0 0 -.9.355l-4.332 2.418c-.253.1-.45.251-.45.5v.259c0 .151.049.3.4.452l.4.206a3.1 3.1 0 0 1 2.063 2.97v11.784c0 .854-.355 1-1.009 1h-1.459c-.4 0-.5.153-.5.452v.909c0 .3.1.452.35.452.3 0 1.914-.151 4.485-.151 2.668 0 4.026.151 4.38.151.251 0 .35-.151.35-.452v-.853c0-.353-.1-.506-.5-.506h-1.258c-1.056 0-1.209-.3-1.209-1.661v-10.422a4.943 4.943 0 0 1 1.157-3.431 5.9 5.9 0 0 1 4.077-1.963 5.528 5.528 0 0 1 3.677.9c1.458 1.063 1.458 2.529 1.458 4.543v6.647c0 1.309-.049 2.919-.1 4.23-.051.9-.452 1.156-1.009 1.156h-1.459c-.5 0-.654.1-.654.452v.805c0 .406.1.557.4.557.353 0 1.965-.153 4.531-.153 2.87 0 4.431.153 4.784.153.3 0 .4-.206.4-.557v-.805c0-.3-.1-.455-.552-.455h-1.612c-.657 0-1.107-.253-1.107-1.058m19.3-10.673c.8 0 1.406-.1 1.406-.81 0-1.961-1.615-7.4-7.4-7.4a9.336 9.336 0 0 0 -7.2 2.67 11.339 11.339 0 0 0 -3.174 8.007c0 3.526.457 5.39 2.216 7.958 1.865 2.717 5.039 3.573 7.9 3.573 4.482 0 7.1-3.473 8.007-5.489.255-.557.151-.7 0-.756l-.654-.35a.411.411 0 0 0 -.455.248 6.812 6.812 0 0 1 -6.09 3.427c-4.026 0-7.153-3.726-7.153-8.663a12.76 12.76 0 0 1 .153-2.415m.2-1.508c.958-3.728 3.074-5.188 5.29-5.188 3.274 0 3.877 3.325 3.877 4.482 0 .452-.4.705-1.36.705z" fill="#636363"/></g></g></svg>