<svg height="57.396" viewBox="0 0 58.419 57.396" width="58.419" xmlns="http://www.w3.org/2000/svg"><g fill="#007fff" transform="translate(-140.12 -522.313)"><path d="m197.769 550.5h-27.417v-27.417a.768.768 0 1 0 -1.535 0v27.417h-27.929a.769.769 0 0 0 0 1.538h27.929v26.9a.768.768 0 1 0 1.535 0v-26.9h27.417a.769.769 0 1 0 0-1.538z"/><path d="m142.731 525.377a.768.768 0 0 0 0 1.088l13.835 13.835a.769.769 0 0 0 1.088 0 .773.773 0 0 0 0-1.088l-13.836-13.836a.772.772 0 0 0 -1.087.001z" transform="translate(4.084 4.864)"/><path d="m168.947 525.377a.768.768 0 0 1 0 1.088l-13.836 13.835a.769.769 0 0 1 -1.088 0 .773.773 0 0 1 0-1.088l13.839-13.836a.769.769 0 0 1 1.085.001z" transform="translate(23.424 4.864)"/><path d="m142.731 550.306a.768.768 0 0 1 0-1.088l13.836-13.836a.769.769 0 0 1 1.088 0 .773.773 0 0 1 0 1.088l-13.836 13.836a.772.772 0 0 1 -1.088 0z" transform="translate(4.084 21.995)"/><path d="m168.947 550.306a.768.768 0 0 0 0-1.088l-13.836-13.836a.769.769 0 0 0 -1.088 0 .773.773 0 0 0 0 1.088l13.839 13.836a.769.769 0 0 0 1.085 0z" transform="translate(23.424 21.995)"/></g></svg>