<svg height="193.006" viewBox="0 0 121.407 193.006" width="121.407" xmlns="http://www.w3.org/2000/svg" xmlns:xlink="http://www.w3.org/1999/xlink"><radialGradient id="a" cx=".5" cy=".5" gradientUnits="objectBoundingBox" r=".5"><stop offset="0" stop-color="#ff00a7"/><stop offset="1" stop-color="#3b00ff"/></radialGradient><path d="m68.2 3.113q-24.055 0-40.044-9.339t-15.987-25.753q0-8.773 4.67-13.726t12.31-4.952a14.642 14.642 0 0 1 10.612 3.957q4.1 3.962 4.1 11.037a15.4 15.4 0 0 1 -.708 5.094 22.231 22.231 0 0 1 -2.123 4.245 9.823 9.823 0 0 0 -1.981 5.66q0 6.226 7.216 10.471t18.825 4.25q19.527 0 29.856-12.169t10.329-34.809q0-44.148-41.035-44.148l-12.451.569v-11.32q7.924.566 12.452.566 16.414 0 24.763-10.612t8.349-26.461q0-15.848-7.924-26.178t-22.64-10.329a33.629 33.629 0 0 0 -16.7 3.962q-7.075 3.962-7.075 9.905 0 1.981 2.264 5.943a17.4 17.4 0 0 1 2.83 9.339q0 6.792-4.1 10.613t-10.9 3.82q-7.641 0-12.169-4.528t-4.525-13.02q0-16.414 16.131-25.753t38.771-9.339q23.772 0 38.771 11.037t15 33.111q.283 16.98-9.056 27.734t-27.451 14.15v.849a48.678 48.678 0 0 1 21.65 6.368 44.527 44.527 0 0 1 16.839 17.122q6.509 11.32 6.509 27.168 0 26.036-17.546 40.752t-47.832 14.714z" fill="url(#a)" transform="translate(-12.169 189.893)"/></svg>