<svg height="159" viewBox="0 0 500 159" width="500" xmlns="http://www.w3.org/2000/svg" xmlns:xlink="http://www.w3.org/1999/xlink"><clipPath id="a"><path d="m0 0h500v159h-500z"/></clipPath><g clip-path="url(#a)"><path d="m0 0h500v159h-500z" fill="#fff"/><g fill="#636363"><path d="m194.385 15.534c0-3.7-6-3.995-8.584-3.995h-7.873l-5.357 19.148h5.873l1.678-6.72c5.946-.002 14.263-.59 14.263-8.433zm-6.775 2.726a4.763 4.763 0 0 1 -4 2.154h-2.064l1.29-5.7h1.613c1.451 0 3.421.458 3.421 2.217z" transform="translate(108.233 52.028)"/><path d="m164.863 21.864h8l1.1-3.995h-8.063z" transform="translate(104.13 55.397)"/><path d="m228.982 23.647-.709-12.109h-8.391l-4.517 19.148h4.71l3.486-13.7.711 13.7h5.55l7.485-13.7-3.1 13.7h5.228l4.517-19.148h-8.518z" transform="translate(131.009 52.027)"/><path d="m197.87 11.538c-4.946 6.242-9.365 12.866-14.264 19.148h6.969l3.68-5.453h7.421l.84 5.453h6.84c-.4-.415-3.69-17.345-3.87-19.148zm-1.227 9.573 3.872-5.326.775 5.326z" transform="translate(114.106 52.027)"/><path d="m213.49 11.538h-6.454l-4.517 19.148h15.681l1.031-4.123h-9.231z" transform="translate(124.172 52.027)"/><path d="m119.584 19.658-.9 4.12h2.452l-.708 2.914a5.827 5.827 0 0 1 -2.583.509c-2.6 0-4.969-.829-4.969-3.8 0-4.906 4.385-7.67 8.97-7.67 2.269 0 4.1.676 6.261 1.079l.709-4.63c-2.456-.12-4.827-.884-7.358-.884-7.427 0-14.844 4.7-14.844 12.615 0 4.566 3.622 7.416 8.132 7.416h3.227a62.532 62.532 0 0 0 7.874-.823l2.453-10.847h-8.712z" transform="translate(73.127 51.896)"/><path d="m79.65 15.728c1.661 0 3.133.567 4.71.7l.516-4.437a44.729 44.729 0 0 0 -5.226-.7c-7.378.001-14.65 4.592-14.65 12.427 0 4.653 4.033 7.606 8.584 7.606h2.26a29.341 29.341 0 0 0 4.71-.506l1.546-4.628a22.7 22.7 0 0 1 -4.712.7h-2.256a3.907 3.907 0 0 1 -3.808-3.99c-.001-4.431 4.102-7.172 8.326-7.172z" transform="translate(50.98 51.897)"/><path d="m150.753 30.686h16.588l.838-4.123h-10.068l.841-3.421h8.582l.838-4.122h-8.519l.84-3.423h10.133l1.033-4.059h-16.523z" transform="translate(96.621 52.027)"/><path d="m158.463 11.538h-19.168l-.84 4.059h6.259l-3.484 15.089h6.261l3.609-15.086h6.259z" transform="translate(90.075 52.027)"/><path d="m92.6 11.291c-7.422 0-14.843 4.805-14.843 12.679 0 4.6 4.5 7.353 8.841 7.353h2.517a13.326 13.326 0 0 0 12.52-8.557 8.972 8.972 0 0 0 .774-2.726v-2.154c.006-4.652-5.918-6.595-9.809-6.595zm3.357 9.129c0 .135-.288 1.057-.345 1.247-.683 2.347-1.615 3.808-4.024 4.755a5.628 5.628 0 0 1 -1.828.464h-1.804a3.935 3.935 0 0 1 -3.808-3.993 7.259 7.259 0 0 1 7.358-7.165 4.454 4.454 0 0 1 3.874 1.972 7.364 7.364 0 0 1 .579 1.393v1.327z" transform="translate(57.772 51.896)"/><path d="m142.241 11.538h-7.68c-4.391 6.484-9.3 12.957-14.133 19.148h6.972l3.68-5.453h7.485l.9 5.453 6.725-.006c-.083-.667-.516-2-.66-2.658-.772-3.55-3.13-13.369-3.289-16.484zm-8.712 9.573 3.679-5.326 1.033 5.326z" transform="translate(80.481 52.027)"/><path d="m105.323 11.538h-6.2l-4.515 19.148h15.426l1.031-4.123h-9.165z" transform="translate(66.739 52.027)"/><path d="m264.434 30.686h6.259l4.517-19.148h-6.258z" transform="translate(157.125 52.027)"/><path d="m291.279 11.538-9.42 14.328-1.744-14.328h-6.584c.21 4.926 2.278 9.823 2.778 14.711l.513 4.437h7.488c4.69-6.286 8.856-13.005 13.744-19.148z" transform="translate(161.966 52.027)"/><path d="m262.237 11.538h-6.257l-4.519 19.148h15.684l.838-4.123h-9.23z" transform="translate(150.22 52.027)"/><path d="m288.736 30.686h16.524l1.033-4.123h-10.262l.838-3.421h8.582l.841-4.122h-8.519l.838-3.423h10.133l1.031-4.059h-16.52z" transform="translate(170.059 52.027)"/><path d="m249.5 11.291c-7.007 0-14.714 4.66-14.714 12.235 0 4.866 3.964 7.8 8.777 7.8h2.517c5.815 0 13.229-5.066 13.229-11.283v-2.159c-.004-4.739-5.866-6.593-9.809-6.593zm-2.841 15.6h-1.742c-1.6 0-3.743-1.63-3.743-3.3v-1.397c0-2.019 2.3-5.078 4.131-5.894a8.129 8.129 0 0 1 3.1-.572 4.627 4.627 0 0 1 4.388 2.916 11.218 11.218 0 0 0 .129 1.332c-.006 3.176-2.766 6.91-6.267 6.91z" transform="translate(141.343 51.896)"/></g><path d="m2.47 24.809s.605-21.946 25.686-22.249h18.81l-4.215 18.591-15.517.055c-5.171.038-6.158 4.287-6.158 4.287a4.752 4.752 0 0 0 4.652 4.983l14.907.006-4.286 18.9-8.7.026c-25.988-.53-25.179-24.599-25.179-24.599zm83.231 0s-1.113-21.946-26.194-22.249h-7.989l-4.178 18.591 13.091.055c5.17.038 6.156 4.287 6.156 4.287a4.752 4.752 0 0 1 -4.653 4.983l-16.727.006-7.241 31.443 17.7.017 2.934-12.542h1.416c25.984-.522 25.684-24.591 25.684-24.591z" fill="#a0a0a0" transform="translate(17.699 47.249)"/></g></svg>