<svg height="50.48" viewBox="0 0 85.653 50.48" width="85.653" xmlns="http://www.w3.org/2000/svg"><path d="m1034.477 582.95a21.194 21.194 0 0 0 -4.425.48 22.006 22.006 0 0 0 -19.28-11.514 22.3 22.3 0 0 0 -21.551 17.391 14.806 14.806 0 0 0 -1.582-.089 17.031 17.031 0 0 0 -16.806 17.214c0 4.434 1.662 12.318 4.783 15.594a1.2 1.2 0 0 0 .867.37h75.123a1.2 1.2 0 0 0 .989-.526c2.541-3.769 3.891-11.93 3.891-16.368.001-12.435-9.872-22.552-22.009-22.552zm16.465 37.061h-73.92c-2.2-2.743-3.8-9.251-3.8-13.579a14.645 14.645 0 0 1 14.42-14.828 14 14 0 0 1 2.327.21 1.189 1.189 0 0 0 1.367-.959 19.95 19.95 0 0 1 19.439-16.554 19.68 19.68 0 0 1 17.593 11.034 1.182 1.182 0 0 0 1.359.618 19.221 19.221 0 0 1 4.754-.618c10.824 0 19.624 9.044 19.624 20.167-.005 4.413-1.282 11.211-3.163 14.509z" fill="#007fff" transform="translate(-970.834 -571.916)"/></svg>