<svg fill="none" height="100" viewBox="0 0 250 100" width="250" xmlns="http://www.w3.org/2000/svg"><path d="m70.443 73.9801c-4.1714-.1628-7.5842-1.2837-10.2528-3.3657-.5093-.3977-1.7228-1.5902-2.13-2.0932-1.0821-1.3362-1.8178-2.6368-2.3086-4.0797-1.51-4.4417-.7328-10.2702 2.2229-16.6669 2.5307-5.4764 6.4357-10.9078 13.2485-18.4304 1.0036-1.1069 3.9922-4.3442 4.0115-4.3442.0071 0-.1557.2771-.3607.6145-1.7715 2.9139-3.2872 6.3462-4.1129 9.3176-1.3264 4.7679-1.1664 8.8596.4686 12.0323 1.1278 2.1858 3.0614 4.079 5.2357 5.1256 3.8064 1.8316 9.3793 1.9831 16.185.4434.4685-.1067 23.6868-6.1596 51.5968-13.4514 27.91-7.2925 50.749-13.2543 50.753-13.2494.008.0064-64.843 27.2584-98.5077 41.3965-5.3314 2.2384-6.7571 2.8038-9.2636 3.668-6.4071 2.2096-12.1464 3.264-16.7857 3.083z" fill="#fff"/></svg>