<svg fill="none" height="52" viewBox="0 0 52 52" width="52" xmlns="http://www.w3.org/2000/svg" xmlns:xlink="http://www.w3.org/1999/xlink"><linearGradient id="a" gradientUnits="userSpaceOnUse" x1="26" x2="26" y1="0" y2="50.376"><stop offset="0" stop-color="#008cff"/><stop offset="1" stop-color="#1eff00"/></linearGradient><clipPath id="b"><path d="m0 0h52v52h-52z"/></clipPath><g clip-path="url(#b)"><path d="m26 .00000032c.3384-.00021323.6684.10520668.9439.30154968.2756.196343.483.473815.5933.7937l1.8623 5.40475h16.1005c.862 0 1.6886.34241 2.2981.9519.6095.6095.9519 1.43615.9519 2.2981v22.75c0 .862-.3424 1.6886-.9519 2.2981s-1.4361.9519-2.2981.9519h-6.0125l4.2997 12.4702c.1405.4078.1133.8546-.0756 1.2422-.189.3876-.5241.6844-.9318.8248-.4078.1405-.8546.1133-1.2422-.0756-.3876-.189-.6844-.5241-.8248-.9318l-4.6638-13.5298h-8.424v9.75c0 .431-.1712.8443-.476 1.149-.3047.3048-.718.476-1.149.476s-.8443-.1712-1.149-.476c-.3048-.3047-.476-.718-.476-1.149v-9.75h-8.424l-4.6637 13.5298c-.1405.4077-.4373.7428-.8249.9318-.3876.1889-.83445.2161-1.24215.0756-.4077-.1404-.7429-.4372-.93184-.8248s-.21616-.8344-.07566-1.2422l4.29975-12.4702h-6.0125c-.86195 0-1.6886-.3424-2.2981-.9519-.60949-.6095-.9519-1.4361-.9519-2.2981v-22.75c0-.86195.34241-1.6886.9519-2.2981.6095-.60949 1.43615-.9519 2.2981-.9519h16.1005l1.8622-5.40475c.1104-.319885.3178-.597357.5934-.7937.2755-.196343.6055-.30176291.9439-.30154968zm-19.5 9.74999968v22.75h39v-22.75z" fill="url(#a)"/></g></svg>