<?xml version="1.0" encoding="utf-8"?>
<!-- Generator: Adobe Illustrator 25.0.1, SVG Export Plug-In . SVG Version: 6.00 Build 0)  -->
<svg version="1.1" id="Group_15" xmlns="http://www.w3.org/2000/svg" xmlns:xlink="http://www.w3.org/1999/xlink" x="0px" y="0px"
	 viewBox="0 0 49.6 57" style="enable-background:new 0 0 49.6 57;" xml:space="preserve">
<style type="text/css">
	.st0{fill:#007FFF;}
</style>
<g id="Group_288" transform="translate(-11.649 -707.903)">
	<path id="Path_677" class="st0" d="M51,741.1c0.4,0.1,0.9-0.1,1-0.5c0,0,0,0,0,0c0.3-1.1,0.6-2.1,0.8-3.2c1.2-4.6,2.5-9.8,4.8-10.9
		c0.3-0.1,0.6-0.5,0.5-0.9v0c-0.1-0.5-0.5-0.8-0.9-0.7c-0.1,0-0.2,0-0.2,0.1c-3.1,1.3-4.4,6.5-5.8,12c-0.3,1.1-0.5,2.1-0.8,3.2
		C50.3,740.5,50.6,740.9,51,741.1z"/>
	<path id="Path_678" class="st0" d="M43.2,735.7c0-0.5-0.1-1-0.1-1.5c0-0.4-0.4-0.8-0.9-0.7c0,0,0,0,0,0h0c-0.4,0-0.8,0.4-0.7,0.9
		c0,0.5,0.1,1,0.1,1.5c0.5,6.3,1,11.5,3,13c0.4,0.3,0.9,0.2,1.1-0.2c0.1-0.1,0.2-0.3,0.2-0.5l0,0c0-0.3-0.1-0.5-0.3-0.7
		C44.2,746.6,43.6,740.3,43.2,735.7z"/>
	<path id="Path_679" class="st0" d="M59.7,732.7L59.7,732.7c-0.1-0.5-0.5-0.8-0.9-0.7c-0.1,0-0.2,0.1-0.3,0.1c-2.1,1.3-3,5.3-4,9.5
		c-0.9,3.7-1.9,8.4-3.7,8.4c-1,0-1.5-6.3-1.7-9.3c-0.6-7.5-1.2-15.2-5.5-15c-4.9,0.3-7,11.3-8.9,21.1c-0.8,4.1-1.5,7.7-2.2,9.3
		c-1.4,2.9-3.8,5.1-6.8,6.3h-8.5c2.2-1.7,4-3.9,5.2-6.5c1.1-2.2,2.1-6.8,3.2-12.1c2.2-10.5,5.3-24.8,10.5-25.1
		c0.5,0,1.9-0.1,3.2,2.8c0.2,0.4,0.6,0.6,1,0.5c0.4-0.2,0.7-0.7,0.5-1.1c0,0,0,0,0,0c-1.1-2.6-2.7-3.9-4.8-3.8
		c-6.5,0.3-9.5,14.2-12.1,26.4c-1.1,5.2-2.1,9.7-3.1,11.7c-2.2,4.5-5,6.2-6.4,6.9v-43.4c0-0.5-0.4-0.8-0.8-0.8c0,0,0,0,0,0l0,0
		c-0.5,0-0.8,0.4-0.8,0.8v0v44.6c0,0.5,0.4,0.8,0.8,0.8c0,0,0,0,0,0h43.9c0.5,0,0.8-0.4,0.8-0.8c0,0,0,0,0,0l0,0
		c0-0.5-0.4-0.8-0.8-0.8c0,0,0,0,0,0h-28c1.9-1.4,3.4-3.4,4.4-5.6c0.8-1.8,1.5-5.4,2.3-9.7c1.5-7.8,3.8-19.6,7.4-19.8
		c2.7-0.2,3.3,7.7,3.8,13.4c0.5,6.3,0.9,10.8,3.3,10.8c3.1,0,4.1-4.7,5.3-9.6c0.8-3.4,1.8-7.6,3.3-8.5
		C59.6,733.3,59.8,733,59.7,732.7z"/>
</g>
</svg>
