<svg fill="none" height="37" viewBox="0 0 37 37" width="37" xmlns="http://www.w3.org/2000/svg" xmlns:xlink="http://www.w3.org/1999/xlink"><clipPath id="a"><path d="m.631104.638672h36v36h-36z"/></clipPath><g clip-path="url(#a)"><path clip-rule="evenodd" d="m29.4986 8.68467c1.983 2.04003 2.8155 4.82403 3.165 8.72553.933 0 1.8.2025 2.388.981l1.095 1.446c.315.417.4845.915.4845 1.4325v3.93c0 .5085-.2595 1.0035-.6795 1.302-4.962 3.54-11.085 6.387-17.3205 6.387-6.9 0-13.8075-3.8745-17.3205-6.387-.419996-.3-.677996-.795-.679496-1.302v-3.93c0-.5175.1695-1.0185.481496-1.434l1.095-1.4445c.588-.7755 1.461-.981 2.3895-.981l.0435-.4455c.375-3.669 1.215-6.3195 3.123-8.28003 3.6915-3.81 8.565-4.2765 10.719-4.296h.297c2.154.0195 7.0275.4845 10.719 4.296zm-10.866 6.49203c-.426 0-.9195.024-1.443.075-.1845.6705-.4575 1.275-.855 1.662-1.575 1.5345-3.474 1.77-4.491 1.77-.957 0-1.959-.195-2.7765-.696-.774.2475-1.518.6045-1.566 1.494-.06307 1.4411-.09457 2.8835-.0945 4.326l-.003.72c-.003.8445-.0075 1.689-.0195 2.535.003.489.306.945.765 1.1475 3.723 1.653 7.245 2.4855 10.485 2.4855 3.234 0 6.756-.8325 10.4775-2.4855.2239-.0985.4149-.2591.5505-.4627s.21-.4418.2145-.6863c.045-2.523.009-5.058-.114-7.5795-.0465-.894-.792-1.245-1.569-1.494-.819.4995-1.818.696-2.775.696-1.0155 0-2.913-.2355-4.4895-1.77-.399-.387-.6705-.9915-.855-1.662-.48-.048-.9615-.0735-1.4415-.075zm-3.7875 6.0195c.8085 0 1.464.639 1.464 1.425v2.6295c0 .7875-.6555 1.425-1.464 1.425-.383.0048-.7523-.1426-1.0267-.4097-.2745-.2672-.4318-.6323-.4373-1.0153v-2.628c0-.7875.6555-1.4265 1.464-1.4265zm7.5 0c.8085 0 1.464.639 1.464 1.425v2.6295c0 .7875-.6555 1.425-1.464 1.425-.383.0048-.7523-.1426-1.0267-.4097-.2745-.2672-.4318-.6323-.4373-1.0153v-2.628c0-.7875.6555-1.4265 1.464-1.4265zm-10.2615-12.92703c-1.575.153-2.9025.657-3.5775 1.359-1.4625 1.55553-1.1475 5.50203-.315 6.33603.6075.591 1.755.9855 2.9925.9855h.135c.9735-.0195 2.6775-.264 4.095-1.665.6525-.615 1.0575-2.1495 1.0125-3.705-.045-1.251-.405-2.28003-.945-2.71953-.585-.504-1.9125-.723-3.3975-.591zm9.6975.591c-.54.438-.9 1.47003-.945 2.71953-.045 1.5555.36 3.09 1.0125 3.705 1.452 1.4355 3.204 1.656 4.164 1.665h.066c1.2375 0 2.385-.3945 2.9925-.9855.8325-.834 1.1475-4.7805-.315-6.33603-.675-.702-2.0025-1.206-3.5775-1.359-1.485-.132-2.8125.087-3.3975.591zm-3.15 3.20103c-.36 0-.7875.0225-1.26.066.045.24.0675.504.09.789l-.0015.2385c-.0017.1252-.0087.2503-.021.375.3375-.033.6375-.0405.918-.042h.549c.2805 0 .5805.009.918.042-.0225-.219-.0225-.4155-.0225-.6135.0225-.285.045-.5475.09-.789-.4188-.041-.8392-.0631-1.26-.066z" fill="#fff" fill-rule="evenodd"/></g></svg>