<svg height="57.483" viewBox="0 0 51.781 57.483" width="51.781" xmlns="http://www.w3.org/2000/svg"><g fill="#007fff"><path d="m1066.746 1083.187a.8.8 0 0 1 -.8-.8v-55.887a.8.8 0 1 1 1.592 0v55.889a.8.8 0 0 1 -.792.798z" transform="translate(-1065.949 -1025.704)"/><path d="m1083.54 1058.316a19.3 19.3 0 0 1 -3.905-.4l-11.634-2.4a.8.8 0 0 1 -.635-.777v-27.185a.8.8 0 0 1 .957-.781l11.631 2.4a17.692 17.692 0 0 0 7.224 0l7.768-2.4a19.423 19.423 0 0 1 7.976-.02l11.612 2.4a.793.793 0 0 1 .634.778v27.185a.791.791 0 0 1 -.954.778l-11.615-2.4a17.768 17.768 0 0 0 -7.26 0l-7.768 2.4a19.785 19.785 0 0 1 -4.031.422zm-14.582-4.231 11 2.271a17.692 17.692 0 0 0 7.224 0l7.768-2.4a19.376 19.376 0 0 1 7.976-.017l10.657 2.2v-25.56l-10.98-2.268a17.87 17.87 0 0 0 -7.26 0l-7.768 2.4a19.44 19.44 0 0 1 -7.937.02l-10.677-2.207z" transform="translate(-1063.388 -1024.531)"/></g></svg>