<svg fill="none" height="52" viewBox="0 0 52 52" width="52" xmlns="http://www.w3.org/2000/svg" xmlns:xlink="http://www.w3.org/1999/xlink"><linearGradient id="a" gradientUnits="userSpaceOnUse" x1="26" x2="26" y1="0" y2="48.75"><stop offset="0" stop-color="#008cff"/><stop offset="1" stop-color="#1eff00"/></linearGradient><path clip-rule="evenodd" d="m0 1.625c0-.43098.171205-.844302.475952-1.149048.304746-.304747.718068-.475952 1.149048-.475952h13c.431 0 .8443.171205 1.149.475952.3048.304746.476.718068.476 1.149048s-.1712.8443-.476 1.14905c-.3047.30475-.718.47595-1.149.47595h-13c-.43098 0-.844302-.1712-1.149048-.47595-.304747-.30475-.475952-.71807-.475952-1.14905zm0 6.5c0-.43098.171205-.8443.475952-1.14905.304746-.30474.718068-.47595 1.149048-.47595h22.75c.431 0 .8443.17121 1.149.47595.3048.30475.476.71807.476 1.14905s-.1712.8443-.476 1.14905c-.3047.30474-.718.47595-1.149.47595h-22.75c-.43098 0-.844302-.17121-1.149048-.47595-.304747-.30475-.475952-.71807-.475952-1.14905zm29.25 0c0-.43098.1712-.8443.476-1.14905.3047-.30474.718-.47595 1.149-.47595h16.25c.431 0 .8443.17121 1.149.47595.3048.30475.476.71807.476 1.14905s-.1712.8443-.476 1.14905c-.3047.30474-.718.47595-1.149.47595h-16.25c-.431 0-.8443-.17121-1.149-.47595-.3048-.30475-.476-.71807-.476-1.14905zm-29.25 6.5c0-.431.171205-.8443.475952-1.149.304746-.3048.718068-.476 1.149048-.476h9.75c.431 0 .8443.1712 1.149.476.3048.3047.476.718.476 1.149s-.1712.8443-.476 1.149c-.3047.3048-.718.476-1.149.476h-9.75c-.43098 0-.844302-.1712-1.149048-.476-.304747-.3047-.475952-.718-.475952-1.149zm16.25 0c0-.431.1712-.8443.476-1.149.3047-.3048.718-.476 1.149-.476h16.25c.431 0 .8443.1712 1.149.476.3048.3047.476.718.476 1.149s-.1712.8443-.476 1.149c-.3047.3048-.718.476-1.149.476h-16.25c-.431 0-.8443-.1712-1.149-.476-.3048-.3047-.476-.718-.476-1.149zm22.75 0c0-.431.1712-.8443.476-1.149.3047-.3048.718-.476 1.149-.476h9.75c.431 0 .8443.1712 1.149.476.3048.3047.476.718.476 1.149s-.1712.8443-.476 1.149c-.3047.3048-.718.476-1.149.476h-9.75c-.431 0-.8443-.1712-1.149-.476-.3048-.3047-.476-.718-.476-1.149zm-39 6.5c0-.431.171205-.8443.475952-1.149.304746-.3048.718068-.476 1.149048-.476h19.5c.431 0 .8443.1712 1.149.476.3048.3047.476.718.476 1.149s-.1712.8443-.476 1.149c-.3047.3048-.718.476-1.149.476h-19.5c-.43098 0-.844302-.1712-1.149048-.476-.304747-.3047-.475952-.718-.475952-1.149zm26 0c0-.431.1712-.8443.476-1.149.3047-.3048.718-.476 1.149-.476h16.25c.431 0 .8443.1712 1.149.476.3048.3047.476.718.476 1.149s-.1712.8443-.476 1.149c-.3047.3048-.718.476-1.149.476h-16.25c-.431 0-.8443-.1712-1.149-.476-.3048-.3047-.476-.718-.476-1.149zm-26 6.5c0-.431.171205-.8443.475952-1.149.304746-.3048.718068-.476 1.149048-.476h16.25c.431 0 .8443.1712 1.149.476.3048.3047.476.718.476 1.149s-.1712.8443-.476 1.149c-.3047.3048-.718.476-1.149.476h-16.25c-.43098 0-.844302-.1712-1.149048-.476-.304747-.3047-.475952-.718-.475952-1.149zm22.75 0c0-.431.1712-.8443.476-1.149.3047-.3048.718-.476 1.149-.476h22.75c.431 0 .8443.1712 1.149.476.3048.3047.476.718.476 1.149s-.1712.8443-.476 1.149c-.3047.3048-.718.476-1.149.476h-22.75c-.431 0-.8443-.1712-1.149-.476-.3048-.3047-.476-.718-.476-1.149zm-22.75 6.5c0-.431.171205-.8443.475952-1.149.304746-.3048.718068-.476 1.149048-.476h26c.431 0 .8443.1712 1.149.476.3048.3047.476.718.476 1.149s-.1712.8443-.476 1.149c-.3047.3048-.718.476-1.149.476h-26c-.43098 0-.844302-.1712-1.149048-.476-.304747-.3047-.475952-.718-.475952-1.149zm0 6.5c0-.431.171205-.8443.475952-1.149.304746-.3048.718068-.476 1.149048-.476h13c.431 0 .8443.1712 1.149.476.3048.3047.476.718.476 1.149s-.1712.8443-.476 1.149c-.3047.3048-.718.476-1.149.476h-13c-.43098 0-.844302-.1712-1.149048-.476-.304747-.3047-.475952-.718-.475952-1.149zm0 6.5c0-.431.171205-.8443.475952-1.149.304746-.3048.718068-.476 1.149048-.476h6.5c.43098 0 .8443.1712 1.14905.476.30474.3047.47595.718.47595 1.149s-.17121.8443-.47595 1.149c-.30475.3048-.71807.476-1.14905.476h-6.5c-.43098 0-.844302-.1712-1.149048-.476-.304747-.3047-.475952-.718-.475952-1.149z" fill="url(#a)" fill-rule="evenodd"/></svg>