<svg height="36" viewBox="0 0 36 36" width="36" xmlns="http://www.w3.org/2000/svg"><g transform="translate(-261 -253)"><g fill="none" stroke="#079fff" stroke-width="2"><circle cx="279" cy="271" r="16" stroke="none"/><circle cx="279" cy="271" fill="none" r="17"/></g><path d="m1.213-4.925c-.33.51-.12.9.51.9h.72a.919.919 0 0 0 .87-.51l3.387-5.16c.27-.42.51-.84.51-.84h.06s.24.45.51.84l3.39 5.16a.891.891 0 0 0 .87.51h.72c.6 0 .81-.39.48-.9l-4.71-6.959 4.29-6.329c.33-.51.12-.9-.48-.9h-.75a.919.919 0 0 0 -.87.51l-2.94 4.56c-.24.39-.51.87-.51.87h-.06s-.27-.48-.51-.87l-2.968-4.557a.851.851 0 0 0 -.84-.51h-.75c-.6 0-.81.39-.48.9l4.26 6.329z" fill="#fff" transform="translate(271.772 282.57)"/></g></svg>