<svg height="159" viewBox="0 0 500 159" width="500" xmlns="http://www.w3.org/2000/svg" xmlns:xlink="http://www.w3.org/1999/xlink"><clipPath id="a"><path d="m0 77.3h444.181v-143.55h-444.181z" transform="translate(0 66.25)"/></clipPath><clipPath id="b"><path d="m0 0h500v159h-500z"/></clipPath><g clip-path="url(#b)"><path d="m0 0h500v159h-500z" fill="#fff"/><g clip-path="url(#a)" transform="translate(27.908 8)"><g fill="#636363"><path d="m98.473-13.308c3.163 0 5.138-1.777 5.138-4.073 0-3.426-3.459-4.675-6.451-6.614-4.022-2.378-6.124-4.642-6.124-8.217 0-4.474 3.5-7.681 8.832-7.681a16.041 16.041 0 0 1 7.31 1.766l-.16 4.645c-2.714-1.476-4.932-2.3-6.776-2.3-2.754 0-4.317 1.357-4.317 3.331 0 2.665 3.348 3.971 6.08 5.739 4.445 2.635 6.741 5.173 6.741 9.206 0 5.057-3.784 8.672-10.029 8.672a18.258 18.258 0 0 1 -7.838-1.725l-.452-5.709c2.99 1.931 5.582 2.96 8.047 2.96" transform="translate(105.503 97.001)"/><path d="m85.178-13.308c3.166 0 5.135-1.777 5.135-4.073 0-3.426-3.456-4.675-6.449-6.614-4.025-2.378-6.118-4.642-6.118-8.217 0-4.474 3.488-7.681 8.824-7.681a16.071 16.071 0 0 1 7.315 1.766l-.16 4.645c-2.714-1.476-4.932-2.3-6.776-2.3-2.754 0-4.315 1.357-4.315 3.331 0 2.665 3.342 3.971 6.08 5.739 4.436 2.635 6.733 5.173 6.733 9.206 0 5.057-3.778 8.672-10.024 8.672a18.27 18.27 0 0 1 -7.841-1.725l-.452-5.709c3 1.931 5.585 2.96 8.047 2.96" transform="translate(89.992 97.001)"/><path d="m109.241-22.464c0 5.62 2.375 8.5 7.015 8.5 4.556 0 7.031-2.922 7.031-8.624v-16.849h5.187v16.922c0 8.507-4.615 13.109-12.193 13.109-7.816 0-12.218-5.135-12.218-13.025v-17.006h5.179v16.974" transform="translate(121.413 97.533)"/><path d="m135.371-30.808c0-4.542-4.935-4.48-9.119-4.48v9.019c3.266 0 9.119.328 9.119-4.539zm-14.132-8.629h6.739c3.708 0 6.576.238 9.081 2.01a7.641 7.641 0 0 1 3.407 6.2c0 3.822-2.259 6.7-6.365 8.1l9.4 12.765h-5.953l-8.838-12.069h-2.462v12.069h-5.013v-29.075" transform="translate(141.453 97.533)"/><path d="m183.549-10.363h-5.132v-24.637h-9.817v-4.439h24.72v4.439h-9.769v24.636" transform="translate(196.71 97.533)"/><path d="m69.714-21.388a51.625 51.625 0 0 1 4.875-10.27 52.408 52.408 0 0 1 4.9 10.27zm5.048-18.423a.325.325 0 0 0 -.217-.116.336.336 0 0 0 -.222.116c-7.215 10.728-9.951 16.532-14.317 30.02h5.194c.474-1.774 1.709-5.444 2.324-7.18h14.042c.618 1.736 1.85 5.406 2.321 7.18h5.2c-4.412-13.61-7.226-19.474-14.322-30.02" transform="translate(70.013 96.961)"/><path d="m144.333-21.388a52.065 52.065 0 0 1 4.872-10.27 52.433 52.433 0 0 1 4.9 10.27zm5.048-18.423a.335.335 0 0 0 -.219-.116.334.334 0 0 0 -.217.116c-7.223 10.728-9.953 16.532-14.319 30.02h5.192c.474-1.774 1.706-5.444 2.329-7.18h14.035c.62 1.736 1.855 5.406 2.329 7.18h5.189c-4.407-13.61-7.221-19.474-14.319-30.02" transform="translate(157.073 96.961)"/><path d="m157.534-27.855 19.073 19.065a.335.335 0 0 0 .246-.076.357.357 0 0 0 .079-.238v-29.75h-4.932v17.987l-19.07-19.07a.369.369 0 0 0 -.246.073.4.4 0 0 0 -.079.241v29.844h4.929z" transform="translate(178.05 96.949)"/></g><path d="m13.1-31.915c-.043.748-.06 1.5-.06 2.262a39.746 39.746 0 0 0 5.6 20.424 149.5 149.5 0 0 1 10.8-26.147 131.861 131.861 0 0 0 -16.34 3.461" fill="#a0a0a0" transform="translate(15.219 102.271)"/><path d="m16.28-33.838a152.823 152.823 0 0 1 21.646-2.955 142.668 142.668 0 0 1 11.318-13.858c-.165-.179-.328-.355-.5-.534a39.939 39.939 0 0 0 -32.464 17.347" fill="#a0a0a0" transform="translate(18.994 83.827)"/><path d="m53.416-48.168a149.075 149.075 0 0 1 -15.49 37.152q-3.087 5.35-6.432 10.265 3.323 4.891 6.831 9.3 4.928-.2 9.664-.68 3.1-4.615 5.983-9.618a158.584 158.584 0 0 0 13.6-30.221 40.122 40.122 0 0 0 -14.157-16.2" fill="#636363" transform="translate(36.745 87.347)"/><path d="m53.683-44.647a39.774 39.774 0 0 0 -21.922-6.538h-.5a149.491 149.491 0 0 1 17.239 22.42 133.086 133.086 0 0 0 5.178-15.882" fill="#a0a0a0" transform="translate(36.478 83.827)"/><path d="m52.595-40.693a151.749 151.749 0 0 1 -8.263 20.229 144.688 144.688 0 0 1 6.348 16.736c.236-.054.474-.114.712-.168a39.806 39.806 0 0 0 5.1-19.555 39.813 39.813 0 0 0 -3.9-17.242" fill="#a0a0a0" transform="translate(51.723 96.069)"/><path d="m40.038-25.258q-3.088-5.35-5.669-10.7-5.9.435-11.47 1.268c-1.53 2.909-2.947 5.82-4.241 8.71 1.63 3.321 3.413 6.66 5.336 9.991a158.919 158.919 0 0 0 19.36 26.878c1.029.079 2.072.119 3.117.119a39.753 39.753 0 0 0 18-4.274 148.88 148.88 0 0 1 -24.433-31.992" fill="#636363" transform="translate(21.768 101.589)"/><path d="m62.692-23.71a149.319 149.319 0 0 1 -28.046 3.721 131.822 131.822 0 0 0 11.172 12.427 40.142 40.142 0 0 0 16.874-16.148" fill="#a0a0a0" transform="translate(40.423 115.883)"/><path d="m33.511-20.759a144.147 144.147 0 0 1 -17.67-2.874c-.07.236-.144.469-.211.7a39.974 39.974 0 0 0 31.255 19.433 152.045 152.045 0 0 1 -13.374-17.259" fill="#a0a0a0" transform="translate(18.236 115.973)"/><path d="m52.988-44.714a159.034 159.034 0 0 0 -32.964 3.326 39.811 39.811 0 0 0 -6.953 20.367 148.819 148.819 0 0 1 39.917-5.168q6.179 0 12.1.439c1.714-3.545 3.264-7.077 4.64-10.566q-2.637-4.164-5.422-8.028c-3.692-.246-7.475-.371-11.321-.371" fill="#636363" transform="translate(15.251 91.377)"/><path d="m189.02-36.385v2.385a6.393 6.393 0 0 0 .672.019 2.387 2.387 0 0 0 1.335-.257 1.142 1.142 0 0 0 .341-.97c0-.791-.512-1.186-1.541-1.186h-.4l-.4.008zm2.847 6.278-1.815-3.069h-1.032v3.069h-1.026v-7.153h1.834c1.723 0 2.578.658 2.578 1.983a1.981 1.981 0 0 1 -1.381 1.942l1.953 3.228h-1.11zm3.047-3.5a4.674 4.674 0 0 0 -1.419-3.434 4.674 4.674 0 0 0 -3.432-1.419 4.7 4.7 0 0 0 -3.437 1.419 4.679 4.679 0 0 0 -1.425 3.434 4.683 4.683 0 0 0 1.425 3.434 4.683 4.683 0 0 0 3.437 1.425 4.658 4.658 0 0 0 3.432-1.425 4.678 4.678 0 0 0 1.419-3.438zm-10.655 0a5.577 5.577 0 0 1 1.7-4.1 5.6 5.6 0 0 1 4.1-1.7 5.577 5.577 0 0 1 4.1 1.7 5.591 5.591 0 0 1 1.7 4.1 5.6 5.6 0 0 1 -1.7 4.1 5.579 5.579 0 0 1 -4.1 1.7 5.6 5.6 0 0 1 -4.1-1.7 5.586 5.586 0 0 1 -1.7-4.1" fill="#706d6e" transform="translate(214.981 97.568)"/></g></g></svg>