<svg fill="none" height="36" viewBox="0 0 36 36" width="36" xmlns="http://www.w3.org/2000/svg"><path d="m3.375 22.4992c0 1.7902.71116 3.5071 1.97703 4.7729 1.26587 1.2659 2.98276 1.9771 4.77297 1.9771h16.875c1.3167.0014 2.5922-.4592 3.6043-1.3015s1.6966-2.013 1.9344-3.3081c.2377-1.2951.0135-2.6325-.6335-3.7793-.647-1.1469-1.6758-2.0304-2.9072-2.4966.2783-.7917.3298-1.6454.1485-2.4648-.1813-.8193-.588-1.5716-1.1743-2.172-.5863-.6003-1.3288-1.0248-2.1437-1.2254-.8148-.2006-1.6695-.1694-2.4675.0902-.5161-1.98-1.7827-3.68135-3.5314-4.74378-1.7487-1.06242-3.8422-1.40251-5.8373-.94824s-3.735 1.66722-4.85132 3.38202c-1.11634 1.7148-1.52143 3.7967-1.12948 5.805-1.34913.4452-2.52346 1.3047-3.35589 2.4559-.83243 1.1513-1.28056 2.5358-1.28061 3.9566z" stroke="#fff" stroke-linecap="round" stroke-linejoin="round" stroke-width="1.5"/></svg>