<svg height="47.219" viewBox="0 0 65.364 47.219" width="65.364" xmlns="http://www.w3.org/2000/svg"><g fill="#007fff" transform="translate(-140.631 -799.938)"><path d="m153.978 827.235c0 .025-13.177 18.491-13.177 18.491a.9.9 0 0 0 .207 1.262.919.919 0 0 0 .526.169.894.894 0 0 0 .733-.379l13.346-18.638h19.9l1.587 18.192a.9.9 0 0 0 1.8-.156l-3.954-45.412a.9.9 0 0 0 -1.634-.446l-18.644 26.042zm2.925-.9 16.452-22.98 2 22.98z"/><path d="m173.581 806.2a.9.9 0 0 0 -.972.344l-18.309 25.569a.9.9 0 0 0 .21 1.258.887.887 0 0 0 .523.169.9.9 0 0 0 .736-.376l7.395-10.332h10.644l.86 9.886a.891.891 0 0 0 .978.819.9.9 0 0 0 .822-.978l-2.23-25.571a.894.894 0 0 0 -.657-.788zm-9.121 14.831 8.194-11.45 1 11.45z" transform="translate(29.521 13.613)"/></g></svg>