<svg fill="none" height="31" viewBox="0 0 182 31" width="182" xmlns="http://www.w3.org/2000/svg"><g fill="#ffb800"><path d="m14.447 3.24066c.3315-1.02002 1.7745-1.02002 2.106 0l2.1784 6.70456c.1482.45618.5733.76498 1.053.76498h7.0495c1.0726 0 1.5185 1.3725.6508 2.0029l-5.7032 4.1436c-.3881.2819-.5504.7817-.4022 1.2378l2.1784 6.7046c.3314 1.02-.836 1.8682-1.7037 1.2378l-5.7032-4.1436c-.3881-.2819-.9135-.2819-1.3016 0l-5.7032 4.1436c-.86768.6304-2.03514-.2178-1.70372-1.2378l2.17845-6.7046c.14821-.4561-.01416-.9559-.4022-1.2378l-5.70323-4.1436c-.86769-.6304-.42176-2.0029.65076-2.0029h7.04954c.4797 0 .9048-.3088 1.053-.76498z"/><path d="m52.0899 3.24066c.3314-1.02002 1.7745-1.02002 2.1059 0l2.1784 6.70456c.1482.45618.5733.76498 1.053.76498h7.0496c1.0725 0 1.5184 1.3725.6507 2.0029l-5.7032 4.1436c-.3881.2819-.5504.7817-.4022 1.2378l2.1784 6.7046c.3315 1.02-.836 1.8682-1.7037 1.2378l-5.7032-4.1436c-.3881-.2819-.9135-.2819-1.3015 0l-5.7033 4.1436c-.8677.6304-2.0351-.2178-1.7037-1.2378l2.1784-6.7046c.1483-.4561-.0141-.9559-.4021-1.2378l-5.7033-4.1436c-.8677-.6304-.4217-2.0029.6508-2.0029h7.0496c.4796 0 .9047-.3088 1.0529-.76498z"/><path d="m89.7327 3.24066c.3314-1.02002 1.7745-1.02002 2.1059 0l2.1784 6.70456c.1483.45618.5734.76498 1.053.76498h7.05c1.072 0 1.518 1.3725.65 2.0029l-5.7029 4.1436c-.388.2819-.5504.7817-.4022 1.2378l2.1785 6.7046c.3314 1.02-.8361 1.8682-1.7038 1.2378l-5.7032-4.1436c-.388-.2819-.9135-.2819-1.3015 0l-5.7033 4.1436c-.8676.6304-2.0351-.2178-1.7037-1.2378l2.1785-6.7046c.1482-.4561-.0142-.9559-.4022-1.2378l-5.7033-4.1436c-.8676-.6304-.4217-2.0029.6508-2.0029h7.0496c.4796 0 .9047-.3088 1.0529-.76498z"/><path d="m127.376 3.24066c.331-1.02002 1.774-1.02002 2.105 0l2.179 6.70456c.148.45618.573.76498 1.053.76498h7.049c1.073 0 1.519 1.3725.651 2.0029l-5.703 4.1436c-.388.2819-.55.7817-.402 1.2378l2.178 6.7046c.332 1.02-.836 1.8682-1.704 1.2378l-5.703-4.1436c-.388-.2819-.913-.2819-1.301 0l-5.704 4.1436c-.867.6304-2.035-.2178-1.703-1.2378l2.178-6.7046c.148-.4561-.014-.9559-.402-1.2378l-5.703-4.1436c-.868-.6304-.422-2.0029.651-2.0029h7.049c.48 0 .905-.3088 1.053-.76498z"/><path d="m165.019 3.24066c.331-1.02002 1.774-1.02002 2.105 0l2.179 6.70456c.148.45618.573.76498 1.053.76498h7.049c1.073 0 1.519 1.3725.651 2.0029l-5.703 4.1436c-.388.2819-.55.7817-.402 1.2378l2.178 6.7046c.332 1.02-.836 1.8682-1.703 1.2378l-5.704-4.1436c-.388-.2819-.913-.2819-1.301 0l-5.703 4.1436c-.868.6304-2.036-.2178-1.704-1.2378l2.178-6.7046c.148-.4561-.014-.9559-.402-1.2378l-5.703-4.1436c-.868-.6304-.422-2.0029.651-2.0029h7.049c.48 0 .905-.3088 1.053-.76498z"/></g></svg>