<svg height="37.131" viewBox="0 0 34.775 37.131" width="34.775" xmlns="http://www.w3.org/2000/svg"><g fill="#007fff"><path d="m2783.676 284a.471.471 0 0 1 -.413-.244l-3.064-5.534a.473.473 0 0 1 .321-.692l6.2-1.24a.472.472 0 1 1 .185.926l-5.569 1.113 2.751 4.969a.472.472 0 0 1 -.413.7z" transform="translate(-2760.238 -276.277)"/><path d="m2737.489 389.988a.472.472 0 0 1 -.092-.935l5.57-1.113-2.751-4.969a.472.472 0 1 1 .826-.457l3.064 5.534a.473.473 0 0 1 -.321.692l-6.2 1.24a.487.487 0 0 1 -.096.008z" transform="translate(-2729.082 -352.858)"/><path d="m2722.815 315.706a.475.475 0 0 1 -.083-.007 17.389 17.389 0 0 1 0-34.233.472.472 0 1 1 .166.93 16.446 16.446 0 0 0 0 32.374.472.472 0 0 1 -.083.937z" transform="translate(-2708.422 -280.021)"/><path d="m2780.61 315.691a.472.472 0 0 1 -.083-.937 16.446 16.446 0 0 0 0-32.374.472.472 0 1 1 .166-.93 17.389 17.389 0 0 1 0 34.233.475.475 0 0 1 -.083.008z" transform="translate(-2760.237 -280.01)"/></g></svg>