<?xml version="1.0" encoding="utf-8"?>
<!-- Generator: Adobe Illustrator 25.4.1, SVG Export Plug-In . SVG Version: 6.00 Build 0)  -->
<svg version="1.1" id="Layer_1" xmlns="http://www.w3.org/2000/svg" xmlns:xlink="http://www.w3.org/1999/xlink" x="0px" y="0px"
	 viewBox="0 0 224.4 109.6" style="enable-background:new 0 0 224.4 109.6;" xml:space="preserve">
<style type="text/css">
	.st0{fill-rule:evenodd;clip-rule:evenodd;fill:#666666;}
	.st1{fill-rule:evenodd;clip-rule:evenodd;fill:#FFFFFE;}
	.st2{fill:#666666;}
	.st3{clip-path:url(#SVGID_00000111888141848569724720000007531294926963484087_);}
	.st4{fill:#808080;}
	.st5{fill-opacity:0.2;}
	.st6{fill-opacity:0.18;}
	.st7{fill:#999999;}
	.st8{fill:#B3B3B3;}
	.st9{fill:#C6C6C6;}
	.st10{fill:#CCCCCC;}
	.st11{fill-rule:evenodd;clip-rule:evenodd;fill:#CCCCCC;}
	.st12{fill:#5F6368;}
	.st13{fill:#5F6268;}
	.st14{fill:#E6E6E6;}
	.st15{fill:#4D4D4D;}
</style>
<path class="st12" d="M28.4,87.1c0,2.8-2.2,4.9-4.8,4.9s-4.8-2.1-4.8-4.9c0-2.8,2.2-4.9,4.8-4.9C26.3,82.2,28.4,84.3,28.4,87.1z
	 M26.3,87.1c0-1.7-1.3-2.9-2.7-2.9s-2.7,1.2-2.7,2.9c0,1.7,1.3,2.9,2.7,2.9C25.1,90,26.3,88.8,26.3,87.1z M38.9,87.1
	c0,2.8-2.2,4.9-4.8,4.9s-4.8-2.1-4.8-4.9c0-2.8,2.2-4.9,4.8-4.9C36.8,82.2,38.9,84.3,38.9,87.1z M36.8,87.1c0-1.7-1.3-2.9-2.7-2.9
	c-1.5,0-2.7,1.2-2.7,2.9c0,1.7,1.3,2.9,2.7,2.9C35.5,90,36.8,88.8,36.8,87.1z M49,82.5v8.7c0,3.6-2.1,5-4.6,5
	c-2.3,0-3.7-1.6-4.3-2.9l1.8-0.8c0.3,0.8,1.1,1.7,2.4,1.7c1.6,0,2.6-1,2.6-2.8v-0.7h-0.1c-0.5,0.6-1.4,1.1-2.5,1.1
	c-2.4,0-4.6-2.1-4.6-4.8c0-2.7,2.2-4.9,4.6-4.9c1.1,0,2.1,0.5,2.5,1.1H47v-0.8H49z M47.1,87.1c0-1.7-1.1-3-2.6-3
	c-1.5,0-2.7,1.2-2.7,3c0,1.7,1.2,2.9,2.7,2.9C46,90,47.1,88.8,47.1,87.1z M52.5,77.4v14.3h-2.1V77.4H52.5z M60.5,88.6l1.6,1.1
	c-0.5,0.8-1.8,2.2-4,2.2c-2.7,0-4.7-2.1-4.7-4.8c0-2.9,2-4.9,4.4-4.9c2.5,0,3.7,2,4.1,3.1l0.2,0.5l-6.4,2.7c0.5,1,1.3,1.5,2.3,1.5
	C59.2,90,60,89.5,60.5,88.6z M55.5,86.9l4.3-1.8c-0.2-0.6-1-1-1.8-1C56.9,84.1,55.4,85.1,55.5,86.9z M11.2,91.9
	c-4.1,0-7.6-3.4-7.6-7.5s3.4-7.5,7.6-7.5c2.3,0,3.9,0.9,5.1,2.1l-1.4,1.5c-0.9-0.8-2.1-1.5-3.7-1.5c-3,0-5.3,2.5-5.3,5.5
	c0,3,2.3,5.5,5.3,5.5c2,0,3.1-0.8,3.8-1.5c0.6-0.6,1-1.4,1.1-2.6h-4.9v-2.1H18c0.1,0.4,0.1,0.8,0.1,1.3c0,1.5-0.4,3.4-1.8,4.8
	C15.1,91.2,13.4,91.9,11.2,91.9L11.2,91.9z"/>
<path class="st13" d="M78.8,77.9c-1.6,2.7-3.1,5.5-4.7,8.2c-1.6-2.7-3.1-5.4-4.7-8.2c-0.6,0-1.2,0-1.8,0c-0.1,4.4,0,8.9,0,13.4h1.8
	c0-3.4,0-6.8-0.1-10.2c1.3,2.5,2.8,4.9,4.1,7.3h1.2c1.4-2.4,2.8-4.9,4.2-7.3c-0.1,3.4,0,6.8,0,10.2c0.6,0,1.2,0,1.8,0V77.9
	C80,77.9,79.4,77.9,78.8,77.9L78.8,77.9z M107.2,82.1c-0.7,0-1.5,0-2.2,0c-1.3,1.3-2.6,2.7-4,4c0-2.7,0-5.5,0-8.2
	c-0.6,0-1.2,0-1.8,0v13.4c0.6,0,1.2,0,1.8,0c0-0.9-0.1-1.9,0-2.8c0.3-0.5,0.9-1,1.3-1.4c1,1.4,1.9,2.8,2.9,4.2c0.7,0,1.5,0,2.2,0
	l-3.8-5.5C104.8,84.6,106.2,83.5,107.2,82.1L107.2,82.1z M124.9,77.9c-0.9,0.4-0.8,1.9,0.2,2.2c0.5,0.1,1.1,0.1,1.4-0.3
	c0.4-0.4,0.4-1.1,0.1-1.6C126.2,77.8,125.4,77.6,124.9,77.9L124.9,77.9z M158.6,77.9c-1.5,0-3.1,0-4.6,0v13.4c0.6,0,1.2,0,1.8,0
	c0-1.8,0-3.6,0-5.4c1.1,0,2.1,0,3.2,0c1.3-0.1,2.5-0.8,3.2-1.9c0.9-1.3,0.8-3.2-0.2-4.5C161.2,78.5,159.9,77.9,158.6,77.9z
	 M159,84.2c-1.1,0.1-2.2,0-3.2,0v-4.6c1.1,0,2.1-0.1,3.2,0c1,0.1,1.8,1,2,2C161.2,82.8,160.2,84.1,159,84.2L159,84.2z M164.2,78
	c-0.1,4.4,0,8.9,0,13.4h1.8V77.9C165.4,77.9,164.8,77.9,164.2,78L164.2,78z M186.3,82.1c0-0.7-0.1-1.6,0.4-2.2
	c0.6-0.6,1.3-0.5,2-0.4c0.2-0.5,0.4-1,0.6-1.5c-0.8-0.2-1.5-0.3-2.3-0.1c-1.1,0.2-2.1,1-2.3,2.1c-0.1,0.7-0.1,1.4-0.1,2.1h-4.2v-2.8
	c-0.6,0-1.2,0-1.8,0v2.8h-1.6c0,0.5,0,1.1,0,1.6c0.5,0,1.1,0.1,1.6,0.1c0,1.7,0,3.4,0,5.1c0,0.9,0.4,1.8,1.2,2.2
	c1,0.6,2.1,0.4,3.2,0.2c-0.2-0.5-0.4-1-0.6-1.5c-0.5,0.1-0.9,0.2-1.3,0c-0.4-0.2-0.6-0.6-0.6-1.1c0-1.6,0-3.2,0-4.9
	c1.4-0.1,2.8-0.1,4.2,0c0.1,2.5,0,5,0,7.5h1.7c0-2.1,0-4.1,0-6.2c0-0.5,0-1,0.1-1.4c0.8,0,1.6,0,2.4,0c0-0.5,0-1.1-0.1-1.6
	C187.8,82.1,187.1,82.1,186.3,82.1L186.3,82.1z M121,89.8c-0.2-0.5-0.5-0.9-0.4-1.5c0-1.5,0-3,0-4.5h2.2c0-0.5,0-1.1,0-1.6h-2.2
	c0-0.9,0-1.8,0-2.8h-1.8v2.8h-1.6c0,0.5,0,1.1,0,1.6c0.5,0,1.1,0,1.6,0.1c0,1.6,0,3.3,0,4.9c0,0.9,0.3,1.8,1.1,2.3
	c1,0.6,2.2,0.6,3.3,0.3c-0.2-0.5-0.4-1-0.6-1.5C122.1,89.9,121.6,89.9,121,89.8L121,89.8z M89.4,82.9c-0.7-0.6-1.6-1-2.5-1
	c-0.9,0-1.8,0-2.6,0.5c-0.7,0.4-1.2,1-1.7,1.7c0.5,0.3,1.1,0.5,1.6,0.7c0.3-0.3,0.6-0.7,0.9-1c1.1-0.6,2.5-0.4,3.3,0.6
	c0.4,0.4,0.3,0.9,0.4,1.4c-1.2-0.5-2.5-0.6-3.7-0.4c-0.9,0.2-1.9,0.7-2.4,1.6c-0.7,1.2-0.5,3,0.6,3.8c1,0.8,2.2,0.9,3.4,0.7
	c0.9-0.2,1.5-0.7,2-1.4c0,0.4,0,0.8,0,1.2h1.7v-5.6C90.5,84.7,90.2,83.6,89.4,82.9L89.4,82.9z M88,89.2c-0.9,0.9-2.5,1.1-3.5,0.3
	c-0.4-0.4-0.4-0.9-0.3-1.4c0.2-0.6,0.8-1,1.4-1.2c1.1-0.2,2.2-0.1,3.2,0.5C88.8,88.1,88.5,88.7,88,89.2z M116.5,87.1
	c0-1.2-0.1-2.3-0.7-3.3c-0.8-1.3-2.2-2-3.7-1.9c-2.1-0.1-3.8,1.5-4.4,3.5c-0.3,1.3-0.2,2.8,0.4,4c0.7,1.2,1.9,2.2,3.3,2.3
	c1.1,0.1,2.2,0.1,3.1-0.5c0.8-0.5,1.3-1.1,1.7-2c-0.5-0.2-1-0.4-1.5-0.6c-0.4,0.5-0.7,1.1-1.3,1.3c-1.1,0.4-2.4,0.3-3.2-0.6
	c-0.6-0.6-0.8-1.3-0.9-2.1H116.5L116.5,87.1z M109.4,85.6c0.2-0.5,0.5-1.1,0.9-1.5c1-1,3-0.9,3.9,0.3c0.3,0.4,0.4,0.8,0.5,1.2
	C112.9,85.6,111.1,85.6,109.4,85.6L109.4,85.6z M135.5,82.5c-0.9-0.7-2-0.7-3-0.6c-0.9,0.2-1.6,0.8-2.2,1.4c0-0.4,0-0.8,0.1-1.2
	c-0.6,0-1.2,0-1.7,0v9.2h1.8c0-1.7,0-3.5,0-5.2c0-1.1,0.6-2.1,1.6-2.6c0.8-0.2,1.9-0.1,2.4,0.5c0.5,0.6,0.6,1.5,0.6,2.2
	c0,1.7,0,3.3,0,5c0.6,0,1.2,0,1.8,0v-5.6C136.9,84.5,136.5,83.3,135.5,82.5L135.5,82.5z M147.3,82.1c-0.5,0-1.1,0-1.6,0
	c0,0.4,0,0.8,0,1.2c-0.5-0.6-1.1-1.1-1.8-1.3c-1.4-0.4-2.9-0.2-4,0.8c-1.6,1.4-2,3.6-1.5,5.6c0.4,1.4,1.6,2.7,3,3.1
	c1,0.2,2.1,0.2,3-0.3c0.5-0.3,0.9-0.7,1.3-1.1c0,0.9,0,1.7-0.4,2.5c-0.7,1.4-2.7,1.8-4,1c-0.5-0.3-0.8-0.8-1.2-1.3
	c-0.5,0.2-1.1,0.4-1.6,0.6c0.4,1.1,1.4,2.1,2.5,2.5c1.8,0.6,3.9,0.2,5.2-1.2c0.9-1,1.1-2.3,1.1-3.6C147.4,87.8,147.4,85,147.3,82.1
	L147.3,82.1z M144.7,89.3c-0.9,0.9-2.5,0.9-3.4,0.2c-1.9-1.3-1.8-4.8,0.4-5.8c1.4-0.7,3.2,0,3.8,1.5
	C145.9,86.5,145.8,88.3,144.7,89.3z M175.4,83.9c-0.5-1.1-1.7-1.8-2.8-2c-1.1-0.1-2.2-0.1-3.2,0.5c-0.7,0.4-1.1,1-1.6,1.7
	c0.5,0.3,1.1,0.5,1.6,0.7c0.4-0.5,0.7-0.9,1.2-1.1c1-0.4,2.1-0.2,2.8,0.6c0.5,0.5,0.5,1,0.6,1.6c-1.2-0.5-2.5-0.6-3.8-0.4
	c-1,0.2-2.1,0.8-2.5,1.8c-0.3,0.6-0.3,1.2-0.2,1.8c0.1,0.9,0.7,1.7,1.5,2.1c0.8,0.5,2,0.5,2.9,0.4c0.9-0.2,1.5-0.7,2.1-1.4v1.2
	c0.6,0,1.2,0,1.7,0c0-1.7,0-3.3,0-5C175.8,85.5,175.7,84.7,175.4,83.9L175.4,83.9z M173,89.4c-0.9,0.8-2.7,1-3.4-0.1
	c-0.6-0.8,0-1.8,0.8-2.2c1.2-0.5,2.6-0.3,3.7,0.2C174,88.2,173.7,88.9,173,89.4z M196.8,82.9c-1.2-1.1-2.8-1.2-4.3-0.9
	c-1.3,0.3-2.4,1.3-3,2.5c-0.5,1-0.5,2-0.4,3.1c0.2,1.8,1.5,3.4,3.2,3.9c0.7,0.2,1.5,0.2,2.2,0.1c1.6-0.1,3.1-1.4,3.7-2.9
	C198.9,86.7,198.5,84.2,196.8,82.9L196.8,82.9z M194.2,90c-1.7,0.2-3.2-1.1-3.3-2.7c-0.2-1.6,0.6-3.3,2.2-3.7
	c1.6-0.4,3.3,0.8,3.6,2.4C197.1,87.7,196.1,89.8,194.2,90L194.2,90z M203.2,82.2c-0.7,0.3-1.2,0.8-1.6,1.4c0-0.5,0-1,0-1.4
	c-0.5,0-1.1,0-1.6,0c0,3.1,0,6.1,0,9.2h1.8c0-1.7,0-3.5,0-5.2c0-1,0.6-1.8,1.4-2.2c0.6-0.3,1.3-0.2,1.9-0.1c0.2-0.5,0.4-1.1,0.6-1.6
	C204.8,81.9,204,81.8,203.2,82.2L203.2,82.2z M220.2,83.3c-0.4-0.7-1.2-1.3-2-1.4c-0.8-0.1-1.7-0.1-2.4,0.3
	c-0.6,0.3-1.1,0.8-1.5,1.3c-0.6-0.9-1.3-1.5-2.3-1.6c-1.4-0.2-2.7,0.4-3.4,1.6c0-0.4,0-0.9,0-1.3c-0.5,0-1.1,0-1.6,0
	c-0.1,1-0.1,2-0.1,3v6.2h1.8c0-1.7,0-3.3,0-5c0-1.1,0.6-2.3,1.6-2.7c0.8-0.3,1.9-0.1,2.4,0.7c0.3,0.7,0.4,1.5,0.4,2.3v4.8h1.7
	c0-1.6,0-3.2,0-4.8c0-1.1,0.4-2.1,1.2-2.7c1-0.7,2.7-0.4,3,1c0.4,2.1,0.1,4.4,0.2,6.5c0.6,0,1.2,0,1.7,0v-5.2
	C220.7,85.2,220.6,84.1,220.2,83.3L220.2,83.3z M95.6,82.1c-0.7,0.3-1.2,0.7-1.6,1.4l-0.1-1.4c-0.5,0-1.1,0-1.6,0
	c-0.1,3.1,0,6.1,0,9.2h1.8c0-1.7,0-3.5,0-5.2c0-0.9,0.6-1.8,1.4-2.2c0.6-0.3,1.3-0.2,1.9-0.2c0.2-0.5,0.4-1.1,0.6-1.6
	C97.2,81.9,96.4,81.8,95.6,82.1L95.6,82.1z M124.7,82.1c0,3.1,0,6.1,0,9.2h1.7c0-3.1,0-6.1,0-9.2C125.8,82.1,125.2,82.1,124.7,82.1z
	"/>
<path class="st8" d="M121.2,31.9c4.9,4.9,4.9,13,0,18c-2.5,2.5-2.5,6.5,0,9c2.5,2.5,6.5,2.5,9,0c9.9-9.9,9.9-26,0-35.9
	C130.1,22.9,121.2,31.9,121.2,31.9z"/>
<path class="st4" d="M94.2,22.9c-9.9,9.9-9.9,26,0,35.9l9-9c-4.9-4.9-4.9-13,0-18c4.9-4.9,13-4.9,18,0c2.5,2.5,6.5,2.5,9,0
	c2.5-2.5,2.5-6.5,0-9C120.2,13,104.1,13,94.2,22.9z"/>
<path class="st14" d="M130.1,58.8l-9-9c-4.9,4.9-13,4.9-18,0l-9,9C104.1,68.7,120.2,68.7,130.1,58.8L130.1,58.8z"/>
<circle class="st4" cx="125.7" cy="54.3" r="6.3"/>
<circle class="st15" cx="98.7" cy="54.3" r="6.3"/>
</svg>
