<svg height="50.5" viewBox="0 0 485 50.5" width="485" xmlns="http://www.w3.org/2000/svg"><path d="m68.88 24.42a9.88 9.88 0 0 0 3.177 1.089 16.623 16.623 0 0 0 4.267.454 13.086 13.086 0 0 0 3.9-.545 10.925 10.925 0 0 0 3.087-1.543 6.617 6.617 0 0 0 2-2.451 7.524 7.524 0 0 0 .726-3.268 6.685 6.685 0 0 0 -1.271-3.9 8.413 8.413 0 0 0 -4.266-2.636l-3.9-1.271a8.015 8.015 0 0 1 -3.09-1.543 2.669 2.669 0 0 1 -.817-2 2.682 2.682 0 0 1 1.271-2.451 7.075 7.075 0 0 1 3.722-.817 12.837 12.837 0 0 1 5.356 1.092 3.764 3.764 0 0 0 1.089.363c.454 0 .635-.272.635-.908v-1.085a1.355 1.355 0 0 0 -.272-.908 2.143 2.143 0 0 0 -.817-.726 3.56 3.56 0 0 0 -1.177-.458c-.454-.182-1-.272-1.543-.454a10.891 10.891 0 0 0 -1.819-.272 6.8 6.8 0 0 0 -1.906-.182 13.782 13.782 0 0 0 -3.45.454 9.684 9.684 0 0 0 -2.9 1.452 8 8 0 0 0 -2 2.27 5.761 5.761 0 0 0 -.726 3.087 6.445 6.445 0 0 0 1.362 3.994 8.061 8.061 0 0 0 4.448 2.814l3.994 1.271a7.238 7.238 0 0 1 2.814 1.452 2.526 2.526 0 0 1 .726 1.906 2.96 2.96 0 0 1 -1.452 2.633 7.37 7.37 0 0 1 -4.085.908 13.365 13.365 0 0 1 -3.268-.363 12.274 12.274 0 0 1 -3.087-1 6.255 6.255 0 0 1 -.726-.272 1.151 1.151 0 0 0 -.545-.091c-.454 0-.635.272-.635.908v1.362a2.651 2.651 0 0 0 .182.817 3.024 3.024 0 0 0 .996.818z" fill="#fff" transform="translate(-6.302)"/><path d="m16.055 10.984a16.109 16.109 0 0 0 -2.9-.182 10.216 10.216 0 0 0 -6.809 2.179 7.077 7.077 0 0 0 -2.546 5.719 7.121 7.121 0 0 0 2 5.356 7.411 7.411 0 0 0 5.538 2 10.321 10.321 0 0 0 8.17-3.813 13.656 13.656 0 0 0 .817 1.634 6.855 6.855 0 0 0 1 1.271 1.109 1.109 0 0 0 .817.363 1.449 1.449 0 0 0 .726-.272l1.725-1.18a1.1 1.1 0 0 0 .545-.817 2.309 2.309 0 0 0 -.182-.635 12.548 12.548 0 0 1 -.908-2 9.135 9.135 0 0 1 -.272-2.451v-9.078c0-3-.726-5.265-2.27-6.809s-3.906-2.269-7.266-2.269a16.853 16.853 0 0 0 -4.358.545 17.055 17.055 0 0 0 -3.45 1.271 1.659 1.659 0 0 0 -.726.545c-.182.182-.182.545-.182 1v1.36c0 .545.182.908.545.908a.987.987 0 0 0 .454-.091c.182-.091.545-.182 1-.363a18.827 18.827 0 0 1 3-.908 11.277 11.277 0 0 1 3-.363c2.179 0 3.631.454 4.539 1.271s1.271 2.36 1.271 4.448v2c-1.19-.275-2.188-.457-3.278-.639zm3.177 4.9a8.879 8.879 0 0 1 -.272 2.36 3.95 3.95 0 0 1 -.908 1.725 5.571 5.571 0 0 1 -2.632 1.731 8.61 8.61 0 0 1 -2.9.545 4.013 4.013 0 0 1 -2.9-1 4.013 4.013 0 0 1 -1-2.9 3.868 3.868 0 0 1 1.353-3.185 6.453 6.453 0 0 1 4.085-1.089c.817 0 1.725.091 2.633.182a21.11 21.11 0 0 1 2.542.454z" fill="#fff" transform="translate(-.411)"/><path d="m35.518 24.04a2.956 2.956 0 0 0 .545 1.089 1.577 1.577 0 0 0 1.089.272h2.36a1.577 1.577 0 0 0 1.089-.272 2.956 2.956 0 0 0 .545-1.089l4.267-17.884 4.357 17.884a1.552 1.552 0 0 0 .545 1.089 1.745 1.745 0 0 0 1.085.271h2.36a1.936 1.936 0 0 0 1.089-.272 2.016 2.016 0 0 0 .551-1.088l6.716-21.424a3.7 3.7 0 0 0 .184-.636c0-.182.091-.272.091-.454 0-.454-.182-.635-.635-.635h-2.545a1.577 1.577 0 0 0 -1.089.272 2.956 2.956 0 0 0 -.545 1.089l-4.811 18.61-4.448-18.7a1.552 1.552 0 0 0 -.545-1.089 1.745 1.745 0 0 0 -1.089-.273h-2.27a1.577 1.577 0 0 0 -1.089.272 2.956 2.956 0 0 0 -.545 1.089l-4.357 18.339-4.63-18.338a2.956 2.956 0 0 0 -.545-1.089 1.577 1.577 0 0 0 -1.089-.273h-2.724c-.454 0-.635.182-.635.635a4.457 4.457 0 0 0 .272 1.089z" fill="#fff" transform="translate(-2.716 -.074)"/><path d="m73.992 40.72a81.39 81.39 0 0 1 -31.41 6.445 82.13 82.13 0 0 1 -41.214-10.984c-1-.635-1.816.454-.908 1.271a61.131 61.131 0 0 0 41.214 15.705c11.348 0 24.6-3.54 33.77-10.349 1.363-1.09.092-2.724-1.452-2.088z" fill="#f90" transform="translate(-.067 -3.318)"/><path d="m75.146 36.745c-.817.545-.635 1.362.182 1.271 2.9-.363 9.532-1.18 10.621.363 1.18 1.452-1.271 7.626-2.36 10.44-.363.817.363 1.18 1.18.545 4.9-4.085 6.173-12.709 5.174-13.889-.998-1.362-9.622-2.361-14.797 1.27z" fill="#f90" transform="translate(-6.94 -3.156)"/><g fill="#fff"><path d="m115.563 19.977a.333.333 0 0 1 -.363-.363v-14.979a.333.333 0 0 1 .363-.363h.454c.272 0 .363.091.363.363l.091.908a7.679 7.679 0 0 1 2-1.18 4.885 4.885 0 0 1 2-.363 4.1 4.1 0 0 1 3.359 1.543 6.544 6.544 0 0 1 1.27 4.176 7.1 7.1 0 0 1 -1.271 4.357 4.271 4.271 0 0 1 -3.54 1.634 5.633 5.633 0 0 1 -3.722-1.543v5.447a.333.333 0 0 1 -.363.363zm4.539-5.447a3.215 3.215 0 0 0 2.723-1.18 5.677 5.677 0 0 0 .908-3.54q0-4.63-3.54-4.63a5.647 5.647 0 0 0 -3.631 1.452v6.445a8.368 8.368 0 0 0 1.725 1.18 10.892 10.892 0 0 0 1.813.274z" transform="translate(-10.682 -.369)"/><path d="m131.659 15.611a3.286 3.286 0 0 1 -2.451-.908 2.953 2.953 0 0 1 -.908-2.36 3.167 3.167 0 0 1 1.089-2.543 4.381 4.381 0 0 1 3-.908 10.615 10.615 0 0 1 3.177.545v-1.815a2.307 2.307 0 0 0 -.635-1.906 3.2 3.2 0 0 0 -2.088-.545 10.164 10.164 0 0 0 -3.177.545c-.091 0-.272.091-.363.091-.182 0-.182-.091-.182-.272v-.455a.333.333 0 0 1 .091-.272l.182-.182a10.068 10.068 0 0 1 3.722-.726 4.435 4.435 0 0 1 2.9.817 3.03 3.03 0 0 1 .908 2.451v7.807a.333.333 0 0 1 -.363.363h-.454a.333.333 0 0 1 -.363-.363l-.091-.908a6.008 6.008 0 0 1 -3.994 1.544zm.182-1.089a4.617 4.617 0 0 0 1.816-.363 13.628 13.628 0 0 0 2-1v-2.723a10.622 10.622 0 0 0 -2.9-.363c-2.088 0-3.087.817-3.087 2.36a2.135 2.135 0 0 0 .545 1.543 2.219 2.219 0 0 0 1.625.545z" transform="translate(-11.89 -.36)"/><path d="m141.863 15.466a.333.333 0 0 1 -.363-.363v-10.44a.333.333 0 0 1 .363-.363h.454c.272 0 .363.091.363.363l.091 1.271a4.015 4.015 0 0 1 1.629-1.271 4.064 4.064 0 0 1 1.816-.363h.545a.333.333 0 0 1 .363.363v.545c0 .091 0 .091-.091.182 0 .091-.091.091-.182.091h-.817a4.064 4.064 0 0 0 -1.816.363 5.833 5.833 0 0 0 -1.543 1.18v8.076a.333.333 0 0 1 -.363.363h-.454z" transform="translate(-13.107 -.397)"/><path d="m153.611 15.234a2.513 2.513 0 0 1 -2.723-2.723v-7.354h-1.725a.333.333 0 0 1 -.363-.363v-.181a.333.333 0 0 1 .091-.272c0-.091.091-.091.272-.091l1.816-.182.182-2.9c0-.091.091-.182.091-.272.091-.091.091-.091.272-.091h.363a.333.333 0 0 1 .363.363v2.9h3.177a.333.333 0 0 1 .363.363v.454a.333.333 0 0 1 -.363.363h-3.177v7.352a1.643 1.643 0 0 0 .363 1.271 1.775 1.775 0 0 0 1.271.363 3.741 3.741 0 0 0 1.089-.091c.182 0 .272-.091.363-.091h.182a.241.241 0 0 1 .272.272v.363a.419.419 0 0 1 -.272.454c-.545.002-1.18.093-1.907.093z" transform="translate(-13.78 -.074)"/><path d="m159.463 15.429a.333.333 0 0 1 -.363-.363v-10.44a.333.333 0 0 1 .363-.363h.454c.272 0 .363.091.363.363l.091.908a7.746 7.746 0 0 1 2.27-1.18 7.2 7.2 0 0 1 2.27-.454 3.329 3.329 0 0 1 2.451.817 3.42 3.42 0 0 1 .817 2.542v7.716a.333.333 0 0 1 -.363.363h-.635a.333.333 0 0 1 -.363-.363v-7.081a3.2 3.2 0 0 0 -.545-2.088 2.135 2.135 0 0 0 -1.725-.635 7.121 7.121 0 0 0 -4.267 1.452v8.533a.333.333 0 0 1 -.363.363h-.454z" transform="translate(-14.729 -.36)"/><path d="m177.565 15.711a4.818 4.818 0 0 1 -3.9-1.452 6.363 6.363 0 0 1 -1.365-4.449 6.175 6.175 0 0 1 1.362-4.267 4.854 4.854 0 0 1 3.722-1.543 3.846 3.846 0 0 1 3.087 1.18 4.439 4.439 0 0 1 1.089 3.268 6.011 6.011 0 0 1 -.091 1.362.39.39 0 0 1 -.363.363h-7.444a5.212 5.212 0 0 0 1 3.45 3.992 3.992 0 0 0 3.087 1.089 8 8 0 0 0 3-.545.9.9 0 0 1 .363-.091c.091 0 .091 0 .182.091 0 .091.091.091.091.182v.363a.419.419 0 0 1 -.272.454 15.166 15.166 0 0 1 -3.548.545zm2.723-6.627v-.727a3.489 3.489 0 0 0 -.726-2.357 3.021 3.021 0 0 0 -2.27-.817c-2.36 0-3.54 1.271-3.722 3.9z" transform="translate(-15.946 -.369)"/><path d="m185.763 15.466a.333.333 0 0 1 -.363-.363v-10.44a.333.333 0 0 1 .363-.363h.454c.272 0 .363.091.363.363l.091 1.271a4.015 4.015 0 0 1 1.629-1.271 4.064 4.064 0 0 1 1.816-.363h.545a.333.333 0 0 1 .363.363v.545c0 .091 0 .091-.091.182 0 .091-.091.091-.182.091h-.817a4.064 4.064 0 0 0 -1.816.363 5.833 5.833 0 0 0 -1.543 1.18v8.076a.333.333 0 0 1 -.363.363h-.454z" transform="translate(-17.154 -.397)"/><path d="m115.563 42.338a.333.333 0 0 1 -.363-.363v-10.349a.333.333 0 0 1 .363-.363h.454c.272 0 .363.091.363.363l.091.908a7.745 7.745 0 0 1 2.27-1.18 7.2 7.2 0 0 1 2.27-.454 3.329 3.329 0 0 1 2.451.817 3.42 3.42 0 0 1 .817 2.542v7.716a.333.333 0 0 1 -.363.363h-.635a.333.333 0 0 1 -.363-.363v-7.175a3.2 3.2 0 0 0 -.545-2.088 2.135 2.135 0 0 0 -1.725-.635 7.121 7.121 0 0 0 -4.267 1.452v8.533a.333.333 0 0 1 -.363.363h-.454z" transform="translate(-10.682 -2.849)"/><path d="m133.665 42.711a4.818 4.818 0 0 1 -3.9-1.452 6.363 6.363 0 0 1 -1.365-4.449 6.175 6.175 0 0 1 1.362-4.267 4.854 4.854 0 0 1 3.722-1.543 3.846 3.846 0 0 1 3.087 1.18 4.439 4.439 0 0 1 1.089 3.268 6.012 6.012 0 0 1 -.091 1.362.391.391 0 0 1 -.363.363h-7.444a5.212 5.212 0 0 0 1 3.45 3.992 3.992 0 0 0 3.087 1.089 8 8 0 0 0 3-.545.9.9 0 0 1 .363-.091c.091 0 .091 0 .182.091 0 .091.091.091.091.182v.363a.419.419 0 0 1 -.272.454 14.455 14.455 0 0 1 -3.548.545zm2.723-6.718v-.726a3.489 3.489 0 0 0 -.726-2.36 3.021 3.021 0 0 0 -2.27-.817c-2.36 0-3.54 1.271-3.722 3.9z" transform="translate(-11.899 -2.858)"/><path d="m144.911 42.225a2.513 2.513 0 0 1 -2.723-2.723v-7.445h-1.725a.333.333 0 0 1 -.363-.363v-.182a.334.334 0 0 1 .091-.272c0-.091.091-.091.272-.091l1.816-.182.182-2.9c0-.091.091-.182.091-.272.091-.091.091-.091.272-.091h.363a.333.333 0 0 1 .363.363v2.9h3.177a.333.333 0 0 1 .363.363v.454a.333.333 0 0 1 -.363.363h-3.177v7.353a1.643 1.643 0 0 0 .363 1.271 1.775 1.775 0 0 0 1.271.363 3.741 3.741 0 0 0 1.089-.091c.182 0 .272-.091.363-.091h.182a.241.241 0 0 1 .272.272v.363a.419.419 0 0 1 -.272.454 11.332 11.332 0 0 1 -1.907.184z" transform="translate(-12.978 -2.554)"/><path d="m152.894 42.366a.5.5 0 0 1 -.454-.272l-3.45-10.258a.686.686 0 0 1 -.091-.363c0-.091.091-.182.272-.182h.726c.182 0 .272.091.363.272l3 9.35 2.633-9.35a.419.419 0 0 1 .454-.272h.817a.5.5 0 0 1 .454.272l2.633 9.35 3.087-9.441c.091-.182.182-.272.363-.272h.635c.182 0 .272.091.272.182a.686.686 0 0 1 -.091.363l-3.634 10.255a.419.419 0 0 1 -.454.272h-.729a.5.5 0 0 1 -.454-.272l-2.633-9.35-2.629 9.35a.419.419 0 0 1 -.454.272h-.635z" transform="translate(-13.789 -2.877)"/><path d="m172.874 42.7a4.919 4.919 0 0 1 -3.813-1.543 6.267 6.267 0 0 1 -1.361-4.357 6.588 6.588 0 0 1 1.362-4.357 5.482 5.482 0 0 1 7.626 0 6.267 6.267 0 0 1 1.362 4.357 6.588 6.588 0 0 1 -1.362 4.357 4.919 4.919 0 0 1 -3.814 1.543zm0-1.18c2.542 0 3.813-1.543 3.813-4.721s-1.271-4.721-3.813-4.721-3.813 1.543-3.813 4.721 1.272 4.722 3.813 4.722z" transform="translate(-15.522 -2.849)"/><path d="m182.563 42.375a.333.333 0 0 1 -.363-.363v-10.349a.333.333 0 0 1 .363-.363h.454c.272 0 .363.091.363.363l.091 1.271a4.015 4.015 0 0 1 1.634-1.271 4.064 4.064 0 0 1 1.816-.363h.545a.333.333 0 0 1 .363.363v.545c0 .091 0 .091-.091.182s-.091.091-.182.091h-.817a4.064 4.064 0 0 0 -1.816.363 5.832 5.832 0 0 0 -1.543 1.18v8.076a.333.333 0 0 1 -.363.363h-.454z" transform="translate(-16.859 -2.886)"/><path d="m190.863 41.841a.333.333 0 0 1 -.363-.363v-15.615a.333.333 0 0 1 .363-.363h.635a.333.333 0 0 1 .363.363v9.8l5.265-4.721a.667.667 0 0 1 .545-.182h.817c.182 0 .272.091.272.182s-.091.182-.272.363l-5.356 4.721 5.81 5.356c.091.091.182.182.182.272 0 .182-.091.182-.272.182h-.908a.693.693 0 0 1 -.454-.182l-5.628-5.265v5.084a.333.333 0 0 1 -.363.363z" transform="translate(-17.624 -2.351)"/></g><path d="m202.5.5v50" fill="none" stroke="#fff"/><path d="m8.86 11.9v32.13h-8.86v-32.13z" fill="#999" transform="translate(223.141 -6.837)"/><path d="m83.069 60.519c0-5.08-.035-6.589-.069-7.7h8.41a23.094 23.094 0 0 1 .225 2.757 7.578 7.578 0 0 1 6.71-3.277c5.08 0 7.595 3.433 7.595 8.774v16.369h-8.6v-14.929c0-2.341-.52-3.728-2.67-3.728-1.977 0-3 1.058-3 4.491v14.183h-8.6z" fill="#999" transform="translate(154.533 -40.231)"/><path d="m237.717 34.193v-18.57h-3.017v-6.034h3.017v-1.489c0-5.323 2.6-8.1 8.236-8.1a13.29 13.29 0 0 1 3.485.4v5.755a8.748 8.748 0 0 0 -1.37-.121c-1.387 0-1.786.884-1.786 2.133v1.422h3.589v6.034h-3.589v18.57z" fill="#999" transform="translate(29.137 3)"/><path d="m358.651 64.8c0 6.953-3.381 13.143-12.588 13.143-9.242 0-12.363-6.364-12.363-13 0-5.427 2.9-12.64 12.675-12.64 9.415-.003 12.276 6.673 12.276 12.497zm-16.143.069c0 5.063 1.214 7.179 3.8 7.179 2.393 0 3.589-2.185 3.589-7.161 0-4.751-1.11-6.676-3.728-6.676-2.412.002-3.661 2.048-3.661 6.66z" fill="#999" transform="translate(-52.697 -40.231)"/><path d="m536.389 33.626c0-4.994.087-11.808.243-15.605h-.295c-1.214 6.953-3.468 17.669-5.566 26.009h-7.127c-1.613-7.959-3.815-18.935-4.924-26.009h-.312c.243 3.745.4 10.317.4 15.866v10.143h-7.908v-32.13h12.744c1.457 5.809 3.364 15.744 4.005 20.408h.156c.728-5.028 2.965-13.819 4.682-20.408h12.363v32.13h-8.479v-10.4z" fill="#1791ff" transform="translate(-199.172 -6.837)"/><path d="m760.5 70.368a60.2 60.2 0 0 0 .347 7.074h-7.491a14.292 14.292 0 0 1 -.433-2.6c-1.439 2.029-3.8 3.069-6.936 3.069-5.635 0-8.184-3.52-8.184-7.612 0-4.335 2.722-8.2 11.635-8.2h2.67v-1.754c0-1.734-.572-2.809-2.549-2.809-2.15 0-2.636 1.179-2.774 2.757h-8.085c.243-3.919 2.722-7.993 11.045-7.993 7.352 0 10.716 2.653 10.716 8.41v9.658zm-8.219-3.8h-2.15c-3.156 0-3.832 1.457-3.832 2.93a2.383 2.383 0 0 0 2.636 2.549c2.844 0 3.364-1.942 3.364-4.855v-.622z" fill="#1791ff" transform="translate(-386.729 -40.231)"/><path d="m918.836 74.46c0 7.855-3.173 12.346-12.4 12.346-8.7 0-11.063-4.491-11.34-8.219h8.34c.295 1.457 1.318 2.393 3.381 2.393 2.878 0 3.624-1.717 3.624-5.5v-1.644c-1.2 2.1-3.537 2.861-6.277 2.861-5.947 0-9.467-4.768-9.467-11.877 0-7.681 4.335-12.519 10-12.519 3.693 0 5.271 1.248 5.878 2.566a15.327 15.327 0 0 1 .26-2.046h8.1c-.052 1.248-.087 4.179-.087 7.733v13.906zm-15.345-9.883c0 3.884 1.162 6.086 3.555 6.086 2.757 0 3.555-1.855 3.555-6.1 0-4.161-.329-6.051-3.451-6.051-2.05-.005-3.659 1.504-3.659 6.064z" fill="#1791ff" transform="translate(-516.423 -40.231)"/><path d="m1065.469 60.519c0-5.08-.035-6.589-.069-7.7h8.41a23.07 23.07 0 0 1 .225 2.757 7.578 7.578 0 0 1 6.71-3.277c5.08 0 7.595 3.433 7.595 8.774v16.369h-8.618v-14.929c0-2.341-.52-3.728-2.67-3.728-1.977 0-3 1.058-3 4.491v14.183h-8.6v-16.94z" fill="#1791ff" transform="translate(-657.525 -40.231)"/><path d="m1250.832 72.31c0 3.971.035 6.294.069 7.595h-8.375a19.486 19.486 0 0 1 -.243-2.636c-1.578 2.323-3.589 3.121-6.676 3.121-5.115 0-7.508-3.138-7.508-8.548v-16.542h8.583v15.207c0 2.115.659 3.381 2.549 3.381 1.977 0 2.982-1.248 2.982-4.474v-14.114h8.6v17.01z" fill="#1791ff" transform="translate(-792.014 -42.711)"/><path d="m1390.989 69.557c.208 1.751 1.422 2.74 3.4 2.74 1.751 0 2.688-.624 2.688-1.838 0-1.283-1.249-1.734-4.3-2.566-7.352-1.838-8.947-4.231-8.947-7.855 0-3.8 2.722-7.837 10.248-7.837s10.282 3.815 10.525 7.733h-7.768a2.578 2.578 0 0 0 -2.93-2.428c-1.387 0-2.185.555-2.185 1.647 0 1.023.867 1.474 4.456 2.358 6.606 1.665 8.964 4.023 8.964 8.184 0 5.028-4.057 8.115-10.941 8.115-7.022 0-10.664-3.156-11.1-8.271h7.89z" fill="#1791ff" transform="translate(-920.138 -40.149)"/></svg>