<svg fill="none" height="81" viewBox="0 0 247 81" width="247" xmlns="http://www.w3.org/2000/svg"><g fill="#fff"><path d="m72.0721 50.6849c.3672.1412.339.932 0 1.0733-1.6099-.0707-3.0504-.113-4.5474-.113-1.7512 0-3.347 0-4.9852.113-.2966-.1413-.4378-.8615-.0706-1.0733l1.0027-.1978c1.4122-.2542 1.5958-.5084 1.5958-3.0504v-15.2098h-.0706c-1.0733 2.0477-1.6099 3.1634-2.3019 4.6462l-3.2058 6.5528c-1.2569 2.5986-3.1211 6.7364-3.7848 8.4735-.153.0699-.3191.106-.4873.106-.1681 0-.3343-.0361-.4872-.106-.6355-2.0195-2.2313-5.649-3.0787-7.5273l-3.3187-7.0612c-.7062-1.5676-1.7088-3.9119-2.1608-5.0275 0 1.8217-.1553 4.7168-.2259 6.2844 0 2.2737-.1412 5.5784-.1412 8.6288 0 2.4573 0 3.0222 1.6382 3.3188l1.2286.2259c.2542.2119.2542.9321 0 1.0733-1.4122-.0706-2.5279-.1129-3.9119-.1129s-2.5279 0-3.9825.1129c-.1431-.1364-.2331-.3192-.2538-.5158-.0207-.1967.0292-.3942.1408-.5575l.6355-.0847c1.7936-.2259 2.0478-.7767 2.3161-3.0504s.3672-4.7593.5508-8.6288c.1553-2.5279.3671-5.649.3671-7.8803 0-1.7512-.5507-2.4997-2.0053-2.7539l-1.2569-.226c-.226-.2683-.1978-.9744.1412-1.0874 1.1157.0848 2.1183.113 3.5023.113s2.5986 0 3.9826-.113c.2411 2.1493.8982 4.231 1.9347 6.1291l4.0814 8.5865c.2966.6355 1.271 2.4996 1.7512 3.347.5931-1.0733 1.0874-2.1184 1.9348-3.8696l3.5023-7.1318c1.2306-2.25 2.2381-4.615 3.0081-7.0612 1.0027.0848 2.2313.113 3.0504.113 1.5676 0 2.8245 0 3.9119-.113.0945.0516.1749.1253.2346.2148.0596.0896.0965.1923.1076.2992.0112.107-.0039.2151-.0438.315-.04.0999-.1036.1886-.1854.2584l-1.2286.1836c-1.6382.2542-2.0054.8615-2.0054 2.8245 0 5.5078 0 11.0155.3248 16.5232.113 2.4856.5225 2.7115 1.7229 2.8951z"/><path d="m81.2802 50.6849c2.5561 0 3.3046-3.0505 3.3046-5.9173 0-3.1352-1.0733-6.807-3.8272-6.807-1.9065 0-3.3893 1.9347-3.3893 6.0585 0 3.3894 1.2286 6.6658 3.9119 6.6658zm7.6967-6.5528c0 5.2817-3.7142 8.0356-8.1487 8.0356-4.4344 0-7.852-2.655-7.852-7.5837-.0273-1.0763.165-2.1468.5652-3.1462s.9999-1.9068 1.7625-2.6667c.7625-.76 1.672-1.3565 2.6728-1.7532 1.0008-.3968 2.072-.5854 3.1481-.5543 1.0296-.053 2.0589.1076 3.0234.4718.9644.3642 1.843.924 2.5806 1.6443.7375.7203 1.318 1.5855 1.7049 2.541.3869.9556.5718 1.9808.5432 3.0114z"/><path d="m96.292 47.2249c0 2.7538.1413 3.1916 1.4123 3.3752l.5508.0848c.2683.2542.2259.932 0 1.0733-1.2993-.0707-2.5703-.113-3.9402-.113s-2.4573 0-4.0249.113c-.2965-.1413-.3248-.8191 0-1.0733l.8191-.113c1.271-.1836 1.4123-.5932 1.4123-3.347v-5.4795c0-1.6665 0-2.1184-.9321-2.6692l-.4378-.2683c-.0628-.1324-.0954-.2771-.0954-.4237 0-.1465.0326-.2912.0954-.4236 1.6381-.5078 3.2189-1.1846 4.7169-2.0195.1-.0018.1984.0253.2835.0778.0852.0526.1534.1285.1966.2187-.0706.7062-.0706 1.4123-.0706 1.723s.113.3248.339.3671c1.737-.9744 2.8244-1.8641 5.0981-1.8641 3.008 0 4.42 2.0901 4.42 4.9852v5.7761c0 2.7538.156 3.1916 1.413 3.347l.861.113c.254.2542.226.932-.085 1.0733-1.553-.0707-2.824-.113-4.236-.113-1.413 0-2.5 0-3.799.113-.2969-.1413-.3392-.8191-.071-1.0733l.551-.0848c1.271-.1836 1.412-.6214 1.412-3.3752v-5.1406c0-1.8924-.734-3.3894-2.9656-3.3894-.4717-.0132-.9399.0847-1.3668.2859-.4269.2011-.8005.4999-1.0905.8722-.4943.6637-.5225 1.0027-.5225 2.3867z"/><path d="m115.724 38.6243c-.677 0-.72.0706-.72 1.271v5.7196c0 2.3443.339 4.4344 2.726 4.4344.654-.0131 1.282-.2527 1.779-.6778.084.0105.165.0395.237.0847.072.0453.133.1057.178.1771.046.0714.076.152.087.2361s.004.1696-.022.2506c-.575.6815-1.3 1.221-2.118 1.5762s-1.708.5166-2.599.4715c-3.53 0-4.236-2.0477-4.236-4.6463v-7.5555c0-1.2992 0-1.4122-.678-1.4122h-1.299c-.086-.0482-.16-.1162-.214-.1983-.055-.0822-.089-.1761-.1-.2741-.011-.0979.002-.1971.036-.2893.035-.0922.092-.1748.165-.241 1.048-.3813 2.037-.9091 2.937-1.5676.844-.6072 1.543-1.3932 2.048-2.3019.166-.1044.365-.1434.558-.1095s.366.1384.487.2931v2.3019c0 .5932 0 .7061.706.7061h3.686c.226.113.297.4096.297.7768.003.1889-.039.3759-.122.5454-.084.1695-.207.3166-.359.429z"/><path d="m128.872 41.3358c.622.0411 1.245-.0604 1.822-.2965.119-.0906.215-.2084.279-.3436.063-.1352.094-.2838.088-.4332.019-.3263-.032-.6529-.149-.9581-.117-.3051-.298-.5818-.531-.8116-.232-.2298-.511-.4075-.817-.5211-.307-.1137-.634-.1608-.96-.1382-.884.0308-1.731.367-2.395.9515s-1.105 1.3811-1.249 2.2543c0 .1412 0 .2542.523.2542zm-3.431 1.497c-.707 0-.777 0-.777.4802-.052.7732.055 1.549.315 2.279.261.73.668 1.3986 1.198 1.9642.53.5657 1.171 1.0162 1.882 1.3236.712.3075 1.479.4652 2.254.4634.709.0491 1.419-.099 2.049-.428.631-.329 1.158-.8261 1.524-1.4361.187-.0286.378.0176.531.1286s.257.2779.288.4645c-.527 1.2412-1.414 2.2955-2.547 3.0258-1.134.7304-2.46 1.1031-3.808 1.0697-.97.017-1.933-.1661-2.829-.5376-.895-.3716-1.705-.9237-2.378-1.622s-1.195-1.5277-1.534-2.4366c-.338-.909-.486-1.8778-.433-2.8463-.054-1.067.11-2.1337.482-3.1351.372-1.0015.944-1.9166 1.682-2.6897.737-.773 1.624-1.3878 2.607-1.8067.983-.419 2.041-.6334 3.109-.6301.705-.0578 1.414.0281 2.084.2523.671.2243 1.289.5822 1.817 1.0522.528.4701.955 1.0424 1.256 1.6823.3.6399.468 1.3342.492 2.0408.019.294-.045.5875-.184.8473-.226.339-1.073.4943-2.57.4943z"/><path d="m196.138 41.3358c.618.0576 1.242-.0295 1.821-.2542.121-.0898.219-.2071.285-.3422s.1-.2841.097-.4345c.019-.3264-.032-.653-.15-.9581-.117-.3052-.298-.5818-.53-.8116-.233-.2298-.511-.4075-.818-.5212-.306-.1137-.633-.1608-.96-.1382-.88.0258-1.725.3545-2.391.9308-.667.5764-1.114 1.3649-1.266 2.2327 0 .1412.084.2542.522.2542zm-3.418 1.497c-.706 0-.791 0-.791.4802-.052.7732.055 1.549.316 2.279.26.73.668 1.3986 1.198 1.9642.529.5657 1.17 1.0162 1.882 1.3236.711.3075 1.478.4652 2.253.4634.71.0524 1.421-.0944 2.052-.4237s1.158-.8281 1.521-1.4404c.093-.0161.188-.0134.28.0078.092.0213.178.0607.255.116.076.0553.141.1253.189.2059.049.0806.082.1702.095.2634-.519 1.2322-1.394 2.2808-2.514 3.0107-1.121.7299-2.434 1.1078-3.77 1.0848-.971.0189-1.936-.1626-2.833-.5333-.898-.3707-1.709-.9225-2.384-1.621-.674-.6985-1.198-1.5286-1.537-2.4385s-.487-1.88-.435-2.8497c-.053-1.0646.11-2.129.481-3.1285.37-.9996.94-1.9134 1.674-2.686.734-.7727 1.618-1.388 2.597-1.8087.98-.4206 2.035-.6378 3.101-.6384.704-.0557 1.412.0315 2.082.2565.669.225 1.286.5831 1.814 1.0528.528.4696.955 1.0411 1.256 1.6801s.47 1.3323.496 2.0382c.014.2953-.054.5886-.197.8473-.226.339-1.074.4943-2.556.4943z"/><path d="m143.348 38.7373c-.777 0-.777.0706-.777 1.158v7.3296c0 2.7538.141 3.1493 1.412 3.3046l1.412.1554c.129.1534.194.3508.181.5508s-.103.3872-.251.5225c-1.667-.0706-3.121-.113-4.872-.113-1.229 0-2.486 0-4.025.113-.135-.1462-.21-.3378-.21-.5367s.075-.3905.21-.5366l.819-.113c1.271-.1977 1.412-.5932 1.412-3.347v-7.3719c0-1.0027 0-1.1157-.664-1.1157h-1.412c-.072-.0425-.134-.1009-.18-.1707-.046-.0699-.076-.1494-.087-.2324-.011-.0831-.003-.1676.024-.247s.071-.1517.13-.2114l1.596-.8191c.159-.0681.294-.1827.388-.3288.093-.1462.14-.317.134-.4903v-.6637c-.027-1.8059.24-3.6042.791-5.3242.441-1.5156 1.366-2.8454 2.633-3.7864 1.267-.9409 2.808-1.4413 4.386-1.4247 2.57 0 4.237 1.158 4.237 2.7256-.018.4711-.215.9176-.551 1.2483s-.786.5207-1.257.5311c-.211.0124-.421-.029-.611-.1204-.19-.0915-.354-.2298-.476-.4021-1.187-1.7088-2.006-2.4573-2.825-2.4573-1.271 0-2.273 2.5279-2.273 8.1204v1.1156c0 1.1157 0 1.1863.819 1.1863h3.912c.075.0781.133.1714.17.2737.036.1023.05.2112.041.3195.03.2225-.003.4491-.095.6538s-.24.3794-.427.5042z"/><path d="m150.805 30.8146c.045-.5702.303-1.1025.723-1.4908.42-.3882.971-.6038 1.543-.6038s1.123.2156 1.543.6038c.421.3883.679.9206.724 1.4908-.045.5703-.303 1.1026-.724 1.4908-.42.3883-.971.6039-1.543.6039s-1.123-.2156-1.543-.6039c-.42-.3882-.678-.9205-.723-1.4908zm4.378 16.4103c0 2.7538.141 3.121 1.412 3.347l.664.113c.268.2542.226.932 0 1.0733-1.413-.0707-2.641-.113-4.025-.113s-2.486 0-3.898.113c-.297-.1413-.339-.8191-.085-1.0733l.678-.113c1.257-.226 1.412-.5932 1.412-3.347v-5.4795c0-1.6665 0-2.1184-.932-2.6692l-.452-.2683c-.059-.1334-.089-.2777-.089-.4237 0-.1459.03-.2902.089-.4236 1.689-.4803 3.315-1.1582 4.844-2.0195.102.008.2.0388.288.0902.088.0513.164.1219.221.2063 0 1.2287-.099 3.0222-.099 4.5474z"/><path d="m166.848 50.6849c2.57 0 3.318-3.0505 3.318-5.9173 0-3.1352-1.087-6.807-3.841-6.807-1.892 0-3.375 1.9347-3.375 6.0585 0 3.3894 1.228 6.6658 3.898 6.6658zm7.71-6.5528c.058 1.074-.112 2.148-.498 3.1519-.386 1.0038-.98 1.9148-1.743 2.6733-.762.7585-1.676 1.3475-2.682 1.7284s-2.081.5452-3.155.482c-4.236 0-7.852-2.7115-7.852-7.5837-.027-1.0763.165-2.1468.565-3.1462.401-.9994 1-1.9068 1.763-2.6667.763-.76 1.672-1.3565 2.673-1.7532 1.001-.3968 2.072-.5854 3.148-.5543 1.029-.053 2.059.1076 3.023.4718.965.3642 1.843.924 2.581 1.6443.737.7203 1.318 1.5855 1.705 2.541.387.9556.572 1.9808.543 3.0114"/><path d="m177.962 41.7454c0-1.6665 0-2.1184-.932-2.6692l-.452-.2683c-.059-.1334-.09-.2777-.09-.4237 0-.1459.031-.2902.09-.4236 1.625-.5184 3.196-1.1948 4.689-2.0195.112-.0071.223.022.317.0831.094.061.166.1507.205.2558 0 .7061-.07 1.3416-.07 1.6806 0 .3389.141.4378.367.4378 1.158-.8191 2.387-1.9348 3.643-1.9348.256-.0233.514.0062.758.0866.244.0803.469.2099.661.3806.192.1708.347.3791.455.6121s.168.4857.174.7425c.016.2806-.027.5615-.124.8251-.098.2635-.249.5041-.444.7068s-.429.3632-.688.4713c-.26.1082-.539.1618-.82.1575-.355-.0012-.703-.1041-1.003-.2966-.516-.4054-1.139-.6509-1.793-.7061-.862 0-1.073.8615-1.073 2.6833v5.0982c0 2.7538.141 3.1634 1.412 3.3046l1.412.1554c.138.1445.215.3367.215.5366s-.077.3921-.215.5367c-2.231-.0706-3.502-.113-4.872-.113s-2.457 0-3.87.113c-.147-.1352-.237-.321-.253-.52-.016-.1991.045-.3968.169-.5533l.677-.113c1.257-.226 1.413-.5932 1.413-3.347z"/></g></svg>