<svg height="58.385" viewBox="0 0 45.013 58.385" width="45.013" xmlns="http://www.w3.org/2000/svg"><g fill="#007fff"><path d="m822.011 864.093-3.434 10.568a.8.8 0 0 0 1.224.887l8.987-6.528 8.987 6.528a.8.8 0 0 0 1.227-.887l-3.434-10.568 8.987-6.53a.794.794 0 0 0 -.466-1.437h-11.112l-3.431-10.567a.8.8 0 0 0 -1.513 0l-3.433 10.567h-11.11a.794.794 0 0 0 -.469 1.438zm3.167-6.379a.794.794 0 0 0 .755-.547l2.855-8.787 2.855 8.787a.8.8 0 0 0 .758.547h9.237l-7.474 5.432a.8.8 0 0 0 -.289.89l2.855 8.784-7.474-5.43a.8.8 0 0 0 -.935 0l-7.477 5.43 2.855-8.784a.793.793 0 0 0 -.289-.89l-7.473-5.432z" transform="translate(-806.283 -838.503)"/><path d="m854.625 901.078a.783.783 0 0 1 -.446-.138l-21.264-14.448-21.264 14.448a.8.8 0 0 1 -1.241-.657v-56.8a.794.794 0 0 1 .795-.795h43.421a.794.794 0 0 1 .8.795v56.8a.8.8 0 0 1 -.424.7.806.806 0 0 1 -.377.095zm-21.71-16.342a.783.783 0 0 1 .446.137l20.469 13.909v-54.5h-41.83v54.5l20.467-13.909a.788.788 0 0 1 .448-.138z" transform="translate(-810.41 -842.693)"/></g></svg>