<svg height="45.55" viewBox="0 0 52.536 45.55" width="52.536" xmlns="http://www.w3.org/2000/svg"><g fill="#007fff"><path d="m648.116 387.217h-43.416a.815.815 0 0 1 -.813-.816v-43.417a.812.812 0 0 1 .813-.813.81.81 0 0 1 .813.813v42.6h42.6a.815.815 0 0 1 .816.813.815.815 0 0 1 -.813.82z" transform="translate(-603.886 -341.668)"/><path d="m606.694 374a.812.812 0 0 1 .006-1.149l21.944-21.68a.813.813 0 0 1 1.186.043l6.481 7.475 13.464-13.714a.816.816 0 0 1 1.152-.011.812.812 0 0 1 .009 1.149l-14.082 14.346a.817.817 0 0 1 -1.2-.037l-6.486-7.486-21.324 21.071a.813.813 0 0 1 -1.15-.007z" transform="translate(-599.067 -336.87)"/><path d="m632.982 364.111-13.045-6.018-7.118 5.932a.818.818 0 0 1 -1.149-.1.813.813 0 0 1 .106-1.146l7.164-5.972a1.542 1.542 0 0 1 1.629-.216l13.022 6.013 7.09-12.223a.815.815 0 0 1 1.112-.3.813.813 0 0 1 .3 1.112l-7.13 12.295a1.539 1.539 0 0 1 -1.981.623z" transform="translate(-589.662 -327.059)"/><path d="m606.814 364.2a.815.815 0 0 1 -.316-1.109l7.437-13.389a1.886 1.886 0 0 1 1.649-.971h13.407l6.251-6.489a.81.81 0 0 1 1.149-.023.813.813 0 0 1 .023 1.152l-5.932 6.162a2.713 2.713 0 0 1 -1.948.827h-13.1l-7.512 13.524a.815.815 0 0 1 -1.108.316z" transform="translate(-599.187 -341.996)"/></g></svg>