<svg fill="none" height="81" viewBox="0 0 247 81" width="247" xmlns="http://www.w3.org/2000/svg"><g fill="#fff"><path d="m69.1959 23.2714c-1.2417 0-2.2416.9992-2.2416 2.241v27.3577c0 1.2417.9999 2.241 2.2416 2.241h17.2017c.3249 0 .5865-.2615.5865-.5863v-3.1382c0-.3249-.2616-.5865-.5865-.5865h-14.6272v-10.0048h13.1526c.3249 0 .5863-.2616.5863-.5865v-2.9655c0-.3248-.2614-.5863-.5863-.5863h-13.1526v-9.1758h14.6272c.3249 0 .5865-.2614.5865-.5863v-3.0372c0-.3249-.2616-.5863-.5865-.5863z"/><path d="m127.267 31.2421c-4.093 0-6.635 1.4096-8.336 3.7532v-2.4485c0-.3249-.262-.5865-.587-.5865h-3.542c-.325 0-.586.2616-.586.5865v29.8667c0 .3249.261.5865.586.5865h3.603c.325 0 .587-.2616.587-.5865v-10.2174c1.579 2.273 4.137 3.6187 8.275 3.6187 6.959-.0001 11.292-5.5081 11.292-12.2936s-4.244-12.2791-11.292-12.2791zm-1.011 3.9511c5.007 0 7.47 3.7286 7.47 8.328s-2.463 8.328-7.47 8.328c-5.006 0-7.47-3.7286-7.47-8.328s2.464-8.328 7.47-8.328z"/><path d="m197.159 31.9603h3.562c.325 0 .587.2616.587.5864v21.9779c0 .3249-.262.5864-.587.5864h-3.562c-.325 0-.587-.2615-.587-.5864v-21.9779c0-.3248.262-.5864.587-.5864z"/><path d="m197.108 23.2599h3.664c.325 0 .587.2616.587.5864v3.6648c0 .3249-.262.5864-.587.5864h-3.664c-.325 0-.587-.2615-.587-.5864v-3.6648c0-.3248.262-.5864.587-.5864z"/><path d="m178.419 55.8148c4.093 0 6.634-1.4096 8.336-3.7533v2.4631c0 .3249.261.5864.586.5864h3.542c.325 0 .587-.2615.587-.5864v-30.6668c0-.3248-.262-.5864-.587-.5864h-3.603c-.325 0-.586.2616-.586.5864v11.133c-1.695-2.2152-4.138-3.7488-8.275-3.7487-6.959 0-11.293 5.508-11.293 12.2935s4.244 12.2792 11.293 12.2792zm1.01-3.9512c-5.006 0-7.47-3.7286-7.47-8.328s2.464-8.3279 7.47-8.3279c5.007 0 7.47 3.7285 7.47 8.3279s-2.463 8.328-7.47 8.328z"/><path d="m216.67 31.2566c-7.049 0-11.292 5.4936-11.292 12.2791s4.243 12.2791 11.292 12.2791c4.093 0 6.635-1.4096 8.336-3.7533v2.4631c0 .3249.262.5865.587.5865h3.542c.324 0 .586-.2616.586-.5865v-10.9889-10.9889c0-.3249-.262-.5865-.586-.5865h-3.542c-.325 0-.587.2616-.587.5865v2.4631c-1.701-2.3437-4.243-3.7533-8.336-3.7533zm1.011 3.9511c5.006 0 7.469 3.7286 7.469 8.328s-2.463 8.328-7.469 8.328c-5.007 0-7.47-3.7286-7.47-8.328s2.463-8.328 7.47-8.328z"/><path d="m90.7775 31.9603c-.5062 0-.5969.3998-.3671.7164l7.5392 10.3242-8.2748 11.3936c-.2299.3166-.1392.7166.3671.7166h4.0822c.3541 0 .538-.1209.6557-.2946l5.6382-8.321 5.873 8.321c.121.1714.302.2946.656.2946h4.238c.506 0 .598-.4007.367-.7166l-8.322-11.3936 7.492-10.3242c.23-.3166.139-.7164-.367-.7164h-4.003c-.354 0-.537.121-.655.2944l-4.948 7.2717-5.1112-7.2717c-.1204-.1718-.3016-.2944-.6557-.2944z"/><path d="m152.854 31.2421c-7.089 0-11.355 5.0965-11.355 12.2863 0 7.9299 5.043 12.2864 11.355 12.2864 7.627 0 10.633-4.4858 10.801-4.6538.194-.1933.141-.5532-.021-.7124l-2.205-2.1614c-.162-.1592-.471-.1836-.685.032-.161.1623-2.845 3.5548-7.242 3.5547-4.673 0-6.974-2.8631-7.284-7.0811h17.416c.54 0 .569-.4801.571-.7953.036-8.5634-4.941-12.7554-11.351-12.7554zm.015 3.7264c4.287 0 6.083 2.5777 6.461 6.2496h-12.942c.509-3.5996 2.399-6.2496 6.481-6.2496z"/><path d="m23.969 20h22.4985c4.4149 0 7.9691 3.5542 7.9691 7.969v22.4984c0 4.4148-3.5542 7.969-7.9691 7.969h-22.4985c-4.4148 0-7.969-3.5542-7.969-7.969v-22.4984c0-4.4148 3.5542-7.969 7.969-7.969z"/></g><path d="m26.7484 26.8815c-.3582 0-.5833.0823-.773.272l-3.8408 3.8408c-.0713.0713-.1114.1681-.1114.2689 0 .21.1703.3803.3803.3803h16.65l-10.236 10.2358c-.2017.2018-.3191.3191-.3191.715v2.6932c0 .1631.0742.3044.1807.4108.1064.1065.2476.1805.4107.1805h2.6933c.3959 0 .5131-.1172.7148-.3189l10.236-10.236v16.65c0 .21.1703.3803.3803.3803.1008 0 .1976-.0401.2689-.1114l3.8408-3.8408c.1897-.1897.272-.4148.272-.773v-18.1809c0-.3371-.0664-.6708-.1954-.9822s-.3181-.5944-.5564-.8327c-.2384-.2383-.5213-.4274-.8327-.5564-.3114-.1289-.6452-.1953-.9822-.1953z" fill="#000"/><path d="m23.4863 46.6272h3.6944c.3091 0 .5579.2488.5579.5579v3.7176c0 .309-.2488.5578-.5579.5578h-3.6944c-.3091 0-.5579-.2488-.5579-.5578v-3.7176c0-.3091.2488-.5579.5579-.5579z" fill="#000"/></svg>