<?xml version="1.0" encoding="utf-8"?>
<!-- Generator: Adobe Illustrator 25.0.1, SVG Export Plug-In . SVG Version: 6.00 Build 0)  -->
<svg version="1.1" id="Group_15" xmlns="http://www.w3.org/2000/svg" xmlns:xlink="http://www.w3.org/1999/xlink" x="0px" y="0px"
	 viewBox="0 0 49.6 57" style="enable-background:new 0 0 49.6 57;" xml:space="preserve">
<style type="text/css">
	.st0{fill:#007FFF;}
</style>
<g id="Group_287" transform="translate(-499.846 -339.367)">
	<path id="Path_676" class="st0" d="M547.7,370.7h-10.5v-10.2c0-0.4-0.3-0.6-0.6-0.6H525h0v-0.2l0,0v-10.9c0-0.4-0.3-0.6-0.6-0.6
		c0,0,0,0,0,0h-22.7c-0.4,0-0.6,0.3-0.6,0.6c0,0,0,0,0,0v22.5c0,0.4,0.3,0.6,0.6,0.6c0,0,0,0,0,0h10.9v11.7c0,0.4,0.3,0.6,0.6,0.6
		c0,0,0,0,0,0h10.5v10.5c0,0.4,0.3,0.6,0.6,0.6h23.3c0.4,0,0.6-0.3,0.6-0.6v-23.5C548.3,371,548,370.7,547.7,370.7z M535.8,361.2
		v9.5H525v-9.5L535.8,361.2z M502.3,349.5h21.4v9.8h0v2.4h0v9l-21.4,0V349.5z M513.8,383.1V372c0-0.1,0,0.1,0,0l10,0v11.2H513.8z
		 M547,394.2H525V385h0v-2.5h0V372H547V394.2z"/>
</g>
</svg>
