<svg enable-background="new 0 0 61.2 46.3" viewBox="0 0 61.2 46.3" xmlns="http://www.w3.org/2000/svg"><g fill="#666"><path d="m18.7 19.5c0 .7 0 1.2.2 1.6.1.4.3.8.6 1.3.1.1.1.3.1.4 0 .2-.1.3-.3.5l-1.1.7c-.1.1-.3.1-.5.1s-.3-.1-.5-.2c-.2-.3-.5-.5-.6-.8-.2-.3-.3-.6-.5-1.1-1.4 1.7-3.2 2.5-5.3 2.5-1.5 0-2.7-.4-3.6-1.3s-1.3-2-1.3-3.5.5-2.8 1.6-3.8c1.1-.9 2.6-1.4 4.4-1.4.6 0 1.2 0 1.9.1s1.4.2 2.1.4v-1.3c0-1.4-.3-2.3-.8-2.9-.6-.5-1.6-.8-3-.8-.6 0-1.3 0-2 .2-.7.1-1.3.3-2 .6-.3.1-.5.2-.6.2s-.2 0-.3 0c-.2 0-.4-.2-.4-.5v-.7c0-.3 0-.5.1-.6 0-.2.1-.3.4-.5.6-.3 1.4-.6 2.3-.8s1.8-.3 2.8-.3c2.2 0 3.8.5 4.7 1.5 1 1 1.5 2.5 1.5 4.4zm-7.4 2.7c.6 0 1.2-.1 1.9-.3.6-.2 1.2-.6 1.7-1.1.3-.3.5-.7.6-1.1s.2-.9.2-1.6v-.7c-.5-.3-1.1-.4-1.7-.4s-1.1-.1-1.7-.1c-1.2 0-2.1.2-2.7.7s-.9 1.2-.9 2.1c0 .8.2 1.5.7 1.9.4.4 1.1.6 1.9.6zm14.6 2c-.3 0-.5 0-.7-.2-.1-.1-.3-.3-.4-.7l-4.2-14c-.1-.3-.1-.6-.1-.7 0-.3.1-.4.4-.4h1.8c.3 0 .6 0 .7.2.1.1.2.3.3.7l3.1 12 2.8-12c.1-.3.2-.6.3-.7s.4-.2.7-.2h1.5c.3 0 .6 0 .7.2.2 0 .3.2.4.6l2.8 12.1 3.1-12.1c.1-.3.2-.6.3-.7s.4-.2.7-.2h1.7c.3 0 .4.1.4.4v.3c0 .1 0 .2-.1.4l-4.3 14c-.1.3-.2.6-.4.7-.1.1-.4.2-.7.2h-1.6c-.3 0-.6 0-.7-.2s-.3-.3-.3-.7l-2.8-11.7-2.8 11.7c-.1.3-.2.6-.3.7s-.4.2-.7.2h-1.6zm23.2.4c-.9 0-1.9-.1-2.8-.3s-1.6-.4-2.1-.7c-.3-.1-.5-.3-.5-.5 0-.1-.1-.3-.1-.5v-.9c0-.4.1-.5.4-.5h.3c.1 0 .3.1.4.2.6.3 1.3.5 2 .6s1.4.2 2.2.2c1.1 0 2-.2 2.7-.6.6-.4.9-1 .9-1.7 0-.5-.1-.9-.5-1.3-.3-.3-.9-.6-1.8-.9l-2.6-.8c-1.3-.4-2.3-1-2.9-1.8s-.9-1.7-.9-2.6c0-.7.1-1.4.5-2s.7-1.1 1.3-1.5c.5-.4 1.1-.7 1.9-.9.7-.2 1.5-.3 2.3-.3h1.2c.4 0 .8.1 1.2.2.3.1.7.2 1 .3s.6.2.7.3c.2.1.4.3.5.4s.1.3.1.6v.8c0 .4-.1.6-.4.6-.1 0-.4 0-.7-.2-1-.5-2.2-.7-3.5-.7-1 0-1.8.1-2.4.5-.5.3-.8.9-.8 1.6 0 .5.2.9.5 1.3.3.3 1 .7 2 1l2.6.8c1.3.4 2.2 1 2.8 1.7s.8 1.6.8 2.5c0 .8-.1 1.5-.5 2.1-.3.6-.7 1.1-1.3 1.6-.5.4-1.2.8-2 1-.7.3-1.5.4-2.5.4z"/><g clip-rule="evenodd" fill-rule="evenodd"><path d="m52.6 33.5c-5.9 4.4-14.6 6.7-22 6.7-10.4 0-19.8-3.9-26.9-10.3-.5-.5 0-1.2.6-.8 7.7 4.4 17.1 7.2 27 7.2 6.6 0 13.9-1.4 20.5-4.2.9-.5 1.7.6.8 1.4z"/><path d="m55.1 30.6c-.7-1-5-.5-7-.2-.6 0-.7-.4-.1-.8 3.4-2.4 9-1.7 9.7-.9.6.8-.2 6.4-3.4 9.1-.5.4-.9.2-.7-.3.6-1.8 2.2-5.9 1.5-6.9z"/></g></g></svg>