<svg width="36" height="36" viewBox="0 0 36 36" fill="none" xmlns="http://www.w3.org/2000/svg">
<path d="M31.5 11.25L28.125 9.2805M31.5 11.25V14.625M31.5 11.25L28.125 13.2195M4.5 11.25L7.875 9.2805M4.5 11.25L7.875 13.2195M4.5 11.25V14.625M18 19.125L21.375 17.1555M18 19.125L14.625 17.1555M18 19.125V22.5M18 32.625L21.375 30.6555M18 32.625V29.25M18 32.625L14.625 30.6555M14.625 5.343L18 3.375L21.375 5.3445M31.5 21.375V24.75L28.125 26.7195M7.875 26.7195L4.5 24.75V21.375" stroke="white" stroke-width="1.5" stroke-linecap="round" stroke-linejoin="round"/>
</svg>
