<svg height="441" viewBox="0 0 441 441" width="441" xmlns="http://www.w3.org/2000/svg"><path d="m299.88 0h-299.88v301.35l139.65 139.65h301.35v-299.88zm0 0" fill="#fff"/><path d="m295.96 9.31 135.73 135.73v287.14h-288.61l-133.77-134.26v-288.61zm3.92-9.31h-299.88v301.35l139.65 139.65h301.35v-299.88zm0 0" fill="#242e3d"/><path d="m22.01 73v16.17h-9.31v-44.1h16.66a12.99 12.99 0 0 1 10.78 3.92 15.118 15.118 0 0 1 0 20.58 17.123 17.123 0 0 1 -10.78 3.92h-7.35zm0-6.86h6.86c1.96 0 3.92-.49 4.9-1.96a9.739 9.739 0 0 0 0-10.29c-1.47-.98-2.94-1.96-4.9-1.96h-6.86zm61.25 23.03-2.94-9.8h-15.19l-2.94 9.8h-9.8l15.19-44.1h10.78l15.19 44.1zm-15.68-16.656h10.78l-5.39-18.62zm39.2 16.66v-44.1h16.66a12.989 12.989 0 0 1 10.78 3.92 14.568 14.568 0 0 1 3.92 9.8 11.708 11.708 0 0 1 -2.45 6.86 18.5 18.5 0 0 1 -5.88 4.9l10.78 19.11h-9.8l-9.31-17.15h-6.37v16.66zm9.31-24.01h6.86a5.433 5.433 0 0 0 6.37-5.39v-1.96c.49-3.43-1.96-6.37-4.9-6.37h-8.33zm48.02 24.01v-36.26h-13.72v-7.84h36.26v7.84h-13.72v36.26zm46.06-30.38v30.38h-8.33v-44.1h10.29l18.13 30.87v-30.87h8.33v44.1h-10.29zm45.08 30.38v-44.1h28.91v7.35h-19.6v10.29h15.68v7.35h-15.68v11.76h19.6v7.35zm46.06 0v-44.1h16.66a12.989 12.989 0 0 1 10.78 3.92 14.568 14.568 0 0 1 3.92 9.8 11.25 11.25 0 0 1 -1.96 6.86 18.5 18.5 0 0 1 -5.88 4.9l10.78 19.11h-9.8l-9.8-17.15h-6.37v16.66zm9.31-24.01h6.86a5.433 5.433 0 0 0 6.37-5.39v-1.96c.49-3.43-1.96-6.37-4.9-6.37h-8.33zm0 0" fill="#242e3d" transform="translate(49.53 175.426)"/><path d="m48.47 46.8a7.282 7.282 0 0 0 .98 4.41 33.758 33.758 0 0 1 1.47 3.92 1.518 1.518 0 0 1 .49.98c0 .49-.49.98-.98 1.47l-3.43 1.964h-.98c-.98 0-.98-.49-1.47-.49-.49-.98-1.47-1.47-1.96-2.45a16.312 16.312 0 0 1 -1.47-2.94 19.084 19.084 0 0 1 -14.7 6.86 10.653 10.653 0 0 1 -9.8-3.92 13.682 13.682 0 0 1 -3.92-9.8 13.345 13.345 0 0 1 4.41-10.29 21.441 21.441 0 0 1 12.25-3.92 18.373 18.373 0 0 1 5.39.49c1.96.49 3.92.49 5.39.98v-3.92a9.039 9.039 0 0 0 -2.45-7.84c-1.96-1.96-4.9-2.45-7.84-1.96-1.96 0-3.92.49-5.39.49a12.056 12.056 0 0 0 -5.39 1.96c-.49.49-.98.49-1.96.98h-.49c-.98 0-.98-.49-.98-1.47v-2.45a3.7 3.7 0 0 1 .49-1.96c.49-.49.98-.49 1.47-.98a13.9 13.9 0 0 1 6.37-1.96c2.45-.98 5.39-.98 7.84-.98a16.649 16.649 0 0 1 12.74 3.92 16.134 16.134 0 0 1 3.92 12.25zm-20.09 7.35c1.96 0 3.43-.49 5.39-.49a17.6 17.6 0 0 0 4.9-3.43 21.306 21.306 0 0 0 1.96-3.43 13.566 13.566 0 0 0 .49-4.41v-2.45a13.566 13.566 0 0 0 -4.41-.49 15.106 15.106 0 0 0 -4.9-.49c-2.94 0-5.88.49-7.84 1.96-2.94 2.94-3.43 7.84-.49 10.78a3.828 3.828 0 0 0 4.9 2.45zm40.18 5.39a2.946 2.946 0 0 1 -1.96-.49c-.49-.49-.49-.98-.98-1.96l-11.76-38.706c-.49 0-.49-.98-.49-.98 0-.98.49-.98.49-.98h5.39c.98 0 1.47 0 1.96.49a2.546 2.546 0 0 1 .98 1.96l8.33 32.826 7.84-32.83a3.715 3.715 0 0 1 .98-1.96 3.7 3.7 0 0 1 1.96-.49h3.92c.98 0 1.47 0 1.96.49a2.546 2.546 0 0 1 .98 1.96l7.84 33.324 8.33-33.32a3.715 3.715 0 0 1 .98-1.96 2.946 2.946 0 0 1 1.96-.49h4.9a1.054 1.054 0 0 1 .98.98v.98l-.49.98-11.76 38.22a3.715 3.715 0 0 1 -.98 1.96c-.49.49-.98.49-1.96.49h-4.41a2.946 2.946 0 0 1 -1.96-.49l-.98-1.96-7.84-31.85-7.84 31.85a3.715 3.715 0 0 1 -.98 1.96 1.8 1.8 0 0 1 -1.47.49h-3.92zm63.7 1.96a42.887 42.887 0 0 1 -7.84-.98 27.624 27.624 0 0 1 -5.88-1.96 3.308 3.308 0 0 1 -1.96-2.94v-2.45c0-.98.49-1.47.98-1.47h.98c.49 0 .49.49.98.49 1.96.49 3.92 1.47 5.39 1.96a23.856 23.856 0 0 0 5.88.49c2.45 0 5.39-.49 7.35-1.96a6.031 6.031 0 0 0 2.45-4.9 4.448 4.448 0 0 0 -1.47-3.43 18.114 18.114 0 0 0 -5.39-2.45l-7.35-1.96a12.181 12.181 0 0 1 -7.84-5.39 13.2 13.2 0 0 1 -2.45-7.35 9.878 9.878 0 0 1 1.47-5.39 10.029 10.029 0 0 1 3.92-3.92 18.114 18.114 0 0 1 5.39-2.45c1.96-.98 3.92-.98 6.37-.98a8.339 8.339 0 0 1 3.43.49c.98 0 1.96.49 3.43.49s1.96.49 2.94.49c.49.49 1.47.49 1.96.98s.98.49 1.47.98.49.98.49 1.96v2.45c0 .98-.49 1.47-.98 1.47s-1.47-.49-1.96-.49a21.233 21.233 0 0 0 -9.31-1.96 19.236 19.236 0 0 0 -6.86 1.47 3.681 3.681 0 0 0 -1.96 4.41 6.516 6.516 0 0 0 1.47 3.92c1.47 1.47 3.43 1.96 5.39 2.45l6.86 1.96c2.94.49 5.39 2.45 7.84 4.9a11.25 11.25 0 0 1 1.96 6.86 13.047 13.047 0 0 1 -1.47 5.88 6.955 6.955 0 0 1 -3.92 4.41c-1.47.98-3.92 1.96-5.39 2.94a21.747 21.747 0 0 1 -6.37.98zm0 0" fill="#242e3d" transform="translate(49.53 54.136)"/><path d="m146.725 40.053c-16.66 12.25-40.18 18.62-60.76 18.62a109.259 109.259 0 0 1 -73.99-28.42c-1.47-1.47 0-3.43 1.96-1.96a151.888 151.888 0 0 0 73.99 19.6 150.73 150.73 0 0 0 56.84-11.27c2.45-1.47 4.9 1.96 1.96 3.43zm2.45 11.27c-.49 1.47.98 1.96 2.45.98 8.82-7.35 10.78-22.54 9.31-24.99-1.96-1.96-17.15-3.92-26.46 2.45-1.47.98-.98 2.45.49 1.96 5.39-.49 17.15-1.96 19.11.98s-2.94 13.72-4.9 18.62zm0 0" fill="#f90" transform="translate(44.375 99.107)"/><g fill="#242e3d"><path d="m48.13 82.48-1.96-6.37h-9.8l-1.96 6.37h-4.41l9.31-25.48h4.9l9.31 25.48zm-10.78-9.31h7.84l-3.92-11.76zm0 0" transform="translate(117 222.3)"/><path d="m48.92 84.43-.49-1.96c-1.47 1.47-3.43 1.96-5.88 1.96a6.323 6.323 0 0 1 -5.39-2.45c-1.47-1.96-1.96-3.92-1.96-7.35a17.615 17.615 0 0 1 .98-5.39 6.587 6.587 0 0 1 2.94-3.43 5.989 5.989 0 0 1 4.41-1.47 7.369 7.369 0 0 1 5.39 1.96v-9.8h4.41v27.44h-4.41zm-4.9-2.94a7.9 7.9 0 0 0 4.41-1.47v-10.29a14.307 14.307 0 0 0 -4.41-.98c-1.47 0-2.94.49-3.43 1.47-.98.98-.98 2.45-.98 4.9-.49 4.41.98 6.37 4.41 6.37zm0 0" transform="translate(137.28 220.35)"/><path d="m46.65 77.02-7.35-18.62h4.41l4.9 14.7 4.9-14.7h4.41l-7.35 18.62zm0 0" transform="translate(153.27 227.76)"/><path d="m55.65 77.41-.49-1.96c-.98.49-1.96 1.47-2.94 1.96a6.215 6.215 0 0 1 -2.94.49 6.84 6.84 0 0 1 -4.41-1.47 5.564 5.564 0 0 1 -1.47-3.92c0-1.96.49-3.43 1.96-4.41a8.8 8.8 0 0 1 5.39-1.47 13.567 13.567 0 0 1 4.41.49v-1.96a2.879 2.879 0 0 0 -.98-2.45 4.142 4.142 0 0 0 -2.94-.98 33.722 33.722 0 0 0 -6.37.98v-2.94a7.082 7.082 0 0 1 3.43-.98 10.789 10.789 0 0 1 3.92-.49 8.8 8.8 0 0 1 5.39 1.47 6.211 6.211 0 0 1 1.96 4.41v13.23zm-4.9-2.45a5.328 5.328 0 0 0 2.45-.49c.98-.49 1.47-.98 2.45-1.47v-3.43a9.567 9.567 0 0 0 -3.43-.49c-2.45 0-3.92.98-3.92 2.94a2.546 2.546 0 0 0 .98 1.96c0 .98.49.98 1.47.98zm0 0" transform="translate(169.26 227.37)"/><path d="m59.95 77.41v-12.25c0-.98 0-1.96-.98-2.45 0-.49-.98-.98-1.96-.98a9.454 9.454 0 0 0 -4.9 1.47v14.21h-4.41v-18.62h3.43l.49 1.96a11.073 11.073 0 0 1 7.35-2.45 4.823 4.823 0 0 1 3.92 1.47 5.564 5.564 0 0 1 1.47 3.92v13.72zm0 0" transform="translate(186.03 227.37)"/><path d="m66.21 76.53c-1.47.98-2.94.98-5.39.98a10.622 10.622 0 0 1 -6.86-2.45c-1.47-1.47-1.96-3.92-1.96-6.86a12.036 12.036 0 0 1 2.45-7.35c1.47-1.96 3.92-2.45 6.86-2.45a14.5 14.5 0 0 1 4.9.98v2.94a14.307 14.307 0 0 0 -4.41-.98c-1.96 0-3.43.49-3.92 1.47-.98.98-1.47 2.45-1.47 4.9v.49a5.99 5.99 0 0 0 1.47 4.41 5.564 5.564 0 0 0 3.92 1.47 14.307 14.307 0 0 0 4.41-.98zm0 0" transform="translate(202.8 227.76)"/><path d="m59.42 69.18c0 1.96.49 3.43 1.47 3.92a5.989 5.989 0 0 0 4.41 1.47 24.6 24.6 0 0 0 5.88-.98v2.94a6.965 6.965 0 0 1 -2.94.98 8.339 8.339 0 0 1 -3.43.49 9.693 9.693 0 0 1 -6.86-2.45c-1.47-1.47-2.45-3.92-2.45-7.35a12.036 12.036 0 0 1 2.45-7.35c1.47-1.96 3.92-2.45 6.37-2.45s4.41.49 5.39 1.96c1.47 1.47 1.96 2.94 1.96 5.39a7.266 7.266 0 0 1 -.49 3.43zm4.41-7.84a5.024 5.024 0 0 0 -4.9 4.9h8.82v-.49a7.082 7.082 0 0 0 -.98-3.43 4.142 4.142 0 0 0 -2.94-.98zm0 0" transform="translate(216.45 227.76)"/><path d="m73.22 84.43-.49-1.96c-1.47 1.47-3.43 1.96-5.88 1.96a6.322 6.322 0 0 1 -5.39-2.45c-1.47-1.96-1.96-3.92-1.96-7.35a17.615 17.615 0 0 1 .98-5.39 6.587 6.587 0 0 1 2.94-3.43 5.989 5.989 0 0 1 4.41-1.47 7.369 7.369 0 0 1 5.39 1.96v-9.8h4.41v27.44h-4.41zm-4.9-2.94a7.9 7.9 0 0 0 4.41-1.47v-10.29a6.84 6.84 0 0 0 -4.41-1.47c-1.47 0-2.94.49-3.43 1.47-.98.98-.98 2.45-.98 4.9 0 4.9 1.47 6.86 4.41 6.86zm0 0" transform="translate(232.05 220.35)"/><path d="m73.54 82.48v-22.05h-7.84v-3.43h20.58v3.92h-7.84v22.05h-4.9zm0 0" transform="translate(256.23 222.3)"/><path d="m70.5 83.26v-18.62h4.41v18.62zm2.45-21.56c-.98 0-1.47 0-1.96-.49s-.49-.98-.49-1.96 0-1.47.49-1.96.98-.49 1.96-.49 1.47 0 1.96.49.49.98.49 1.96 0 1.47-.49 1.96a2.946 2.946 0 0 1 -1.96.49zm0 0" transform="translate(274.95 221.52)"/><path d="m76.22 69.18c0 1.96.49 3.43 1.47 3.92a5.99 5.99 0 0 0 4.41 1.47 24.6 24.6 0 0 0 5.88-.98v2.94a6.965 6.965 0 0 1 -2.94.98 8.338 8.338 0 0 1 -3.43.49 9.693 9.693 0 0 1 -6.86-2.45c-1.47-1.47-2.45-3.92-2.45-7.35a12.036 12.036 0 0 1 2.45-7.35c1.47-1.96 3.92-2.45 6.37-2.45s4.41.49 5.39 1.96c1.47 1.47 1.96 2.94 1.96 5.39a7.266 7.266 0 0 1 -.49 3.43zm4.9-7.84a5.024 5.024 0 0 0 -4.9 4.9h8.33v-.49a7.082 7.082 0 0 0 -.98-3.43 3.743 3.743 0 0 0 -2.45-.98zm0 0" transform="translate(281.97 227.76)"/><path d="m76.5 77.02v-18.62h3.43l.49 2.94a12.991 12.991 0 0 1 2.94-2.45 6.215 6.215 0 0 1 2.94-.49h1.47v3.92h-1.96a8.278 8.278 0 0 0 -4.9 1.47v13.72h-4.41zm0 0" transform="translate(298.35 227.76)"/><path d="m57.78 78.71a17.1 17.1 0 0 1 -4.41-2.94 5.564 5.564 0 0 1 -1.47-3.92 7.02 7.02 0 0 1 2.45-5.39c1.47-1.47 3.92-1.96 6.37-1.96a17.293 17.293 0 0 1 6.86 1.47v3.43a33.722 33.722 0 0 0 -6.37-.98c-3.43 0-4.9.98-4.9 3.43a2.546 2.546 0 0 0 .98 1.96 7.978 7.978 0 0 0 2.94 1.47l2.94.98c1.96.98 3.43 1.47 4.41 2.94a5.564 5.564 0 0 1 1.47 3.92 8.114 8.114 0 0 1 -2.45 5.88c-1.96 1.47-3.92 1.96-7.35 1.96a10.79 10.79 0 0 1 -3.92-.49 31.219 31.219 0 0 1 -3.43-.98v-3.43c.98.49 2.45.49 3.92.98 1.47 0 2.45.49 3.43.49a7.591 7.591 0 0 0 3.92-.98 2.963 2.963 0 0 0 1.47-2.94 2.546 2.546 0 0 0 -.98-1.96 7.978 7.978 0 0 0 -2.94-1.47zm0 0" transform="translate(202.41 251.55)"/><path d="m60.02 76.68c0 1.96.49 3.43 1.47 3.92a5.989 5.989 0 0 0 4.41 1.47 24.6 24.6 0 0 0 5.88-.98v2.94a6.964 6.964 0 0 1 -2.94.98 8.339 8.339 0 0 1 -3.43.49 9.693 9.693 0 0 1 -6.86-2.45c-1.47-1.47-2.45-3.92-2.45-7.35a12.036 12.036 0 0 1 2.45-7.35c1.47-1.96 3.92-2.45 6.37-2.45s4.41.49 5.39 1.96c1.47 1.47 1.96 2.94 1.96 5.39a7.266 7.266 0 0 1 -.49 3.43zm4.9-7.84a5.024 5.024 0 0 0 -4.9 4.9h8.33v-.49a7.082 7.082 0 0 0 -.98-3.43 3.743 3.743 0 0 0 -2.45-.98zm0 0" transform="translate(218.79 257.01)"/><path d="m60.3 84.62v-18.62h3.43l.49 2.94a12.991 12.991 0 0 1 2.94-2.45 6.215 6.215 0 0 1 2.94-.49h1.47v3.92h-1.96a8.278 8.278 0 0 0 -4.9 1.47v13.72h-4.41zm0 0" transform="translate(235.17 257.4)"/><path d="m70.05 84.62-7.35-18.62h4.41l4.9 14.7 4.9-14.7h4.41l-7.35 18.62zm0 0" transform="translate(244.53 257.4)"/><path d="m67.59 91.25v-18.62h3.92v18.62zm1.96-22.05c-.98 0-1.47 0-1.96-.49s-.49-.98-.49-1.96 0-1.47.49-1.96.98-.49 1.96-.49 1.47 0 1.96.49.49.98.49 1.96 0 1.47-.49 1.96-.98.49-1.96.49zm0 0" transform="translate(261.69 250.77)"/><path d="m83.5 84.42c-1.47.98-2.94.98-5.39.98a10.622 10.622 0 0 1 -6.86-2.45c-1.47-1.47-2.45-3.92-2.45-7.35a12.036 12.036 0 0 1 2.45-7.35c1.47-1.96 3.92-2.45 6.86-2.45a14.5 14.5 0 0 1 4.9.98v2.94a14.308 14.308 0 0 0 -4.41-.98c-1.96 0-3.43.49-3.92 1.47a5.99 5.99 0 0 0 -1.47 4.41v.49a5.99 5.99 0 0 0 1.47 4.41 5.564 5.564 0 0 0 3.92 1.47 14.308 14.308 0 0 0 4.41-.98v4.41zm0 0" transform="translate(268.32 256.62)"/><path d="m76.32 76.68c0 1.96.49 3.43 1.47 3.92a5.989 5.989 0 0 0 4.41 1.47 24.6 24.6 0 0 0 5.88-.98v2.94a6.964 6.964 0 0 1 -2.94.98 8.339 8.339 0 0 1 -3.43.49 9.693 9.693 0 0 1 -6.86-2.45c-1.47-1.47-2.45-3.92-2.45-7.35a12.036 12.036 0 0 1 2.45-7.35c1.47-1.96 3.92-2.45 6.37-2.45s4.41.49 5.39 1.96c1.47 1.47 1.96 2.94 1.96 5.39a7.266 7.266 0 0 1 -.49 3.43zm4.9-7.84a5.024 5.024 0 0 0 -4.9 4.9h8.82v-.49a7.082 7.082 0 0 0 -.98-3.43 6.964 6.964 0 0 0 -2.94-.98zm0 0" transform="translate(282.36 257.01)"/><path d="m86.49 80.01a1.8 1.8 0 0 0 -.49-1.47c-.49-.49-.98-.49-1.96-.98l-2.94-.98a5.162 5.162 0 0 1 -3.92-5.39 3.977 3.977 0 0 1 1.96-3.92 8.278 8.278 0 0 1 4.9-1.47 17.616 17.616 0 0 1 5.39.98v2.94a20.839 20.839 0 0 0 -5.39-.98 3.672 3.672 0 0 0 -2.45.49c-.49.49-.98.98-.98 1.47a1.8 1.8 0 0 0 .49 1.47c.49.49.98.49 1.96.98l2.94.98a7.534 7.534 0 0 1 2.94 1.96 6.965 6.965 0 0 1 .98 2.94c0 1.96-.49 3.43-1.96 4.41a8.8 8.8 0 0 1 -5.39 1.47 8.339 8.339 0 0 1 -3.43-.49 6.964 6.964 0 0 1 -2.94-.98v-1.96a15.572 15.572 0 0 0 6.37.98c1.47 0 1.96 0 2.45-.49 1.47-.49 1.47-.98 1.47-1.96zm0 0" transform="translate(297.18 256.62)"/></g></svg>