<svg width="16" height="16" viewBox="0 0 16 16" fill="none" xmlns="http://www.w3.org/2000/svg">
<g clip-path="url(#clip0_735_8)">
<path d="M15.8073 0.53102C15.6333 0.35402 15.3973 0.24202 15.1673 0.16802C14.896 0.0871567 14.6166 0.0368447 14.3343 0.0180204C13.7143 -0.0309796 12.9403 0.0180204 12.0823 0.19302C10.3653 0.54502 8.26426 1.41502 6.31526 3.10002C4.36626 4.78502 3.14726 6.82402 2.55726 8.52302C2.26326 9.37002 2.11726 10.157 2.12826 10.791C2.13326 11.107 2.17826 11.411 2.28226 11.671C2.29892 11.7117 2.31759 11.7524 2.33826 11.793C1.55165 12.9051 0.798647 14.0407 0.0802553 15.198C0.00791515 15.315 -0.0161484 15.4554 0.0131463 15.5898C0.0424409 15.7241 0.122801 15.8418 0.237255 15.918C0.293762 15.9548 0.357066 15.9798 0.423422 15.9917C0.489777 16.0035 0.557834 16.0019 0.623568 15.987C0.689301 15.9721 0.751374 15.9441 0.806113 15.9048C0.860853 15.8655 0.907146 15.8156 0.942255 15.758C1.6302 14.6509 2.34983 13.5638 3.10026 12.498C3.38526 12.639 3.71626 12.693 4.05826 12.68C4.57126 12.66 5.15626 12.492 5.78126 12.19C7.03126 11.585 8.52526 10.403 10.0843 8.54802L11.6023 6.99802C11.6985 6.89909 11.7523 6.76652 11.7523 6.62852C11.7523 6.49052 11.6985 6.35796 11.6023 6.25902L10.8733 5.51502L12.1843 5.72402C12.2647 5.73702 12.3472 5.73016 12.4244 5.70401C12.5016 5.67787 12.5712 5.63324 12.6273 5.57402L13.2903 4.89002C13.9533 4.21002 14.5823 3.56502 15.0533 2.99802C15.3673 2.62002 15.6383 2.24602 15.8073 1.89102C15.9703 1.54602 16.0853 1.11802 15.9193 0.70302C15.8942 0.638559 15.8561 0.579992 15.8073 0.53102ZM3.73326 11.62C5.38526 9.37402 7.24026 7.21502 9.30926 5.39402L10.5193 6.62802L9.34826 7.82402L9.32126 7.85402C7.82126 9.64302 6.43025 10.721 5.34425 11.247C4.80025 11.51 4.35426 11.625 4.02026 11.637C3.92422 11.6417 3.82796 11.6366 3.73326 11.62ZM10.5023 4.40002C11.8123 3.37202 13.2023 2.48602 14.6743 1.80002C14.5492 1.98053 14.4157 2.15506 14.2743 2.32302C13.8323 2.85602 13.2463 3.45702 12.5933 4.12702L12.0833 4.65102L10.5023 4.40002ZM13.8483 1.04302C9.59425 3.14702 6.04526 6.80002 3.14926 10.678C3.15626 10.214 3.27026 9.59202 3.51926 8.87202C4.05226 7.33702 5.16926 5.45702 6.97426 3.89602C8.78126 2.33502 10.7203 1.53602 12.2843 1.21602C12.7986 1.1071 13.3225 1.04915 13.8483 1.04302Z" fill="url(#paint0_linear_735_8)"/>
</g>
<defs>
<linearGradient id="paint0_linear_735_8" x1="8.00064" y1="6.10352e-05" x2="8.00064" y2="15.9995" gradientUnits="userSpaceOnUse">
<stop stop-color="#008CFF"/>
<stop offset="1" stop-color="#1EFF00"/>
</linearGradient>
<clipPath id="clip0_735_8">
<rect width="16" height="16" fill="white"/>
</clipPath>
</defs>
</svg>
