<svg enable-background="new 0 0 158 75" viewBox="0 0 158 75" xmlns="http://www.w3.org/2000/svg"><path clip-rule="evenodd" d="m67.8 50.4c-.1 0 0 .1 0 0 0 .1 0 .1 0 0zm0 .1c-.3 0-1 .1-1.7.1-2.3 0-3.1-1.1-3.1-2.5v-9.2h4.7c.3 0 .5-.2.5-.6v-5c0-.3-.2-.5-.5-.5h-4.7v-6.2c0-.2-.1-.4-.4-.4h-6.4c-.3 0-.4.1-.4.4v6.4s-3.2.8-3.4.8c-.2.1-.4.3-.4.5v4c0 .3.2.6.5.6h3.3v9.7c0 7.2 5 7.9 8.4 7.9 1.6 0 3.5-.5 3.8-.6.2-.1.3-.3.3-.5v-4.4c-.1-.3-.3-.5-.5-.5zm70-6.5c0-5.3-2.2-6.1-4.4-5.8-1.8.1-3.2 1-3.2 1v10.4s1.4 1 3.6 1.1c3 0 4-1.1 4-6.7zm7.1-.5c0 10.1-3.3 13-9 13-4.8 0-7.4-2.5-7.4-2.5s-.1 1.4-.3 1.5c-.1.2-.2.2-.4.2h-4.4c-.3 0-.6-.2-.6-.5l.1-32.8c0-.3.2-.5.5-.5h6.3c.3 0 .5.2.5.5v11.1s2.4-1.6 6-1.6v-.1c3.5.2 8.7 1.6 8.7 11.7zm-25.7-10.7h-6.2c-.3 0-.5.2-.5.6v16.1s-1.6 1.2-3.8 1.2-2.9-1-2.9-3.2v-14c0-.3-.2-.5-.5-.5h-6.3c-.3 0-.5.2-.5.5v15.1c0 6.5 3.6 8.1 8.6 8.1 4.1 0 7.4-2.3 7.4-2.3s.1 1.2.2 1.3.3.3.5.3h4c.3 0 .5-.2.5-.5l.1-22.1c-.1-.3-.3-.6-.6-.6zm-70 0h-6.3c-.3 0-.5.3-.5.6v21.7c0 .6.4.8.9.8h5.7c.6 0 .7-.3.7-.8v-21.8c0-.3-.2-.5-.5-.5zm-3.1-10c-2.3 0-4.1 1.8-4.1 4.1s1.8 4.1 4.1 4.1c2.2 0 4-1.8 4-4.1s-1.8-4.1-4-4.1zm48.7-.7h-6.2c-.3 0-.5.2-.5.5v12.1h-9.8v-12.1c0-.3-.2-.5-.5-.5h-6.3c-.3 0-.5.2-.5.5v32.8c0 .3.3.5.5.5h6.3c.3 0 .5-.2.5-.5v-14h9.8l-.1 14c0 .3.2.5.5.5h6.3c.3 0 .5-.2.5-.5v-32.8c0-.3-.2-.5-.5-.5zm-55.7 14.5v17c0 .1 0 .3-.2.4 0 0-3.7 2.6-9.8 2.6-7.4 0-16.1-2.3-16.1-17.5s7.6-18.3 15.1-18.3c6.4 0 9 1.4 9.5 1.7.1.1.2.3.2.4l-1.2 5.3c0 .3-.3.6-.6.5-1.1-.3-2.7-1-6.4-1-4.3 0-9 1.2-9 11s4.4 10.9 7.6 10.9c2.7 0 3.7-.3 3.7-.3v-6.8h-4.3c-.3 0-.6-.2-.6-.5v-5.4c0-.3.2-.5.6-.5h11c.2 0 .5.2.5.5z" fill="#666" fill-rule="evenodd"/></svg>