<svg enable-background="new 0 0 49.6 57" viewBox="0 0 49.6 57" xmlns="http://www.w3.org/2000/svg"><g fill="#007fff"><path d="m48.9 4h-12.1c-.4 0-.7.3-.7.7v5.1h-1.5c-.4 0-.7.3-.7.7s.3.7.7.7h1.5v5.6c0 .4.3.7.7.7h5.5v4.8c0 .4.3.7.7.7s.7-.3.7-.7v-4.8h5.2c.4 0 .7-.3.7-.7v-12.1c0-.4-.3-.7-.7-.7z"/><path d="m43.7 38.7c0-.4-.3-.7-.7-.7s-.7.3-.7.7v1.2h-6.2v6.3h-4.8c-.4 0-.7.3-.7.7s.3.7.7.7h4.8v5.8h13.5v-13.5h-5.9zm4.5 2.6v10.7h-10.7v-10.7h5.5z"/><path d="m43 33.9c.4 0 .7-.3.7-.7v-5.5c0-.4-.3-.7-.7-.7s-.7.3-.7.7v5.5c.1.4.4.7.7.7z"/><path d="m29.2 9.8h-5.5c-.4 0-.7.3-.7.7s.3.7.7.7h5.5c.4 0 .7-.3.7-.7s-.3-.7-.7-.7z"/><path d="m18.3 9.8h-4.8v-5.1c0-.4-.3-.7-.7-.7h-12.1c-.4 0-.7.3-.7.7v12.1c0 .4.3.7.7.7h5.2v1.2c0 .4.3.7.7.7s.7-.3.7-.7v-1.2h5.5c.4 0 .7-.3.7-.7v-5.6h4.8c.4 0 .7-.3.7-.7-.1-.4-.4-.7-.7-.7zm-6.2.7v5.6h-10.7v-10.7h10.7z"/><path d="m6.6 30.4c.4 0 .7-.3.7-.7v-5.5c0-.4-.3-.7-.7-.7s-.7.3-.7.7v5.5c0 .3.3.7.7.7z"/><path d="m25.9 46.2h-5.5c-.4 0-.7.3-.7.7s.3.7.7.7h5.5c.4 0 .7-.3.7-.7 0-.3-.3-.7-.7-.7z"/><path d="m14.9 46.2h-1.5v-5.6c0-.4-.3-.7-.7-.7h-5.4v-4.8c0-.4-.3-.7-.7-.7s-.7.3-.7.7v4.8h-5.2c-.4 0-.7.3-.7.7v12.1c0 .4.3.7.7.7h12.1c.4 0 .7-.3.7-.7v-5.1h1.5c.4 0 .7-.3.7-.7-.1-.3-.4-.7-.8-.7zm-2.8.7v5.1h-10.7v-10.7h5.2 5.5z"/></g></svg>