<svg fill="none" height="52" viewBox="0 0 52 52" width="52" xmlns="http://www.w3.org/2000/svg" xmlns:xlink="http://www.w3.org/1999/xlink"><linearGradient id="a" gradientUnits="userSpaceOnUse" x1="26" x2="26" y1="2.91162" y2="45.4996"><stop offset="0" stop-color="#008cff"/><stop offset="1" stop-color="#1eff00"/></linearGradient><clipPath id="b"><path d="m0 0h52v52h-52z"/></clipPath><g clip-path="url(#b)"><path d="m27.625 8.73279c2.1255-2.23925 5.7915-2.8795 10.114-2.444 4.0105.403 8.1348 1.69975 11.011 2.90225v32.24976c-2.9835-1.1375-6.8477-2.249-10.6827-2.6325-3.5555-.3608-7.4035-.1268-10.4423 1.599zm-1.625-2.938c-3.2013-2.75275-7.8422-3.16225-12.0672-2.73975-4.92055.49725-9.88655 2.184-12.98055 3.59125-.283891.12912-.52463.3372-.693482.59941-.1688513.26221-.25868164.56747-.258768.87934v35.74996c.00007528.2719.0683707.5395.198631.7781.130259.2387.31832.4408.546954.588.228635.1471.490535.2345.761715.2542.27117.0197.54295-.0289.79045-.1415 2.8665-1.3 7.48475-2.8633 11.96005-3.315 4.5792-.4615 8.4175.2827 10.4747 2.8502.1523.1898.3452.343.5646.4483.2194.1052.4596.1598.7029.1598s.4835-.0546.7029-.1598c.2194-.1053.4123-.2585.5646-.4483 2.0573-2.5675 5.8955-3.3117 10.4715-2.8502 4.4785.4517 9.1 2.015 11.9633 3.315.2474.1126.5192.1612.7904.1415s.5331-.1071.7617-.2542c.2286-.1472.4167-.3493.547-.588.1302-.2386.1985-.5062.1986-.7781v-35.74996c-.0001-.31187-.0899-.61713-.2588-.87934-.1688-.26221-.4096-.47029-.6935-.59941-3.094-1.40725-8.0599-3.094-12.9804-3.59125-4.225-.42575-8.866-.013-12.0673 2.73975z" fill="url(#a)"/></g></svg>