<svg enable-background="new 0 0 178.9 75" viewBox="0 0 178.9 75" xmlns="http://www.w3.org/2000/svg"><g fill="#666"><path d="m67.8 41.6-.9 2.5h-.1c-.2-.6-.4-1.4-.8-2.5l-4.7-11.8h-4.6v18.9h3v-11.6c0-.7 0-1.6 0-2.6 0-.5-.1-.9-.1-1.2.2.7.3 1.3.4 1.6l5.7 13.8h2.1l5.6-13.9c.1-.3.3-.9.4-1.5h.1c-.1 1.4-.1 2.6-.2 3.4v12h3.3v-18.9h-4.4zm12.3-6.5h3.2v13.6h-3.2zm1.7-5.7c-.5 0-1 .2-1.4.5-.4.4-.6.8-.6 1.3s.2.9.6 1.3.8.5 1.4.5 1-.2 1.4-.5c.4-.4.6-.8.6-1.3s-.2-.9-.6-1.3c-.4-.3-.9-.5-1.4-.5m12.8 5.6c-.6-.1-1.2-.2-1.8-.2-1.5 0-2.8.3-3.9.9s-2 1.5-2.6 2.6-.9 2.4-.9 3.9c0 1.3.3 2.5.8 3.5.6 1 1.4 1.8 2.4 2.4s2.2.8 3.5.8c1.5 0 2.8-.3 3.8-.9v-2.9l.1.2c-.5.4-1 .6-1.5.8-.6.2-1.1.3-1.5.3-1.3 0-2.3-.4-3-1.2s-1.1-1.8-1.1-3.2.4-2.5 1.1-3.3 1.8-1.2 3-1.2c1 0 2.1.4 3 1l.1.1v-3.1c-.4-.2-.9-.4-1.5-.5m10.5-.1c-.8 0-1.5.3-2.1.7-.5.4-.9 1.1-1.2 1.8v-2.4h-3.2v13.6h3.2v-6.9c0-1.2.3-2.1.8-2.9.5-.7 1.2-1.1 2-1.1.3 0 .6.1.9.1.4.1.6.2.7.3l.1.1v-3.1h-.1c-.1-.2-.6-.2-1.1-.2m8.6-.1c-2.2 0-4 .7-5.2 1.9-1.3 1.3-1.9 3.1-1.9 5.3 0 2.1.6 3.8 1.8 5.1 1.2 1.2 2.9 1.8 5 1.8 2.2 0 3.9-.7 5.2-2s1.9-3.1 1.9-5.2-.6-3.9-1.8-5.1-2.9-1.8-5-1.8m2.6 10.4c-.6.7-1.5 1.1-2.7 1.1s-2.1-.4-2.7-1.2c-.7-.7-1-1.8-1-3.2 0-1.5.4-2.6 1-3.4.7-.8 1.6-1.2 2.7-1.2s2 .4 2.6 1.1 1 1.8 1 3.3c0 1.6-.3 2.8-.9 3.5m11.2-4.5c-1-.4-1.6-.7-1.9-1s-.4-.6-.4-1 .2-.7.5-1 .8-.4 1.4-.4c.5 0 1.1.1 1.6.3s1 .4 1.4.7l.1.1v-3h-.1c-.4-.2-.8-.3-1.5-.4-.6-.1-1.1-.2-1.6-.2-1.5 0-2.8.4-3.7 1.2-1 .7-1.5 1.8-1.5 3 0 .6.1 1.2.3 1.7s.5.9 1 1.3c.4.4 1.1.7 1.9 1.1.7.3 1.3.6 1.6.7.4.2.6.4.7.6s.2.4.2.7c0 .9-.7 1.4-2.1 1.4-.5 0-1.1-.1-1.8-.3s-1.3-.5-1.8-.9l-.1-.1v3.1h.1c.5.2 1 .4 1.7.5s1.3.2 1.8.2c1.6 0 3-.4 3.9-1.2 1-.8 1.5-1.8 1.5-3.1 0-.9-.3-1.7-.8-2.3-.2-.6-1.1-1.2-2.4-1.7m12.1-5.9c-2.2 0-4 .7-5.2 1.9-1.3 1.3-1.9 3.1-1.9 5.3 0 2.1.6 3.8 1.8 5.1 1.2 1.2 2.9 1.8 5 1.8 2.2 0 3.9-.7 5.2-2s1.9-3.1 1.9-5.2-.6-3.9-1.8-5.1c-1.3-1.2-2.9-1.8-5-1.8m2.5 10.4c-.6.7-1.5 1.1-2.7 1.1s-2.1-.4-2.7-1.2c-.7-.7-1-1.8-1-3.2 0-1.5.4-2.6 1-3.4.7-.8 1.6-1.2 2.7-1.2s2 .4 2.6 1.1 1 1.8 1 3.3c0 1.6-.3 2.8-.9 3.5m21.2-7.5v-2.6h-3.2v-4h-.1l-3 .9h-.1v3h-4.8v-1.7c0-.8.2-1.4.5-1.8s.8-.6 1.5-.6c.4 0 .9.1 1.4.3l.1.1v-2.8h-.1c-.4-.2-1-.3-1.8-.3-.9 0-1.8.2-2.6.6-.7.4-1.3 1-1.7 1.7s-.6 1.6-.6 2.5v1.9h-2.2v2.6h2.2v10.9h3.2v-10.7h4.8v7c0 2.9 1.4 4.3 4 4.3.4 0 .9-.1 1.4-.2s.8-.2 1-.3v-2.6l-.1.1c-.2.1-.4.2-.7.3s-.5.1-.6.1c-.6 0-1.1-.2-1.4-.5s-.4-.9-.4-1.8v-6.4z"/><path d="m15.7 23.5h15v15h-15z"/><path d="m32.2 23.5h15v15h-15z"/><path d="m15.7 40h15v15h-15z"/><path d="m32.2 40h15v15h-15z"/></g></svg>