<svg width="16" height="16" viewBox="0 0 16 16" fill="none" xmlns="http://www.w3.org/2000/svg">
<g clip-path="url(#clip0_735_12)">
<path d="M4.406 1.342C5.40548 0.480135 6.68024 0.00413852 8 0C10.69 0 12.923 2 13.166 4.579C14.758 4.804 16 6.137 16 7.773C16 9.569 14.502 11 12.687 11H10C9.86739 11 9.74021 10.9473 9.64645 10.8536C9.55268 10.7598 9.5 10.6326 9.5 10.5C9.5 10.3674 9.55268 10.2402 9.64645 10.1464C9.74021 10.0527 9.86739 10 10 10H12.688C13.979 10 15 8.988 15 7.773C15 6.557 13.98 5.545 12.687 5.545H12.187V5.045C12.188 2.825 10.328 1 8 1C6.91988 1.00431 5.87684 1.39443 5.059 2.1C4.302 2.752 3.906 3.538 3.906 4.155V4.603L3.461 4.652C2.064 4.805 1 5.952 1 7.318C1 8.785 2.23 10 3.781 10H6C6.13261 10 6.25979 10.0527 6.35355 10.1464C6.44732 10.2402 6.5 10.3674 6.5 10.5C6.5 10.6326 6.44732 10.7598 6.35355 10.8536C6.25979 10.9473 6.13261 11 6 11H3.781C1.708 11 0 9.366 0 7.318C0 5.555 1.266 4.095 2.942 3.725C3.085 2.862 3.64 2.002 4.406 1.342Z" fill="url(#paint0_linear_735_12)"/>
<path d="M7.64566 15.854C7.6921 15.9006 7.74728 15.9375 7.80802 15.9627C7.86877 15.9879 7.93389 16.0009 7.99966 16.0009C8.06542 16.0009 8.13054 15.9879 8.19129 15.9627C8.25203 15.9375 8.30721 15.9006 8.35366 15.854L11.3537 12.854C11.4475 12.7601 11.5003 12.6328 11.5003 12.5C11.5003 12.3672 11.4475 12.2399 11.3537 12.146C11.2598 12.0521 11.1324 11.9994 10.9997 11.9994C10.8669 11.9994 10.7395 12.0521 10.6457 12.146L8.49966 14.293V5.5C8.49966 5.36739 8.44698 5.24021 8.35321 5.14645C8.25944 5.05268 8.13226 5 7.99966 5C7.86705 5 7.73987 5.05268 7.6461 5.14645C7.55233 5.24021 7.49966 5.36739 7.49966 5.5V14.293L5.35366 12.146C5.25977 12.0521 5.13243 11.9994 4.99966 11.9994C4.86688 11.9994 4.73954 12.0521 4.64566 12.146C4.55177 12.2399 4.49902 12.3672 4.49902 12.5C4.49902 12.6328 4.55177 12.7601 4.64566 12.854L7.64566 15.854Z" fill="url(#paint1_linear_735_12)"/>
</g>
<defs>
<linearGradient id="paint0_linear_735_12" x1="8" y1="0" x2="8" y2="11" gradientUnits="userSpaceOnUse">
<stop stop-color="#008CFF"/>
<stop offset="1" stop-color="#1EFF00"/>
</linearGradient>
<linearGradient id="paint1_linear_735_12" x1="7.99966" y1="5" x2="7.99966" y2="16.0009" gradientUnits="userSpaceOnUse">
<stop stop-color="#008CFF"/>
<stop offset="1" stop-color="#1EFF00"/>
</linearGradient>
<clipPath id="clip0_735_12">
<rect width="16" height="16" fill="white"/>
</clipPath>
</defs>
</svg>
