<?xml version="1.0" encoding="utf-8"?>
<!-- Generator: Adobe Illustrator 25.0.1, SVG Export Plug-In . SVG Version: 6.00 Build 0)  -->
<svg version="1.1" id="Group_15" xmlns="http://www.w3.org/2000/svg" xmlns:xlink="http://www.w3.org/1999/xlink" x="0px" y="0px"
	 viewBox="0 0 49.6 57" style="enable-background:new 0 0 49.6 57;" xml:space="preserve">
<style type="text/css">
	.st0{fill:#007FFF;}
</style>
<g id="Group_290" transform="translate(350.114 -721.582)">
	<path id="Path_681" class="st0" d="M-325.3,754.4c-0.1,0-0.2,0-0.3-0.1l-23.1-11.8c-0.3-0.2-0.4-0.6-0.3-0.9
		c0.1-0.1,0.2-0.2,0.3-0.3l23-11c0.2-0.1,0.4-0.1,0.5,0l23,11c0.3,0.2,0.5,0.6,0.3,0.9c-0.1,0.1-0.2,0.2-0.3,0.3l-23,11.8
		C-325.1,754.4-325.2,754.4-325.3,754.4z M-346.9,742l21.6,11l21.6-11l-21.6-10.3L-346.9,742z"/>
	<path id="Path_682" class="st0" d="M-325.3,762c-0.1,0-0.2,0-0.3-0.1l-23.1-11.8c-0.2-0.1-0.4-0.3-0.4-0.6c0-0.2,0.1-0.5,0.4-0.6
		l4.9-2.4c0.3-0.2,0.7,0,0.9,0.3c0,0,0,0,0,0c0.2,0.3,0,0.7-0.3,0.9l-3.7,1.8l21.6,11l21.6-11l-3.8-1.8c-0.3-0.2-0.5-0.5-0.3-0.9
		c0.1-0.3,0.5-0.5,0.8-0.3c0,0,0,0,0,0l5,2.4c0.3,0.2,0.5,0.6,0.3,0.9c-0.1,0.1-0.2,0.2-0.3,0.3l-23,11.8
		C-325.1,761.9-325.2,762-325.3,762z"/>
	<path id="Path_683" class="st0" d="M-325.3,769.4c-0.1,0-0.2,0-0.3-0.1l-23.1-11.8c-0.3-0.2-0.4-0.6-0.3-0.9
		c0.1-0.1,0.2-0.2,0.3-0.3l4.9-2.4c0.3-0.2,0.7,0,0.9,0.3c0,0,0,0,0,0c0.1,0.3,0,0.7-0.3,0.9l-3.7,1.8l21.6,11l21.6-11l-3.8-1.8
		c-0.3-0.2-0.5-0.5-0.3-0.9c0.1-0.3,0.5-0.5,0.8-0.3c0,0,0,0,0,0l5,2.4c0.3,0.2,0.5,0.6,0.3,0.9c-0.1,0.1-0.2,0.2-0.3,0.3l-23,11.8
		C-325.1,769.4-325.2,769.4-325.3,769.4z"/>
	<path id="Path_684" class="st0" d="M-325.3,777.7c-0.1,0-0.2,0-0.3-0.1l-23.1-11.8c-0.3-0.2-0.4-0.6-0.3-0.9
		c0.1-0.1,0.2-0.2,0.3-0.3l4.9-2.4c0.3-0.2,0.7,0,0.9,0.3c0,0,0,0,0,0c0.2,0.3,0,0.7-0.3,0.9l-3.7,1.8l21.6,11l21.6-11l-3.8-1.8
		c-0.3-0.2-0.5-0.5-0.3-0.9c0.1-0.3,0.5-0.5,0.8-0.3c0,0,0,0,0,0l5,2.4c0.3,0.2,0.5,0.6,0.3,0.9c-0.1,0.1-0.2,0.2-0.3,0.3l-23,11.8
		C-325.1,777.7-325.2,777.7-325.3,777.7z"/>
</g>
</svg>
