<svg fill="none" height="81" viewBox="0 0 247 81" width="247" xmlns="http://www.w3.org/2000/svg"><g fill="#fff"><path d="m154.241 63.7043c.216 0 .338-.109.338-.2653 0-.1723-.122-.2644-.338-.2644h-.402v.5296zm-.722-.804h.75c.366 0 .638.1746.638.5121 0 .2653-.159.4306-.384.4946l.44.6112h-.384l-.394-.5578h-.346v.5578h-.32zm2.08.8413v-.0087c0-.7766-.618-1.4167-1.441-1.4167-.817 0-1.444.6485-1.444 1.4259v.0087c0 .7773.618 1.4175 1.444 1.4175.815 0 1.441-.6501 1.441-1.4267zm-3.073.0095v-.0087c0-.868.722-1.6005 1.632-1.6005.917 0 1.63.7233 1.63 1.5913v.0088c0 .8673-.722 1.5997-1.63 1.5997-.919 0-1.632-.721-1.632-1.5906z"/><path d="m91.1267 62.7502h1.0016l2.3306 6.6236 2.2361-6.6457h.7571l2.2369 6.6457 2.329-6.6236h.968l-2.913 8.0114h-.7802l-2.2368-6.4544-2.2486 6.4544h-.768z"/><path d="m107.836 67.442c-.093-1.067-.722-1.999-1.922-1.999-1.048 0-1.841.8528-1.957 1.999zm-4.788.3407v-.0204c0-1.6942 1.224-3.0591 2.889-3.0591 1.784 0 2.808 1.387 2.808 3.1033 0 .1136 0 .1822-.012.2842h-4.776c.128 1.2728 1.048 1.9891 2.12 1.9891.828 0 1.41-.3307 1.9-.8291l.559.4885c-.607.6577-1.34 1.1012-2.481 1.1012-1.655 0-3.007-1.2386-3.007-3.0577z"/><path d="m110.235 62.4091h.896v8.2957h-.896z"/><path d="m113.124 62.4091h.896v8.2957h-.896z"/><path d="m122.765 68.5449v-.567c-.443-.1249-1.037-.2499-1.77-.2499-1.131 0-1.759.4763-1.759 1.214v.0233c0 .7377.698 1.1699 1.513 1.1699 1.108 0 2.016-.6582 2.016-1.5903zm-4.438.4532v-.0233c0-1.2384 1.048-1.8977 2.575-1.8977.768 0 1.316.1029 1.851.2499v-.2034c0-1.057-.663-1.6035-1.793-1.6035-.711 0-1.271.1814-1.829.4322l-.268-.7149c.664-.2964 1.315-.4893 2.19-.4893.85 0 1.503.2156 1.946.6486.407.3978.616.9663.616 1.7147v3.5919h-.862v-.8871c-.419.5342-1.118 1.0121-2.178 1.0121-1.119 0-2.248-.6245-2.248-1.8302z"/><path d="m125.24 62.4093h.897v3.4433c.396-.6372 1.026-1.1493 2.062-1.1493 1.456 0 2.306.9557 2.306 2.3534v3.6483h-.897v-3.4326c0-1.0914-.605-1.7712-1.665-1.7712-1.036 0-1.806.7378-1.806 1.8398v3.364h-.897z"/><path d="m136.488 67.442c-.093-1.067-.722-1.999-1.921-1.999-1.049 0-1.84.8528-1.956 1.999zm-4.787.3407v-.0204c0-1.6942 1.224-3.0591 2.889-3.0591 1.783 0 2.808 1.387 2.808 3.1033 0 .1136 0 .1822-.013.2842h-4.774c.128 1.2728 1.048 1.9891 2.119 1.9891.828 0 1.409-.3307 1.899-.8291l.559.4885c-.607.6577-1.339 1.1012-2.482 1.1012-1.652 0-3.005-1.2386-3.005-3.0577z"/><path d="m142.815 68.5449v-.567c-.444-.1249-1.036-.2499-1.772-.2499-1.129 0-1.758.4763-1.758 1.214v.0233c0 .7377.699 1.1699 1.514 1.1699 1.108 0 2.016-.6582 2.016-1.5903zm-4.439.4532v-.0233c0-1.2384 1.048-1.8977 2.574-1.8977.77 0 1.317.1029 1.853.2499v-.2034c0-1.057-.664-1.6035-1.795-1.6035-.711 0-1.27.1814-1.829.4322l-.267-.7149c.664-.2964 1.316-.4893 2.19-.4893.851 0 1.503.2156 1.947.6486.407.3978.616.9663.616 1.7147v3.5919h-.862v-.8871c-.42.5342-1.118 1.0121-2.178 1.0121-1.12 0-2.249-.6245-2.249-1.8302z"/><path d="m150.022 67.7724v-.0232c0-1.3535-1.061-2.2612-2.179-2.2612-1.165 0-2.119.8391-2.119 2.2612v.0232c0 1.3855.988 2.2727 2.119 2.2727 1.118 0 2.179-.9215 2.179-2.2727zm-5.219.0117v-.0204c0-1.9213 1.432-3.0584 2.877-3.0584 1.118 0 1.84.5922 2.307 1.2499v-3.5439h.897v8.2957h-.897v-1.182c-.49.7042-1.201 1.307-2.307 1.307-1.445 0-2.877-1.1144-2.877-3.0479z"/><path d="m152.292 69.5113h1.073v1.1935h-1.073z"/><path d="m67 45.1857h1.9126l3.1104 4.7168 3.1127-4.7168h1.9118v9.9762h-1.7962v-7.1525l-3.2283 4.7038h-.0571l-3.2009-4.6756v7.1243h-1.765z"/><path d="m83.843 52.4541v-.5137c-.4571-.17-1.0548-.2972-1.7548-.2972-1.1384 0-1.8127.4687-1.8127 1.2514v.0291c0 .7293.6563 1.1401 1.5048 1.1401 1.1696 0 2.0627-.654 2.0627-1.6097zm-5.291.5412v-.029c0-1.6241 1.2993-2.4251 3.1861-2.4251.8618 0 1.4743.1325 2.072.317v-.1845c0-1.0669-.6703-1.6386-1.9134-1.6386-.8617 0-1.504.1846-2.2063.4688l-.4657-1.352c.8461-.3689 1.6782-.6143 2.9064-.6143 1.1571 0 2.0142.3018 2.5541.8391.5727.5449.8352 1.3398.8352 2.3222v4.463h-1.7251v-.9413c-.5243.6105-1.3274 1.0975-2.5119 1.0975-1.4423 0-2.7314-.8092-2.7314-2.3228z"/><path d="m87.3748 47.6384h1.7665v7.5229h-1.7665zm-.0743-2.7909h1.9002v1.6355h-1.9002z"/><path d="m91.083 47.6387h1.7696v1.1554c.4962-.7011 1.2126-1.3147 2.408-1.3147 1.7392 0 2.7463 1.1417 2.7463 2.8801v4.8021h-1.765v-4.2777c0-1.1669-.5992-1.8337-1.6501-1.8337-1.025 0-1.7392.6966-1.7392 1.8649v4.2465h-1.7696z"/><path d="m102.456 45.1857h1.795v8.3787h5.002v1.5975h-6.797z"/><path d="m110.656 47.6384h1.768v7.5229h-1.768zm-.072-2.7909h1.898v1.6355h-1.898z"/><path d="m114.335 47.6387h1.766v1.1554c.501-.7011 1.213-1.3147 2.415-1.3147 1.737 0 2.743 1.1417 2.743 2.8801v4.8021h-1.764v-4.2777c0-1.1669-.602-1.8337-1.654-1.8337-1.018 0-1.74.6966-1.74 1.8649v4.2465h-1.766z"/><path d="m128.284 50.8718c-.114-1.1119-.788-1.98-1.957-1.98-1.085 0-1.838.8132-1.999 1.98zm-5.711.5579v-.0296c0-2.1523 1.563-3.9204 3.772-3.9204 2.45 0 3.694 1.8855 3.694 4.0499 0 .1563-.015.3125-.031.4809h-5.664c.186 1.2278 1.079 1.9145 2.217 1.9145.862 0 1.476-.3156 2.089-.8994l1.035.8994c-.729.8513-1.736 1.4076-3.153 1.4076-2.237 0-3.959-1.5808-3.959-3.9029z"/><path d="m133.968 45.1857h1.796v4.1452h4.877v-4.1452h1.803v9.9762h-1.803v-4.2024h-4.877v4.2024h-1.796z"/><path d="m149.71 50.8718c-.114-1.1119-.786-1.98-1.957-1.98-1.078 0-1.838.8132-1.997 1.98zm-5.711.5579v-.0296c0-2.1523 1.565-3.9204 3.772-3.9204 2.451 0 3.692 1.8855 3.692 4.0499 0 .1563-.013.3125-.029.4809h-5.664c.188 1.2278 1.073 1.9145 2.217 1.9145.858 0 1.475-.3156 2.086-.8994l1.041.8994c-.731.8513-1.739 1.4076-3.154 1.4076-2.237 0-3.961-1.5808-3.961-3.9029z"/><path d="m157.686 52.4541v-.5137c-.455-.17-1.049-.2972-1.748-.2972-1.142 0-1.815.4687-1.815 1.2514v.0291c0 .7293.657 1.1401 1.5 1.1401 1.176 0 2.063-.654 2.063-1.6097zm-5.281.5412v-.029c0-1.6241 1.297-2.4251 3.18-2.4251.859 0 1.476.1325 2.072.317v-.1845c0-1.0669-.674-1.6386-1.913-1.6386-.858 0-1.503.1846-2.204.4688l-.465-1.352c.845-.3689 1.676-.6143 2.904-.6143 1.155 0 2.016.3018 2.552.8391.573.5449.837 1.3398.837 2.3222v4.463h-1.727v-.9413c-.522.6105-1.324 1.0975-2.509 1.0975-1.447 0-2.727-.8092-2.727-2.3228z"/><path d="m161.224 44.7599h1.765v10.4014h-1.765z"/><path d="m165.295 53.0807v-3.9592h-.977v-1.4831h.977v-2.0646h1.766v2.0646h2.076v1.4831h-2.076v3.6909c0 .6669.356.9398.951.9398.394 0 .748-.0861 1.093-.2578v1.4129c-.435.2409-.917.3819-1.592.3819-1.297 0-2.218-.5562-2.218-2.2085z"/><path d="m170.566 44.76h1.772v4.0339c.5-.7012 1.211-1.3147 2.408-1.3147 1.74 0 2.746 1.1417 2.746 2.8809v4.8013h-1.771v-4.2778c0-1.1668-.593-1.8337-1.646-1.8337-1.024 0-1.737.6966-1.737 1.865v4.2465h-1.772z"/><path d="m179.909 46.2782c.255 0 .399-.1311.399-.3171 0-.2057-.144-.3124-.399-.3124h-.481v.6295zm-.858-.9572h.89c.436 0 .758.2071.758.6089 0 .3155-.189.5121-.456.5883l.523.7263h-.458l-.468-.6615h-.412v.6615h-.377zm2.472 1.0006v-.0116c0-.926-.733-1.6851-1.713-1.6851-.972 0-1.716.7728-1.716 1.6957v.0088c0 .9244.733 1.6835 1.716 1.6835.967 0 1.713-.7683 1.713-1.6913zm-3.655.0066v-.0087c0-1.0335.86-1.9023 1.942-1.9023 1.089 0 1.938.8582 1.938 1.8916v.0116c0 1.0327-.859 1.9023-1.938 1.9023-1.095 0-1.942-.8611-1.942-1.8945z"/><path d="m131.321 37.2399c.005.1517-.009-.4389-.009-.5593 0-5.7525 5.592-10.435 11.491-10.4365v-3.4623c-5.441 0-10.198 2.9532-12.722 7.0305-.003.0029-.006.0087-.008.0116.696 2.2254 1.117 4.5788 1.233 7.0252.005.1302.012.2596.015.3908z"/><path d="m126.24 28.8428c-.499-1.1592-1.092-2.2741-1.76-3.338-.879 1.23-1.619 2.5554-2.205 3.9699-.007.0174-.015.0365-.021.0534 1.007 2.422 1.568 5.0864 1.568 7.923v.0442c-.003.0677 0 .0395 0-.0442 0-3.1209.908-6.0238 2.445-8.5388-.009-.0203-.016-.0433-.026-.0662 0-.0008-.001-.0027-.001-.0033z"/><path d="m142.803 19.3375v-3.4639c-6.299.0983-11.97 2.9251-15.993 6.9072-.015.0145-.03.0328-.046.0488.635.9648 1.211 1.9655 1.725 3.005-.001 0 0 .0016 0 0 .018.0381.037.0793.055.1174.006-.0058.014-.0145.02-.0233 3.541-3.7404 8.709-6.4853 14.239-6.5912z"/><path d="m124.573 19.9069c.031.0381.06.0783.092.1158.023-.0203.046-.0433.069-.0648 4.787-4.2763 11.189-7.3201 18.069-7.4947v-3.46306c-7.939.17086-15.13 3.54306-20.442 8.40996-.037.0328-.071.0695-.107.1023.819.756 1.596 1.5546 2.319 2.3945z"/><path d="m120.027 25.5044c.016-.0232.03-.0497.045-.0738.658-1.0296 1.385-2.0128 2.182-2.941-.021-.0233-.04-.0512-.061-.0756-.731-.8413-1.517-1.6416-2.35-2.3908-.728.8536-1.405 1.7468-2.025 2.6842-.026.0389-.048.0823-.075.1218.823.8155 1.58 1.6912 2.253 2.6286.011.0145.021.0321.031.0466z"/><path d="m115.963 25.9521c-.587 1.2164-1.098 2.4845-1.509 3.7977 0 .0022-.002.0058-.002.0058-.006.0232-.012.045-.018.0671 0 .0007.001.0023.002.0029 1.214 1.9716 1.916 4.2945 1.916 6.8538 0 .1691-.013.4207-.02.6302-.003.093-.005.1183-.005.1183.064-3.111.746-5.7959 1.913-8.5167-.006-.0087-.01-.0175-.014-.0262-.647-1.0532-1.41-2.0328-2.263-2.9329z"/><path d="m113.202 36.8492c.115-2.4464.536-4.7998 1.232-7.026-.002-.0029-.005-.0087-.008-.0116-2.524-4.0773-7.28-7.0305-12.722-7.0305v3.4623c5.899.0015 11.49 4.6832 11.49 10.4357 0 .1212.003.2278 0 .3574 0 .0117-.004.0846-.004.0954.008-.0262.007-.1615.012-.2827z"/><path d="m114.435 29.8263c0-.0007-.001-.0022-.001-.0029-.696 2.2262-1.117 4.5796-1.232 7.026-.006.1296-.012.2598-.016.391-.004.1517-.009.3033-.012.4565h.008 3.127c.024-.3376.043-.6745.043-1.0167 0-2.5584-.702-4.8823-1.917-6.8539z"/><path d="m116.018 25.8348c.514-1.0395 1.091-2.0409 1.725-3.005-.016-.0175-.03-.0343-.046-.0497-4.022-3.9821-9.694-6.8081-15.993-6.9064v3.464c5.53.1052 10.699 2.8503 14.238 6.5916.008.0058.014.0174.021.0232.018-.038.035-.0796.055-.1177 0 .0015.001 0 0 0z"/><path d="m120.685 37.4513c0-2.8374.562-5.5018 1.569-7.9238-.008-.0175-.014-.0352-.022-.0535-.586-1.4137-1.326-2.739-2.205-3.9698-.668 1.0639-1.26 2.1796-1.76 3.3388v.0029c-.011.0232-.018.0442-.027.0662 1.536 2.515 2.445 5.4175 2.445 8.5392 0 .0839.003.1109 0 .0438z"/><path d="m123.823 37.4513c0-2.8374-.563-5.5018-1.569-7.9238-1.006 2.422-1.569 5.0864-1.569 7.9238v.0442c.002.0671.006.1342.006.201h3.126c.001-.0671.003-.1342.006-.201z"/><path d="m118.267 28.8428c.5-1.1592 1.092-2.2741 1.76-3.3381-.011-.0145-.02-.0314-.032-.0465-.672-.9381-1.429-1.8131-2.251-2.6285-.635.9648-1.212 1.9655-1.726 3.005.001 0 0 .0016 0 0-.02.0381-.037.0793-.055.1174.853.9001 1.616 1.8817 2.262 2.9349.006.0087.009.0175.015.0262.009-.0204.016-.0433.027-.0663 0-.0007 0-.0035 0-.0041z"/><path d="m122.315 22.4128c-.021.0233-.041.0518-.061.0762.796.9283 1.523 1.9099 2.181 2.9403.015.0232.028.0503.045.0753.011-.0145.02-.0314.031-.0465.674-.9381 1.431-1.8131 2.253-2.6285-.027-.0395-.049-.0817-.075-.1203-.62-.9382-1.297-1.833-2.024-2.6865-.834.7499-1.619 1.5486-2.35 2.39z"/><path d="m119.935 19.9069c.722-.8399 1.498-1.6386 2.319-2.3946-.037-.0328-.071-.0694-.106-.1023-5.312-4.8669-12.504-8.23929-20.444-8.41v3.4631c6.88.1746 13.281 3.2169 18.069 7.4932.024.0203.045.0456.07.0663.031-.0375.061-.0776.092-.1157z"/><path d="m126.267 28.9124c1.098 2.557 1.771 5.3173 1.899 8.2233.002.0479-.01-.1128-.01-.4558 0-2.5584.7-4.8813 1.916-6.8537 0-.0008.001-.0023.001-.0029-.006-.0204-.011-.0442-.018-.0663 0-.0029-.001-.0058-.002-.0058-.411-1.3131-.921-2.5813-1.509-3.7976-.853.9-1.615 1.8816-2.261 2.9341-.007.0088-.01.016-.016.0247z"/><path d="m128.156 36.6802c0 .3422.018.6791.042 1.016h.013 3.113.008c-.001-.1526-.006-.3041-.011-.4566-.003-.1302-.01-.2606-.016-.3902-.115-2.4464-.536-4.7998-1.232-7.026 0 .0008-.001.0023-.001.0029-1.215 1.9716-1.916 4.2955-1.916 6.8539z"/><path d="m128.489 25.8348c-.513-1.0395-1.09-2.0409-1.725-3.005-.822.8147-1.579 1.6903-2.254 2.6277-.01.0146-.019.032-.03.0465.667 1.064 1.26 2.1797 1.759 3.3389 0 .0008.002.0023.002.0029.009.0233.017.0442.026.0663.005-.0087.009-.0175.016-.0262.646-1.0525 1.408-2.0341 2.261-2.9342-.018-.038-.037-.0788-.055-.1169 0 .0015-.002 0 0 0z"/><path d="m122.193 22.4128c.021.0233.04.0518.061.0762.02-.0233.039-.0503.059-.0747.732-.8414 1.519-1.6416 2.352-2.3915-.031-.0372-.061-.077-.092-.1151-.723-.8399-1.5-1.6393-2.319-2.3954-.82.7561-1.597 1.5548-2.319 2.3947-.032.038-.061.0786-.092.1158.833.7499 1.619 1.5486 2.35 2.39z"/></g></svg>