<svg fill="none" height="100" viewBox="0 0 250 100" width="250" xmlns="http://www.w3.org/2000/svg"><path d="m172.614 60.7155c1.944 0 3.481.5786 4.844 1.649l-1.276 1.7357c-1.015-.8389-2.292-1.3018-3.626-1.3307-1.363 0-2.146.6943-2.146 1.5622 0 1.0414.609 1.4754 3.161 2.0829 2.814.6654 4.293 1.649 4.322 3.9344 0 2.459-1.972 3.9344-4.757 3.9344-2.059 0-4.031-.7521-5.54-2.1118l1.393-1.649c1.276 1.0704 2.552 1.7068 4.205 1.7068 1.422 0 2.35-.6653 2.35-1.6489s-.551-1.4754-3.017-2.0251c-2.871-.6654-4.438-1.5043-4.438-3.9344-.029-2.3723 1.886-3.9055 4.525-3.9055zm-75.4719.2025c3.0459 0 4.9599 1.5622 4.9599 4.1658 0 2.1408-1.305 3.4716-3.1036 3.9923l3.5676 4.9759h-2.7844l-3.2776-4.5709h-2.9296v4.5709h-2.3494v-13.1051h5.9171zm19.2599-.1157 5.859 13.2208h-2.466l-1.334-3.1244h-6.323l-1.334 3.1244h-2.408l5.859-13.2208zm14.821.0578 7.136 9.0839v-9.0839h2.262v13.163h-1.943l-7.367-9.3443v9.3443h-2.292v-13.163zm22.799 0c4.206 0 7.106 2.8641 7.048 6.567 0 3.6741-2.9 6.5671-7.048 6.5671h-4.989v-13.1341zm-75.6174 0c2.6685 0 4.3508 1.2729 4.3508 3.3559 0 1.62-.8992 2.459-1.8854 2.9797 1.5373.5497 2.6105 1.4176 2.6685 3.1823 0 2.3432-1.9723 3.6162-4.9599 3.6162h-6.1491v-13.1051zm0 7.5217h-3.7417v3.6162h3.9157c1.5953 0 2.5525-.6364 2.5525-1.8515 0-1.0993-.8702-1.7647-2.7265-1.7647zm75.6174-5.3809h-2.611v8.9392h2.611c2.813 0 4.641-1.8514 4.641-4.4262 0-2.6326-1.857-4.513-4.641-4.513zm-38.751.5208-2.263 5.2651h4.583zm-50.499 2.5168v1.9672h-26.772v-1.9672zm147.116 0v1.9672h-26.801v-1.9672zm-114.9489-3.0376h-3.3647v4.4262h3.3937c1.6533 0 2.7555-.8968 2.7555-2.2275-.029-1.4465-1.0442-2.1987-2.7845-2.1987zm-18.8826-.0578h-3.3646v3.5004h3.1906c1.5083 0 2.4945-.5786 2.4945-1.8225.029-1.0704-.8412-1.6779-2.3205-1.6779zm22.6825-36.8852c4.902 0 8.063 1.9961 10.181 4.918l-5.018 3.7898c-1.393-1.678-2.959-2.7773-5.25-2.7773-3.3359 0-5.7143 2.8062-5.7143 6.2777v.0579c0 3.5583 2.3784 6.3066 5.7143 6.3066 2.465 0 3.973-1.1282 5.395-2.8929l5.018 3.5005c-2.379 3.5004-6.41 5.5255-10.645 5.3519-6.6715.1447-12.2116-5.1494-12.3566-11.8032 0-.1158 0-.2604 0-.3761v-.0868c0-6.8563 5.424-12.2661 12.6756-12.2661zm100.707-.0579c4.089 0 7.251 1.0704 9.891 3.1533l-3.336 4.6577c-1.943-1.4465-4.293-2.2565-6.729-2.3433-1.625 0-2.379.6943-2.379 1.5333v.0867c0 1.0704.87 1.5622 4.177 2.3144 5.511 1.1861 8.963 2.9219 8.963 7.377v-.0289.3182c-.174 4.6577-4.032 7.406-9.717 7.406-4.293 0-8.325-1.3018-11.254-3.9344l3.712-4.3394c2.379 1.9093 5.018 2.864 7.803 2.864 1.769 0 2.755-.6075 2.755-1.6201v-.0868c0-1.0125-.812-1.5332-4.06-2.2565-5.134-1.0993-9.05-2.5458-9.05-7.4059v-.0868c-.058-4.4262 3.481-7.6085 9.224-7.6085zm-154.1933.4629c8.5566 0 13.5456 4.8601 13.5456 11.6875v.0868c0 6.8274-5.047 11.8901-13.6906 11.9479h-9.1077v-23.7222zm130.7853 0c3.684 0 6.207.9836 7.832 2.5747 1.45 1.4465 2.204 3.4426 2.117 5.4966v.0868c.087 3.2401-1.885 6.162-4.931 7.2613l5.714 8.2739h-7.686l-4.815-7.1456h-2.93v7.1456h-6.642v-23.7223zm-93.5423 0v5.5834h-12.7334v3.5583h10.268v5.2073h-10.268v3.732h12.8785v5.5834h-19.4917v-23.6644zm76.5453 0v5.5834h-12.733v3.5583h10.297v5.2073h-10.297v3.732h12.936v5.5834h-19.492v-23.6644zm-39.215 0v9.5757l8.266-9.5757h7.861l-10.587 11.8032 10.732 11.8612h-7.977l-8.266-9.5757v9.5757h-6.672v-23.6644zm-74.4862 5.8148h-2.6976v12.0636h2.7266c4.0027 0 6.6132-2.1697 6.6132-5.9884v-.0868c-.029-3.7897-2.6685-5.9884-6.6422-5.9884zm130.3792-.1446h-4.351v5.6991h4.409c2.234 0 3.568-1.0704 3.568-2.8062v-.0868c-.029-1.8804-1.392-2.8351-3.626-2.8061z" fill="#fff"/></svg>