<svg enable-background="new 0 0 334.6 78.1" viewBox="0 0 334.6 78.1" xmlns="http://www.w3.org/2000/svg"><g fill="#252b33"><path d="m32.5 47.1-6.1-22.9h-.1l-5.8 22.9h-9.7l-10.8-34.1h9.9l6.3 23.2h.1l5.7-23.2h9.1l5.8 23.1h.1l6.3-23.1h9.6l-10.7 34.1z"/><path d="m62.3 38.9c1.4 1.4 3.4 2 6.1 2 1.9 0 3.5-.5 4.9-1.4s2.2-1.9 2.5-3h8.2c-1.3 4.1-3.3 7-6.1 8.8-2.7 1.8-6 2.6-9.9 2.6-2.7 0-5.1-.4-7.3-1.3s-4-2.1-5.5-3.7-2.6-3.5-3.5-5.7c-.8-2.2-1.2-4.6-1.2-7.3 0-2.6.4-4.9 1.3-7.1.8-2.2 2-4.1 3.6-5.7 1.5-1.6 3.4-2.9 5.5-3.8s4.5-1.4 7.1-1.4c2.9 0 5.4.6 7.6 1.7s3.9 2.6 5.3 4.5 2.4 4 3 6.5c.6 2.4.8 4.9.7 7.6h-24.6c.1 3.2.9 5.4 2.3 6.7zm10.6-17.9c-1.1-1.2-2.8-1.8-5.1-1.8-1.5 0-2.7.3-3.7.8s-1.8 1.1-2.4 1.9c-.6.7-1 1.5-1.3 2.4-.2.7-.4 1.4-.4 2.1h15.2c-.4-2.4-1.2-4.2-2.3-5.4z"/><path d="m98.2 38.9c1.4 1.4 3.4 2 6.1 2 1.9 0 3.5-.5 4.9-1.4s2.2-1.9 2.5-3h8.2c-1.3 4.1-3.3 7-6.1 8.8-2.7 1.8-6 2.6-9.9 2.6-2.7 0-5.1-.4-7.3-1.3s-4-2.1-5.5-3.7-2.7-3.5-3.5-5.7-1.2-4.6-1.2-7.3c0-2.6.4-4.9 1.3-7.1.8-2.2 2-4.1 3.6-5.7 1.5-1.6 3.4-2.9 5.5-3.8s4.5-1.4 7.1-1.4c2.9 0 5.4.6 7.6 1.7s3.9 2.6 5.3 4.5 2.4 4 3 6.5c.6 2.4.8 4.9.7 7.6h-24.6c.1 3.2.9 5.4 2.3 6.7zm10.6-17.9c-1.1-1.2-2.8-1.8-5.1-1.8-1.5 0-2.7.3-3.7.8s-1.8 1.1-2.4 1.9c-.6.7-1 1.5-1.3 2.4-.2.8-.4 1.6-.4 2.2h15.2c-.4-2.5-1.2-4.3-2.3-5.5z"/><path d="m148.3 42.8c-1.1 1.8-2.5 3.2-4.3 4s-3.8 1.2-6 1.2c-2.6 0-4.8-.5-6.7-1.5s-3.5-2.3-4.8-4-2.2-3.6-2.8-5.8-1-4.5-1-6.9c0-2.3.3-4.5 1-6.6.6-2.1 1.6-4 2.8-5.6 1.3-1.6 2.8-2.9 4.7-3.9s4.1-1.5 6.6-1.5c2 0 3.9.4 5.8 1.3 1.8.9 3.3 2.1 4.3 3.8h.1v-17.3h9.4v47.1h-8.9v-4.4h-.2zm-.4-16.9c-.3-1.3-.7-2.4-1.4-3.4-.6-1-1.5-1.8-2.5-2.4s-2.3-.9-3.8-.9-2.8.3-3.9.9-1.9 1.4-2.5 2.4-1.1 2.2-1.4 3.5-.4 2.6-.4 4.1c0 1.3.2 2.6.5 4 .3 1.3.8 2.5 1.5 3.5s1.5 1.9 2.6 2.5c1 .6 2.3 1 3.7 1 1.5 0 2.8-.3 3.9-.9 1-.6 1.9-1.4 2.5-2.5.6-1 1.1-2.2 1.3-3.5.3-1.3.4-2.7.4-4.1-.1-1.5-.3-2.9-.5-4.2z"/><path d="m242.6 42.8c-1.1 1.8-2.5 3.2-4.3 4s-3.8 1.2-6 1.2c-2.6 0-4.8-.5-6.7-1.5s-3.5-2.3-4.8-4-2.2-3.6-2.8-5.8-1-4.5-1-6.9c0-2.3.3-4.5 1-6.6.6-2.1 1.6-4 2.8-5.6 1.3-1.6 2.8-2.9 4.7-3.9s4.1-1.5 6.6-1.5c2 0 3.9.4 5.8 1.3 1.8.9 3.3 2.1 4.3 3.8h.1v-4.3h9.4v34.3h-8.9v-4.4h-.2zm-.4-16.9c-.3-1.3-.7-2.4-1.4-3.4-.6-1-1.5-1.8-2.5-2.4s-2.3-.9-3.8-.9-2.8.3-3.9.9-1.9 1.4-2.5 2.4-1.1 2.2-1.4 3.5-.4 2.6-.4 4.1c0 1.3.2 2.6.5 4 .3 1.3.8 2.5 1.5 3.5s1.5 1.9 2.6 2.5c1 .6 2.3 1 3.7 1 1.5 0 2.8-.3 3.9-.9 1-.6 1.9-1.4 2.5-2.5.6-1 1.1-2.2 1.3-3.5.3-1.3.4-2.7.4-4.1-.1-1.5-.2-2.9-.5-4.2z"/><path d="m171.5 13v4.6h.1c1.2-1.8 2.7-3.1 4.5-4.1 1.7-1 3.7-1.5 6-1.5 2.2 0 4.1.4 5.9 1.3 1.8.8 3.1 2.3 4.1 4.4 1-1.5 2.4-2.8 4.1-4 1.7-1.1 3.8-1.7 6.2-1.7 1.8 0 3.5.2 5 .7 1.5.4 2.9 1.1 4 2.1s2 2.2 2.6 3.8.9 3.4.9 5.6v22.8h-9.4v-19.2c0-1.1 0-2.2-.1-3.2s-.3-1.9-.7-2.6-1-1.3-1.8-1.8c-.8-.4-1.8-.7-3.1-.7s-2.4.3-3.2.8-1.5 1.2-1.9 2c-.5.8-.8 1.7-.9 2.8-.2 1-.2 2.1-.2 3.1v19h-9.6v-19.2c0-1 0-2-.1-3 0-1-.2-1.9-.6-2.7-.3-.8-.9-1.5-1.7-2s-1.9-.8-3.4-.8c-.4 0-1 .1-1.7.3s-1.4.6-2.1 1.1-1.3 1.3-1.7 2.4c-.5 1-.7 2.4-.7 4.1v19.8h-9.4v-34.2z"/><path d="m265 13v4.4h.1c1.1-1.8 2.6-3.2 4.4-4s3.7-1.3 5.8-1.3c2.7 0 5 .5 6.9 1.5s3.5 2.4 4.8 4c1.3 1.7 2.2 3.6 2.8 5.8s.9 4.5.9 7c0 2.3-.3 4.5-.9 6.6s-1.6 4-2.8 5.6c-1.3 1.6-2.8 2.9-4.7 3.9s-4.1 1.5-6.6 1.5c-2.1 0-4.1-.4-5.8-1.3-1.8-.9-3.2-2.1-4.4-3.8h-.1v16.2h-9.4v-46.1zm12.2 27.1c1-.6 1.9-1.4 2.5-2.4s1.1-2.1 1.4-3.5c.3-1.3.4-2.7.4-4 0-1.4-.1-2.7-.4-4s-.8-2.5-1.4-3.5c-.7-1-1.5-1.9-2.5-2.5s-2.3-1-3.8-1-2.8.3-3.9 1c-1 .6-1.9 1.5-2.5 2.5s-1.1 2.2-1.4 3.5-.4 2.7-.4 4.1.1 2.7.4 4 .7 2.5 1.4 3.5c.6 1 1.5 1.8 2.5 2.4 1.1.6 2.3.9 3.8.9 1.6-.1 2.9-.4 3.9-1z"/><path d="m302.3 38.6c.4.7 1 1.3 1.6 1.8.7.5 1.4.8 2.3 1s1.7.3 2.7.3c.7 0 1.4-.1 2.1-.2.7-.2 1.4-.4 2-.7s1.1-.8 1.5-1.3.6-1.2.6-2.1c0-1.4-.9-2.5-2.8-3.2s-4.5-1.4-7.8-2.1c-1.4-.3-2.7-.7-4-1.1s-2.5-1-3.5-1.7-1.8-1.5-2.4-2.6c-.6-1-.9-2.3-.9-3.8 0-2.2.4-4 1.3-5.4s2-2.5 3.4-3.3 3-1.4 4.7-1.7c1.8-.3 3.6-.5 5.4-.5s3.6.2 5.4.5c1.7.4 3.3.9 4.7 1.8 1.4.8 2.5 1.9 3.4 3.3s1.4 3.1 1.6 5.2h-8.9c-.1-1.8-.8-3-2-3.7-1.2-.6-2.7-1-4.4-1-.5 0-1.1 0-1.7.1s-1.2.2-1.7.4-.9.5-1.3 1c-.4.4-.5 1-.5 1.7 0 .8.3 1.5.9 2s1.4 1 2.4 1.3 2.1.6 3.4.9 2.6.6 3.9.9c1.4.3 2.7.7 4 1.1s2.5 1 3.5 1.8c1 .7 1.8 1.6 2.4 2.7s.9 2.4.9 4c0 2.2-.5 4.1-1.4 5.6s-2.1 2.7-3.5 3.7c-1.5.9-3.1 1.6-5 1.9-1.9.4-3.8.6-5.7.6-2 0-3.9-.2-5.8-.6s-3.6-1.1-5-2c-1.5-.9-2.7-2.1-3.6-3.7-.9-1.5-1.5-3.4-1.6-5.7h8.9c-.1 1.2.1 2.1.5 2.8z"/><path d="m162.1 67.1c20.3 0 30.5-7.7 30.5-7.7l4.4 5.9s-15.1 12.8-34.9 12.8c-19.7 0-34.9-12.8-34.9-12.8l4.4-5.9s10.3 7.7 30.5 7.7z"/><path d="m330 12.1c.8 0 1.6.2 2.3.6s1.3 1 1.7 1.7.6 1.5.6 2.4c0 .8-.2 1.6-.6 2.3s-1 1.3-1.7 1.7-1.5.6-2.3.6-1.6-.2-2.3-.6-1.3-1-1.7-1.7-.6-1.5-.6-2.3.2-1.6.6-2.4c.4-.7 1-1.3 1.7-1.7s1.5-.6 2.3-.6zm0 .9c-.6 0-1.3.2-1.8.5-.6.3-1.1.8-1.4 1.4s-.5 1.2-.5 1.9.2 1.3.5 1.9.8 1.1 1.4 1.4 1.2.5 1.9.5 1.3-.2 1.9-.5 1.1-.8 1.4-1.4.5-1.2.5-1.9-.2-1.3-.5-1.9-.8-1.1-1.4-1.4c-.8-.4-1.4-.5-2-.5zm-2.1 6.2v-5h1 1.6c.3 0 .6.1.8.2s.3.3.5.5c.1.2.2.5.2.7 0 .4-.1.7-.4.9-.2.3-.6.4-1 .5.2.1.3.1.3.2.1.1.2.2.3.4 0 0 .2.3.4.6l.6 1h-1.2l-.4-.8c-.3-.5-.5-.9-.7-1s-.4-.2-.7-.2h-.3v2zm1-2.8h.4c.6 0 .9 0 1.1-.1.1 0 .3-.1.3-.2.1-.1.1-.2.1-.4 0-.1 0-.3-.1-.4s-.2-.2-.3-.2-.5-.1-1.1-.1h-.4z"/></g></svg>