<svg enable-background="new 0 0 157 75" viewBox="0 0 157 75" xmlns="http://www.w3.org/2000/svg"><g fill="#666"><path d="m92.9 40.7-.8-4.5c-.2-1.3-.5-3.3-.7-4.7h-.1c-.2 1.4-.5 3.5-.8 4.7l-.8 4.5zm-3.6 3-1 5h-3.6l4.5-20.7h4.5l4.1 20.7h-3.7l-1-5z"/><path d="m106.1 39.4c0-.3 0-.6-.1-.9-.1-1-.7-1.9-1.6-1.9-1.5 0-2.1 2.2-2.1 4.7 0 2.9.8 4.6 2 4.6.6 0 1.2-.3 1.5-1.5.1-.2.1-.6.1-.9v-4.1zm3.8-12v17c0 1.3.1 3 .1 4.3h-3.2l-.2-1.7h-.1c-.5 1.1-1.7 2-3.1 2-3.1 0-4.6-3.4-4.6-7.7 0-5.2 2.3-7.8 4.8-7.8 1.3 0 2.1.6 2.6 1.6h.1v-7.6z"/><path d="m117.6 46c1.4 0 1.8-2.7 1.8-4.9 0-2.1-.4-4.9-1.8-4.9-1.6 0-1.9 2.8-1.9 4.9 0 2.6.4 4.9 1.9 4.9zm0 2.9c-3.4 0-5.6-2.8-5.6-7.7 0-5.4 2.8-7.8 5.7-7.8 3.4 0 5.5 2.9 5.5 7.7 0 6.2-3.4 7.8-5.6 7.8z"/><path d="m129 43.3c0 .4.1.7.1 1 .4 1.3 1 1.6 1.5 1.6 1.4 0 2-1.8 2-4.8 0-2.7-.6-4.5-2-4.5-.7 0-1.3.8-1.5 1.6-.1.3-.1.7-.1.9zm-3.7-15.9h3.7v7.8h.1c.7-1.2 1.7-1.8 3.1-1.8 2.8 0 4.2 3.2 4.2 7.4 0 5.3-2.1 8.1-4.8 8.1-1.3 0-2.2-.6-3-2h-.1l-.2 1.8h-3.2c.1-1.2.1-2.9.1-4.3v-17z"/><path d="m145.4 39.7c0-2.1-.6-3.6-1.8-3.6-1.4 0-1.9 2-2 3.6zm-3.8 2.6c0 2.7 1.5 3.6 3.2 3.6 1.1 0 2.1-.2 2.8-.5l.5 2.7c-1 .4-2.5.7-4 .7-4 0-6.2-2.7-6.2-7.4 0-5 2.5-8 5.9-8 3.2 0 5 2.7 5 7 0 1 0 1.6-.1 2z"/><path d="m50.3 8.3h23.9v57.2z"/><path d="m33.5 8.3h-23.9v57.2z"/><path d="m31.5 54 10.4-24.6 15.2 36.1h-9.9l-4.6-11.5z"/></g></svg>