<svg height="159" viewBox="0 0 500 159" width="500" xmlns="http://www.w3.org/2000/svg" xmlns:xlink="http://www.w3.org/1999/xlink"><clipPath id="a"><path d="m0 0h500v159h-500z"/></clipPath><g clip-path="url(#a)"><path d="m0 0h500v159h-500z" fill="#fff"/><path d="m324.221 104.842a3.836 3.836 0 1 1 2.623-7.209 8.013 8.013 0 1 0 -5.472 15.062l39.366 14.315-33.893 12.335a8.013 8.013 0 1 1 -5.472-15.062 12.189 12.189 0 1 0 8.322 22.914l36.986-13.464a7.155 7.155 0 0 0 0-13.446zm0 0" fill="#636363" transform="translate(61.667 -38.985)"/><path d="m360.738 117.432-33.894-12.332a8 8 0 1 0 -5.472 15.045 12.184 12.184 0 1 1 8.339-22.9l36.968 13.464a7.155 7.155 0 0 1 0 13.446l-42.458 15.445a3.836 3.836 0 0 0 2.624 7.21 8 8 0 1 1 -5.472-15.045l39.366-14.332" fill="#a0a0a0" transform="translate(61.666 -46.45)"/><path d="m301.293 117.766h-5.681v9.781h5.994c3.474 0 5.368-1.824 5.368-4.969 0-2.832-2.05-4.812-5.681-4.812m-1.043-13.412h-4.639v8.2h4.9c3.318 0 4.812-1.65 4.812-4.274 0-2.536-1.894-3.926-5.073-3.926m-11.344-5.316h11.694c7.018 0 11.744 2.814 11.744 8.53 0 3.787-2.745 6.324-6.08 7.105v.1c5.177.695 7.852 4.378 7.852 8.408 0 6.254-5.055 9.729-11.813 9.729h-13.397zm86.794 19.024h11.136a5.592 5.592 0 0 0 -11.136 0m17.737 2.78a12.78 12.78 0 0 1 -.088 1.789h-17.7a6.215 6.215 0 0 0 6.167 6.115 5.433 5.433 0 0 0 4.778-2.484l5.524 2.015c-1.859 3.11-5.177 5.49-10.354 5.49-7.105 0-12.665-5.16-12.665-12.925 0-6.81 4.465-12.526 12.213-12.526 7.852 0 12.126 5.872 12.126 12.526m182.562-5.317a2.682 2.682 0 0 0 -2.728-2.675 2.191 2.191 0 0 0 -2.432 2.085c0 1.338.73 2.189 4.76 3.579 5.02 1.633 6.862 4.169 6.862 7.592 0 4.378-3.335 7.661-9.19 7.661-6.063 0-8.947-3.179-9.207-7.8h6.011c.156 1.876 1.146 3.231 3.336 3.231a2.527 2.527 0 0 0 2.728-2.536c0-1.65-1.129-2.641-4.708-3.822-4.482-1.442-6.81-3.683-6.81-7.418 0-4.274 3.474-7.105 8.6-7.105 5.264 0 8.2 3.04 8.687 7.21zm-31.6 2.536h11.136a5.592 5.592 0 0 0 -11.136 0m17.755 2.78a11.226 11.226 0 0 1 -.1 1.789h-17.683a6.211 6.211 0 0 0 6.15 6.115 5.434 5.434 0 0 0 4.778-2.484l5.525 2.015c-1.859 3.11-5.16 5.49-10.354 5.49-7.105 0-12.664-5.16-12.664-12.925 0-6.81 4.465-12.526 12.23-12.526 7.852 0 12.126 5.872 12.126 12.526m-50.38-23.7h6.706v14.959h.192a7.992 7.992 0 0 1 7.018-3.735c5.316 0 9.034 3.527 9.034 10.893v13.655h-6.706v-13.253c0-3.544-1.685-5.368-4.465-5.368-2.936 0-5.073 2.033-5.073 6.063v12.56h-6.708zm-17.083 30.459c3.318 0 6.045-2.728 6.045-6.654 0-4.083-2.623-6.758-6.011-6.758-4.013 0-6.1 3.37-6.1 6.706 0 3.283 1.876 6.706 6.063 6.706m12.369 4.569c0 8.86-3.978 13.533-12.768 13.533-5.785 0-9.868-2.727-11.431-7.314l6.15-2.241c.5 2.293 2.189 4.083 5.681 4.083 4.013 0 6.1-2.536 6.1-7.158v-3.04h-.139a9.4 9.4 0 0 1 -7.609 3.44c-6.15 0-11.223-4.829-11.223-12.525 0-7.157 4.916-12.578 11.518-12.578a8.464 8.464 0 0 1 7.215 3.631h.243v-2.884h6.271zm-28.716.747h-6.65v-2.971h-.156a7.922 7.922 0 0 1 -6.949 3.77c-3.874 0-8.651-2.38-8.651-10.475v-14.125h6.706v13.273c0 3.474 1.651 5.368 4.239 5.368 2.918 0 4.76-2.033 4.76-6.011v-12.63h6.706zm-33.842-14.4h-13.04v14.4h-7.105v-33.877h7.105v13.307h13.047v-13.307h7.106v33.876h-7.106zm-31.652-3.631a16.739 16.739 0 0 0 -3.179-.3c-3.978 0-5.959 2.484-5.959 6.758v11.57h-6.718v-23.8h6.567v3.687h.156a8.1 8.1 0 0 1 6.949-4.378 8.7 8.7 0 0 1 2.189.209zm-57.677 8.252-1.529 1.494v8.287h-6.706v-35.773h6.706v20.03l7.54-8.061h8.165l-9.538 9.8 10.979 14h-8.106zm-25.468 4.76c3.179 0 5.959-2.78 5.959-6.793 0-4.187-2.588-6.914-5.907-6.914-4.187 0-6.167 3.422-6.167 6.862 0 3.474 1.946 6.845 6.115 6.845m12.317 5.021h-6.463v-2.971h-.191a9.145 9.145 0 0 1 -7.748 3.77c-4.621 0-10.84-3.718-10.84-12.717 0-7.661 5.264-12.526 11.327-12.526a8.351 8.351 0 0 1 7.262 3.735h.191v-3.092h6.463zm0 0" fill="#636363" transform="translate(-221.961 -39.002)"/></g></svg>