<svg xmlns="http://www.w3.org/2000/svg" xmlns:xlink="http://www.w3.org/1999/xlink" width="500" height="159" viewBox="0 0 500 159">
  <defs>
    <clipPath id="clip-Deckers_Brands">
      <rect width="500" height="159"/>
    </clipPath>
  </defs>
  <g id="Deckers_Brands" data-name="Deckers Brands" clip-path="url(#clip-Deckers_Brands)">
    <rect width="500" height="159" fill="#fff"/>
    <path id="deckers-brands-logo-vector" d="M91.607,225.084a12.372,12.372,0,0,1,8.014,2.735L97.509,230.7a9.706,9.706,0,0,0-6-2.207c-2.255,0-3.551,1.152-3.551,2.591,0,1.728,1.008,2.447,5.231,3.455,4.655,1.1,7.1,2.735,7.15,6.526,0,4.079-3.263,6.526-7.87,6.526a13.65,13.65,0,0,1-9.165-3.5l2.3-2.735a10.359,10.359,0,0,0,6.958,2.831c2.351,0,3.887-1.1,3.887-2.735s-.912-2.447-4.991-3.359c-4.751-1.1-7.342-2.5-7.342-6.526C84.073,227.627,87.24,225.084,91.607,225.084Zm-124.862.336c5.039,0,8.206,2.591,8.206,6.91a6.6,6.6,0,0,1-5.135,6.622l5.9,8.254h-4.607l-5.423-7.582h-4.847v7.582h-3.887V225.468h9.789Zm31.863-.192L8.3,247.158H4.223l-2.207-5.183H-8.446l-2.207,5.183h-3.983l9.693-21.93Zm24.521.1,11.8,15.068V225.324h3.743v21.834H35.462l-12.189-15.5v15.5H19.482V225.324Zm37.718,0c6.958,0,11.757,4.751,11.661,10.893,0,6.094-4.8,10.893-11.661,10.893H52.593V225.324Zm-125.1,0c4.415,0,7.2,2.111,7.2,5.566a5.25,5.25,0,0,1-3.119,4.943c2.543.912,4.319,2.351,4.415,5.279,0,3.887-3.263,6-8.206,6H-74.14V225.372Zm0,12.477h-6.19v6h6.478c2.639,0,4.223-1.056,4.223-3.071C-59.744,238.9-61.183,237.8-64.254,237.8Zm125.1-8.926H56.528V243.7h4.319c4.655,0,7.678-3.071,7.678-7.342C68.525,231.994,65.454,228.875,60.847,228.875Zm-64.11.864-3.743,8.734H.576Zm-83.545,4.175v3.263H-131.1v-3.263Zm243.389,0v3.263h-44.34v-3.263Zm-190.171-5.039h-5.566v7.342h5.614c2.735,0,4.559-1.488,4.559-3.7C-29.032,230.123-30.712,228.875-33.591,228.875Zm-31.239-.1H-70.4v5.806h5.279c2.5,0,4.127-.96,4.127-3.023C-60.943,229.787-62.383,228.779-64.83,228.779ZM-27.3,167.6c8.11,0,13.34,3.311,16.843,8.158l-8.3,6.286c-2.3-2.783-4.895-4.607-8.686-4.607-5.518,0-9.453,4.655-9.453,10.413v.1c0,5.9,3.935,10.461,9.453,10.461,4.079,0,6.574-1.871,8.926-4.8l8.3,5.806a20.278,20.278,0,0,1-17.611,8.878A20.034,20.034,0,0,1-48.275,188.71v-.768C-48.275,176.569-39.3,167.6-27.3,167.6Zm166.61-.1c6.766,0,12,1.775,16.363,5.231l-5.518,7.726a19.776,19.776,0,0,0-11.133-3.887c-2.687,0-3.935,1.152-3.935,2.543v.144c0,1.775,1.44,2.591,6.91,3.839,9.117,1.967,14.828,4.847,14.828,12.237v.48c-.288,7.726-6.67,12.285-16.076,12.285-7.1,0-13.772-2.159-18.619-6.526l6.142-7.2a20.271,20.271,0,0,0,12.908,4.751c2.927,0,4.559-1.008,4.559-2.687v-.144c0-1.68-1.344-2.543-6.718-3.743-8.494-1.823-14.972-4.223-14.972-12.285v-.144c-.1-7.342,5.758-12.62,15.26-12.62Zm-255.1.768c14.156,0,22.41,8.062,22.41,19.387v.144a19.533,19.533,0,0,1-3.538,11.42c-3.392,4.951-10.06,8.338-19.112,8.4H-131.1V168.268Zm216.372,0c6.094,0,10.269,1.632,12.956,4.271a12.138,12.138,0,0,1,3.5,9.117v.144a12.406,12.406,0,0,1-8.158,12.045l9.453,13.724H105.619l-7.966-11.853H92.806v11.853H81.817V168.22Zm-154.757,0v9.261H-75.243v5.9h16.987v8.638H-75.243v6.19h21.306v9.261H-86.184V168.268Zm126.637,0v9.261H51.394v5.9H68.429v8.638H51.394v6.19H72.8v9.261H40.549V168.268Zm-64.878,0v15.884l13.676-15.884h13L16.747,187.846,34.5,207.521h-13.2L7.63,191.637v15.884H-3.407V168.268Zm-123.23,9.645h-4.463v20.01h4.511c6.622,0,10.941-3.6,10.941-9.933v-.144C-104.707,181.56-109.074,177.913-115.648,177.913Zm215.7-.24h-7.2v9.453h7.294c3.695,0,5.9-1.776,5.9-4.655v-.144c-.048-3.119-2.3-4.7-6-4.655Z" transform="translate(237.138 -128.045)" fill="#636363"/>
  </g>
</svg>
