<svg enable-background="new 0 0 157 75" viewBox="0 0 157 75" xmlns="http://www.w3.org/2000/svg"><g clip-rule="evenodd" fill-rule="evenodd"><path d="m70.2 9.3c3.3-3.4 7.9-5.5 12.9-5.5 6.7 0 12.6 3.7 15.7 9.3 2.8-1.2 5.8-1.9 8.9-1.9 12.1 0 22 9.9 22 22.2s-9.9 22.2-22 22.2c-1.5 0-2.9-.1-4.3-.4-2.7 4.9-8 8.2-14 8.2-2.4 0-4.8-.6-7-1.6-2.8 6.6-9.3 11.2-16.9 11.2-7.9 0-14.6-5-17.2-12-1.2.2-2.3.4-3.5.4-9.4-.1-17.1-7.8-17.1-17.3 0-6.4 3.4-11.9 8.5-14.9-1.1-2.5-1.6-5.2-1.6-7.9 0-10.9 8.8-19.7 19.8-19.7 6.4-.1 12.1 2.9 15.8 7.7" fill="#666"/><g fill="#fffffe"><path d="m42.5 38.5c-.1.1 0 .2 0 .2.2.1.4.2.6.3 1 .6 2 .7 3 .7 2.1 0 3.4-1.1 3.4-2.9 0-1.6-1.5-2.2-2.8-2.7l-.2-.1c-1-.3-1.9-.6-1.9-1.3 0-.6.5-1 1.3-1 .9 0 2 .3 2.7.7 0 0 .2.1.3-.1 0-.1.4-1 .4-1.2 0-.1 0-.2-.1-.2-.8-.5-1.9-.8-3-.8h-.2c-1.9 0-3.3 1.2-3.3 2.8 0 1.8 1.5 2.3 2.8 2.7l.2.1c1 .3 1.9.6 1.9 1.3 0 .6-.6 1.1-1.5 1.1-.3 0-1.5 0-2.7-.8-.1-.1-.2-.1-.3-.2-.1 0-.2-.1-.3.1zm30.6 0c-.1.1 0 .2 0 .2l.6.3c1 .6 2 .7 3 .7 2.1 0 3.4-1.1 3.4-2.9 0-1.6-1.5-2.2-2.8-2.7l-.2-.1c-1-.3-1.9-.6-1.9-1.3 0-.6.5-1 1.3-1 .9 0 2 .3 2.7.7 0 0 .2.1.3-.1 0-.1.4-1 .4-1.2 0-.1 0-.2-.1-.2-.8-.5-1.9-.8-3-.8h-.2c-1.9 0-3.3 1.2-3.3 2.8 0 1.8 1.5 2.3 2.8 2.7l.2.1c1 .3 1.9.6 1.9 1.3 0 .6-.6 1.1-1.5 1.1-.3 0-1.5 0-2.7-.8-.1-.1-.2-.1-.3-.2 0 0-.2-.1-.3.1zm20.9-3.5c0 1-.2 1.8-.6 2.4s-.9.8-1.7.8c-.7 0-1.3-.3-1.7-.8-.4-.6-.6-1.3-.6-2.4 0-1 .2-1.8.6-2.4s.9-.8 1.7-.8 1.3.3 1.7.8c.4.6.6 1.4.6 2.4m1.8-1.9c-.2-.6-.4-1.1-.8-1.5s-.8-.8-1.3-1c-.5-.3-1.2-.4-1.9-.4s-1.3.1-1.9.4c-.5.3-1 .6-1.3 1s-.6.9-.8 1.5-.3 1.2-.3 1.9.1 1.3.3 1.9.4 1.1.8 1.5.8.8 1.3 1 1.2.4 1.9.4 1.3-.1 1.9-.4c.5-.2 1-.6 1.3-1s.6-.9.8-1.5.3-1.2.3-1.9-.2-1.3-.3-1.9m14.3 4.9c-.1-.2-.2-.1-.2-.1-.3.1-.5.2-.8.2s-.6.1-1 .1c-.9 0-1.5-.3-2-.7-.5-.5-.7-1.3-.7-2.4 0-1 .2-1.7.7-2.3.4-.6 1.1-.9 1.9-.9.7 0 1.3.1 1.8.3 0 0 .1.1.2-.1.1-.4.3-.7.4-1.2 0-.1-.1-.2-.1-.2-.2-.1-.7-.2-1.2-.3-.4-.1-.8-.1-1.3-.1-.7 0-1.4.1-1.9.4-.6.3-1 .6-1.4 1s-.7.9-.9 1.5-.3 1.2-.3 1.9c0 1.5.4 2.6 1.2 3.5s1.9 1.3 3.4 1.3c.9 0 1.8-.2 2.5-.4 0 0 .1-.1.1-.2zm3-4c.1-.6.2-1 .5-1.4.4-.6.9-.9 1.7-.9s1.3.3 1.6.9c.2.4.3.9.4 1.4zm5.9-1.2c-.1-.6-.5-1.1-.7-1.4-.4-.4-.7-.7-1.1-.9-.5-.2-1.1-.3-1.7-.3-.7 0-1.4.1-1.9.4-.6.3-1 .6-1.3 1-.4.4-.6.9-.8 1.5s-.3 1.2-.3 1.9.1 1.3.3 1.9.4 1.1.9 1.5c.4.4.9.7 1.5 1 .6.2 1.3.3 2.1.3 1.7 0 2.6-.4 3-.6.1 0 .1-.1 0-.3l-.4-1.1c-.1-.1-.2-.1-.2-.1-.4.1-1 .4-2.4.4-.9 0-1.6-.3-2-.7s-.6-1.1-.7-1.9h5.9s.1 0 .2-.1c-.2 0 0-1.2-.4-2.5zm-53.2 1.2c.1-.6.2-1 .5-1.4.4-.6.9-.9 1.7-.9s1.3.3 1.6.9c.3.4.4.9.4 1.4zm5.9-1.2c-.1-.6-.5-1.1-.7-1.4-.4-.4-.7-.7-1.1-.9-.5-.2-1.1-.3-1.7-.3-.7 0-1.4.1-1.9.4-.6.3-1 .6-1.3 1-.4.4-.6.9-.8 1.5s-.3 1.2-.3 1.9.1 1.3.3 1.9.4 1.1.9 1.5c.4.4.9.7 1.5 1 .6.2 1.3.3 2.1.3 1.7 0 2.6-.4 3-.6.1 0 .1-.1 0-.3l-.4-1.1c-.1-.1-.2-.1-.2-.1-.4.1-1 .4-2.4.4-.9 0-1.6-.3-2-.7s-.6-1.1-.7-1.9h5.9s.1 0 .2-.1c-.2 0 0-1.2-.4-2.5zm-18.7 5.1c-.2-.2-.3-.2-.3-.3-.1-.2-.2-.4-.2-.8 0-.5.2-.9.5-1.2 0 0 .5-.4 1.7-.4.5 0 1.1 0 1.6.1v2.7s-.7.1-1.6.2c-1.1.1-1.7-.3-1.7-.3zm2.4-4.1c-.2 0-.6 0-.9 0-.5 0-1 .1-1.5.2-.4.1-.9.3-1.2.6s-.6.6-.9 1-.3.9-.3 1.3c0 .5.1 1 .3 1.3s.4.7.8.9c.3.2.7.4 1.2.5.4.1 1 .1 1.6.1s1.2 0 1.8-.1l1.5-.3c.2 0 .4-.1.4-.1.1 0 .1-.2.1-.2v-5.4c0-1.2-.3-2.1-.9-2.6s-1.5-.8-2.7-.8c-.4 0-1.2.1-1.6.1 0 0-1.3.3-1.8.7 0 0-.1.1 0 .2l.4 1.1c0 .1.2.1.2.1s0 0 .1 0c1.1-.6 2.6-.6 2.6-.6.6 0 1.1.1 1.5.4.3.3.5.6.5 1.4v.3c-.7-.1-1.2-.1-1.2-.1zm47.7-3.1c0-.1 0-.2-.1-.2-.1 0-.6-.1-1-.1-.7 0-1.2.1-1.5.3-.4.1-.8.4-1 .7v-.7c0-.1-.1-.2-.2-.2h-1.5c-.1 0-.2.1-.2.2v8.8c0 .1.1.2.2.2h1.5c.1 0 .2-.1.2-.2v-4.5c0-.6.1-1.2.2-1.5.1-.4.3-.7.5-.9s.4-.3.7-.4.5-.1.8-.1.6.1.6.1c.1 0 .2-.1.2-.1.2-.4.5-1.2.6-1.4"/><path d="m88.5 26.6c-.2-.1-.4-.1-.6-.1-.3 0-.5-.1-.8-.1-1.1 0-1.9.3-2.5.9s-1 1.5-1.2 2.7l-.1.4h-1.3s-.1 0-.2.2l-.2 1.2c0 .1 0 .2.2.2h1.3l-1.3 7.4c-.1.6-.2 1.1-.3 1.5s-.3.6-.4.8-.3.3-.5.4-.4.1-.7.1c-.1 0-.3 0-.5 0-.1 0-.2-.1-.3-.1 0 0-.1-.1-.2.1 0 .1-.4 1.1-.4 1.2s0 .2.1.2c.2.1.3.1.5.1.3.1.6.1.9.1.6 0 1-.1 1.5-.2.4-.1.8-.4 1.1-.7.3-.4.6-.8.8-1.3s.4-1.2.5-2l1.3-7.5h1.9s.1 0 .2-.2l.2-1.2c0-.1 0-.2-.2-.2h-1.9s.1-.7.3-1.3c.1-.3.3-.5.4-.6s.3-.3.5-.3c.2-.1.4-.1.6-.1h.5c.2 0 .3.1.3.1.2.1.2 0 .3-.1l.4-1.2c-.1-.3-.2-.4-.2-.4m-26.4 12.8c0 .1-.1.2-.2.2h-1.6c-.1 0-.2-.1-.2-.2v-12.6c0-.1.1-.2.2-.2h1.6c.1 0 .2.1.2.2z"/></g></g></svg>