<svg height="62.533" viewBox="0 0 44.221 62.533" width="44.221" xmlns="http://www.w3.org/2000/svg"><g fill="#007fff" transform="translate(-451.632 -613.984)"><path d="m494.135 628.9h-24.374a1.719 1.719 0 0 0 -1.718 1.718v21.282h-14.705v-36.21h24.4v9.147a.853.853 0 0 0 1.705 0v-10a.854.854 0 0 0 -.854-.854h-26.1a.856.856 0 0 0 -.854.854v45.908a.855.855 0 0 0 .854.851h15.187c.135 0 .37-.015.37-.015v13.219a1.719 1.719 0 0 0 1.718 1.721h24.374a1.719 1.719 0 0 0 1.718-1.721v-44.179a1.719 1.719 0 0 0 -1.721-1.721zm.012 1.706v36.21h-24.4v-36.21zm-40.809 29.294v-6.29h14.706v2.277h-4.362a.853.853 0 1 0 0 1.705h4.362v2.331zm16.412 14.917v-6.287h24.4v6.287z"/><path d="m465.376 632.873h-3.715a.853.853 0 0 0 0 1.706h3.715a.853.853 0 1 0 0-1.706z" transform="translate(18.429 37.929)"/></g></svg>